<?xml version="1.0" encoding="UTF-8" standalone="no"?>
<svg width="41px" height="41px" viewBox="0 0 41 41" version="1.1" xmlns="http://www.w3.org/2000/svg" xmlns:xlink="http://www.w3.org/1999/xlink">
    <!-- Generator: Sketch 41 (35326) - http://www.bohemiancoding.com/sketch -->
    <title>airplane</title>
    <desc>Created with Sketch.</desc>
    <defs></defs>
    <g id="All" stroke="none" stroke-width="1" fill="none" fill-rule="evenodd">
        <g id="airplane" fill="#000000">
            <path d="M34,7.54 C34.0016688,7.5166965 34.0016688,7.4933035 34,7.47 C34.0041287,7.43344956 34.0041287,7.39655044 34,7.36 C33.9790475,7.30509984 33.9485813,7.2543229 33.91,7.21 C33.8816776,7.17200648 33.8479935,7.13832241 33.81,7.11 C33.7585056,7.06094954 33.6971401,7.02344837 33.63,7 L33.46,7 C33.4037488,6.99029604 33.3462512,6.99029604 33.29,7 L6.29,19.63 C6.11750484,19.7135432 6.00794495,19.8883387 6.00794495,20.08 C6.00794495,20.2716613 6.11750484,20.4464568 6.29,20.53 L15.72,25.25 L20.44,34.68 C20.5241267,34.8516955 20.6988024,34.9603826 20.89,34.96 C21.0834752,34.9585417 21.2587436,34.8455909 21.34,34.67 L34,7.71 C34.009704,7.65374878 34.009704,7.59625122 34,7.54 L34,7.54 Z M31.13,9.16 L16.13,24.16 L15.93,24.36 L7.65,20.14 L31.13,9.16 Z M20.86,33.35 L16.69,25 L16.89,24.8 L31.89,9.8 L20.86,33.35 Z" id="Shape"></path>
        </g>
    </g>
</svg>