<?xml version="1.0" encoding="UTF-8" standalone="no"?>
<svg width="41px" height="41px" viewBox="0 0 41 41" version="1.1" xmlns="http://www.w3.org/2000/svg" xmlns:xlink="http://www.w3.org/1999/xlink">
    <!-- Generator: Sketch 41 (35326) - http://www.bohemiancoding.com/sketch -->
    <title>book</title>
    <desc>Created with Sketch.</desc>
    <defs></defs>
    <g id="All" stroke="none" stroke-width="1" fill="none" fill-rule="evenodd">
        <g id="book" fill="#000000">
            <path d="M29.5,9 L11.5,9 C11.2238576,9 11,9.22385763 11,9.5 L11,32.26 C11,32.5361424 11.2238576,32.76 11.5,32.76 L29.5,32.76 C29.7761424,32.76 30,32.5361424 30,32.26 L30,9.5 C30,9.22385763 29.7761424,9 29.5,9 L29.5,9 Z M12,10 L14.13,10 L14.13,31.76 L12,31.76 L12,10 L12,10 Z M29,31.76 L15.13,31.76 L15.13,10 L29,10 L29,31.76 L29,31.76 Z" id="Shape"></path>
            <path d="M17.37,15.14 L26.76,15.14 C27.0361424,15.14 27.26,14.9161424 27.26,14.64 C27.26,14.3638576 27.0361424,14.14 26.76,14.14 L17.37,14.14 C17.0938576,14.14 16.87,14.3638576 16.87,14.64 C16.87,14.9161424 17.0938576,15.14 17.37,15.14 Z M26.76,16.34 L17.37,16.34 C17.0938576,16.34 16.87,16.5638576 16.87,16.84 C16.87,17.1161424 17.0938576,17.34 17.37,17.34 L26.76,17.34 C27.0361424,17.34 27.26,17.1161424 27.26,16.84 C27.26,16.5638576 27.0361424,16.34 26.76,16.34 Z" id="Shape"></path>
        </g>
    </g>
</svg>