<?xml version="1.0" encoding="UTF-8" standalone="no"?>
<svg width="100px" height="100px" viewBox="0 0 100 100" version="1.1" xmlns="http://www.w3.org/2000/svg" xmlns:xlink="http://www.w3.org/1999/xlink">
    <!-- Generator: Sketch 41 (35326) - http://www.bohemiancoding.com/sketch -->
    <title>bookmark-large-flat</title>
    <desc>Created with Sketch.</desc>
    <defs></defs>
    <g id="All" stroke="none" stroke-width="1" fill="none" fill-rule="evenodd">
        <g id="bookmark-large-flat" fill="#010202">
            <path d="M72.55,14 L28.05,14 C24.739,14 22,16.701 22,20.05 L22,80.65 C22,83.961 24.701,86.7 28.05,86.7 L72.55,86.7 C75.861,86.7 78.6,83.999 78.6,80.65 L78.6,20.05 C78.6,16.739 75.899,14 72.55,14 Z M76.5,80.65 C76.5,82.833 74.708,84.6 72.55,84.6 L28.05,84.6 C25.867,84.6 24.1,82.808 24.1,80.65 L24.1,20.05 C24.1,17.867 25.892,16.1 28.05,16.1 L72.55,16.1 C74.733,16.1 76.5,17.892 76.5,20.05 L76.5,80.65 Z" id="Fill-1"></path>
            <polygon id="Fill-3" points="33.75 62.2 67.55 62.2 67.55 60.1 33.75 60.1"></polygon>
            <polygon id="Fill-3-Copy-2" points="33.75 54.5498263 67.55 54.5498263 67.55 52.4498263 33.75 52.4498263"></polygon>
            <polygon id="Fill-3-Copy" points="33.75 42.8594924 67.55 42.8594924 67.55 40.7594924 33.75 40.7594924"></polygon>
            <polygon id="Fill-5" points="33.75 68.1 67.55 68.1 67.55 66 33.75 66"></polygon>
            <polygon id="Fill-6" points="33.75 74.1 67.55 74.1 67.55 72 33.75 72"></polygon>
            <polygon id="Fill-7" points="33.75 35.5 56.05 35.5 56.05 33.4 33.75 33.4"></polygon>
            <polygon id="Fill-7-Copy" transform="translate(34.800000, 48.010774) rotate(-270.000000) translate(-34.800000, -48.010774) " points="28.9352925 49.060774 40.6647075 49.060774 40.6647075 46.960774 28.9352925 46.960774"></polygon>
            <polygon id="Fill-7-Copy-2" transform="translate(66.500000, 48.010774) rotate(-270.000000) translate(-66.500000, -48.010774) " points="60.6352925 49.060774 72.3647075 49.060774 72.3647075 46.960774 60.6352925 46.960774"></polygon>
            <polygon id="Fill-9" points="33.75 29.5 67.55 29.5 67.55 27.4 33.75 27.4"></polygon>
            <polygon id="Page-1" points="62 16 62 36.5 67.549 32.3 73.097 36.5 73.097 16"></polygon>
        </g>
    </g>
</svg>