<?xml version="1.0" encoding="UTF-8" standalone="no"?>
<svg width="50px" height="50px" viewBox="0 0 50 50" version="1.1" xmlns="http://www.w3.org/2000/svg" xmlns:xlink="http://www.w3.org/1999/xlink">
    <!-- Generator: Sketch 3.6.1 (26313) - http://www.bohemiancoding.com/sketch -->
    <title>bookmark-small</title>
    <desc>Created with Sketch.</desc>
    <defs></defs>
    <g id="Page-1" stroke="none" stroke-width="1" fill="none" fill-rule="evenodd">
        <g id="bookmark-small" fill="#000000">
            <path d="M13.1151867,5.29710082 L13.1151867,40.5185792 L20.2481663,35.8884411 L27.3763922,40.5185792 L27.3763922,5.29710082 L13.1151867,5.29710082 Z" id="Fill-1"></path>
            <path d="M29.7537352,17.1260578 L36.884338,17.1260578 L36.884338,14.7491902 L29.7537352,14.7491902 L29.7537352,17.1260578 Z" id="Fill-2"></path>
            <path d="M29.7537352,31.3872633 L36.884338,31.3872633 L36.884338,29.0103958 L29.7537352,29.0103958 L29.7537352,31.3872633 Z" id="Fill-3"></path>
            <path d="M29.7537352,38.5178661 L36.884338,38.5178661 L36.884338,36.1409985 L29.7537352,36.1409985 L29.7537352,38.5178661 Z" id="Fill-4"></path>
            <path d="M29.7537352,24.2566606 L36.884338,24.2566606 L36.884338,21.879793 L29.7537352,21.879793 L29.7537352,24.2566606 Z" id="Fill-5"></path>
            <path d="M38.5481453,7.6185874 L29.7537352,7.6185874 L29.7537352,9.99545499 L38.5481453,9.99545499 C38.9403284,9.99545499 39.2612056,10.3163321 39.2612056,10.7085153 L39.2612056,42.558541 C39.2612056,42.9507242 38.9403284,43.2716013 38.5481453,43.2716013 L11.4518547,43.2716013 C11.0596716,43.2716013 10.7387944,42.9507242 10.7387944,42.558541 L10.7387944,10.7085153 C10.7387944,10.3163321 11.0596716,9.99545499 11.4518547,9.99545499 L27.3768676,9.99545499 L27.3768676,7.6185874 L11.4518547,7.6185874 C9.74764064,7.6185874 8.36192684,9.00430121 8.36192684,10.7085153 L8.36192684,42.558541 C8.36192684,44.2627551 9.74764064,45.6484689 11.4518547,45.6484689 L38.5481453,45.6484689 C40.2523594,45.6484689 41.6380732,44.2627551 41.6380732,42.558541 L41.6380732,10.7085153 C41.6380732,9.00430121 40.2523594,7.6185874 38.5481453,7.6185874" id="Fill-6"></path>
        </g>
    </g>
</svg>