<?xml version="1.0" encoding="UTF-8" standalone="no"?>
<svg width="100px" height="100px" viewBox="0 0 100 100" version="1.1" xmlns="http://www.w3.org/2000/svg" xmlns:xlink="http://www.w3.org/1999/xlink">
    <!-- Generator: Sketch 3.7.1 (28215) - http://www.bohemiancoding.com/sketch -->
    <title>bookmark</title>
    <desc>Created with Sketch.</desc>
    <defs></defs>
    <g id="Icons" stroke="none" stroke-width="1" fill="none" fill-rule="evenodd">
        <g id="bookmark" fill="#000000">
            <path d="M76.3477902,16.7153104 L76.3477902,85.3994757 C76.3477902,86.3019353 75.6154913,87.0357535 74.7115124,87.0357535 L25.670277,87.0357535 C25.8601885,88.3165169 26.9555983,89.3055762 28.2895369,89.3055762 L75.9998723,89.3055762 C77.4659893,89.3055762 78.6586338,88.1114124 78.6586338,86.6468147 L78.6586338,19.3391282 C78.6586338,17.991516 77.6483044,16.8885098 76.3477902,16.7153104 Z M28.1452041,76.09928 L67.2502681,76.09928 L67.2502681,73.8203416 L28.1452041,73.8203416 L28.1452041,76.09928 Z M28.1452041,67.5274329 L67.2502681,67.5274329 L67.2502681,65.2484945 L28.1452041,65.2484945 L28.1452041,67.5274329 Z M67.2501161,40.1330739 L67.2501161,21.9699347 C67.2501161,21.1312854 66.5694732,20.4506424 65.7308238,20.4506424 L49.565554,20.4506424 L49.565554,22.7295808 L64.9711777,22.7295808 L64.9711777,39.3734278 L49.565554,39.3734278 L49.565554,41.6523662 L65.7308238,41.6523662 C66.5694732,41.6523662 67.2501161,40.9717232 67.2501161,40.1330739 Z M71.5457631,12.1913138 L49.5661617,12.1913138 L49.5661617,14.4702522 L71.5457631,14.4702522 C71.7523869,14.4702522 71.9255862,14.6434516 71.9255862,14.8500753 L71.9255862,82.1577618 C71.9255862,82.3643855 71.7523869,82.5375849 71.5457631,82.5375849 L23.8354277,82.5375849 C23.628804,82.5375849 23.4556046,82.3643855 23.4556046,82.1577618 L23.4556046,14.8500753 C23.4556046,14.6434516 23.628804,14.4702522 23.8354277,14.4702522 L28.1456599,14.4702522 L28.1456599,52.3416508 L37.715682,46.8889109 L47.2872233,52.3416508 L47.2872233,10.5383238 L28.1456599,10.5383238 L28.1456599,12.1913138 L23.8354277,12.1913138 C22.3693107,12.1913138 21.1766662,13.3839583 21.1766662,14.8500753 L21.1766662,82.1577618 C21.1766662,83.6238788 22.3693107,84.8165233 23.8354277,84.8165233 L71.5457631,84.8165233 C73.0118802,84.8165233 74.2045246,83.6238788 74.2045246,82.1577618 L74.2045246,14.8500753 C74.2045246,13.3839583 73.0118802,12.1913138 71.5457631,12.1913138 Z M49.5657059,50.3807003 L67.2502681,50.3807003 L67.2502681,48.1017619 L49.5657059,48.1017619 L49.5657059,50.3807003 Z M28.1452041,58.9540666 L67.2502681,58.9540666 L67.2502681,56.6751282 L28.1452041,56.6751282 L28.1452041,58.9540666 Z" id="Combined-Shape"></path>
        </g>
    </g>
</svg>