<?xml version="1.0" encoding="UTF-8" standalone="no"?>
<svg width="100px" height="100px" viewBox="0 0 100 100" version="1.1" xmlns="http://www.w3.org/2000/svg" xmlns:xlink="http://www.w3.org/1999/xlink">
    <!-- Generator: Sketch 41 (35326) - http://www.bohemiancoding.com/sketch -->
    <title>bookmark-large-flat</title>
    <desc>Created with Sketch.</desc>
    <defs></defs>
    <g id="All" stroke="none" stroke-width="1" fill="none" fill-rule="evenodd">
        <g id="bookmark-large-flat" stroke="#000000">
            <g id="icon-teachanactivity" transform="translate(23.000000, 14.000000)">
                <path d="M55,66.5 C55,69.3 52.7,71.5 50,71.5 L5.5,71.5 C2.7,71.5 0.5,69.2 0.5,66.5 L0.5,5.9 C0.5,3.1 2.8,0.9 5.5,0.9 L50,0.9 C52.8,0.9 55,3.2 55,5.9 L55,66.5 Z" id="Shape" stroke-width="2.1"></path>
                <path d="M11.2,47 L45,47" id="Shape" stroke-width="2.1"></path>
                <path d="M11.2,52.9 L45,52.9" id="Shape" stroke-width="2.1"></path>
                <path d="M11.2,58.9 L45,58.9" id="Shape" stroke-width="2.1"></path>
                <path d="M11.2,14.3 L45,14.3" id="Shape" stroke-width="2.1"></path>
                <path d="M11.2,20.3 L33.5,20.3" id="Shape" stroke-width="2.1"></path>
                <rect id="Rectangle-path" stroke-width="2.1" x="12.1" y="27.6" width="31.7" height="11.9"></rect>
                <polygon id="Shape" stroke-width="2" fill="#000000" points="45.7 15.8 38.7 21.8 38.7 1.3 45.7 1.3"></polygon>
                <polygon id="Shape" stroke-width="2" fill="#000000" points="41.5 15.8 48.5 21.8 48.5 1.3 41.5 1.3"></polygon>
            </g>
        </g>
    </g>
</svg>