<?xml version="1.0" encoding="UTF-8" standalone="no"?>
<svg width="100px" height="100px" viewBox="0 0 100 100" version="1.1" xmlns="http://www.w3.org/2000/svg" xmlns:xlink="http://www.w3.org/1999/xlink">
    <!-- Generator: Sketch 41 (35326) - http://www.bohemiancoding.com/sketch -->
    <title>bookmark-large-flat</title>
    <desc>Created with Sketch.</desc>
    <defs></defs>
    <g id="All" stroke="none" stroke-width="1" fill="none" fill-rule="evenodd">
        <g id="bookmark-large-flat">
            <g id="Group" transform="translate(22.000000, 14.000000)">
                <path d="M50.55,0 L6.05,0 C2.739,0 3.55271368e-15,2.701 3.55271368e-15,6.05 L3.55271368e-15,66.65 C3.55271368e-15,69.961 2.701,72.7 6.05,72.7 L50.55,72.7 C53.861,72.7 56.6,69.999 56.6,66.65 L56.6,6.05 C56.6,2.739 53.899,0 50.55,0 Z M54.5,66.65 C54.5,68.833 52.708,70.6 50.55,70.6 L6.05,70.6 C3.867,70.6 2.1,68.808 2.1,66.65 L2.1,6.05 C2.1,3.867 3.892,2.1 6.05,2.1 L50.55,2.1 C52.733,2.1 54.5,3.892 54.5,6.05 L54.5,66.65 Z" id="Fill-1" fill="#010202"></path>
                <polygon id="Fill-3" fill="#010202" points="11.75 48.2 45.55 48.2 45.55 46.1 11.75 46.1"></polygon>
                <polygon id="Fill-5" fill="#010202" points="11.75 54.1 45.55 54.1 45.55 52 11.75 52"></polygon>
                <polygon id="Fill-6" fill="#010202" points="11.75 60.1 45.55 60.1 45.55 58 11.75 58"></polygon>
                <polygon id="Fill-7" fill="#010202" points="11.75 21.5 34.05 21.5 34.05 19.4 11.75 19.4"></polygon>
                <polygon id="Fill-8" fill="#010202" points="11.6 40.7 45.4 40.7 45.4 26.7 11.6 26.7"></polygon>
                <polygon id="Fill-9" fill="#010202" points="11.75 15.5 45.55 15.5 45.55 13.4 11.75 13.4"></polygon>
                <polygon id="Page-1" fill="#010202" points="40 2 40 22.5 45.549 18.3 51.097 22.5 51.097 2"></polygon>
                <polygon id="Path" fill="#D8D8D8" points="13.7 38.6 43.3 38.6 43.3 28.8 13.7 28.8"></polygon>
            </g>
        </g>
    </g>
</svg>