<?xml version="1.0" encoding="UTF-8" standalone="no"?>
<svg width="50px" height="50px" viewBox="0 0 50 50" version="1.1" xmlns="http://www.w3.org/2000/svg" xmlns:xlink="http://www.w3.org/1999/xlink">
    <!-- Generator: Sketch 3.7.1 (28215) - http://www.bohemiancoding.com/sketch -->
    <title>calendar</title>
    <desc>Created with Sketch.</desc>
    <defs></defs>
    <g id="Icons" stroke="none" stroke-width="1" fill="none" fill-rule="evenodd">
        <g id="calendar" fill="#000000">
            <g id="Group" transform="translate(7.000000, 7.500000)">
                <path d="M34.2,3.7 L29.1,3.7 L29.1,2.1 C29.1,1 28.1,0 27,0 C25.8,0 24.8,1 24.8,2.1 L24.8,3.6 L20.1,3.6 L20.1,2.1 C20.2,1 19.2,0 18,0 C16.8,0 15.8,1 15.8,2.1 L15.8,3.6 L11.1,3.6 L11.1,2.1 C11.2,1 10.2,0 9,0 C7.8,0 6.9,1 6.9,2.1 L6.9,3.6 L1.8,3.6 C0.8,3.7 0,4.5 0,5.5 L0,32.4 C0,33.4 0.8,34.2 1.8,34.2 L34.2,34.2 C35.2,34.2 36,33.4 36,32.4 L36,5.5 C36,4.5 35.2,3.7 34.2,3.7 L34.2,3.7 Z M25.8,2.1 C25.8,1.5 26.3,1 27,1 C27.7,1 28.2,1.5 28.2,2.1 L28.2,3.6 L25.9,3.6 L25.9,2.1 L25.8,2.1 Z M16.8,2.1 C16.8,1.5 17.4,1 18,1 C18.6,1 19.2,1.5 19.2,2.1 L19.2,3.6 L16.9,3.6 L16.9,2.1 L16.8,2.1 Z M7.9,2.1 C7.9,1.5 8.4,1 9,1 C9.6,1 10.2,1.5 10.2,2.1 L10.2,3.6 L7.9,3.6 L7.9,2.1 L7.9,2.1 Z M1.8,4.7 L6.9,4.7 L6.9,6.1 C6.9,7.3 7.9,8.2 9.1,8.2 C9.4,8.2 9.6,8 9.6,7.7 C9.6,7.4 9.3,7.2 9,7.2 C8.4,7.2 7.8,6.7 7.8,6.1 L7.8,4.7 L15.8,4.7 L15.8,6.1 C15.8,7.3 16.8,8.2 18,8.2 C18.3,8.2 18.5,8 18.5,7.7 C18.5,7.4 18.3,7.2 18,7.2 C17.4,7.2 16.8,6.7 16.8,6.1 L16.8,4.7 L24.8,4.7 L24.8,6.1 C24.8,7.3 25.8,8.2 27,8.2 C27.3,8.2 27.5,8 27.5,7.7 C27.5,7.4 27.2,7.2 27,7.2 C26.4,7.2 25.8,6.7 25.8,6.1 L25.8,4.7 L34.2,4.7 C34.6,4.7 35,5 35,5.5 L35,10 L1,10 L1,5.5 C1,5 1.4,4.7 1.8,4.7 L1.8,4.7 Z M34.2,33.2 L1.8,33.2 C1.3,33.2 1,32.8 1,32.4 L1,10.9 L35,10.9 L35,32.4 C35,32.8 34.6,33.2 34.2,33.2 L34.2,33.2 Z" id="Shape"></path>
                <path d="M10.7,15.1 L7.4,15.1 C6.8,15.1 6.3,15.6 6.3,16.2 L6.3,19.6 C6.3,20.2 6.8,20.7 7.4,20.7 L10.7,20.7 C11.3,20.7 11.8,20.2 11.8,19.6 L11.8,16.2 C11.8,15.6 11.3,15.1 10.7,15.1 L10.7,15.1 Z M10.8,19.6 C10.8,19.7 10.8,19.7 10.7,19.7 L7.4,19.7 L7.3,19.6 L7.3,16.2 C7.3,16.1 7.3,16.1 7.4,16.1 L10.7,16.1 L10.8,16.2 L10.8,19.6 L10.8,19.6 Z" id="Shape"></path>
                <path d="M10.7,23.2 L7.4,23.2 C6.8,23.2 6.3,23.7 6.3,24.3 L6.3,27.7 C6.3,28.3 6.8,28.8 7.4,28.8 L10.7,28.8 C11.3,28.8 11.8,28.3 11.8,27.7 L11.8,24.3 C11.8,23.7 11.3,23.2 10.7,23.2 L10.7,23.2 Z M10.8,27.8 C10.8,27.9 10.8,27.9 10.7,27.9 L7.4,27.9 L7.3,27.8 L7.3,24.4 C7.3,24.3 7.3,24.3 7.4,24.3 L10.7,24.3 L10.8,24.4 L10.8,27.8 L10.8,27.8 Z" id="Shape"></path>
                <path d="M28.6,15.1 L25.3,15.1 C24.7,15.1 24.2,15.6 24.2,16.2 L24.2,19.6 C24.2,20.2 24.7,20.7 25.3,20.7 L28.6,20.7 C29.2,20.7 29.7,20.2 29.7,19.6 L29.7,16.2 C29.7,15.6 29.2,15.1 28.6,15.1 L28.6,15.1 Z M28.7,19.6 C28.7,19.7 28.7,19.7 28.6,19.7 L25.3,19.7 L25.2,19.6 L25.2,16.2 C25.2,16.1 25.2,16.1 25.3,16.1 L28.6,16.1 L28.7,16.2 L28.7,19.6 L28.7,19.6 Z" id="Shape"></path>
                <path d="M28.6,23.2 L25.3,23.2 C24.7,23.2 24.2,23.7 24.2,24.3 L24.2,27.7 C24.2,28.3 24.7,28.8 25.3,28.8 L28.6,28.8 C29.2,28.8 29.7,28.3 29.7,27.7 L29.7,24.3 C29.7,23.7 29.2,23.2 28.6,23.2 L28.6,23.2 Z M28.7,27.8 C28.7,27.9 28.7,27.9 28.6,27.9 L25.3,27.9 L25.2,27.8 L25.2,24.4 C25.2,24.3 25.2,24.3 25.3,24.3 L28.6,24.3 L28.7,24.4 L28.7,27.8 L28.7,27.8 Z" id="Shape"></path>
                <path d="M19.7,15.1 L16.4,15.1 C15.8,15.1 15.3,15.6 15.3,16.2 L15.3,19.6 C15.3,20.2 15.8,20.7 16.4,20.7 L19.7,20.7 C20.3,20.7 20.8,20.2 20.8,19.6 L20.8,16.2 C20.7,15.6 20.3,15.1 19.7,15.1 L19.7,15.1 Z M19.7,19.6 C19.7,19.7 19.7,19.7 19.6,19.7 L16.3,19.7 L16.2,19.6 L16.2,16.2 C16.2,16.1 16.2,16.1 16.3,16.1 L19.6,16.1 L19.7,16.2 L19.7,19.6 L19.7,19.6 Z" id="Shape"></path>
                <path d="M19.7,23.2 L16.4,23.2 C15.8,23.2 15.3,23.7 15.3,24.3 L15.3,27.7 C15.3,28.3 15.8,28.8 16.4,28.8 L19.7,28.8 C20.3,28.8 20.8,28.3 20.8,27.7 L20.8,24.3 C20.7,23.7 20.3,23.2 19.7,23.2 L19.7,23.2 Z M19.7,27.8 C19.7,27.9 19.7,27.9 19.6,27.9 L16.3,27.9 L16.2,27.8 L16.2,24.4 C16.2,24.3 16.2,24.3 16.3,24.3 L19.6,24.3 L19.7,24.4 L19.7,27.8 L19.7,27.8 Z" id="Shape"></path>
            </g>
        </g>
    </g>
</svg>