<?xml version="1.0" encoding="UTF-8" standalone="no"?>
<svg width="80px" height="80px" viewBox="0 0 80 80" version="1.1" xmlns="http://www.w3.org/2000/svg" xmlns:xlink="http://www.w3.org/1999/xlink">
    <!-- Generator: Sketch 41 (35326) - http://www.bohemiancoding.com/sketch -->
    <title>certificate</title>
    <desc>Created with Sketch.</desc>
    <defs></defs>
    <g id="All" stroke="none" stroke-width="1" fill="none" fill-rule="evenodd">
        <g id="certificate" fill="#000000">
            <g id="Group" transform="translate(15.000000, 3.500000)">
                <path d="M25,37 C21.3,37 18.4,40 18.4,43.6 C18.4,47.2 21.4,50.2 25,50.2 C28.7,50.2 31.6,47.2 31.6,43.6 C31.6,40 28.7,37 25,37 L25,37 Z M25,49.3 C21.9,49.3 19.4,46.8 19.4,43.7 C19.4,40.6 21.9,38 25,38 C28.1,38 30.6,40.5 30.6,43.6 C30.6,46.7 28.1,49.3 25,49.3 L25,49.3 Z" id="Shape"></path>
                <path d="M35.1,49.2 C35.5,48.5 35.8,47.7 36.1,46.9 C37.7,46.7 39,45.3 39,43.7 C39,42.1 37.7,40.7 36.1,40.5 C35.9,39.7 35.5,38.9 35.1,38.2 C35.6,37.6 35.8,36.9 35.8,36.2 C35.8,35.3 35.5,34.5 34.8,33.9 C33.6,32.7 31.8,32.6 30.5,33.7 C29.8,33.3 29,33 28.2,32.7 C28,31 26.7,29.8 25,29.8 C23.4,29.8 22,31 21.8,32.7 C21,32.9 20.2,33.3 19.5,33.7 C18.2,32.7 16.4,32.8 15.2,34 C14.6,34.6 14.2,35.4 14.2,36.3 C14.2,37 14.4,37.7 14.9,38.3 C14.5,39 14.2,39.8 13.9,40.6 C12.3,40.8 11,42.2 11,43.8 C11,45.4 12.2,46.8 13.9,47 C14.1,47.8 14.5,48.6 14.9,49.3 C14.4,49.9 14.2,50.6 14.2,51.3 C14.2,52.2 14.5,53 15.2,53.6 C16.4,54.8 18.2,54.9 19.5,53.9 C20.2,54.3 21,54.6 21.8,54.9 C22,56.5 23.4,57.8 25,57.8 C26.7,57.8 28,56.6 28.2,54.9 C29,54.7 29.8,54.3 30.5,53.9 C31.8,54.9 33.6,54.8 34.8,53.7 C35.4,53.1 35.8,52.3 35.8,51.4 C35.8,50.5 35.6,49.8 35.1,49.2 L35.1,49.2 Z M34.4,49.55 C34.4,49.65 34.5,49.75 34.5,49.75 C34.9,50.15 35.1,50.75 35.1,51.35 C35.1,51.95 34.9,52.55 34.4,52.95 C33.5,53.85 32.1,53.85 31.2,52.95 L31.2,52.95 C31,52.75 30.8,52.75 30.6,52.85 C29.7,53.35 28.8,53.75 27.8,53.95 C27.7,53.95 27.6,54.05 27.5,54.15 C27.5,54.25 27.4,54.35 27.4,54.45 C27.4,55.65 26.4,56.65 25.2,56.65 C24,56.65 23,55.65 22.9,54.55 C23,54.25 22.8,54.05 22.5,53.95 C21.5,53.75 20.6,53.35 19.7,52.85 C19.6,52.85 19.5,52.75 19.5,52.75 C19.4,52.75 19.2,52.85 19.1,52.85 C18.2,53.75 16.8,53.75 15.9,52.85 C15.5,52.45 15.2,51.85 15.2,51.25 C15.2,50.65 15.4,50.05 15.8,49.75 C16,49.65 16.1,49.35 16,49.05 C15.5,48.15 15.1,47.25 14.9,46.35 C14.8,46.15 14.6,45.95 14.4,45.95 C13.2,45.95 12.2,44.95 12.2,43.75 C12.2,42.55 13.2,41.55 14.4,41.55 C14.6,41.55 14.9,41.45 14.9,41.15 C15.1,40.15 15.5,39.25 16,38.45 C16.1,38.25 16.1,37.95 15.9,37.85 C15.5,37.45 15.2,36.85 15.2,36.25 C15.2,35.65 15.4,35.05 15.9,34.65 C16.8,33.75 18.2,33.75 19,34.65 C19.2,34.85 19.4,34.85 19.6,34.75 C20.5,34.25 21.4,33.85 22.4,33.65 C22.6,33.55 22.8,33.45 22.8,33.15 C22.8,31.95 23.8,30.95 25,30.95 C26.2,30.95 27.2,31.95 27.2,33.15 C27.2,33.35 27.3,33.65 27.6,33.65 C28.6,33.85 29.5,34.25 30.3,34.75 C30.5,34.85 30.8,34.85 30.9,34.65 C31.8,33.75 33.2,33.75 34.1,34.65 C34.5,35.05 34.8,35.65 34.8,36.25 C34.8,36.85 34.6,37.45 34.2,37.75 C34,37.85 33.9,38.15 34,38.45 C34.5,39.35 34.9,40.25 35.1,41.15 C35.2,41.35 35.4,41.55 35.6,41.55 C36.8,41.55 37.8,42.55 37.8,43.75 C37.8,44.95 36.8,45.95 35.6,45.95 C35.4,45.95 35.1,46.05 35.1,46.35 C34.9,47.35 34.5,48.25 34,49.05 C34.4,49.25 34.4,49.45 34.4,49.55 L34.4,49.55 Z" id="Shape"></path>
                <path d="M31,71.3 L25.2,67.6 C25,67.5 24.8,67.5 24.7,67.6 L19,71.3 L19,57.1 L18,57.1 L18,72.3 C18,72.5 18.1,72.7 18.3,72.7 C18.5,72.8 18.7,72.8 18.8,72.7 L25.1,68.7 L31.4,72.7 C31.5,72.8 31.6,72.8 31.7,72.8 C31.8,72.8 31.9,72.8 31.9,72.7 C32.1,72.6 32.2,72.4 32.2,72.3 L32.2,57.1 L31.2,57.1 L31.2,71.3 L31,71.3 Z" id="Shape"></path>
                <path d="M49.9,10.5 L39.5,0.1 C39.4,0.1 39.2,0 39.1,0 L0.5,0 C0.2,0 0,0.2 0,0.5 L0,63.6 C0,63.9 0.2,64.1 0.5,64.1 L13.7,64.1 L13.7,63.1 L1,63.1 L1,1 L38.6,1 L38.6,10.8 C38.6,11.1 38.8,11.3 39.1,11.3 L49,11.3 L49,63 L35.7,63 L35.7,64 L49.5,64 C49.8,64 50,63.8 50,63.5 L50,10.8 C50,10.7 49.9,10.6 49.9,10.5 L49.9,10.5 Z M39.6,1.7 L48.3,10.3 L39.6,10.3 L39.6,1.7 L39.6,1.7 Z" id="Shape"></path>
                <rect id="Rectangle-path" x="7.4" y="17" width="35.2" height="1"></rect>
                <rect id="Rectangle-path" x="7.4" y="7.4" width="17.6" height="1"></rect>
                <rect id="Rectangle-path" x="7.4" y="22.3" width="35.2" height="1"></rect>
            </g>
        </g>
    </g>
</svg>