<?xml version="1.0" encoding="UTF-8" standalone="no"?>
<svg width="26px" height="26px" viewBox="0 0 26 26" version="1.1" xmlns="http://www.w3.org/2000/svg" xmlns:xlink="http://www.w3.org/1999/xlink">
    <!-- Generator: Sketch 41 (35326) - http://www.bohemiancoding.com/sketch -->
    <title>checkmark</title>
    <desc>Created with Sketch.</desc>
    <defs></defs>
    <g id="All" stroke="none" stroke-width="1" fill="none" fill-rule="evenodd">
        <g id="checkmark" fill="#000000">
            <path d="M18.2790598,10.0321975 L12.0736289,17.4282801 C12.0417516,17.4649852 11.9963508,17.4823719 11.9509499,17.4785082 C11.9219706,17.4756104 11.8939573,17.4649852 11.8698079,17.4447008 L7.73832779,13.9779984 C7.67747129,13.9277703 7.66974348,13.8379394 7.71997424,13.7770861 L8.99796072,12.2547894 C9.04819148,12.1949021 9.13802726,12.1871747 9.19888376,12.2383687 L11.700762,14.3382882 L16.5393367,8.57268581 C16.5895675,8.51183257 16.6794032,8.50410518 16.7392938,8.55433324 L18.2616722,9.83225114 C18.3225287,9.88247921 18.3302565,9.97231017 18.2790598,10.0321975 M13,4 C8.02908662,4 4,8.02983633 4,12.999517 C4,17.9701637 8.02908662,22 13,22 C17.9709134,22 22,17.9701637 22,12.999517 C22,8.02983633 17.9709134,4 13,4" id="Fill-1"></path>
        </g>
    </g>
</svg>