<?xml version="1.0" encoding="UTF-8" standalone="no"?>
<svg width="26px" height="26px" viewBox="0 0 26 26" version="1.1" xmlns="http://www.w3.org/2000/svg" xmlns:xlink="http://www.w3.org/1999/xlink">
    <!-- Generator: Sketch 3.6.1 (26313) - http://www.bohemiancoding.com/sketch -->
    <title>checkmark</title>
    <desc>Created with Sketch.</desc>
    <defs></defs>
    <g id="Page-1" stroke="none" stroke-width="1" fill="none" fill-rule="evenodd">
        <g id="checkmark" fill="#000000">
            <path d="M18.465,9.9275 L12.041,17.5845 C12.008,17.6225 11.961,17.6405 11.914,17.6365 C11.884,17.6335 11.855,17.6225 11.83,17.6015 L7.553,14.0125 C7.49,13.9605 7.482,13.8675 7.534,13.8045 L8.857,12.2285 C8.909,12.1665 9.002,12.1585 9.065,12.2115 L11.655,14.3855 L16.664,8.4165 C16.716,8.3535 16.809,8.3455 16.871,8.3975 L18.447,9.7205 C18.51,9.7725 18.518,9.8655 18.465,9.9275 M13,3.6825 C7.854,3.6825 3.683,7.8545 3.683,12.9995 C3.683,18.1455 7.854,22.3175 13,22.3175 C18.146,22.3175 22.317,18.1455 22.317,12.9995 C22.317,7.8545 18.146,3.6825 13,3.6825" id="Fill-1"></path>
        </g>
    </g>
</svg>