<?xml version="1.0" encoding="UTF-8" standalone="no"?>
<svg width="18px" height="18px" viewBox="0 0 18 18" version="1.1" xmlns="http://www.w3.org/2000/svg" xmlns:xlink="http://www.w3.org/1999/xlink">
    <!-- Generator: Sketch 41 (35326) - http://www.bohemiancoding.com/sketch -->
    <title>checkmark-circle</title>
    <desc>Created with Sketch.</desc>
    <defs></defs>
    <g id="All" stroke="none" stroke-width="1" fill="none" fill-rule="evenodd">
        <g id="checkmark-circle" fill="#000000">
            <path d="M14.2790598,6.03219748 L8.07362885,13.4282801 C8.04175164,13.4649852 7.99635076,13.4823719 7.95094988,13.4785082 C7.92197059,13.4756104 7.89395728,13.4649852 7.86980788,13.4447008 L3.73832779,9.97799839 C3.67747129,9.92777032 3.66974348,9.83793936 3.71997424,9.77708613 L4.99796072,8.25478937 C5.04819148,8.19490207 5.13802726,8.18717467 5.19888376,8.23836866 L7.70076205,10.3382882 L12.5393367,4.57268581 C12.5895675,4.51183257 12.6794032,4.50410518 12.7392938,4.55433324 L14.2616722,5.83225114 C14.3225287,5.88247921 14.3302565,5.97231017 14.2790598,6.03219748 M9,0 C4.02908662,0 0,4.02983633 0,8.99951704 C0,13.9701637 4.02908662,18 9,18 C13.9709134,18 18,13.9701637 18,8.99951704 C18,4.02983633 13.9709134,0 9,0" id="Fill-1"></path>
        </g>
    </g>
</svg>