<?xml version="1.0" encoding="UTF-8" standalone="no"?>
<svg width="125px" height="125px" viewBox="0 0 125 125" version="1.1" xmlns="http://www.w3.org/2000/svg" xmlns:xlink="http://www.w3.org/1999/xlink">
    <!-- Generator: Sketch 41 (35326) - http://www.bohemiancoding.com/sketch -->
    <title>circle-tools</title>
    <desc>Created with Sketch.</desc>
    <defs></defs>
    <g id="All" stroke="none" stroke-width="1" fill="none" fill-rule="evenodd">
        <g id="circle-tools" fill="#000000">
            <g id="Group" transform="translate(3.000000, 3.000000)">
                <path d="M60,118.8 C27.5772,118.8 1.2,92.4228 1.2,60 C1.2,27.5772 27.5772,1.2 60,1.2 C92.4228,1.2 118.8,27.5772 118.8,60 C118.8,92.4228 92.4228,118.8 60,118.8 M60,0 C26.916,0 0,26.916 0,60 C0,93.084 26.916,120 60,120 C93.084,120 120,93.084 120,60 C120,26.916 93.084,0 60,0" id="Fill-1"></path>
                <path d="M6.46464,62.59014 C6.62184,65.99394 7.14564,69.38034 8.11284,73.24854 L9.27684,72.95694 C8.32944,69.16854 7.81704,65.85654 7.66344,62.53434 L6.46464,62.59014 Z" id="Fill-3"></path>
                <path d="M51.43128,111.23934 L51.21468,112.41954 C54.02388,112.93554 56.91708,113.18634 60.05808,113.18634 L61.22268,113.18634 L61.22268,111.98634 L60.05808,111.98634 C56.99028,111.98634 54.16848,111.74214 51.43128,111.23934" id="Fill-5"></path>
                <path d="M94.83486,98.85936 L95.62986,99.75816 C97.34586,98.24016 98.77206,96.83256 99.99126,95.45496 L99.09246,94.65996 C97.90626,96.00036 96.51366,97.37376 94.83486,98.85936" id="Fill-7"></path>
                <path d="M112.23894,46.99248 L111.07074,47.26728 C112.02654,51.32868 112.51074,55.47528 112.51074,59.59248 L112.51074,60.69888 L113.71074,60.69888 L113.71074,59.59248 C113.71074,55.38228 113.21514,51.14328 112.23894,46.99248" id="Fill-9"></path>
                <path d="M95.57136,19.30956 C91.01856,15.28896 85.82736,12.07896 80.14236,9.76956 L79.69056,10.88076 C85.25016,13.13976 90.32556,16.27836 94.77696,20.20896 L95.57136,19.30956 Z" id="Fill-11"></path>
                <path d="M41.51718,10.47948 L41.09598,9.35568 C33.62718,12.15648 26.76378,16.67748 21.24798,22.43028 L22.11438,23.26068 C27.50598,17.63688 34.21578,13.21728 41.51718,10.47948" id="Fill-13"></path>
                <path d="M86.89968,96.34866 C86.40348,95.41866 85.79688,94.46106 85.09368,93.49866 C85.79928,92.52726 86.40888,91.56006 86.90208,90.62286 C89.02608,91.43586 90.26508,92.48766 90.26508,93.48546 C90.26508,94.48266 89.02548,95.53506 86.89968,96.34866 M86.68128,102.31926 C85.96608,103.03446 84.31368,102.89226 82.19448,101.92986 C82.50168,100.93086 82.75308,99.81426 82.93908,98.60406 C84.16608,98.41566 85.29588,98.16006 86.30448,97.84686 C87.25308,99.93486 87.39408,101.60646 86.68128,102.31926 M77.81988,105.93006 C76.82628,105.93006 75.77808,104.69886 74.96568,102.58686 C75.91128,102.08526 76.88688,101.46606 77.86608,100.74906 C78.83448,101.46126 79.78308,102.06066 80.69148,102.54606 C79.87668,104.68386 78.82068,105.93006 77.81988,105.93006 M69.03228,102.34746 C68.31948,101.63406 68.46048,99.96126 69.41028,97.87266 L69.41088,97.87086 C70.40088,98.17326 71.50488,98.42046 72.70068,98.60406 C72.89028,99.83826 73.14768,100.97406 73.46388,101.98746 C71.39628,102.91866 69.74028,103.05486 69.03228,102.34746 M65.37528,93.48546 C65.37528,92.47806 66.63588,91.41426 68.79948,90.59766 C69.28968,91.53126 69.90408,92.50746 70.63608,93.50586 C69.92568,94.47546 69.31308,95.44146 68.81328,96.37806 C66.64068,95.56086 65.37528,94.49466 65.37528,93.48546 M69.08148,84.72006 C69.78168,84.01986 71.38428,84.14706 73.44108,85.05606 C73.13568,86.05086 72.88608,87.16206 72.70068,88.36626 C71.51088,88.54926 70.41108,88.79526 69.42468,89.09586 C68.50848,87.03126 68.38008,85.42206 69.08148,84.72006 M77.81988,81.04026 C78.83268,81.04026 79.90188,82.31226 80.72028,84.49626 C79.79508,84.98586 78.84108,85.58886 77.88228,86.28546 C76.87428,85.54506 75.88788,84.92406 74.94648,84.43026 C75.76188,82.28886 76.81848,81.04026 77.81988,81.04026 M83.24148,91.21326 C83.20788,90.67026 83.16168,90.14046 83.10468,89.62386 C84.06768,89.78886 84.95268,89.99466 85.74768,90.23286 C85.34868,90.97266 84.86988,91.73286 84.32868,92.49906 C83.98548,92.06826 83.61888,91.63986 83.24148,91.21326 M83.30808,93.86106 C83.30928,93.73626 83.31168,93.61146 83.31168,93.48546 C83.31168,93.37146 83.30988,93.25986 83.30868,93.14646 C83.40408,93.26466 83.49468,93.38286 83.58708,93.50106 C83.49408,93.62166 83.40468,93.74106 83.30808,93.86106 M83.23848,95.80206 C83.61828,95.37066 83.98668,94.93746 84.33228,94.50186 C84.86928,95.25786 85.34328,96.00786 85.74348,96.73866 C84.94968,96.97626 84.06588,97.18206 83.10468,97.34706 C83.15988,96.84486 83.20488,96.32946 83.23848,95.80206 M81.57468,97.56606 C81.62148,97.52046 81.66888,97.47726 81.71508,97.43106 C81.77868,97.36746 81.83808,97.30146 81.90168,97.23786 C81.89028,97.33626 81.87768,97.43346 81.86568,97.53066 C81.76848,97.54266 81.67308,97.55526 81.57468,97.56606 M80.14308,98.90286 C80.66868,98.86986 81.18168,98.82486 81.68148,98.76966 C81.51948,99.71526 81.31788,100.58466 81.08508,101.36826 C80.38068,100.98246 79.63968,100.51986 78.87408,99.97686 C79.29948,99.63726 79.72248,99.27546 80.14308,98.90286 M77.54568,98.97426 C77.63748,98.97486 77.72808,98.97666 77.81988,98.97666 C77.95008,98.97666 78.07788,98.97426 78.20688,98.97366 C78.09588,99.06246 77.98488,99.14826 77.87448,99.23526 C77.76528,99.15006 77.65548,99.06186 77.54568,98.97426 M73.72728,97.12086 C73.81908,97.21506 73.90488,97.30926 73.99848,97.40286 C74.05788,97.46226 74.11848,97.51866 74.17788,97.57746 C74.04228,97.56246 73.90728,97.54746 73.77468,97.53066 C73.75788,97.39566 73.74228,97.25886 73.72728,97.12086 M72.39348,95.68446 C72.42768,96.25326 72.47568,96.80706 72.53568,97.34646 C71.60448,97.18686 70.74828,96.98886 69.97428,96.76086 C70.37748,96.02286 70.85628,95.26626 71.39988,94.50366 C71.71368,94.89606 72.04668,95.28966 72.39348,95.68446 M72.33048,93.26466 C72.32988,93.33846 72.32808,93.41106 72.32808,93.48546 C72.32808,93.57006 72.32988,93.65346 72.33048,93.73806 C72.26808,93.65886 72.20868,93.58086 72.14748,93.50226 C72.20928,93.42306 72.26688,93.34386 72.33048,93.26466 M72.39048,91.33266 C72.04968,91.72086 71.71908,92.11026 71.40588,92.50146 C70.84428,91.70646 70.36608,90.93786 69.97368,90.21006 C70.74828,89.98146 71.60448,89.78346 72.53568,89.62386 C72.47388,90.17826 72.42468,90.74766 72.39048,91.33266 M74.23608,89.38746 C74.14068,89.48046 74.04348,89.56986 73.94868,89.66406 C73.87128,89.74206 73.79868,89.82186 73.72248,89.89926 C73.73928,89.74506 73.75548,89.59086 73.77468,89.43966 C73.92648,89.42106 74.08128,89.40426 74.23608,89.38746 M75.67368,88.05546 C75.08628,88.08966 74.51508,88.13946 73.95828,88.20066 C74.12028,87.25566 74.32188,86.38626 74.55468,85.60266 C75.29088,85.99806 76.06848,86.48226 76.87308,87.05106 C76.47168,87.36966 76.07208,87.70746 75.67368,88.05546 M78.13368,87.99666 C78.02928,87.99546 77.92548,87.99366 77.81988,87.99366 C77.75028,87.99366 77.68248,87.99546 77.61288,87.99546 C77.70048,87.92586 77.78808,87.86226 77.87568,87.79446 C77.96208,87.86106 78.04728,87.92766 78.13368,87.99666 M81.76488,89.63646 C81.68268,89.55426 81.59988,89.47926 81.51768,89.39886 C81.63468,89.41146 81.75048,89.42526 81.86568,89.43966 C81.87948,89.55366 81.89328,89.66826 81.90648,89.78346 C81.85848,89.73486 81.81288,89.68506 81.76488,89.63646 M82.11168,93.48546 C82.11168,94.11726 82.08948,94.72566 82.05768,95.32326 C81.67428,95.74686 81.28128,96.16806 80.86668,96.58266 C80.47068,96.97806 80.06868,97.35486 79.66428,97.72206 C79.06488,97.75446 78.45468,97.77666 77.81988,97.77666 C77.22528,97.77666 76.65108,97.75686 76.08708,97.72866 C75.67488,97.35486 75.26088,96.96846 74.84688,96.55446 C74.39628,96.10386 73.97808,95.65326 73.57548,95.20506 C73.54788,94.64526 73.52808,94.07526 73.52808,93.48546 C73.52808,92.91066 73.54668,92.35566 73.57308,91.80966 C73.96668,91.37346 74.37108,90.93906 74.79708,90.51246 C75.24228,90.06786 75.69528,89.64666 76.15068,89.23806 C76.69428,89.21166 77.24808,89.19366 77.81988,89.19366 C78.43188,89.19366 79.02228,89.21466 79.60128,89.24466 C80.03868,89.63826 80.47728,90.04566 80.91648,90.48486 C81.31368,90.88206 81.69168,91.28586 82.06008,91.69206 C82.09068,92.27466 82.11168,92.86926 82.11168,93.48546 M81.68148,88.20066 C81.16188,88.14366 80.62848,88.09686 80.08188,88.06326 C79.68048,87.70926 79.27968,87.37026 78.88068,87.05046 C79.63128,86.52066 80.37528,86.05146 81.10068,85.65786 C81.32688,86.42706 81.52368,87.27726 81.68148,88.20066 M73.95828,98.76966 C74.49108,98.82846 75.03708,98.87586 75.59808,98.91006 C76.02408,99.28746 76.44888,99.64326 76.87248,99.98226 C76.09488,100.53606 75.32388,101.02386 74.57268,101.43186 C74.33208,100.63206 74.12448,99.74046 73.95828,98.76966 M85.25628,84.29826 C85.85868,84.29826 86.33088,84.44706 86.63148,84.74826 C87.33288,85.44906 87.20388,87.08046 86.29668,89.12106 C85.28928,88.80906 84.16248,88.55406 82.93908,88.36626 C82.75728,87.18066 82.51248,86.08566 82.21368,85.10226 C83.39688,84.57126 84.44568,84.29826 85.25628,84.29826 M87.43008,89.51586 C88.53888,86.97546 88.56408,84.98346 87.48048,83.89926 C86.39088,82.81026 84.38448,82.83966 81.82428,83.96586 C80.83728,81.39726 79.43148,79.84026 77.81988,79.84026 C76.22328,79.84026 74.82768,81.36906 73.84248,83.89626 C71.39088,82.83546 69.35148,82.75326 68.23308,83.87166 C67.11288,84.99186 67.19868,87.03666 68.26488,89.49486 C65.71788,90.48066 64.17528,91.88166 64.17528,93.48546 C64.17528,95.09106 65.72148,96.49326 68.27508,97.47966 C67.12188,100.06806 67.08528,102.09726 68.18388,103.19586 C68.71908,103.73046 69.47388,103.99806 70.40688,103.99806 C71.37948,103.99746 72.54888,103.69986 73.86048,103.12086 C74.84448,105.62046 76.23288,107.13006 77.81988,107.13006 C79.41468,107.13006 80.80848,105.60606 81.79368,103.08546 C83.09688,103.66386 84.28968,103.97466 85.29228,103.97466 C86.21808,103.97466 86.98368,103.71366 87.52968,103.16766 C88.62828,102.06906 88.59168,100.04046 87.43848,97.45146 C89.94888,96.46686 91.46508,95.07546 91.46508,93.48546 C91.46508,91.89306 89.94528,90.50046 87.43008,89.51586" id="Fill-15"></path>
                <path d="M41.97042,17.9877 L43.27182,18.5295 L43.55022,18.3015 C44.13762,17.8209 44.78802,17.4417 45.48222,17.1747 L45.83562,17.0385 L45.94482,15.6249 L47.38902,15.4131 L47.93442,16.7769 L48.30762,16.8051 C48.93522,16.8531 49.67622,17.0445 50.39382,17.3433 L50.72382,17.4807 L51.85902,16.5615 L53.02902,17.4477 L52.42242,18.8241 L52.68222,19.1127 C53.12202,19.6017 53.50782,20.2269 53.79762,20.9217 L53.93922,21.2619 L55.39962,21.3705 L55.61082,22.8135 L54.27222,23.3493 L54.22302,23.6925 C54.10062,24.5487 53.92842,25.2243 53.68122,25.8177 L53.53902,26.1591 L54.51282,27.2949 L53.63502,28.4535 L52.27602,27.8553 L51.99102,28.0881 C51.41922,28.5567 50.78322,28.9383 50.10222,29.2221 L49.76142,29.3637 L49.65402,30.8241 L48.20322,31.0365 L47.65782,29.7279 L47.28942,29.7015 C46.44042,29.6409 45.65622,29.3757 45.14802,29.1639 L44.80842,29.0223 L43.73082,29.9385 L42.56322,29.0535 L43.10502,27.7527 L42.87702,27.4743 C42.39582,26.8863 42.01722,26.2359 41.74962,25.5423 L41.61402,25.1883 L40.19982,25.0797 L39.98742,23.6277 L41.29602,23.0829 L41.32242,22.7139 C41.38302,21.8649 41.64822,21.0807 41.86002,20.5725 L42.00162,20.2335 L41.08542,19.1553 L41.97042,17.9877 Z M40.61682,20.4567 C40.43622,20.9439 40.25142,21.5697 40.16322,22.2549 L38.66502,22.8789 L39.15162,26.2023 L40.77582,26.3271 C41.02722,26.8983 41.34522,27.4407 41.72382,27.9471 L41.09802,29.4495 L43.77402,31.4763 L45.03222,30.4071 C45.51942,30.5877 46.14522,30.7731 46.83042,30.8613 L47.45442,32.3589 L50.77962,31.8723 L50.90502,30.1791 C51.45342,29.9229 51.97302,29.6103 52.45782,29.2467 L54.01962,29.9337 L56.05302,27.2487 L54.92382,25.9305 C55.10802,25.4187 55.24902,24.8583 55.35762,24.2079 L56.93502,23.5767 L56.44782,20.2449 L54.75402,20.1189 C54.49422,19.5657 54.17982,19.0533 53.82822,18.6105 L54.50862,17.0631 L51.83442,15.0375 L50.51862,16.1025 C49.92822,15.8835 49.32942,15.7275 48.77622,15.6501 L48.15222,14.0889 L44.82102,14.5761 L44.69682,16.2003 C44.12562,16.4517 43.58322,16.7697 43.07682,17.1489 L41.57442,16.5231 L39.54762,19.1985 L40.61682,20.4567 Z" id="Fill-17"></path>
                <path d="M46.58142,22.40388 C46.80342,22.08468 47.14902,21.87408 47.55702,21.80988 C48.29922,21.73548 49.05822,22.29228 49.22142,23.02788 C49.29702,23.38608 49.22442,23.74728 49.01742,24.04488 C48.79422,24.36648 48.44382,24.57828 47.99622,24.64608 C47.63922,24.72108 47.27682,24.64968 46.97922,24.44208 C46.65702,24.21828 46.44582,23.86788 46.37802,23.42088 C46.30242,23.06328 46.37442,22.70208 46.58142,22.40388 M46.29402,25.42788 C46.72302,25.72548 47.21862,25.87848 47.71422,25.87848 C47.88042,25.87848 48.04602,25.86108 48.20922,25.82688 C48.95202,25.71528 49.58862,25.32588 50.00322,24.72948 C50.40042,24.15768 50.54022,23.46528 50.39442,22.77408 C50.09682,21.43608 48.75942,20.47308 47.41302,20.61828 L47.39022,20.62188 C46.64742,20.73348 46.01022,21.12288 45.59562,21.71928 C45.19842,22.29168 45.05922,22.98348 45.19722,23.63388 C45.30882,24.37668 45.69822,25.01328 46.29402,25.42788" id="Fill-19"></path>
                <path d="M30.32166,70.86006 C30.10206,70.96866 29.88606,70.98066 29.67726,70.89786 L29.67726,61.45566 L28.47726,61.45566 L28.47726,84.80826 C28.47726,85.80906 27.63186,86.65386 26.63106,86.65386 C25.63086,86.65386 24.78486,85.80906 24.78486,84.80826 L24.78486,70.63926 L22.18746,70.63926 L22.18746,84.80826 C22.18746,85.80906 21.34206,86.65386 20.34186,86.65386 C19.34106,86.65386 18.49626,85.80906 18.49626,84.80826 L18.49626,61.45566 L17.29626,61.45566 L17.29626,70.85406 C17.04186,70.91826 16.75386,70.88346 16.50426,70.74726 C16.02306,70.48566 15.75906,69.91626 15.75906,69.14286 L15.75906,57.20466 C15.75906,56.23626 16.04046,55.94106 16.96386,55.94106 L29.19366,55.94106 C30.80946,55.94106 31.03926,56.20986 31.03926,57.21306 L31.21386,69.14766 C31.21266,70.02126 30.75066,70.64766 30.32166,70.86006 M29.19366,54.74106 L16.96386,54.74106 C15.36786,54.74106 14.55906,55.56966 14.55906,57.20466 L14.55906,69.14286 C14.55906,70.35846 15.05886,71.32686 15.93066,71.80146 C16.36026,72.03486 16.83666,72.12366 17.29626,72.07266 L17.29626,84.80826 C17.29626,86.48766 18.66246,87.85386 20.34186,87.85386 C22.02126,87.85386 23.38746,86.48766 23.38746,84.80826 L23.38746,71.83926 L23.58486,71.83926 L23.58486,84.80826 C23.58486,86.48766 24.95166,87.85386 26.63106,87.85386 C28.31046,87.85386 29.67726,86.48766 29.67726,84.80826 L29.67726,72.13326 C30.06846,72.19026 30.47106,72.12486 30.85446,71.93526 C31.78686,71.47326 32.41386,70.35126 32.41386,69.14286 L32.23926,57.20466 C32.23926,54.74106 30.25806,54.74106 29.19366,54.74106" id="Fill-21"></path>
                <path d="M23.4864,45.45876 C25.5318,45.45876 27.1962,47.12256 27.1962,49.16796 C27.1962,51.17916 25.4976,52.87776 23.4864,52.87776 C21.4062,52.87776 19.7772,51.24816 19.7772,49.16796 C19.7772,47.15736 21.4758,45.45876 23.4864,45.45876 M23.4864,54.07776 C26.1936,54.07776 28.3962,51.87516 28.3962,49.16796 C28.3962,46.46076 26.1936,44.25876 23.4864,44.25876 C20.7792,44.25876 18.5772,46.46076 18.5772,49.16796 C18.5772,51.92136 20.7336,54.07776 23.4864,54.07776" id="Fill-23"></path>
                <path d="M63.74004,22.92336 C63.81324,22.71696 63.96624,22.54356 64.17024,22.45056 C64.25184,22.41036 64.35444,22.38936 64.46484,22.38936 C64.57044,22.38936 64.68264,22.40856 64.78824,22.44576 C64.96764,22.50936 65.10324,22.61856 65.17524,22.77456 L67.64664,27.50136 L67.64664,25.84596 C68.22924,25.89216 69.16524,26.05596 69.97044,26.60316 C71.24484,27.47016 71.72844,28.59696 71.73204,28.60536 L72.84324,28.15116 C72.81864,28.09176 72.23244,26.69016 70.64484,25.61076 C69.57984,24.88656 68.36844,24.69216 67.64664,24.64416 L67.64664,15.85776 C67.64664,15.50856 67.94544,15.23496 68.32764,15.23496 C68.69424,15.23496 68.95044,15.49056 68.95044,15.85776 L68.95044,21.64056 L69.37584,21.64056 L69.37584,21.93156 L77.56944,21.93156 L77.56944,25.72176 C77.14284,25.77336 75.98184,25.83636 74.69364,25.21236 C73.37424,24.60396 72.68724,23.52876 72.68004,23.51796 L71.66124,24.15156 C71.69544,24.20796 72.53184,25.53696 74.18124,26.29776 C75.28104,26.82996 76.32204,26.95056 77.03964,26.95056 C77.25024,26.95056 77.42124,26.93916 77.56944,26.92596 L77.56944,27.27156 C77.56944,29.19576 76.32924,31.27236 74.32584,31.27236 L69.78324,31.27236 C68.45844,31.27236 67.93044,30.84636 67.18524,29.83476 C66.72924,29.19696 64.54284,24.92436 63.74004,23.33436 C63.68544,23.22636 63.68604,23.07636 63.74004,22.92336 M71.23944,14.01156 C71.54004,14.01156 71.86224,14.26176 71.86224,14.63496 L71.86224,20.73156 L70.61664,20.73156 L70.61664,14.63496 C70.61664,14.26176 70.93884,14.01156 71.23944,14.01156 M74.03484,14.01156 C74.33544,14.01156 74.65764,14.26176 74.65764,14.63496 L74.65764,20.73156 L73.41204,20.73156 L73.41204,14.63496 C73.41204,14.26176 73.73364,14.01156 74.03484,14.01156 M76.94664,15.23496 C77.12724,15.23496 77.30064,15.31056 77.42184,15.44256 C77.53104,15.56076 77.58444,15.71136 77.56944,15.91596 L77.56944,20.73156 L76.32384,20.73156 L76.32384,15.85776 C76.32384,15.48516 76.64544,15.23496 76.94664,15.23496 M66.21384,30.53916 C67.11564,31.76376 67.98924,32.47236 69.78324,32.47236 L74.32584,32.47236 C77.07024,32.47236 78.76944,29.77296 78.76944,27.27156 L78.76704,15.96576 C78.80844,15.47316 78.64404,14.99856 78.30504,14.62956 C77.95704,14.25156 77.46204,14.03496 76.94664,14.03496 C76.53204,14.03496 76.14984,14.17356 75.84324,14.40756 C75.73104,13.50876 74.96304,12.81156 74.03484,12.81156 C73.47384,12.81156 72.97164,13.06596 72.63744,13.46556 C72.30264,13.06596 71.80044,12.81156 71.23944,12.81156 C70.31484,12.81156 69.54864,13.50396 69.43164,14.39796 C69.12744,14.16876 68.74584,14.03496 68.32764,14.03496 C67.27284,14.03496 66.44664,14.83536 66.44664,15.85776 L66.44664,22.61736 L66.25284,22.24836 C66.05904,21.82056 65.68044,21.48876 65.18904,21.31476 C64.66464,21.12876 64.08264,21.15216 63.65364,21.36816 C63.17184,21.58656 62.79084,22.00776 62.60904,22.52316 C62.44404,22.98876 62.46444,23.46756 62.66724,23.87316 C62.96724,24.46776 65.61684,29.70336 66.21384,30.53916" id="Fill-25"></path>
                <path d="M22.4754,95.12052 L21.5862,95.92632 C23.2422,97.75392 25.035,99.45072 27.0666,101.11272 L27.8262,100.18392 C25.8414,98.55972 24.0912,96.90372 22.4754,95.12052" id="Fill-27"></path>
                <path d="M45.2259,70.4622 L45.2271,61.6482 L55.8477,61.6482 L55.8477,63.4356 C55.8477,63.8244 56.1759,64.152 56.5641,64.152 L62.7369,64.152 C63.1389,64.152 63.4533,63.8124 63.4533,63.3774 L63.4533,61.6482 L74.1915,61.6482 L74.1915,70.3698 C74.1669,70.4208 74.1435,70.4508 74.1291,70.4646 L45.2259,70.4622 Z M62.2533,62.952 L57.0477,62.952 L57.0477,58.6776 L62.2533,58.6776 L62.2533,62.952 Z M74.1915,51.8088 L74.1915,60.4482 L63.4533,60.4482 L63.4533,58.1946 C63.4533,57.8064 63.1257,57.4782 62.7369,57.4782 L56.5641,57.4782 C56.1759,57.4782 55.8477,57.8064 55.8477,58.1946 L55.8477,60.4482 L45.2271,60.4482 L45.2283,51.8064 L74.1915,51.8088 Z M54.1359,48.0792 L65.1069,48.0792 L65.1069,50.5482 L54.1359,50.5482 L54.1359,48.0792 Z M75.3609,70.6716 L75.3915,70.5792 L75.3915,51.7884 C75.3915,51.1032 74.8947,50.6064 74.2095,50.6064 L66.3069,50.6064 L66.3069,47.6538 C66.3069,47.205 65.9811,46.8792 65.5323,46.8792 L53.7105,46.8792 C53.2617,46.8792 52.9359,47.205 52.9359,47.6538 L52.9359,50.6064 L45.2085,50.6064 C44.5233,50.6064 44.0259,51.1032 44.0259,51.7884 L44.0259,70.482 C44.0259,71.1672 44.5233,71.6646 45.2085,71.6646 L74.1513,71.6646 C74.6937,71.6646 75.1575,71.2842 75.3609,70.6716 L75.3609,70.6716 Z" id="Fill-29"></path>
                <path d="M38.18262,70.69716 L37.09302,71.19936 C39.53802,76.50756 43.84002,80.80956 49.20582,83.31336 L49.71282,82.22616 C44.60442,79.84236 40.50942,75.74736 38.18262,70.69716" id="Fill-31"></path>
                <path d="M81.25284,71.88456 L82.30704,72.45756 C84.20844,68.96076 85.23264,65.16756 85.34964,61.18236 L84.15024,61.14696 C84.03864,64.94196 83.06364,68.55456 81.25284,71.88456" id="Fill-33"></path>
                <path d="M44.71554,41.65344 C48.94914,38.17404 54.37734,36.25764 59.99994,36.25764 C64.57494,36.25764 68.95314,37.51344 72.66294,39.89004 L73.31034,38.87964 C69.40734,36.37884 64.80474,35.05764 59.99994,35.05764 C54.10014,35.05764 48.40134,37.07064 43.95354,40.72644 L44.71554,41.65344 Z" id="Fill-35"></path>
                <path d="M101.65578,37.13118 L104.76558,37.13118 L104.76558,38.62518 L103.42398,38.66838 L103.46298,39.86778 L104.76558,39.82578 L104.76558,40.98138 L103.46298,40.93938 L103.42398,42.13878 L104.76558,42.18198 L104.76558,43.32678 L103.44318,43.32678 L103.44318,44.52678 L104.76558,44.52678 L104.76558,45.65598 L103.44318,45.65598 L103.44318,46.85598 L104.76558,46.85598 L104.76558,48.00078 L103.42398,48.04398 L103.46298,49.24338 L104.76558,49.20138 L104.76558,50.35758 L103.46298,50.31558 L103.42398,51.51498 L104.76558,51.55818 L104.76558,53.51838 L101.65578,53.51838 L101.65578,37.13118 Z M100.45578,54.71838 L105.96558,54.71838 L105.96558,35.93118 L100.45578,35.93118 L100.45578,54.71838 Z" id="Fill-37"></path>
                <path d="M37.11648,88.37874 L37.32888,88.37934 L37.32888,90.67134 L37.11648,90.67194 L35.35848,89.52534 L37.11648,88.37874 Z M57.47808,90.61614 L38.52888,90.66774 L38.52888,88.38234 L57.47808,88.43454 L57.47808,90.61614 Z M58.67808,91.81254 L58.67808,87.23814 L36.76128,87.17754 L33.16188,89.52534 L36.76128,91.87314 L58.67808,91.81254 Z" id="Fill-39"></path>
                <path d="M27.09696,27.8133 C30.10596,27.8133 32.55336,30.2613 32.55336,33.2697 C32.55336,36.2787 30.10596,38.7261 27.09696,38.7261 C24.08856,38.7261 21.64056,36.2787 21.64056,33.2697 C21.64056,30.2613 24.08856,27.8133 27.09696,27.8133 L27.09696,27.8133 Z M36.51216,41.7219 C36.65436,41.8323 36.67896,41.9733 36.68136,42.0477 C36.68436,42.1725 36.63456,42.2895 36.54396,42.3693 L36.16536,42.7455 C35.93496,42.9759 35.61336,42.9759 35.38296,42.7455 L31.32276,38.6859 L32.39676,37.6125 L36.45636,41.6727 L36.51216,41.7219 Z M27.09696,39.9261 C28.18956,39.9261 29.21856,39.6567 30.12876,39.1881 L34.53456,43.5939 C34.88196,43.9419 35.32836,44.1153 35.77416,44.1153 C36.21996,44.1153 36.66636,43.9419 37.01376,43.5945 L37.35096,43.2573 C37.70136,42.9417 37.89456,42.4893 37.88076,42.0129 C37.86696,41.5407 37.64916,41.1009 37.28136,40.8003 L32.93856,36.4575 C33.45756,35.5101 33.75336,34.4241 33.75336,33.2697 C33.75336,29.5995 30.76716,26.6133 27.09696,26.6133 C23.42676,26.6133 20.44056,29.5995 20.44056,33.2697 C20.44056,36.9399 23.42676,39.9261 27.09696,39.9261 L27.09696,39.9261 Z" id="Fill-41"></path>
                <path d="M24.49308,35.11668 C23.49828,34.12188 23.50308,32.46048 24.50268,31.41288 L23.63508,30.58428 C22.18848,32.09988 22.19328,34.51368 23.64468,35.96508 L24.49308,35.11668 Z" id="Fill-43"></path>
                <path d="M99.89124,86.47938 C97.23564,86.47938 95.07564,84.31878 95.07564,81.66318 L95.07564,77.77938 L104.70684,77.77938 L104.70684,81.66318 C104.70684,84.31878 102.54684,86.47938 99.89124,86.47938 M99.23784,71.94738 L99.28464,76.57938 L95.08224,76.57938 C95.14764,74.20698 96.93444,72.26178 99.23784,71.94738 M104.70024,76.57938 L100.48464,76.57938 L100.43784,71.93058 C102.79224,72.19818 104.63364,74.16978 104.70024,76.57938 M100.50384,70.72878 C100.37784,69.97938 99.89544,69.27918 99.29604,68.87958 C98.60484,68.41038 97.64604,68.26638 96.63084,68.11458 C94.62324,67.81398 93.67764,67.54158 93.67764,66.34758 C93.67764,65.13018 95.63724,64.82718 98.40564,64.53198 C101.29404,64.22418 104.56764,63.87558 104.56764,61.22298 C104.56764,60.43998 104.03304,57.88578 97.15404,57.88578 C91.91424,57.88578 88.78584,56.58618 88.78584,54.40938 C88.78584,53.35158 89.10504,52.54638 89.76144,51.94938 C91.28484,50.56278 94.09824,50.81058 94.12704,50.81358 L94.24224,49.61898 C94.10544,49.60518 90.87924,49.31418 88.95744,51.05838 C88.04724,51.88398 87.58584,53.01198 87.58584,54.40938 C87.58584,57.38118 91.07364,59.08578 97.15404,59.08578 C101.44644,59.08578 103.36764,60.15918 103.36764,61.22298 C103.36764,62.68338 101.25864,63.02118 98.27844,63.33918 C95.42664,63.64278 92.47764,63.95718 92.47764,66.34758 C92.47764,68.70558 94.77504,69.04998 96.45324,69.30138 C97.29084,69.42678 98.15724,69.55638 98.62644,69.87498 C98.91804,70.06938 99.16644,70.39218 99.27864,70.72878 C96.24864,71.03658 93.87564,73.60338 93.87564,76.71318 L93.87564,81.66318 C93.87564,84.98058 96.57444,87.67938 99.89124,87.67938 C103.20804,87.67938 105.90684,84.98058 105.90684,81.66318 L105.90684,76.71318 C105.90684,73.60338 103.53444,71.03658 100.50384,70.72878" id="Fill-45"></path>
                <path d="M96.29562,26.02998 C97.12182,25.71498 97.37442,25.96818 97.45782,26.05218 L98.02542,26.61978 C98.28222,26.87598 98.25582,27.25998 97.96242,27.55338 L90.26322,35.25318 L90.46602,35.64318 C91.44042,37.51758 91.08522,39.78618 89.58282,41.28918 C88.48122,42.39078 87.28482,42.97278 86.12262,42.97278 C85.81962,42.97278 85.53522,42.93978 85.25262,42.86958 L88.19322,39.92898 L87.35622,36.71958 L84.02202,35.88618 L81.14442,38.76438 C80.77782,37.34358 81.29922,35.92158 82.72122,34.43778 C83.66082,33.49758 84.83742,33.00138 86.12262,33.00138 C86.87562,33.00138 87.63102,33.17478 88.24962,33.48978 L88.63782,33.68718 L96.29562,26.02998 Z M88.39242,32.23638 C87.69462,31.95078 86.91882,31.80138 86.12262,31.80138 C84.51222,31.80138 83.04222,32.41938 81.86382,33.59838 C79.96782,35.57658 79.39242,37.59798 80.15442,39.60558 C80.26602,39.90078 80.51682,40.11678 80.82162,40.18218 C81.12762,40.24938 81.44622,40.15698 81.67302,39.93258 L84.38982,37.21518 L86.37462,37.71138 L86.85822,39.56718 L84.08262,42.34278 C83.85882,42.56658 83.76582,42.88398 83.83302,43.19238 C83.89962,43.50138 84.11622,43.75158 84.41142,43.86198 C84.97662,44.07438 85.52082,44.17278 86.12262,44.17278 C87.61002,44.17278 89.09922,43.46898 90.43122,42.13758 C92.20002,40.36878 92.69322,37.74858 91.72182,35.49198 L98.81082,28.40178 C99.56622,27.64638 99.59382,26.49138 98.87442,25.77138 L98.30682,25.20378 C97.89222,24.78918 97.12002,24.40758 95.79462,24.93738 C95.67882,24.98418 95.57562,25.05318 95.48742,25.14138 L88.39242,32.23638 Z" id="Fill-47"></path>
                <path d="M47.54064,103.27146 L47.14404,103.26666 L46.98984,103.63386 L46.92444,103.79646 C46.41444,105.89706 44.43624,107.42226 42.22104,107.42226 C39.55344,107.42226 37.38384,105.25206 37.38324,102.57066 C37.35444,101.34306 37.82604,100.16886 38.70984,99.26406 C39.61224,98.34066 40.86864,97.81086 42.15744,97.81086 C44.16264,97.81086 45.87144,98.96346 46.61724,100.81926 L46.76844,101.19546 L49.03824,101.19546 L50.13984,100.09446 L51.35304,101.30766 L52.56564,100.09446 L53.53944,101.06766 L55.26384,101.06766 L56.39784,102.20166 L55.32744,103.27146 L47.54064,103.27146 Z M56.09664,104.19906 L57.43884,102.85746 C57.61344,102.68166 57.71004,102.44886 57.71004,102.20166 C57.71004,101.95446 57.61344,101.72166 57.43764,101.54466 L56.03304,100.14006 C55.85724,99.96426 55.62444,99.86766 55.37604,99.86766 L54.03624,99.86766 L53.22264,99.05466 C52.86084,98.69226 52.27104,98.69226 51.90924,99.05466 L51.35304,99.61086 L50.79624,99.05466 C50.43444,98.69226 49.84464,98.69226 49.48284,99.05466 L48.54144,99.99546 L47.56464,99.99546 C46.56624,97.92606 44.48664,96.61086 42.15744,96.61086 C40.54764,96.61086 38.97804,97.27206 37.85124,98.42526 C36.74004,99.56286 36.14724,101.04546 36.18384,102.58446 C36.18384,105.91386 38.89224,108.62226 42.22104,108.62226 C44.84364,108.62226 47.20224,106.89906 47.97984,104.47146 L55.43964,104.47146 C55.68804,104.47146 55.92084,104.37486 56.09664,104.19906 L56.09664,104.19906 Z" id="Fill-49"></path>
                <path d="M40.63914,103.35618 C40.23114,103.35618 39.89994,103.02438 39.89994,102.61698 C39.89994,102.20898 40.23114,101.87718 40.63914,101.87718 C41.04714,101.87718 41.37834,102.20898 41.37834,102.61698 C41.37834,103.02438 41.04714,103.35618 40.63914,103.35618 M40.63914,100.67718 C39.56994,100.67718 38.69994,101.54718 38.69994,102.61698 C38.69994,103.68618 39.56994,104.55618 40.63914,104.55618 C41.70834,104.55618 42.57834,103.68618 42.57834,102.61698 C42.57834,101.54718 41.70834,100.67718 40.63914,100.67718" id="Fill-51"></path>
            </g>
        </g>
    </g>
</svg>