<?xml version="1.0" encoding="UTF-8" standalone="no"?>
<svg width="125px" height="125px" viewBox="0 0 125 125" version="1.1" xmlns="http://www.w3.org/2000/svg" xmlns:xlink="http://www.w3.org/1999/xlink">
    <!-- Generator: Sketch 41 (35326) - http://www.bohemiancoding.com/sketch -->
    <title>circle-clubs</title>
    <desc>Created with Sketch.</desc>
    <defs></defs>
    <g id="All" stroke="none" stroke-width="1" fill="none" fill-rule="evenodd">
        <g id="circle-clubs" fill="#000000">
            <g id="Group" transform="translate(3.000000, 3.000000)">
                <path d="M61.2537313,112.2 L60.0597015,112.2 C57.1525828,112.2 54.2616036,111.960377 51.5031638,111.488507 L51.3028064,112.671493 C54.1282472,113.154823 57.0862232,113.4 60.0597015,113.4 L61.2537313,113.4 L61.2537313,112.2 Z" id="Shape"></path>
                <path d="M9.77193845,72.8694227 C8.89476725,69.4691312 8.34664409,65.98529 8.1784068,62.4910017 L6.9857723,62.5489983 C7.15808103,66.1278507 7.71897157,69.6928406 8.61612125,73.1705773 L9.77193845,72.8694227 Z" id="Shape"></path>
                <path d="M99.0830263,94.5737661 C97.6467673,96.1427229 96.2372085,97.5445732 94.8294759,98.7895719 L95.6182853,99.6904281 C97.0594262,98.4158831 98.4984601,96.9847189 99.9617499,95.3862339 L99.0830263,94.5737661 Z" id="Shape"></path>
                <path d="M111.001881,47.24136 C111.940809,51.1338061 112.41791,55.2843635 112.41791,59.52 L112.41791,60.66 L113.61194,60.66 L113.61194,59.52 C113.61194,55.1906365 113.123936,50.9452284 112.162299,46.95864 L111.001881,47.24136 Z" id="Shape"></path>
                <path d="M79.8359468,10.876266 C85.3372808,13.1113293 90.3626037,16.2399263 94.8294759,20.1904281 L95.6182853,19.2895719 C91.0508454,15.250128 85.910261,12.049773 80.2834562,9.76373396 L79.8359468,10.876266 Z" id="Shape"></path>
                <path d="M22.5803859,23.2150441 C27.9912358,17.5381113 34.5559141,13.1699024 41.8817576,10.4016127 L41.461526,9.27838735 C33.9677622,12.1101308 27.2521871,16.5787481 21.7181215,22.3849559 L22.5803859,23.2150441 Z" id="Shape"></path>
                <path d="M60.0597015,36.9 C63.7802329,36.9 66.5074627,29.6003468 66.5074627,20.64 C66.5074627,11.6796532 63.7802329,4.38 60.0597015,4.38 C56.3391701,4.38 53.6119403,11.6796532 53.6119403,20.64 C53.6119403,29.6003468 56.3391701,36.9 60.0597015,36.9 Z M60.0597015,35.7 C57.317677,35.7 54.8059701,28.9772115 54.8059701,20.64 C54.8059701,12.3027885 57.317677,5.58 60.0597015,5.58 C62.801726,5.58 65.3134328,12.3027885 65.3134328,20.64 C65.3134328,28.9772115 62.801726,35.7 60.0597015,35.7 Z" id="Oval"></path>
                <path d="M60.0597015,27.12 C68.9754695,27.12 76.238806,24.3791341 76.238806,20.64 C76.238806,16.9008659 68.9754695,14.16 60.0597015,14.16 C51.1439335,14.16 43.880597,16.9008659 43.880597,20.64 C43.880597,24.3791341 51.1439335,27.12 60.0597015,27.12 Z M60.0597015,25.92 C51.7639686,25.92 45.0746269,23.3957346 45.0746269,20.64 C45.0746269,17.8842654 51.7639686,15.36 60.0597015,15.36 C68.3554344,15.36 75.0447761,17.8842654 75.0447761,20.64 C75.0447761,23.3957346 68.3554344,25.92 60.0597015,25.92 Z" id="Oval"></path>
                <path d="M71.4992299,32.151054 C74.1300176,29.5071123 70.9225366,22.4074612 64.618197,16.0716 C58.3138575,9.73573875 51.2495281,6.51222031 48.6187403,9.156162 C45.9879525,11.8001037 49.1954336,18.8997548 55.4997731,25.235616 C61.8041127,31.5714772 68.8684421,34.7949957 71.4992299,32.151054 Z M70.6549313,31.302534 C68.7160458,33.2511139 62.2099844,30.2823383 56.3440716,24.387096 C50.4781589,18.4918537 47.5241533,11.9532619 49.4630388,10.004682 C51.4019243,8.05610207 57.9079858,11.0248777 63.7738985,16.92012 C69.6398112,22.8153623 72.5938168,29.3539541 70.6549313,31.302534 Z" id="Oval"></path>
                <path d="M64.6173015,25.235496 C70.921641,18.8996348 74.1291221,11.7999837 71.4983343,9.156042 C68.8675466,6.51210031 61.8032172,9.73561875 55.4988776,16.07148 C49.1945381,22.4073412 45.987057,29.5069923 48.6178448,32.150934 C51.2486325,34.7948757 58.3129619,31.5713572 64.6173015,25.235496 Z M63.773003,24.386976 C57.9070903,30.2822183 51.4010288,33.2509939 49.4621433,31.302414 C47.5232578,29.3538341 50.4772634,22.8152423 56.3431761,16.92 C62.2090888,11.0247577 68.7151503,8.05598207 70.6540358,10.004562 C72.5929213,11.9531419 69.6389157,18.4917337 63.773003,24.386976 Z" id="Oval"></path>
                <path d="M51.5821767,101.848969 L51.091674,98.3161237 L49.30365,98.1877691 C49.0481864,97.6238103 48.7031855,97.0699227 48.2700628,96.5056339 L48.9714454,94.8395313 L46.1226305,92.7126874 L44.7882198,93.8621869 C44.1908085,93.6270272 43.5499498,93.4742898 42.8719109,93.3968965 L42.23778,91.7399124 L38.7237974,92.2326872 L38.5965254,93.9594504 C38.0042992,94.213817 37.4434163,94.5587201 36.8660752,95.0050664 L35.2673462,94.2981085 L33.1469526,97.1667564 L34.2886451,98.5053908 C34.02472,99.1553597 33.8489584,99.8196028 33.7679879,100.499049 L32.1799095,101.137457 L32.6693405,104.662584 L34.3878483,104.790517 C34.6526299,105.410323 35.0156924,105.987909 35.4800181,106.546977 L34.7841876,108.136317 L37.6385636,110.267313 L38.9730169,109.117776 C39.5824393,109.357375 40.236805,109.509691 40.9499251,109.585561 L41.5831156,111.240088 L45.0983844,110.747132 L45.2260116,108.951418 C45.8233716,108.682336 46.407954,108.323171 46.9118856,107.916523 L48.5576803,108.616303 L50.6673291,105.762191 L49.5042799,104.333579 C49.716247,103.657399 49.858705,103.064171 49.930848,102.487271 L51.5821767,101.848969 Z M48.1587376,107.143697 L46.688854,106.518714 L46.4065882,106.774024 C45.8596692,107.268712 45.1451799,107.708341 44.4424005,107.979993 L44.0882526,108.116884 L43.9762424,109.692868 L42.3571829,109.919912 L41.7934308,108.446828 L41.4128472,108.421329 C40.5413186,108.362936 39.7888182,108.187375 39.1158556,107.875224 L38.7680133,107.713879 L37.585317,108.732687 L36.2605886,107.743683 L36.8817746,106.324838 L36.6208597,106.036396 C36.0340009,105.387624 35.6226208,104.734127 35.3682041,104.018198 L35.2375308,103.650483 L33.7187192,103.537416 L33.4917323,101.902543 L34.8990498,101.336802 L34.9240508,100.959911 C34.9762483,100.173034 35.1807786,99.4056367 35.5271399,98.6514349 L35.6876826,98.3018533 L34.6739429,97.1132436 L35.6580269,95.7818915 L37.0499073,96.397381 L37.3332763,96.1643744 C38.0358258,95.5866871 38.677737,95.1917152 39.364977,94.9450451 L39.7308622,94.8137185 L39.8433668,93.2873128 L41.4637126,93.0600876 L42.0267507,94.5313061 L42.4052256,94.5584752 C43.2286159,94.6175829 43.9796013,94.7959761 44.6453384,95.1047756 L44.9931807,95.266121 L46.175877,94.2473126 L47.5061665,95.2404687 L46.8918729,96.6996953 L47.1200255,96.9799427 C47.6834009,97.6719554 48.0891943,98.3244712 48.3383011,98.9753874 L48.4745119,99.3313061 L50.0426543,99.4438763 L50.2685696,101.071031 L48.8046705,101.636884 L48.7776366,102.017252 C48.7301238,102.685757 48.5614878,103.389748 48.2694428,104.270263 L48.1653862,104.583994 L49.1535664,105.797809 L48.1587376,107.143697 Z" id="Shape"></path>
                <path d="M39.0513813,101.909004 C39.279351,103.436401 40.7174034,104.502564 42.2378152,104.273362 C43.7576132,104.044252 44.8184715,102.59901 44.5904098,101.070996 C44.360251,99.5289318 42.9708435,98.4816659 41.4081067,98.7060303 C39.8841778,98.9357477 38.8233195,100.38099 39.0513813,101.909004 Z M43.4095902,101.249004 C43.5399028,102.122098 42.9278535,102.955914 42.0606923,103.086638 C41.1919419,103.217602 40.362275,102.602493 40.2322008,101.730996 C40.1018882,100.857902 40.7139376,100.024086 41.5810988,99.8933618 C42.4882609,99.7631341 43.2764949,100.357265 43.4095902,101.249004 Z" id="Shape"></path>
                <path d="M44.1254133,55.0718482 L45.4597855,48.8606964 L42.2045857,47.3175474 C42.1680817,45.7269328 41.9027322,44.2164838 41.4037771,42.7512937 L43.920657,40.1601352 L40.5464611,34.790946 L37.1553715,36.0302352 C35.9410651,34.9070769 34.6596907,33.9824351 33.3069797,33.2850722 L33.2453577,29.7550549 L27.1251307,28.4117706 L25.64894,31.5643604 C24.0324777,31.601379 22.4340486,31.8738621 20.9298031,32.3726021 L18.4675463,29.9598983 L13.1272105,33.3496062 L14.2970446,36.6291438 C13.1683318,37.8167974 12.2194633,39.1671776 11.5014744,40.6268284 L8.1132663,40.6887402 L6.77971416,46.8960745 L9.855508,48.3798374 C9.89583639,49.9905 10.1916829,51.6024958 10.7184168,53.1861564 L8.31830678,55.6601159 L11.6911505,61.0271535 L14.9549815,59.8512506 C16.0841202,60.9286635 17.4065492,61.8502118 18.8721444,62.5960533 L18.9337669,66.1261016 L25.1102261,67.4663231 L26.6464951,64.2549063 C28.192653,64.2132732 29.738223,63.9171024 31.2529974,63.391183 L33.7711316,65.8601829 L39.108799,62.4721688 L37.8799558,58.9524549 C38.9485897,57.8233264 39.8400564,56.5327318 40.5045618,55.1335254 L44.1254133,55.0718482 Z M33.9303609,64.3398171 L31.5496639,62.0055727 L31.1956332,62.1373507 C29.5726246,62.7414706 27.9158684,63.06 26.2686567,63.06 L25.893255,63.06 L24.4420127,66.0936769 L20.1110092,65.1538984 L20.0531563,61.8397962 L19.721681,61.679399 C18.1197141,60.904225 16.6974643,59.9124235 15.5266309,58.7357359 L15.2591258,58.4668932 L12.1894465,59.5728465 L9.83094695,55.8198841 L12.0905176,53.4907882 L11.9652191,53.1381982 C11.3624236,51.4419318 11.0447761,49.7151567 11.0447761,48 L11.0447761,47.6224596 L8.14565897,46.2239255 L9.08076355,41.8712598 L12.2648331,41.8130781 L12.4220949,41.4726668 C13.14982,39.8974219 14.1692881,38.4483936 15.4072279,37.2042641 L15.6747331,36.9354214 L14.574282,33.8503938 L18.3085731,31.4801017 L20.6260814,33.7509702 L20.9769173,33.6250451 C22.5699317,33.0532668 24.2915972,32.76 26.0298507,32.76 L26.4087197,32.76 L27.8002424,29.7882294 L32.0680751,30.7249451 L32.1259482,34.0402038 L32.4574235,34.200601 C33.915223,34.906014 35.2964059,35.9037028 36.6031909,37.1544828 L36.8711679,37.410975 L40.0505538,36.249054 L42.4077012,39.9998648 L40.0254023,42.4524707 L40.1565679,42.8083886 C40.7313772,44.3681336 41.0149254,45.9781911 41.0149254,47.7 L41.0149254,48.0803812 L44.0924533,49.5393036 L43.1581688,53.8881518 L39.7285126,53.9465722 L39.5738439,54.2963169 C38.9049367,55.8088833 37.9467484,57.1949897 36.7718765,58.3757359 L36.5063677,58.6425723 L37.6673204,61.9678312 L33.9303609,64.3398171 Z" id="Shape"></path>
                <path d="M26.0298507,60.48 C32.9210455,60.48 38.5074627,54.8656508 38.5074627,47.94 C38.5074627,41.0143492 32.9210455,35.4 26.0298507,35.4 C19.138656,35.4 13.5522388,41.0143492 13.5522388,47.94 C13.5522388,54.8656508 19.138656,60.48 26.0298507,60.48 Z M26.0298507,59.28 C19.7981004,59.28 14.7462687,54.2029091 14.7462687,47.94 C14.7462687,41.6770909 19.7981004,36.6 26.0298507,36.6 C32.2616011,36.6 37.3134328,41.6770909 37.3134328,47.94 C37.3134328,54.2029091 32.2616011,59.28 26.0298507,59.28 Z" id="Oval"></path>
                <path d="M26.0298507,57.9 C31.5032399,57.9 35.9402985,53.4407561 35.9402985,47.94 C35.9402985,42.4392439 31.5032399,37.98 26.0298507,37.98 C20.5564616,37.98 16.119403,42.4392439 16.119403,47.94 C16.119403,53.4407561 20.5564616,57.9 26.0298507,57.9 Z M26.0298507,56.7 C21.2159061,56.7 17.3134328,52.7780144 17.3134328,47.94 C17.3134328,43.1019856 21.2159061,39.18 26.0298507,39.18 C30.8437954,39.18 34.7462687,43.1019856 34.7462687,47.94 C34.7462687,52.7780144 30.8437954,56.7 26.0298507,56.7 Z" id="Oval"></path>
                <path d="M26.0298507,51.66 C28.0741286,51.66 29.7313433,49.9944993 29.7313433,47.94 C29.7313433,45.8855007 28.0741286,44.22 26.0298507,44.22 C23.9855729,44.22 22.3283582,45.8855007 22.3283582,47.94 C22.3283582,49.9944993 23.9855729,51.66 26.0298507,51.66 Z M26.0298507,50.46 C24.6450173,50.46 23.5223881,49.3317576 23.5223881,47.94 C23.5223881,46.5482424 24.6450173,45.42 26.0298507,45.42 C27.4146841,45.42 28.5373134,46.5482424 28.5373134,47.94 C28.5373134,49.3317576 27.4146841,50.46 26.0298507,50.46 Z" id="Oval"></path>
                <path d="M92.507123,92.0148628 L91.1668301,85.9888354 L87.8366617,85.9268572 C87.1182724,84.507463 86.2161728,83.2196598 85.1640679,82.1080923 L86.2723243,78.9523321 L81.1177102,75.6170143 L78.7152841,77.9695439 C77.2668964,77.4734778 75.7252628,77.201993 74.1656036,77.1645007 L72.6873252,74.1312581 L66.6951999,75.4773714 L66.6336626,78.8788462 C65.3112443,79.5383377 64.0812448,80.4244309 62.9541595,81.5084533 L59.695159,80.3342907 L56.3750519,85.5168367 L58.7813393,87.9971637 C58.3354023,89.3959103 58.0690603,90.8863753 57.9866205,92.4314468 L54.8354143,93.9217819 L56.1765562,99.9516263 L59.6797107,100.013392 C60.3492002,101.382712 61.202154,102.615634 62.2375143,103.710376 L61.068946,106.986365 L66.2257082,110.323073 L68.6846906,107.913577 C70.0730057,108.402846 71.5975032,108.676078 73.1145478,108.715127 L74.5924985,111.809586 L80.5883822,110.462629 L80.6498082,107.067308 C82.042004,106.399566 83.3261457,105.503747 84.4496501,104.429885 L87.5897193,105.543686 L90.9084434,100.363299 L88.6013858,97.9836902 C89.2050693,96.6595689 89.5088736,95.1365774 89.5479085,93.4399095 L92.507123,92.0148628 Z M87.0968479,104.096314 L84.1424043,103.048356 L83.8763542,103.315736 C82.7014823,104.496482 81.3222719,105.459461 79.8172308,106.131713 L79.4696988,106.286944 L79.4116178,109.497371 L75.2582478,110.430414 L73.8681994,107.52 L73.4925373,107.52 C71.8629817,107.52 70.2082606,107.223037 68.7516293,106.659993 L68.3945016,106.521949 L66.0727993,108.796927 L62.5131435,106.493635 L63.6150316,103.404579 L63.3475264,103.135736 C62.2034563,101.985945 61.2887632,100.6645 60.6017668,99.1685651 L60.4447665,98.826697 L57.1368766,98.7683737 L56.2093618,94.5982181 L59.1512599,93.2068734 L59.1638245,92.8406774 C59.2218286,91.150147 59.5122149,89.530445 60.0268574,88.0362663 L60.1473962,87.686302 L57.8936048,85.3631633 L60.185438,81.7857093 L63.2591258,82.8931068 L63.5266309,82.6242641 C64.7254319,81.4194691 66.0467401,80.4668346 67.4740646,79.8047756 L67.813991,79.6471021 L67.8719643,76.4426286 L72.0290927,75.5087419 L73.4186794,78.36 L73.7910448,78.36 C75.4672683,78.36 77.1268923,78.6526179 78.6583198,79.2226493 L79.0120992,79.3543338 L81.2703495,77.1429857 L84.8321533,79.4476679 L83.7894085,82.4168837 L84.0554586,82.6842641 C85.2090551,83.8436285 86.1822806,85.2304749 86.9247751,86.7802894 L87.0842003,87.1130588 L90.2063042,87.1711646 L91.1346681,91.3451372 L88.358209,92.6821758 L88.358209,93.06 C88.358209,94.9031782 88.0343325,96.5023532 87.3509153,97.8231884 L87.151789,98.2080383 L89.390064,100.516701 L87.0968479,104.096314 Z" id="Shape"></path>
                <path d="M73.8507463,105.24 C80.5111355,105.24 85.9104478,99.8136912 85.9104478,93.12 C85.9104478,86.4263088 80.5111355,81 73.8507463,81 C67.190357,81 61.7910448,86.4263088 61.7910448,93.12 C61.7910448,99.8136912 67.190357,105.24 73.8507463,105.24 Z M73.8507463,104.04 C67.8498015,104.04 62.9850746,99.1509495 62.9850746,93.12 C62.9850746,87.0890505 67.8498015,82.2 73.8507463,82.2 C79.851691,82.2 84.7164179,87.0890505 84.7164179,93.12 C84.7164179,99.1509495 79.851691,104.04 73.8507463,104.04 Z" id="Oval"></path>
                <path d="M73.8507463,96.78 C75.8620519,96.78 77.4925373,95.1413622 77.4925373,93.12 C77.4925373,91.0986378 75.8620519,89.46 73.8507463,89.46 C71.8394406,89.46 70.2089552,91.0986378 70.2089552,93.12 C70.2089552,95.1413622 71.8394406,96.78 73.8507463,96.78 Z M73.8507463,95.58 C72.4988851,95.58 71.4029851,94.4786205 71.4029851,93.12 C71.4029851,91.7613795 72.4988851,90.66 73.8507463,90.66 C75.2026074,90.66 76.2985075,91.7613795 76.2985075,93.12 C76.2985075,94.4786205 75.2026074,95.58 73.8507463,95.58 Z" id="Oval"></path>
                <path d="M111.58209,73.02 C111.58209,67.3475884 107.134873,62.76 101.61194,62.76 C96.089008,62.76 91.641791,67.3475884 91.641791,73.02 C91.641791,75.8252062 93.3896068,80.2071494 95.5884464,83.0483644 C97.0008199,84.8620917 98.3560714,86.5899533 99.6068206,88.1752779 C100.044619,88.7301874 100.438101,89.2276653 100.781204,89.6604483 C100.90132,89.8119594 100.971467,89.900346 101.096188,90.0573785 C101.186622,90.1711624 101.186622,90.1711624 101.205451,90.194817 L101.672724,90.7818287 L102.138675,90.1937561 C102.157346,90.1701904 102.157346,90.1701904 102.244721,90.0595543 C102.330841,89.9504126 102.4307,89.823572 102.543153,89.6803858 C102.864302,89.2714672 103.222095,88.8134242 103.607385,88.3170801 C104.708335,86.8987974 105.809346,85.4574099 106.837406,84.079276 C106.948021,83.930994 107.057313,83.7840787 107.165221,83.6385991 C109.714357,80.264453 111.58209,75.836022 111.58209,73.02 Z M100.542433,87.4297221 C99.2931824,85.8462967 97.9394786,84.1204083 96.5298537,82.310215 C94.4843146,79.6670818 92.8358209,75.5341486 92.8358209,73.02 C92.8358209,68.0034248 96.7555247,63.96 101.61194,63.96 C106.468356,63.96 110.38806,68.0034248 110.38806,73.02 C110.38806,75.5358227 108.619373,79.729412 106.211077,82.9171745 C106.100661,83.0659954 105.992019,83.2120368 105.882049,83.3594546 C104.859071,84.7307761 103.762542,86.1662956 102.665952,87.5789613 C102.307471,88.0407692 101.972924,88.4692442 101.669778,88.8555462 C101.338039,88.4370018 100.96049,87.959609 100.542433,87.4297221 Z" id="Shape"></path>
                <path d="M101.61194,78.48 C104.582785,78.48 106.985075,76.0053412 106.985075,72.96 C106.985075,69.9146588 104.582785,67.44 101.61194,67.44 C98.6410957,67.44 96.238806,69.9146588 96.238806,72.96 C96.238806,76.0053412 98.6410957,78.48 101.61194,78.48 Z M101.61194,77.28 C99.307229,77.28 97.4328358,75.3491407 97.4328358,72.96 C97.4328358,70.5708593 99.307229,68.64 101.61194,68.64 C103.916652,68.64 105.791045,70.5708593 105.791045,72.96 C105.791045,75.3491407 103.916652,77.28 101.61194,77.28 Z" id="Oval"></path>
                <path d="M40.7164179,21.42 C40.7164179,19.2997004 39.0272109,17.58 36.9552239,17.58 C34.8832368,17.58 33.1940299,19.2997004 33.1940299,21.42 C33.1940299,22.4278843 33.8073284,23.9787383 34.5633403,25.0148182 C35.0467217,25.6360372 35.5075073,26.2177228 35.9383894,26.7543116 C36.0892699,26.942207 36.2256752,27.1110929 36.3452775,27.2583973 C36.417219,27.3470017 36.4676929,27.4088687 36.49437,27.4414244 L36.9685423,28.0200839 L37.4264789,27.4283644 C37.453052,27.3940282 37.5024904,27.3299101 37.571535,27.2399866 C37.6863999,27.0903868 37.8143401,26.9229503 37.9521002,26.7416482 C38.3458119,26.2234955 38.7395788,25.6977323 39.107496,25.1959194 C40.0060555,24.1007265 40.7164179,22.4745886 40.7164179,21.42 Z M36.8675808,26.0006884 C36.4402539,25.4685272 35.9831291,24.8914628 35.5149284,24.290215 C34.9086338,23.458819 34.3880597,22.1424383 34.3880597,21.42 C34.3880597,19.9590009 35.5461547,18.78 36.9552239,18.78 C38.3642931,18.78 39.5223881,19.9590009 39.5223881,21.42 C39.5223881,22.1620781 38.9224364,23.5354675 38.1660118,24.4585756 C37.7828093,24.9797677 37.3929941,25.5002545 37.0031237,26.0133518 C36.9825827,26.0403852 36.962263,26.0671063 36.9421757,26.0935015 C36.9177313,26.0631144 36.8928626,26.0321725 36.8675808,26.0006884 Z" id="Shape"></path>
                <path d="M70.8434484,55.909629 L72.4044271,54.0898399 L69.6930243,50.3808668 L67.5047565,51.3233851 C66.7020313,50.6718012 65.7993857,50.1275403 64.8642536,49.7383013 L64.6772212,47.3573786 L60.1538795,46.6754849 L59.2756042,48.9451992 C58.2522346,49.0782465 57.2662367,49.3342357 56.3956667,49.7003459 L54.5390212,48.1454053 L50.7770564,50.7919475 L51.7810848,53.0623067 C51.167654,53.828455 50.6620641,54.6788938 50.2737059,55.5894343 L47.7787702,55.7774901 L47.1010146,60.3184528 L49.4008584,61.2554837 C49.4895016,62.2376284 49.7290758,63.2022792 50.1109052,64.1498804 L48.4903344,66.0291192 L51.2063602,69.7444163 L53.4550042,68.740022 C54.2148935,69.3547375 55.0667771,69.8698044 56.0292996,70.3058422 L56.2173312,72.7624751 L60.7416428,73.4445151 L61.6128232,71.1931361 C62.6246494,71.1056186 63.5975587,70.8671328 64.6027372,70.4736827 L66.4180697,72.0464493 L70.1085902,69.3214894 L69.1707731,67.1223082 C69.8028326,66.336297 70.3530676,65.4352304 70.7871365,64.4791963 L73.1152277,64.3527244 L73.7948422,59.7993068 L71.5993551,58.916721 C71.4692637,57.8533437 71.2157934,56.8412286 70.8434484,55.909629 Z M69.9828,63.3211395 L69.8378296,63.6671658 C69.3805104,64.7587295 68.7547583,65.7824891 68.0264543,66.6270417 L67.781592,66.9109878 L68.6376784,68.9185106 L66.4774527,70.5135507 L64.825881,69.0826632 L64.4847421,69.2270188 C63.3497388,69.7073044 62.289322,69.9669026 61.1656327,70.0206791 L60.778194,70.0392208 L59.9747751,72.1154849 L57.3349076,71.7175249 L57.1643394,69.4890511 L56.8286907,69.3470188 C55.7090237,68.8732228 54.7606552,68.2985534 53.9432421,67.5865866 L53.656504,67.3368377 L51.5996099,68.2555837 L50.0171283,66.0908808 L51.5056341,64.3647865 L51.3515293,64.0163169 C50.8858693,62.9633433 50.6204689,61.8964335 50.5664193,60.8100374 L50.5474005,60.4277596 L48.4213735,59.5615472 L48.8182447,56.9025099 L51.1065633,56.7300279 L51.2429879,56.3774678 C51.6447124,55.3392968 52.2123888,54.3836845 52.9287696,53.5529583 L53.1772759,53.2647865 L52.2677197,51.2080525 L54.4759042,49.6545947 L56.2085311,51.1056698 L56.5527146,50.9428912 C57.4755656,50.506437 58.5951618,50.2141788 59.7608977,50.0970223 L60.1252108,50.0604089 L60.9207473,48.0045151 L63.5615848,48.4026214 L63.7334289,50.5901972 L64.0921162,50.7230059 C65.1316975,51.1079245 66.1475134,51.7204615 67.0119818,52.4734134 L67.2945152,52.7195001 L69.2920503,51.8591332 L70.879155,54.0301601 L69.4500373,55.6962254 L69.6036946,56.0436831 C70.0499891,57.0528666 70.335865,58.1877223 70.4504505,59.3968855 L70.4849724,59.7611787 L72.4738145,60.5606932 L72.0788022,63.2072756 L69.9828,63.3211395 Z" id="Shape"></path>
                <path d="M61.526311,53.2137964 C65.3079055,53.7645938 67.9008582,57.2902468 67.3494564,61.1139426 C66.8013992,64.914445 63.2932868,67.5203624 59.4886144,66.9662036 C55.7070199,66.4154062 53.1140672,62.8897532 53.665469,59.0660574 C54.2135262,55.265555 57.7216386,52.6596376 61.526311,53.2137964 Z M61.6975696,52.0262036 C57.242883,51.3773689 53.1268081,54.4348967 52.4837847,58.8939426 C51.838178,63.3709026 54.8804942,67.5075578 59.3173558,68.1537964 C63.7720423,68.8026311 67.8881172,65.7451033 68.5311407,61.2860574 C69.1767474,56.8090974 66.1344312,52.6724422 61.6975696,52.0262036 Z" id="Shape"></path>
                <path d="M51.1489332,83.4436549 C45.0927221,80.9856484 40.1879095,76.2429114 37.5602616,70.3158135 L36.4695891,70.8041865 C39.2234472,77.0159723 44.3593418,81.9821555 50.7018131,84.5563451 L51.1489332,83.4436549 Z" id="Shape"></path>
                <path d="M85.493235,61.2310017 C85.3214294,64.7994037 84.414909,68.264392 82.8689987,71.3716718 L83.9369715,71.9083282 C85.5568684,68.6523352 86.5060244,65.0243811 86.6858695,61.2889983 L85.493235,61.2310017 Z" id="Shape"></path>
                <path d="M52.5558083,76.9785828 C48.6505686,75.1040677 45.4815325,71.9496638 43.6432012,68.0814127 L42.565754,68.5985873 C44.5226868,72.7164021 47.8913009,76.0694624 52.0412066,78.0614172 L52.5558083,76.9785828 Z" id="Shape"></path>
                <path d="M78.9855332,60.6964887 C78.8680804,63.7065091 78.0997658,66.5426983 76.7353772,68.9423166 L77.7720855,69.5376834 C79.2345626,66.9655517 80.0538737,63.941112 80.1786459,60.7435113 L78.9855332,60.6964887 Z" id="Shape"></path>
                <path d="M48.7362614,45.6443744 C52.0017931,42.9592167 56.1304968,41.46 60.4776119,41.46 C63.9506388,41.46 67.3169479,42.4436444 70.2554305,44.2517108 L70.8788978,43.2282892 C67.7555754,41.3064898 64.1741916,40.26 60.4776119,40.26 C55.853221,40.26 51.4577718,41.8560774 47.9801565,44.7156256 L48.7362614,45.6443744 Z" id="Shape"></path>
                <path d="M103.880597,45.8867242 L103.880597,38.46 L102.686567,38.46 L102.686567,57.18 C102.686567,57.9286292 102.058337,58.56 101.313433,58.56 C100.568528,58.56 99.9402985,57.9286292 99.9402985,57.18 L99.9402985,45.66 L97.6119403,45.66 L97.6119403,57.12 C97.6119403,57.8686292 96.9837106,58.5 96.238806,58.5 C95.4939013,58.5 94.8656716,57.8686292 94.8656716,57.12 L94.8656716,38.46 L93.6716418,38.46 L93.6716418,45.8744856 C93.2161248,45.9537037 92.7164179,45.4976429 92.7164179,44.58 L92.7164179,35.04 C92.7164179,34.3213708 92.8968864,34.14 93.5522388,34.14 L103.343284,34.14 C104.513714,34.14 104.716418,34.2742682 104.716418,35.04 L104.835818,44.583543 C104.834434,45.4390628 104.331912,45.9672041 103.880597,45.8867242 Z M93.6716418,57.12 C93.6716418,58.5313708 94.8344569,59.7 96.238806,59.7 C97.5016593,59.7 98.5691984,58.7549988 98.771499,57.53827 C98.7941657,57.4019423 98.8059701,57.2622033 98.8059701,57.12 L98.8059701,46.26 L98.2089552,46.86 L99.3432836,46.86 L98.7462687,46.26 L98.7462687,57.18 C98.7462687,57.3014163 98.7548743,57.4210361 98.771499,57.53827 C98.9481236,58.78379 100.029896,59.76 101.313433,59.76 C102.717782,59.76 103.880597,58.5913708 103.880597,57.18 L103.880597,47.1123875 C105.001233,47.1832852 106.029851,46.0467277 106.029851,44.58 L105.910401,35.0324534 C105.910448,33.4807318 105.094109,32.94 103.343284,32.94 L93.5522388,32.94 C92.2374419,32.94 91.5223881,33.6586292 91.5223881,35.04 L91.5223881,44.58 C91.5223881,46.1470187 92.5777061,47.1464887 93.6716418,47.0857653 L93.6716418,57.12 Z M98.8656716,31.44 C97.2849461,31.44 96,30.1486292 96,28.56 C96,26.9713708 97.2849461,25.68 98.8656716,25.68 C100.446397,25.68 101.731343,26.9713708 101.731343,28.56 C101.681878,30.141416 100.389755,31.44 98.8656716,31.44 Z M98.8656716,32.64 C101.043081,32.64 102.855435,30.818584 102.925082,28.5787409 C102.925373,26.3086292 101.105842,24.48 98.8656716,24.48 C96.6255016,24.48 94.8059701,26.3086292 94.8059701,28.56 C94.8059701,30.8113708 96.6255016,32.64 98.8656716,32.64 Z" id="Shape"></path>
                <path d="M86.1102732,45.1516872 C85.9169108,45.2404027 85.7121923,45.2896019 85.5944244,45.3050398 L85.0746269,45.3731784 L85.0746269,52.92 C85.0746269,53.3086292 84.8046061,53.58 84.4179104,53.58 C84.0312148,53.58 83.761194,53.3086292 83.761194,52.92 L83.761194,45.3 L81.8507463,45.3 L81.8507463,52.92 C81.8507463,53.3086292 81.5807255,53.58 81.1940299,53.58 C80.8073342,53.58 80.5373134,53.3086292 80.5373134,52.92 L80.5373134,40.6473775 L75.8070829,34.7821988 C75.6759329,34.636769 75.6713587,34.4988557 75.7357918,34.414004 C75.7695428,34.3695574 75.7852219,34.3680878 75.9099753,34.475554 C75.9173068,34.4837309 75.974474,34.5381789 76.0547066,34.6141008 C76.1880275,34.7402588 76.337593,34.8807403 76.5000121,35.0319874 C76.9642523,35.4642949 77.4389339,35.8966924 77.8972226,36.3009426 C77.998221,36.3900319 78.0974987,36.4769251 78.1948822,36.5614376 C79.5483046,37.7359816 80.2829182,38.28 80.7761194,38.28 L85.8507463,38.28 C86.5135817,38.28 86.5074627,38.2760467 86.5074627,38.64 L86.4477893,44.814175 C86.4477612,44.932407 86.3494459,45.0419537 86.1102732,45.1516872 Z M87.7014644,38.645825 C87.7014925,37.4739533 87.0917251,37.08 85.8507463,37.08 L80.7761194,37.08 C80.8383135,37.08 80.8017781,37.0656083 80.7369494,37.028488 C80.6195252,36.9612521 80.4643226,36.8565539 80.2782367,36.7187479 C79.929295,36.460339 79.4870174,36.0973144 78.975261,35.6531954 C78.8803645,35.5708412 78.7835035,35.4860633 78.684867,35.3990574 C78.2355064,35.0026826 77.7684902,34.5772676 77.311555,34.1517626 C77.1515627,34.0027754 77.0043116,33.8644678 76.8732319,33.7404305 C76.794824,33.6662352 76.7394096,33.6134566 76.7104105,33.5856787 C76.0463562,33.012543 75.2406434,33.0880629 74.7865963,33.685996 C74.3748146,34.2282698 74.4008999,35.0147405 74.9031916,35.5654348 L79.3432836,41.0725711 L79.3432836,52.92 C79.3432836,53.9713708 80.1478897,54.78 81.1940299,54.78 C81.8977927,54.78 82.4922476,54.4140496 82.8059701,53.8544305 C82.9585947,53.5821784 83.0447761,53.2640892 83.0447761,52.92 L83.0447761,45.9 L82.4477612,46.5 L83.1641791,46.5 L82.5671642,45.9 L82.5671642,52.92 C82.5671642,53.2640892 82.6533456,53.5821784 82.8059701,53.8544305 C83.1196927,54.4140496 83.7141476,54.78 84.4179104,54.78 C85.4640506,54.78 86.2686567,53.9713708 86.2686567,52.92 L86.2686567,46.3749423 C86.3774582,46.3395565 86.4910743,46.2961076 86.6061447,46.2433128 C87.2241887,45.9597515 87.6404549,45.4965808 87.6417878,44.8232449 L87.7014644,38.645825 Z M82.8059701,36.12 C81.904938,36.12 81.1940299,35.3920569 81.1940299,34.5 C81.1940299,33.6313708 81.9416625,32.88 82.8059701,32.88 C83.7070023,32.88 84.4179104,33.6079431 84.4179104,34.5 C84.4179104,35.3920569 83.7070023,36.12 82.8059701,36.12 Z M82.8059701,37.32 C84.3714941,37.32 85.6119403,36.0498299 85.6119403,34.5 C85.6119403,32.9501701 84.3714941,31.68 82.8059701,31.68 C81.2822181,31.68 80,32.9686292 80,34.5 C80,36.0498299 81.2404462,37.32 82.8059701,37.32 Z" id="Shape"></path>
                <path d="M25.2537313,70.8 C24.6116676,70.8 24.0292668,71.1306978 23.6806767,71.6225439 C23.3373713,71.121938 22.7509995,70.8 22.0895522,70.8 C21.0965617,70.8 20.2462758,71.5909795 20.1828925,72.5457514 C19.8633853,72.2782472 19.4478639,72.12 18.9850746,72.12 C17.9527308,72.12 17.0746269,72.9749165 17.0746269,73.98 L17.0746269,81.2183592 L16.8324938,80.7316718 C16.3868654,79.8359587 15.0735511,79.4147202 14.180768,79.8633437 C13.2748,80.3185926 12.7631721,81.5093391 13.1878409,82.4482818 C13.2239126,82.5222387 13.2756157,82.6268823 13.3481579,82.773227 C13.4689663,83.0169427 13.6040611,83.2884642 13.7501712,83.5808543 C14.1676985,84.4163943 14.5899552,85.2519979 14.9908596,86.0323256 C15.0523754,86.151988 15.0523754,86.151988 15.1139794,86.2715161 C16.0383943,88.0639309 16.6714124,89.2172244 16.963392,89.5906929 C17.9913374,90.9932212 18.9746506,91.56 20.7164179,91.56 L25.4925373,91.56 C28.1693359,91.56 30.1492537,88.9837101 30.1492537,86.04 L30.1492537,74.0507493 C30.3655826,73.0287432 29.4901555,72.12 28.4179104,72.12 C27.9436649,72.12 27.5019697,72.3004187 27.1630015,72.5929323 C27.1272284,71.5765535 26.2810253,70.8 25.2537313,70.8 Z M28.4179104,73.32 C28.7866394,73.32 29.0389623,73.5910731 28.9762604,73.8221296 L28.9552239,73.8996491 L28.9552239,86.04 C28.9552239,88.3788162 27.4326541,90.36 25.4925373,90.36 L20.7164179,90.36 C19.3797313,90.36 18.7398058,89.9911488 17.9134662,88.8640806 C17.6803693,88.5654637 17.0439467,87.4059675 16.1740726,85.7193057 C16.112911,85.6006359 16.112911,85.6006359 16.051811,85.4817825 C15.6531899,84.705899 15.2328728,83.8741336 14.8171999,83.0423045 C14.6716899,82.7511154 14.5371663,82.480742 14.4169108,82.2381417 C14.3448147,82.0926968 14.2935395,81.9889192 14.2663645,81.933762 C14.131724,81.6352762 14.3540124,81.1179291 14.7147544,80.9366563 C15.0237545,80.7813837 15.6169131,80.9716362 15.7645211,81.2683282 L18.2686567,86.3016408 L18.2686567,73.98 C18.2686567,73.6463335 18.6038412,73.32 18.9850746,73.32 C19.3717703,73.32 19.641791,73.5913708 19.641791,73.98 L19.641791,80.1 L21.3731343,80.1 L21.3731343,72.66 C21.3731343,72.3263335 21.7083188,72 22.0895522,72 C22.4964929,72 22.8059701,72.2915856 22.8059701,72.66 L22.8059701,80.1 L24.5373134,80.1 L24.5373134,72.66 C24.5373134,72.3263335 24.8724979,72 25.2537313,72 C25.660672,72 25.9701493,72.2915856 25.9701493,72.66 L25.9701493,80.1 L27.7014925,80.1 L27.7014925,73.98 C27.7014925,73.6463335 28.036677,73.32 28.4179104,73.32 Z" id="Shape"></path>
                <path d="M17.887987,84.5988315 C17.8874528,84.5988267 17.8874528,84.5988267 17.9161187,84.5976894 C18.1355263,84.5904055 18.4364874,84.602477 18.7876484,84.6502454 C19.3149768,84.7219779 19.83384,84.8604786 20.3135239,85.0793186 C20.5477338,85.1861691 20.7683836,85.3105279 20.973606,85.4533153 C21.1832346,85.5991684 21.3795714,85.7546315 21.5630612,85.9184218 C21.9842215,86.2943662 22.3196903,86.696132 22.5772721,87.0956109 C22.7274012,87.3284433 22.8158069,87.5021475 22.8504197,87.5871797 L23.9555504,87.1328203 C23.7311821,86.5816221 23.2255238,85.7974062 22.3559872,85.0212232 C22.1369742,84.8257235 21.9028734,84.6403582 21.6532597,84.4666847 C21.3876506,84.2818821 21.1047242,84.122424 20.807078,83.9866327 C20.2129961,83.7156024 19.5834411,83.5475546 18.9478037,83.4610889 C18.5257227,83.4036733 18.1591036,83.3889683 17.8766978,83.3983436 C17.8298286,83.4001816 17.8298286,83.4001816 17.8135055,83.4011685 L17.887987,84.5988315 Z" id="Shape"></path>
                <path d="M22.7868356,82.8328201 C23.0380406,83.2115116 23.504534,83.7529432 24.1827441,84.2920278 C24.5605397,84.5923237 24.9678592,84.8571697 25.4046486,85.0766563 C26.7082904,85.7317363 28.0103103,85.8720473 29.1301153,85.7203561 C29.2777102,85.7003626 29.387083,85.6793652 29.4535167,85.6632493 L29.1733489,84.4967507 C29.1455206,84.5035014 29.076229,84.516804 28.9706166,84.5311105 C28.0699307,84.6531194 27.0028871,84.5381304 25.938635,84.0033437 C25.5780793,83.8221645 25.2392832,83.6018737 24.9234458,83.3508259 C24.5908173,83.0864316 24.3014242,82.8027648 24.0579566,82.5201861 C23.9150778,82.3543551 23.8218341,82.2297495 23.7803285,82.1671799 L22.7868356,82.8328201 Z" id="Shape"></path>
                <polygon id="Shape" points="20.358209 80.46 29.2537313 80.46 29.2537313 79.26 20.358209 79.26"></polygon>
                <path d="M28.1376672,99.9743316 C26.2987979,98.4727799 24.5881593,96.8264352 22.8908075,94.9378282 L22.0047148,95.7421718 C23.7420117,97.6752247 25.4968225,99.3640815 27.3847208,100.905668 L28.1376672,99.9743316 Z" id="Shape"></path>
                <path d="M11.6339972,25.0906876 C4.4564208,35.1646636 0.537313433,47.277738 0.537313433,60 C0.537313433,93.1513708 27.2523673,120 60.238806,120 C93.2252446,120 119.940299,93.1513708 119.940299,60 C119.940299,43.4684578 113.26869,28.0102284 101.667757,16.7877223 L100.839705,17.6522777 C112.208937,28.6506418 118.746269,43.7977474 118.746269,60 C118.746269,92.4886292 92.5658001,118.8 60.238806,118.8 C27.9118118,118.8 1.73134328,92.4886292 1.73134328,60 C1.73134328,47.529881 5.57151272,35.6607859 12.6048088,25.7893124 L11.6339972,25.0906876 Z" id="Shape"></path>
                <path d="M101.667757,103.212278 C113.26869,91.9897716 119.940299,76.5315422 119.940299,60 C119.940299,26.8486292 93.2252446,0 60.238806,0 C27.2523673,0 0.537313433,26.8486292 0.537313433,60 C0.537313433,72.725568 4.45701771,84.7770319 11.6940989,94.9098735 L12.66411,94.2101265 C5.57158379,84.2796805 1.73134328,72.4725347 1.73134328,60 C1.73134328,27.5113708 27.9118118,1.2 60.238806,1.2 C92.5658001,1.2 118.746269,27.5113708 118.746269,60 C118.746269,76.2022526 112.208937,91.3493582 100.839705,102.347722 L101.667757,103.212278 Z" id="Shape"></path>
            </g>
        </g>
    </g>
</svg>