<?xml version="1.0" encoding="UTF-8" standalone="no"?>
<svg width="30px" height="30px" viewBox="0 0 30 30" version="1.1" xmlns="http://www.w3.org/2000/svg" xmlns:xlink="http://www.w3.org/1999/xlink">
    <!-- Generator: Sketch 41 (35326) - http://www.bohemiancoding.com/sketch -->
    <title>clock</title>
    <desc>Created with Sketch.</desc>
    <defs></defs>
    <g id="All" stroke="none" stroke-width="1" fill="none" fill-rule="evenodd">
        <g id="clock" fill="#000000">
            <g id="Group" transform="translate(2.000000, 2.000000)">
                <path d="M22.2,3.8 C19.7,1.4 16.5,0 13,0 C9.5,0 6.3,1.4 3.8,3.8 C1.4,6.3 0,9.5 0,13 C0,16.5 1.4,19.7 3.8,22.2 C6.3,24.6 9.5,26 13,26 C16.5,26 19.7,24.6 22.2,22.2 C24.7,19.7 26,16.5 26,13 C26,9.5 24.6,6.3 22.2,3.8 L22.2,3.8 Z M21.5,21.5 C19.2,23.8 16.2,25 13,25 C9.8,25 6.8,23.8 4.5,21.5 C2.2,19.2 1,16.2 1,13 C1,9.8 2.2,6.8 4.5,4.5 C6.8,2.2 9.8,1 13,1 C16.2,1 19.2,2.2 21.5,4.5 C23.8,6.8 25,9.8 25,13 C25,16.2 23.8,19.2 21.5,21.5 L21.5,21.5 Z" id="Shape"></path>
                <path d="M13.5,4.4 L12.5,4.4 L12.5,7.35199447 L12.5,13.2 L16.5,17.2 L17.3,16.5 L13.5,12.8 L13.5,4.4 Z" id="Shape"></path>
            </g>
        </g>
    </g>
</svg>