<?xml version="1.0" encoding="UTF-8" standalone="no"?>
<svg width="30px" height="30px" viewBox="0 0 30 30" version="1.1" xmlns="http://www.w3.org/2000/svg" xmlns:xlink="http://www.w3.org/1999/xlink">
    <!-- Generator: Sketch 3.7.1 (28215) - http://www.bohemiancoding.com/sketch -->
    <title>clock</title>
    <desc>Created with Sketch.</desc>
    <defs></defs>
    <g id="Icons" stroke="none" stroke-width="1" fill="none" fill-rule="evenodd">
        <g id="clock" fill="#000000">
            <g id="Group" transform="translate(2.030872, 2.030872)">
                <path d="M20.9173384,20.9165308 C18.7818612,23.052008 15.9420965,24.2295896 12.9230293,24.2295896 C9.90234672,24.2295896 7.06258203,23.052008 4.92710482,20.9165308 C2.79162761,18.7826689 1.61566135,15.9429042 1.61566135,12.9222216 C1.61566135,9.90315439 2.79162761,7.06338969 4.92710482,4.92791249 C7.06258203,2.79081995 9.90234672,1.61485368 12.9230293,1.61485368 C15.9420965,1.61485368 18.7818612,2.79081995 20.9173384,4.92791249 C23.0528157,7.06338969 24.2303973,9.90153905 24.2303973,12.9222216 C24.2303973,15.9412889 23.0528157,18.7810536 20.9173384,20.9165308 M22.0593826,3.78586833 C19.6186065,1.34347685 16.3733919,-0.000484601484 12.9230293,-0.000484601484 C9.4710514,-0.000484601484 6.2258368,1.34347685 3.78506066,3.78586833 C1.34428452,6.22502913 0.000323067656,9.47024373 0.000323067656,12.9222216 C0.000323067656,16.3741995 1.34428452,19.6177988 3.78506066,22.0585749 C6.2258368,24.5009664 9.4710514,25.8449279 12.9230293,25.8449279 C16.3733919,25.8449279 19.6186065,24.5009664 22.0593826,22.0585749 C24.5017741,19.6177988 25.8457355,16.3725842 25.8457355,12.9222216 C25.8457355,9.47024373 24.5017741,6.22502913 22.0593826,3.78586833" id="Fill-1"></path>
                <polygon id="Fill-4" points="13.7303754 4.54556192 12.1150371 4.54556192 12.1150371 13.2570813 16.1291527 17.2631202 17.2711969 16.121076 13.7303754 12.5867159"></polygon>
            </g>
        </g>
    </g>
</svg>