<?xml version="1.0" encoding="UTF-8" standalone="no"?>
<svg width="18px" height="18px" viewBox="0 0 18 18" version="1.1" xmlns="http://www.w3.org/2000/svg" xmlns:xlink="http://www.w3.org/1999/xlink">
    <!-- Generator: Sketch 41 (35326) - http://www.bohemiancoding.com/sketch -->
    <title>community</title>
    <desc>Created with Sketch.</desc>
    <defs></defs>
    <g id="All" stroke="none" stroke-width="1" fill="none" fill-rule="evenodd">
        <g id="community" fill="#000000">
            <path d="M9,0 C4,0 0,4 0,9 C0,14 4,18 9,18 C14,18 18,14 18,9 C18,4 14,0 9,0 L9,0 Z M6.3,5.6 C7,5.6 7.6,6.2 7.6,6.9 C7.6,7.6 7,8.2 6.3,8.2 C5.6,8.2 5,7.7 5,7 C5,6.2 5.6,5.6 6.3,5.6 L6.3,5.6 Z M12.8,11.5 C12.3,13.2 10.7,14.3 9,14.3 C7.2,14.3 5.7,13.2 5.2,11.5 C5.1,11.1 5.3,10.8 5.6,10.7 C5.9,10.6 6.3,10.8 6.4,11.1 C6.8,12.2 7.8,13 9,13 C10.2,13 11.2,12.2 11.5,11.1 C11.6,10.7 12,10.5 12.3,10.7 C12.7,10.8 12.9,11.1 12.8,11.5 L12.8,11.5 Z M11.7,8.3 C11,8.3 10.4,7.7 10.4,7 C10.4,6.3 11,5.7 11.7,5.7 C12.4,5.7 13,6.2 13,7 C13,7.7 12.4,8.3 11.7,8.3 L11.7,8.3 Z" id="Shape"></path>
        </g>
    </g>
</svg>