<?xml version="1.0" encoding="UTF-8" standalone="no"?>
<svg width="26px" height="26px" viewBox="0 0 26 26" version="1.1" xmlns="http://www.w3.org/2000/svg" xmlns:xlink="http://www.w3.org/1999/xlink">
    <!-- Generator: Sketch 41 (35326) - http://www.bohemiancoding.com/sketch -->
    <title>community</title>
    <desc>Created with Sketch.</desc>
    <defs></defs>
    <g id="All" stroke="none" stroke-width="1" fill="none" fill-rule="evenodd">
        <g id="community" fill="#000000">
            <path d="M13,4 C8,4 4,8 4,13 C4,18 8,22 13,22 C18,22 22,18 22,13 C22,8 18,4 13,4 L13,4 Z M10.3,9.6 C11,9.6 11.6,10.2 11.6,10.9 C11.6,11.6 11,12.2 10.3,12.2 C9.6,12.2 9,11.7 9,11 C9,10.2 9.6,9.6 10.3,9.6 L10.3,9.6 Z M16.8,15.5 C16.3,17.2 14.7,18.3 13,18.3 C11.2,18.3 9.7,17.2 9.2,15.5 C9.1,15.1 9.3,14.8 9.6,14.7 C9.9,14.6 10.3,14.8 10.4,15.1 C10.8,16.2 11.8,17 13,17 C14.2,17 15.2,16.2 15.5,15.1 C15.6,14.7 16,14.5 16.3,14.7 C16.7,14.8 16.9,15.1 16.8,15.5 L16.8,15.5 Z M15.7,12.3 C15,12.3 14.4,11.7 14.4,11 C14.4,10.3 15,9.7 15.7,9.7 C16.4,9.7 17,10.2 17,11 C17,11.7 16.4,12.3 15.7,12.3 L15.7,12.3 Z" id="Shape"></path>
        </g>
    </g>
</svg>