<?xml version="1.0" encoding="UTF-8" standalone="no"?>
<svg width="26px" height="26px" viewBox="0 0 26 26" version="1.1" xmlns="http://www.w3.org/2000/svg" xmlns:xlink="http://www.w3.org/1999/xlink">
    <!-- Generator: Sketch 41 (35326) - http://www.bohemiancoding.com/sketch -->
    <title>creative-commons</title>
    <desc>Created with Sketch.</desc>
    <defs></defs>
    <g id="All" stroke="none" stroke-width="1" fill="none" fill-rule="evenodd">
        <g id="creative-commons" fill="#000000">
            <g id="Group" transform="translate(4.000000, 4.000000)">
                <path d="M8.98790625,0.08746875 C6.54609375,0.08746875 4.39734375,0.991125 2.73684375,2.6758125 C1.02740625,4.4094375 0.0995625,6.6560625 0.0995625,9 C0.0995625,11.3686875 1.0029375,13.566375 2.712375,15.2755313 C4.4218125,16.9849688 6.6436875,17.9128125 8.98790625,17.9128125 C11.3318438,17.9128125 13.6029375,16.9849688 15.3610313,15.2513438 C17.0215313,13.6153125 17.9004375,11.4420938 17.9004375,9 C17.9004375,6.58265625 17.0215313,4.38525 15.3365625,2.70028125 C13.6274063,0.99084375 11.4297188,0.08746875 8.98790625,0.08746875 Z M9.01209375,1.69903125 C11.0145938,1.69903125 12.7971563,2.455875 14.1887813,3.8480625 C15.5562188,5.21521875 16.2885938,7.02225 16.2885938,9 C16.2885938,11.0022188 15.5804063,12.7605938 14.21325,14.1035625 C12.7724063,15.5196563 10.9167188,16.2767813 9.01209375,16.2767813 C7.08328125,16.2767813 5.27625,15.5199375 3.88434375,14.12775 C2.4924375,12.7358438 1.711125,10.904625 1.711125,9 C1.711125,7.0711875 2.4924375,5.23996875 3.88434375,3.8233125 C5.25178125,2.4316875 7.009875,1.69903125 9.01209375,1.69903125 Z" id="Shape"></path>
                <path d="M8.89734375,7.5189375 C8.39390625,6.6009375 7.53496875,6.23559375 6.5379375,6.23559375 C5.0866875,6.23559375 3.93159375,7.26215625 3.93159375,8.99971875 C3.93159375,10.7668125 5.0175,11.764125 6.58715625,11.764125 C7.5943125,11.764125 8.45325,11.2111875 8.926875,10.3722188 L7.82128125,9.8094375 C7.57434375,10.4014688 7.19915625,10.5795 6.72553125,10.5795 C5.90596875,10.5795 5.53078125,9.8983125 5.53078125,8.99971875 C5.53078125,8.1016875 5.84690625,7.42021875 6.72553125,7.42021875 C6.96234375,7.42021875 7.43625,7.54846875 7.71271875,8.1410625 L8.89734375,7.5189375 Z M14.038875,7.5189375 C13.5354375,6.6009375 12.6765,6.23559375 11.6794688,6.23559375 C10.2282188,6.23559375 9.073125,7.26215625 9.073125,8.99971875 C9.073125,10.7668125 10.1590313,11.764125 11.7286875,11.764125 C12.7358438,11.764125 13.5947813,11.2111875 14.0684063,10.3722188 L12.9628125,9.8094375 C12.715875,10.4014688 12.3406875,10.5795 11.8670625,10.5795 C11.0475,10.5795 10.6723125,9.8983125 10.6723125,8.99971875 C10.6723125,8.1016875 10.9884375,7.42021875 11.8670625,7.42021875 C12.103875,7.42021875 12.5777813,7.54846875 12.85425,8.1410625 L14.038875,7.5189375 Z" id="Combined-Shape"></path>
            </g>
        </g>
    </g>
</svg>