<?xml version="1.0" encoding="UTF-8" standalone="no"?>
<svg width="18px" height="18px" viewBox="0 0 18 18" version="1.1" xmlns="http://www.w3.org/2000/svg" xmlns:xlink="http://www.w3.org/1999/xlink">
    <!-- Generator: Sketch 41 (35326) - http://www.bohemiancoding.com/sketch -->
    <title>creative-commons-solid</title>
    <desc>Created with Sketch.</desc>
    <defs></defs>
    <g id="All" stroke="none" stroke-width="1" fill="none" fill-rule="evenodd">
        <g id="creative-commons-solid" fill="#000000">
            <path d="M9,0 C4.073684,0 0,4.0736842 0,9 C0,13.9263158 4.073684,18 9,18 C13.926316,18 18,13.9263158 18,9 C18,4.0736842 13.926316,0 9,0 L9,0 Z M7.863158,11.6526316 C7.389474,11.9368421 6.915789,12.0315789 6.347368,12.0315789 C5.494737,12.0315789 4.736842,11.7473684 4.168421,11.2736842 C3.6,10.7052632 3.315789,9.9473684 3.315789,9 C3.315789,8.0526316 3.6,7.2947368 4.168421,6.8210526 C4.736842,6.2526316 5.4,5.9684211 6.252632,5.9684211 C7.484211,5.9684211 8.431579,6.4421053 8.905263,7.3894737 L7.578947,8.0526316 C7.484211,7.7684211 7.294737,7.5789474 7.105263,7.4842105 C6.915789,7.2947368 6.726316,7.2947368 6.536842,7.2947368 C5.684211,7.2947368 5.210526,7.8631579 5.210526,9 C5.210526,9.5684211 5.305263,9.9473684 5.589474,10.2315789 C5.778947,10.5157895 6.157895,10.7052632 6.631579,10.7052632 C7.2,10.7052632 7.673684,10.4210526 7.863158,9.8526316 L9.094737,10.4210526 C8.715789,10.9894737 8.336842,11.3684211 7.863158,11.6526316 L7.863158,11.6526316 Z M13.547368,11.6526316 C13.073684,11.9368421 12.6,12.0315789 12.031579,12.0315789 C11.084211,12.0315789 10.421053,11.7473684 9.852632,11.2736842 C9.284211,10.7052632 9,9.9473684 9,9 C9,8.0526316 9.284211,7.2947368 9.852632,6.8210526 C10.421053,6.2526316 11.084211,5.9684211 11.936842,5.9684211 C13.168421,5.9684211 14.115789,6.4421053 14.589474,7.3894737 L13.263158,8.0526316 C13.073684,7.7684211 12.978947,7.5789474 12.694737,7.4842105 C12.505263,7.3894737 12.315789,7.2947368 12.126316,7.2947368 C11.273684,7.2947368 10.8,7.8631579 10.8,9 C10.8,9.5684211 10.894737,9.9473684 11.178947,10.2315789 C11.368421,10.5157895 11.747368,10.7052632 12.221053,10.7052632 C12.789474,10.7052632 13.263158,10.4210526 13.452632,9.8526316 L14.684211,10.4210526 C14.4,10.9894737 14.021053,11.3684211 13.547368,11.6526316 L13.547368,11.6526316 Z" id="License"></path>
        </g>
    </g>
</svg>