<?xml version="1.0" encoding="UTF-8" standalone="no"?>
<svg width="18px" height="18px" viewBox="0 0 18 18" version="1.1" xmlns="http://www.w3.org/2000/svg" xmlns:xlink="http://www.w3.org/1999/xlink">
    <!-- Generator: Sketch 41 (35326) - http://www.bohemiancoding.com/sketch -->
    <title>document-page</title>
    <desc>Created with Sketch.</desc>
    <defs></defs>
    <g id="All" stroke="none" stroke-width="1" fill="none" fill-rule="evenodd">
        <g id="document-page" fill="#000000">
            <path d="M10.1273979,2 L14.2123298,6.08493196 L14.2123298,13.9988265 C14.2123298,14.3394138 14.085403,14.6366344 13.8294337,14.8926037 C13.5745221,15.1475153 13.2762438,15.2755 12.9356564,15.2755 L5.27667346,15.2755 C4.9371439,15.2755 4.63886559,15.1475153 4.38289627,14.8926037 C4.12798467,14.6366344 4,14.3394138 4,13.9988265 L4,3.27561573 C4,2.93608617 4.12798467,2.63780786 4.38289627,2.38289626 C4.63886559,2.12692694 4.9371439,2 5.27667346,2 L10.1273979,2 L10.1273979,2 Z M9.61757474,6.59475516 L13.1916258,6.59475516 L9.61757474,3.02176185 L9.61757474,6.59475516 L9.61757474,6.59475516 Z" id="Imported-Layers"></path>
        </g>
    </g>
</svg>