<?xml version="1.0" encoding="UTF-8" standalone="no"?>
<svg width="18px" height="18px" viewBox="0 0 18 18" version="1.1" xmlns="http://www.w3.org/2000/svg" xmlns:xlink="http://www.w3.org/1999/xlink">
    <!-- Generator: Sketch 41 (35326) - http://www.bohemiancoding.com/sketch -->
    <title>download-cloud</title>
    <desc>Created with Sketch.</desc>
    <defs></defs>
    <g id="All" stroke="none" stroke-width="1" fill="none" fill-rule="evenodd">
        <g id="download-cloud" fill="#000000">
            <path d="M13.8998339,7.70008795 C14.7664419,7.74464966 15.4997557,8.08355321 16.1001661,8.71679859 C16.6997948,9.35004398 17,10.111502 17,11 C17,11.9115606 16.6716505,12.6949086 16.0169061,13.350044 C15.360989,14.0059611 14.577641,14.3331379 13.6664712,14.3331379 L5,14.3331379 C3.88869344,14.3331379 2.94429786,13.944591 2.16720414,13.1667155 C1.38854686,12.38884 1,11.4448353 1,10.3335288 C1,9.31134565 1.34437604,8.42245676 2.03351901,7.66686211 C2.72188019,6.91165836 3.56659826,6.4781589 4.56689143,6.36675462 C4.98866413,5.54509919 5.59454705,4.88918206 6.38375843,4.4001759 C7.17179713,3.91156064 8.04426854,3.66686211 9,3.66686211 C10.20043,3.66686211 11.2550572,4.04993648 12.1670087,4.816867 C13.0773967,5.58340663 13.6551353,6.54500147 13.8998339,7.70008795 L13.8998339,7.70008795 Z M7.93325515,9.64868562 L5.66647122,9.64868562 L9,12.9818235 L12.3335288,9.64868562 L10.0667448,9.64868562 L10.0667448,7.1153132 L7.93325515,7.1153132 L7.93325515,9.64868562 L7.93325515,9.64868562 Z" id="Imported-Layers"></path>
        </g>
    </g>
</svg>