<?xml version="1.0" encoding="UTF-8" standalone="no"?>
<svg width="26px" height="26px" viewBox="0 0 26 26" version="1.1" xmlns="http://www.w3.org/2000/svg" xmlns:xlink="http://www.w3.org/1999/xlink">
    <!-- Generator: Sketch 41 (35326) - http://www.bohemiancoding.com/sketch -->
    <title>email</title>
    <desc>Created with Sketch.</desc>
    <defs></defs>
    <g id="All" stroke="none" stroke-width="1" fill="none" fill-rule="evenodd">
        <g id="email" fill="#000000">
            <path d="M13,22 C17.9705627,22 22,17.9705627 22,13 C22,8.02943725 17.9705627,4 13,4 C8.02943725,4 4,8.02943725 4,13 C4,17.9705627 8.02943725,22 13,22 Z M18.6842173,11.4140019 C18.4938976,11.6233536 18.2782018,11.8073294 18.0498181,11.9659292 C16.9903713,12.6828004 15.9245806,13.4060155 14.8905098,14.1546067 C14.3576144,14.5479342 13.6978392,15.0300776 13.006344,15.0300776 L13,15.0300776 L12.993656,15.0300776 C12.3021608,15.0300776 11.6423856,14.5479342 11.1094902,14.1546067 C10.0754194,13.3996715 9.0096287,12.6828004 7.95652594,11.9659292 C7.72179822,11.8073294 7.50610247,11.6233536 7.3157827,11.4140019 L7.3157827,16.4511319 C7.3157827,17.0094033 7.77255016,17.4661707 8.33082151,17.4661707 L17.6691785,17.4661707 C18.2274498,17.4661707 18.6842173,17.0094033 18.6842173,16.4511319 L18.6842173,11.4140019 Z M18.6842173,9.54886806 C18.6842173,8.99059673 18.2211059,8.53382927 17.6691785,8.53382927 L8.33082151,8.53382927 C7.6520143,8.53382927 7.3157827,9.06672464 7.3157827,9.6884359 C7.3157827,10.2657392 7.95652594,10.9826104 8.40694941,11.287122 C9.39026825,11.9722732 10.3862751,12.6574244 11.3695939,13.3489196 C11.7819534,13.6343993 12.4797926,14.2180465 12.993656,14.2180465 L13,14.2180465 L13.006344,14.2180465 C13.5202074,14.2180465 14.2180465,13.6343993 14.6304061,13.3489196 C15.613725,12.6574244 16.6097317,11.9722732 17.5993946,11.287122 C18.1576659,10.9001385 18.6842173,10.2593952 18.6842173,9.54886806 Z" id="Oval-1"></path>
        </g>
    </g>
</svg>