<?xml version="1.0" encoding="UTF-8" standalone="no"?>
<svg width="90px" height="80px" viewBox="0 0 90 80" version="1.1" xmlns="http://www.w3.org/2000/svg" xmlns:xlink="http://www.w3.org/1999/xlink">
    <!-- Generator: Sketch 41 (35326) - http://www.bohemiancoding.com/sketch -->
    <title>envelope-outline</title>
    <desc>Created with Sketch.</desc>
    <defs></defs>
    <g id="All" stroke="none" stroke-width="1" fill="none" fill-rule="evenodd">
        <g id="envelope-outline" fill="#000000">
            <g id="icon-leadership-question" transform="translate(16.000000, 22.000000)">
                <path d="M39.8,16.5 L58,1.4 L58,35.2 L39.8,16.5 Z M19.9,17.1 L29.1,24.7 C29.2,24.8 29.3,24.8 29.4,24.8 C29.5,24.8 29.6,24.8 29.7,24.7 L38.9,17.1 L57.3,36 L1.7,36 L19.9,17.1 Z M29.5,23.7 L2,1 L57,1 L29.5,23.7 Z M1,1.4 L19.2,16.4 L1,35.3 L1,1.4 Z M59,0.5 C59,0.2 58.8,0 58.5,0 L0.5,0 C0.2,0 0,0.2 0,0.5 L0,36.5 L0,36.5 L0,36.7 L0,36.7 L0,36.7 C0,36.8 0.1,36.8 0.1,36.8 L0.1,36.8 L0.2,36.8 C0.2,36.8 0.3,36.8 0.3,36.9 L0.5,36.9 L58.5,36.9 L58.7,36.9 C58.7,36.9 58.8,36.9 58.8,36.8 L58.9,36.8 L58.9,36.8 L59,36.7 L59,36.7 L59,36.7 L59,36.5 L59,36.5 L59,0.5 L59,0.5 Z" id="Fill-1"></path>
            </g>
        </g>
    </g>
</svg>