<?xml version="1.0" encoding="UTF-8" standalone="no"?>
<svg width="100px" height="100px" viewBox="0 0 100 100" version="1.1" xmlns="http://www.w3.org/2000/svg" xmlns:xlink="http://www.w3.org/1999/xlink">
    <!-- Generator: Sketch 41 (35326) - http://www.bohemiancoding.com/sketch -->
    <title>envelope-letter</title>
    <desc>Created with Sketch.</desc>
    <defs></defs>
    <g id="All" stroke="none" stroke-width="1" fill="none" fill-rule="evenodd">
        <g id="envelope-letter" fill="#000000">
            <g id="icon-newsletter" transform="translate(14.000000, 14.000000)">
                <path d="M64.65,15.42 L64.65,6.05 C64.6174839,2.74985395 61.950146,0.0825161137 58.65,0.05 L14.1,0.05 C10.799854,0.0825161137 8.13251611,2.74985395 8.1,6.05 L8.1,15.42 L0.1,21.63 L0.1,66.63 C0.132516114,69.930146 2.79985395,72.5974839 6.1,72.63 L66.7,72.63 C70.000146,72.5974839 72.6674839,69.930146 72.7,66.63 L72.7,21.63 L64.65,15.42 Z M70.65,24.96 L70.65,63.84 L45.41,44.4 L70.65,24.96 Z M70.42,22.49 L64.7,26.9 L64.7,18.07 L70.42,22.49 Z M14.1,2.1 L58.6,2.1 C60.809139,2.1 62.6,3.890861 62.6,6.1 L62.6,28.51 L43.74,43.07 L40.03,40.24 L39.64,39.96 C37.6352902,38.6369221 35.0347098,38.6369221 33.03,39.96 C32.91,40.04 32.65,40.25 32.64,40.25 L28.99,43.06 L10.15,28.51 L10.15,6.05 C10.1769628,3.87974172 11.9297417,2.12696284 14.1,2.1 L14.1,2.1 Z M27.29,44.4 L2.1,63.84 L2.1,24.95 L27.29,44.4 Z M8.05,26.89 L2.33,22.48 L8.05,18.07 L8.05,26.89 L8.05,26.89 Z M66.65,70.59 L6.05,70.59 C3.840861,70.59 2.05,68.799139 2.05,66.59 L2.05,66.49 L33.95,41.9 L34.19,41.74 C35.4894928,40.9251472 37.1405072,40.9251472 38.44,41.74 L38.55,41.74 L70.6,66.49 L70.6,66.64 C70.5784258,68.8141624 68.8241009,70.5729287 66.65,70.6 L66.65,70.59 Z" id="Shape"></path>
                <rect id="Rectangle-path" x="19.8" y="13.4" width="33.8" height="2.1"></rect>
                <rect id="Rectangle-path" x="19.8" y="19.77" width="22.3" height="2.1"></rect>
                <rect id="Rectangle-path" x="19.8" y="26.14" width="33.8" height="2.1"></rect>
                <rect id="Rectangle-path" x="19.8" y="32.51" width="33.8" height="2.1"></rect>
            </g>
        </g>
    </g>
</svg>