<?xml version="1.0" encoding="UTF-8" standalone="no"?>
<svg width="26px" height="26px" viewBox="0 0 26 26" version="1.1" xmlns="http://www.w3.org/2000/svg" xmlns:xlink="http://www.w3.org/1999/xlink">
    <!-- Generator: Sketch 41 (35326) - http://www.bohemiancoding.com/sketch -->
    <title>facebook</title>
    <desc>Created with Sketch.</desc>
    <defs></defs>
    <g id="All" stroke="none" stroke-width="1" fill="none" fill-rule="evenodd">
        <g id="facebook" fill="#000000">
            <path d="M14.6645263,21.9087356 C18.8395789,21.1253829 22,17.4481884 22,13.0313721 C22,8.0432027 17.9708421,4 13,4 C8.02915789,4 4,8.0432027 4,13.0313721 C4,17.6554347 7.46357895,21.4685751 11.9294737,22 L11.9294737,15.5240308 L9.64347368,15.5240308 L9.64347368,12.8669061 L11.9294737,12.8669061 L11.9294737,10.906623 C11.9294737,8.63261857 13.3145263,7.39389458 15.3362105,7.39389458 C16.3044211,7.39389458 17.1362105,7.46614556 17.3796842,7.49846836 L17.3796842,9.87514524 L15.9775789,9.87514524 C14.8786316,9.87514524 14.6645263,10.4008662 14.6645263,11.1699588 L14.6645263,12.8669061 L17.2868421,12.8669061 L16.9457895,15.5240308 L14.6645263,15.5240308 L14.6645263,21.9087356 Z" id="Shape"></path>
        </g>
    </g>
</svg>