<?xml version="1.0" encoding="UTF-8" standalone="no"?>
<svg width="50px" height="50px" viewBox="0 0 50 50" version="1.1" xmlns="http://www.w3.org/2000/svg" xmlns:xlink="http://www.w3.org/1999/xlink">
    <!-- Generator: Sketch 41 (35326) - http://www.bohemiancoding.com/sketch -->
    <title>flag-bent</title>
    <desc>Created with Sketch.</desc>
    <defs></defs>
    <g id="All" stroke="none" stroke-width="1" fill="none" fill-rule="evenodd">
        <g id="flag-bent" fill="#000000">
            <g id="Group" transform="translate(9.500000, 6.500000)">
                <path d="M31,4.9 L15.3,4.9 L15.3,1.9 L1,1.9 L1,0 L0,0 L0,1.9 L0,17.6 L0,36.2 L1,36.2 L1,17.6 L10.7,17.6 L10.7,20.7 L31,20.7 L27.1,12.8 L31,4.9 L31,4.9 Z M12.6,4.9 L14.4,3.4 L14.4,4.9 L12.6,4.9 L12.6,4.9 Z M1,16.6 L1,2.9 L13.5,2.9 L10.7,5.2 L10.7,16.6 L1,16.6 L1,16.6 Z M29.4,19.7 L11.7,19.7 L11.7,5.9 L29.4,5.9 L26,12.8 L29.4,19.7 L29.4,19.7 Z" id="Shape"></path>
            </g>
        </g>
    </g>
</svg>