<?xml version="1.0" encoding="UTF-8" standalone="no"?>
<svg width="80px" height="80px" viewBox="0 0 80 80" version="1.1" xmlns="http://www.w3.org/2000/svg" xmlns:xlink="http://www.w3.org/1999/xlink">
    <!-- Generator: Sketch 3.7.1 (28215) - http://www.bohemiancoding.com/sketch -->
    <title>flowerhands</title>
    <desc>Created with Sketch.</desc>
    <defs></defs>
    <g id="Icons" stroke="none" stroke-width="1" fill="none" fill-rule="evenodd">
        <g id="flowerhands" fill="#000000">
            <g id="Group" transform="translate(5.000000, 8.000000)">
                <path d="M65.5,19.7 C63.5,19.7 61.9,21.3 61.9,23.3 L61.9,31.4 L62.9,31.4 L62.9,23.3 C62.9,21.9 64,20.7 65.5,20.7 C67,20.7 68.1,21.8 68.1,23.3 L68.1,40.3 C68.1,40.7 67.9,41.2 67.6,41.5 L58.4,51.4 C57.8,52.1 57.4,53 57.4,53.9 L57.4,55 L47.4,55 L47.4,47.5 C47.5,46.4 47.9,45.3 48.7,44.5 L58.7,34.5 C59.5,33.7 60.8,33.7 61.6,34.5 C62,34.9 62.2,35.4 62.2,35.9 C62.2,36.4 62,37 61.6,37.3 L54.6,44.3 L55.3,45 L62.3,38 C62.9,37.4 63.2,36.7 63.2,35.8 C63.2,34.9 62.9,34.2 62.3,33.6 C61.2,32.4 59.1,32.4 58,33.6 L48,43.6 C47,44.6 46.4,45.9 46.4,47.3 L46.4,55 L43.9,55 L43.9,63.6 L60.4,63.6 L60.4,55 L58.4,55 L58.4,53.9 C58.4,53.2 58.7,52.6 59.1,52 L68.3,42.1 C68.8,41.6 69,40.9 69,40.2 L69,23.2 C69.1,21.3 67.5,19.7 65.5,19.7 L65.5,19.7 Z M59.4,62.6 L44.9,62.6 L44.9,56 L59.4,56 L59.4,62.6 L59.4,62.6 Z" id="Shape"></path>
                <path d="M22.7,47.4 C22.6,46 22,44.7 21.1,43.7 L11.1,33.7 C10,32.5 7.9,32.6 6.8,33.7 C6.2,34.3 5.9,35 5.9,35.9 C5.9,36.8 6.2,37.5 6.8,38.1 L13.8,45.1 L14.5,44.4 L7.5,37.4 C7.1,37 6.9,36.5 6.9,36 C6.9,35.5 7.1,34.9 7.5,34.6 C8.3,33.8 9.6,33.8 10.4,34.6 L20.4,44.6 C21.2,45.4 21.7,46.5 21.7,47.6 L21.7,55 L11.7,55 L11.7,53.9 C11.7,53 11.3,52.1 10.7,51.4 L1.5,41.5 C1.2,41.2 1,40.7 1,40.3 L1,23.3 C1,21.9 2.1,20.7 3.6,20.7 C5.1,20.7 6.2,21.8 6.2,23.3 L6.2,31.4 L7.2,31.4 L7.2,23.3 C7.2,21.3 5.6,19.7 3.6,19.7 C1.6,19.7 0,21.3 0,23.3 L0,40.3 C0,41 0.3,41.7 0.7,42.2 L10,52 C10.5,52.5 10.7,53.2 10.7,53.9 L10.7,55 L8.7,55 L8.7,63.6 L25.2,63.6 L25.2,55 L22.7,55 L22.7,47.4 L22.7,47.4 Z M24.2,62.6 L9.7,62.6 L9.7,56 L24.2,56 L24.2,62.6 L24.2,62.6 Z" id="Shape"></path>
                <path d="M50.6,27.4 L50.6,24.5 L47.7,24.5 C42.1,24.5 37.2,28 35.2,32.9 L35.2,27.7 L40,22.9 C44.9,18 44.9,10.1 40,5.2 L34.6,0 L29.3,5.3 C24.4,10.2 24.4,18.1 29.3,23 L34.1,27.8 L34.1,33 C32.1,28.1 27.2,24.6 21.6,24.6 L18.7,24.6 L18.7,27.5 C18.7,34.9 24.8,41 32.2,41 L34.1,41 L34.1,63.2 L35.1,63.2 L35.1,40.9 L37,40.9 C44.5,40.9 50.6,34.9 50.6,27.4 L50.6,27.4 Z M30.1,22.2 C25.6,17.7 25.6,10.4 30.1,5.9 L34.7,1.3 L39.2,6 C43.7,10.5 43.7,17.8 39.2,22.3 L35.1,26.4 L35.1,15.1 L34.1,15.1 L34.1,26.3 L30.1,22.2 L30.1,22.2 Z M32.2,39.9 C25.3,39.9 19.7,34.3 19.7,27.4 L19.7,25.5 L21.6,25.5 C28.5,25.5 34.1,31.1 34.1,38 L34.1,39.9 L32.2,39.9 L32.2,39.9 Z M37.1,39.9 L35.2,39.9 L35.2,38 C35.2,31.1 40.8,25.5 47.7,25.5 L49.6,25.5 L49.6,27.4 C49.6,34.3 44,39.9 37.1,39.9 L37.1,39.9 Z" id="Shape"></path>
            </g>
        </g>
    </g>
</svg>