<?xml version="1.0" encoding="UTF-8" standalone="no"?>
<svg width="26px" height="26px" viewBox="0 0 26 26" version="1.1" xmlns="http://www.w3.org/2000/svg" xmlns:xlink="http://www.w3.org/1999/xlink">
    <!-- Generator: Sketch 41 (35326) - http://www.bohemiancoding.com/sketch -->
    <title>github</title>
    <desc>Created with Sketch.</desc>
    <defs></defs>
    <g id="All" stroke="none" stroke-width="1" fill="none" fill-rule="evenodd">
        <g id="github" fill="#000000">
            <path d="M15.4125507,21.7824107 C14.9556108,21.866517 14.8039334,21.5789908 14.8039334,21.3374298 L14.8039334,18.8034835 C14.8039334,17.9379712 14.5225194,17.3854125 14.1943622,17.0969084 C16.197648,16.869039 18.3077757,16.087633 18.3077757,12.5434334 C18.3077757,11.534158 17.9557698,10.7058089 17.3824484,10.0691439 C17.4759351,9.82856085 17.7802438,8.89165599 17.2870539,7.618326 C16.5372526,7.37774291 14.8153808,8.56696662 14.8153808,8.56696662 C14.1008755,8.36354678 13.3262716,8.25499099 12.565023,8.25499099 C11.8037744,8.25499099 11.0301245,8.36354678 10.3156192,8.56696662 C10.3156192,8.56696662 8.59279344,7.37774291 7.83059089,7.618326 C7.35075624,8.89165599 7.65506489,9.82856085 7.74855157,10.0691439 C7.17523025,10.7058089 6.82322431,11.534158 6.82322431,12.5434334 C6.82322431,16.0758972 8.92095074,16.869039 10.9251905,17.0969084 C10.6666712,17.3374915 10.4329546,17.7345514 10.3509152,18.3350311 C9.83483065,18.5746362 8.52220147,18.9834319 7.73710422,17.5653608 C7.24486828,16.6890907 6.35483701,16.6167202 6.35483701,16.6167202 C5.47625309,16.6049844 6.29664632,17.1810147 6.29664632,17.1810147 C6.88236894,17.457783 7.29161161,18.5267152 7.29161161,18.5267152 C7.81914354,20.1726556 10.3270666,19.6200969 10.3270666,19.6200969 C10.3270666,20.3887892 10.3394679,21.1212962 10.3394679,21.3374298 C10.3394679,21.5789908 10.1753892,21.866517 9.71844928,21.7824107 C6.14401502,20.5570017 3.5655,17.0969084 3.5655,13.0245996 C3.5655,7.93030163 7.59687421,3.79735804 12.565023,3.79735804 C17.5341258,3.79735804 21.5655,7.93030163 21.5655,13.0245996 C21.5655,17.0969084 18.986985,20.5570017 15.4125507,21.7824107" id="Fill-1"></path>
        </g>
    </g>
</svg>