<?xml version="1.0" encoding="UTF-8" standalone="no"?>
<svg width="26px" height="26px" viewBox="0 0 26 26" version="1.1" xmlns="http://www.w3.org/2000/svg" xmlns:xlink="http://www.w3.org/1999/xlink">
    <!-- Generator: Sketch 3.6.1 (26313) - http://www.bohemiancoding.com/sketch -->
    <title>github</title>
    <desc>Created with Sketch.</desc>
    <defs></defs>
    <g id="Page-1" stroke="none" stroke-width="1" fill="none" fill-rule="evenodd">
        <g id="github" fill="#000000">
            <path d="M15.9845,22.187358 C15.5055,22.273358 15.3465,21.979358 15.3465,21.732358 L15.3465,19.141358 C15.3465,18.256358 15.0515,17.691358 14.7075,17.396358 C16.8075,17.163358 19.0195,16.364358 19.0195,12.740358 C19.0195,11.708358 18.6505,10.861358 18.0495,10.210358 C18.1475,9.96435804 18.4665,9.00635804 17.9495,7.70435804 C17.1635,7.45835804 15.3585,8.67435804 15.3585,8.67435804 C14.6095,8.46635804 13.7975,8.35535804 12.9995,8.35535804 C12.2015,8.35535804 11.3905,8.46635804 10.6415,8.67435804 C10.6415,8.67435804 8.8355,7.45835804 8.0365,7.70435804 C7.5335,9.00635804 7.8525,9.96435804 7.9505,10.210358 C7.3495,10.861358 6.9805,11.708358 6.9805,12.740358 C6.9805,16.352358 9.1795,17.163358 11.2805,17.396358 C11.0095,17.642358 10.7645,18.048358 10.6785,18.662358 C10.1375,18.907358 8.7615,19.325358 7.9385,17.875358 C7.4225,16.979358 6.4895,16.905358 6.4895,16.905358 C5.5685,16.893358 6.4285,17.482358 6.4285,17.482358 C7.0425,17.765358 7.4715,18.858358 7.4715,18.858358 C8.0245,20.541358 10.6535,19.976358 10.6535,19.976358 C10.6535,20.762358 10.6665,21.511358 10.6665,21.732358 C10.6665,21.979358 10.4945,22.273358 10.0155,22.187358 C6.2685,20.934358 3.5655,17.396358 3.5655,13.232358 C3.5655,8.02335804 7.7915,3.79735804 12.9995,3.79735804 C18.2085,3.79735804 22.4345,8.02335804 22.4345,13.232358 C22.4345,17.396358 19.7315,20.934358 15.9845,22.187358" id="Fill-1"></path>
        </g>
    </g>
</svg>