<?xml version="1.0" encoding="UTF-8" standalone="no"?>
<svg width="100px" height="100px" viewBox="0 0 100 100" version="1.1" xmlns="http://www.w3.org/2000/svg" xmlns:xlink="http://www.w3.org/1999/xlink">
    <!-- Generator: Sketch 41 (35326) - http://www.bohemiancoding.com/sketch -->
    <title>globe</title>
    <desc>Created with Sketch.</desc>
    <defs></defs>
    <g id="All" stroke="none" stroke-width="1" fill="none" fill-rule="evenodd">
        <g id="globe" fill="#000000">
            <path d="M14.5,50.5 C14.5,30.8522847 30.4522847,14.9 50.1,14.9 C69.7477153,14.9 85.7,30.8522847 85.7,50.5 C85.7,70.1477153 69.7477153,86.1 50.1,86.1 C32.78822,86.1 18.134636,73.7495334 15.0839618,56.921621 C14.694558,54.7798991 14.5,52.6397611 14.5,50.5 Z M12.5,50.5 C12.5,52.7602389 12.705442,55.0201009 13.1161301,57.2788854 C16.3385129,75.0539654 31.8173744,88.1 50.1,88.1 C70.8522847,88.1 87.7,71.2522847 87.7,50.5 C87.7,29.7477153 70.8522847,12.9 50.1,12.9 C29.3477153,12.9 12.5,29.7477153 12.5,50.5 Z" id="Shape"></path>
            <path d="M73.0099636,35.2559952 L75.0055728,39.2472136 L75.1191312,38.175305 L73.9191312,39.675305 L75.6363292,39.9488766 C75.5931582,39.833754 75.5170898,39.6384067 75.415172,39.3889764 C75.3059051,39.12156 75.1919304,38.8539527 75.0749036,38.5927815 C75.0401397,38.5151983 75.0051066,38.4381831 74.9698475,38.3619096 C74.9393015,38.2958315 74.908586,38.2303102 74.8777291,38.1654584 C74.7028338,37.797882 74.5315471,37.4692522 74.3642813,37.187196 C74.0526379,36.6616798 73.7768301,36.300592 73.427485,36.0910379 C73.3182083,36.0254885 73.2017362,35.9747661 73.0747211,35.9384761 C73.028493,35.925268 72.8857572,35.8110793 72.7266746,35.6219001 C72.5668322,35.4318172 72.439459,35.2340141 72.3778956,35.1211479 L71.9528184,34.3418397 L67.9843113,35.9292425 L69.6371671,38.4085262 L70.6974623,38.8451184 C70.5713059,39.3132001 70.6558486,39.79962 70.8820293,40.4803135 C70.9645788,40.7287474 71.4469116,42.0135486 71.5854571,42.4208283 C71.7613306,42.9378403 71.906459,43.4285661 72.0276127,43.933373 C72.4072749,45.2919116 70.5266292,46.9 69.3,46.9 C67.5707029,46.9 65.7334248,48.0431953 65.3298575,49.6574644 C65.1336067,50.4424675 65.3809642,51.1132086 65.9363613,51.7778896 C66.0599942,51.9258495 66.1945322,52.0701189 66.3754675,52.2532869 C66.4171913,52.2955256 66.717462,52.5953106 66.8028453,52.6827125 C67.2067893,53.0962062 67.4428916,53.3994741 67.5938169,53.7228855 C67.6595771,53.8638002 67.5449608,54.0548956 67.0698994,54.3596285 C66.9974357,54.4061111 66.924289,54.4494578 66.8524199,54.4893722 L61.559752,48.6491868 L62.7384761,52.7747211 C62.8074166,53.2327223 62.8074166,53.7253191 62.7116283,54.3479428 C62.4860229,55.8143777 63.2414383,57.2058562 64.5199062,58.0200605 C64.7741292,58.1819649 65.0490345,58.3210431 65.3410209,58.4333456 C65.5194214,58.5019612 65.6624524,58.684665 65.7680441,59.0060308 C65.8561569,59.2742003 65.8948633,59.5688972 65.9011612,59.8113032 L65.4,61.1143223 L65.4,61.3 C65.4,61.5043021 65.4198468,61.733972 65.466605,61.9807702 C65.5625373,62.4723328 65.7512933,63.0018169 66.0850963,63.5359017 C66.1177876,63.5882077 66.1515785,63.6398211 66.1864769,63.6907147 C65.8730223,63.4527545 65.5020338,63.0878202 64.4071068,61.9928932 C64.1607914,61.7465778 63.8869072,61.4523796 63.5906428,61.1173335 C63.7748048,61.2098426 63.9014146,61.2708565 63.9771145,61.3061831 L66.3894353,62.4319328 L65.3149178,59.9963598 C65.2706846,59.8960979 65.1913417,59.7117202 65.0887019,59.4653846 C64.9172452,59.0538886 64.7458026,58.6241391 64.5863292,58.1988766 C64.5637846,58.1387576 64.5416369,58.079139 64.5199062,58.0200605 C64.4627524,57.8646788 64.408483,57.7130333 64.3574628,57.5658478 C64.0673516,56.7289209 63.9,56.0757424 63.9,55.8 C63.9,55.3417294 63.7861549,54.713093 63.5805866,53.9138107 C63.5268147,53.7072326 63.4912611,53.5754342 63.4535391,53.4394065 C63.4024517,53.2551823 63.347881,53.0655089 63.2902555,52.871331 C63.123422,52.3146379 62.9798008,51.8646248 62.8361833,51.4337722 C62.7498389,51.174739 62.6823372,50.9786626 62.6429903,50.8671799 L62.1148902,49.3708962 L58.7928932,52.6928932 L60.3944272,53.8472136 C60.4820783,53.6719113 60.5978262,53.3863998 60.7093655,53.0071663 C60.801598,52.6935759 60.8750476,52.3654276 60.9250348,52.0249392 C60.9463669,51.8796356 60.9634261,51.7320847 60.9758488,51.5824588 C60.9916979,51.391564 61,51.1972917 61,51 C61,50.843145 60.9863928,50.684995 60.9602946,50.5254918 C60.9364774,50.3799293 60.9022573,50.2332396 60.8584827,50.0853785 C60.7033395,49.5613393 60.4335043,49.0349807 60.0820503,48.5077998 C59.7659056,48.0335828 59.4516144,47.6529412 59.2295372,47.4160589 L58.6775543,46.8272771 L55.4855042,48.7425071 C53.4275282,50.1800747 51.6119129,52.0880094 51.5022148,53.733481 C51.4941265,53.777678 51.4700526,53.8957181 51.4367421,54.0208261 C51.3626011,54.2992859 51.2459424,54.60187 51.0952472,54.9174767 C50.5258181,53.784357 49.9278921,52.6528725 49.3265037,51.5921096 C48.9203378,50.875691 48.5253983,50.2147003 48.1453455,49.6201479 C47.9674028,49.3417755 47.7932897,49.0788786 47.6232128,48.832267 C46.5740942,47.3110451 45.4398178,46.4549192 44.1099735,46.0968842 C43.3505122,45.8924139 42.7778089,45.8635056 41.5235682,45.8908883 C41.2109472,45.8977135 41.070669,45.9 40.9,45.9 C39.4563082,45.9 37.1110258,44.7845608 35.9689647,43.7567059 C35.0499827,43.0193613 34.089021,42.9134594 33.2312378,43.1624933 C33.0700379,43.2092932 32.9427771,43.2605775 32.8527864,43.3055728 L31.8395952,43.8121684 L34.795173,48.2455351 L35.3830455,48.1965458 C35.4316377,48.1924964 35.5295153,48.1858397 35.6668092,48.179013 C36.2544144,48.149795 36.8864935,48.1514822 37.4668715,48.2039926 C37.9379207,48.2466114 38.3297696,48.3204555 38.6044941,48.4197303 C38.4939389,48.6793208 38.2869651,48.9844118 37.4830321,50.1233168 C36.675555,51.2672428 35.0654246,52.0409418 32.8423373,52.6337651 C32.7943343,52.4926108 32.7859041,52.3407191 32.7936076,52.2178684 C32.7950619,52.1985085 32.8371964,51.8206177 32.8371964,51.8206177 L21.8898898,37.021481 L28.4450853,51.9402017 L32.1269407,56.197347 L34.7852195,55.652059 C34.6354766,55.9838077 34.4773294,56.3091525 34.3120864,56.6207536 C33.9598919,57.2848916 33.5996271,57.8389768 33.2474233,58.2414954 C32.8867485,58.6576415 32.3931803,59.1944707 31.7963388,59.8235739 C31.7073177,59.9173245 31.7073177,59.9173245 31.6180828,60.0109868 C31.1098344,60.5440277 30.5644863,61.1053372 30.0190328,61.6596599 C29.8280468,61.8537514 29.6507362,62.033058 29.4916925,62.1932101 C29.3283634,62.3574241 29.3283634,62.3574241 29.2928932,62.3928932 L28.8558772,62.8299092 L29.0513167,63.4162278 C29.102677,63.5703086 29.1865193,63.8693462 29.2718941,64.2706076 C29.4145852,64.9412562 29.5,65.6331157 29.5,66.3 C29.5,67.0729166 29.5386752,67.8947641 29.6030616,68.7156912 C29.6078672,68.776962 29.6127469,68.8373058 29.6176854,68.896659 L28.2,69.1801961 L28.2,70 C28.2,70.076952 28.1945388,70.240788 28.1775413,70.478753 C28.1484468,70.8860761 28.0957666,71.3426381 28.0136061,71.835601 C27.9726589,72.0812843 27.7928088,72.5264767 27.5082176,73.075992 C27.4120566,73.2616688 27.3056969,73.4563384 27.1908792,73.6576914 C27.073841,73.8629386 26.9515206,74.0691277 26.8269852,74.2724942 C26.7482828,74.2095962 26.6647074,74.1415503 26.576401,74.068211 C25.6971703,73.3380025 24.7149374,72.3737922 23.65741,71.1470604 C22.6912058,70.0262635 22.0356695,68.5759559 21.5250728,66.6336819 C21.3960844,66.1430191 21.2769909,65.6265756 21.1480917,65.0122207 C21.0702314,64.6411257 20.8035244,63.3102492 20.8251955,63.4170034 C20.648379,62.5459863 20.5161002,61.9662959 20.3615239,61.4252789 C20.3218331,61.2812427 20.1068003,60.494272 20.0516689,60.2963408 C19.9443132,59.9109161 19.8616636,59.6310023 19.7795833,59.3806615 C19.4746831,58.4507304 19.1427317,57.8637128 18.559479,57.2920572 C18.2376401,56.9766175 17.8445574,56.6714483 17.2646839,56.2746927 C16.8816336,56.0064879 16.4301576,55.8438935 15.9387032,55.7712922 C15.3813757,55.6889598 14.8143011,55.7249587 14.26705,55.8321392 C14.0630775,55.8720878 13.9038854,55.9135949 13.801725,55.94552 L14.398275,57.85448 C14.4345229,57.8431525 14.5241604,57.8197808 14.6514519,57.7948504 C14.9941785,57.7277265 15.3457769,57.7054064 15.6464207,57.7498197 C15.8491812,57.779773 16.010102,57.8377269 16.1265377,57.9192319 C16.6269427,58.2616834 16.9375322,58.5028091 17.1595369,58.7203996 C17.4905365,59.0448178 17.6670616,59.3569821 17.8791272,60.0037718 C17.9499868,60.2198901 18.02505,60.4741106 18.1250115,60.8329891 C18.178548,61.025194 18.392651,61.8087622 18.4360074,61.965929 C18.5752642,62.4534795 18.6979526,62.9911419 18.8651731,63.814888 C18.8418394,63.6999435 19.1106629,65.0413819 19.1907109,65.4229034 C19.3259585,66.0675159 19.452232,66.615095 19.5907944,67.1421766 C20.1719664,69.3529145 20.9455342,71.0643549 22.14259,72.4529396 C24.0896048,74.7114767 25.6493478,76.0068566 26.5929799,76.5619342 L27.4002671,77.0368091 L27.9269265,76.26231 C27.9919752,76.1666502 28.1021064,76.0002387 28.2425204,75.7804977 C28.4758742,75.4153105 28.7092842,75.032415 28.9282614,74.6483999 C29.0558289,74.4246878 29.1749712,74.2066223 29.2841792,73.9957531 C29.6581644,73.2736272 29.9022026,72.6695467 29.9863939,72.164399 C30.0710024,71.656748 30.1259069,71.2064605 30.1588382,70.8280363 L31.8009684,70.4996102 L31.6931506,69.5831588 C31.6875272,69.5353596 31.6771912,69.4412281 31.6637041,69.307481 C31.6409835,69.0821687 31.6182098,68.8305192 31.5969384,68.5593088 C31.5363248,67.7864859 31.5,67.0145834 31.5,66.3 C31.5,65.4793843 31.3979148,64.6524938 31.2281059,63.8543924 C31.1921692,63.6854897 31.1560427,63.5302421 31.1211012,63.3903279 C31.223636,63.2866787 31.331773,63.1770896 31.4446049,63.0624229 C31.9968797,62.5011681 32.5492599,61.9326207 33.0655579,61.3911374 C33.156463,61.2957222 33.156463,61.2957222 33.2472662,61.2000948 C33.8629872,60.5510915 34.37479,59.9944295 34.7556891,59.5549305 C35.2204143,59.0238331 35.660403,58.3471332 36.0790106,57.5577588 C36.4211471,56.912587 36.7306679,56.2270712 37.0039149,55.5422243 C37.0994079,55.3028874 37.1837374,55.0802576 37.2562527,54.8796463 C37.3005452,54.7571127 37.3315863,54.6675187 37.3486833,54.6162278 L37.8967054,52.9721615 L37.00228,53.1556334 C37.8734135,52.6492041 38.5784816,52.0395387 39.1169679,51.2766832 C40.2121774,49.7251363 40.3289769,49.5470783 40.5292419,48.9863364 C40.6686223,48.5960713 40.7000349,48.2259729 40.6291424,47.8922955 C40.7208485,47.8973923 40.8111966,47.9 40.9,47.9 C41.0899967,47.9 41.2401475,47.8975526 41.5672221,47.8904119 C42.633258,47.867138 43.0749133,47.8894314 43.5900265,48.0281158 C44.4386005,48.256578 45.185434,48.8202708 45.9767872,49.967733 C46.1330992,50.1943853 46.2944028,50.4379409 46.4602101,50.6973289 C46.8197446,51.2597824 47.1969108,51.891027 47.586663,52.578494 C48.1868315,53.6371053 48.7866444,54.774412 49.3566735,55.9121116 C49.556318,56.3105745 49.7378758,56.6804231 49.8977594,57.0119893 C49.9932379,57.2099923 50.0599441,57.3505225 50.0943098,57.4239401 L50.7930934,58.916796 L51.7943578,57.6074501 C52.013256,57.3211986 52.3261,56.8582831 52.6396806,56.2864006 C52.9645095,55.6940042 53.2172,55.1070807 53.3694104,54.5354066 C53.4238678,54.3308747 53.4648762,54.1298012 53.4912279,53.9321637 C53.550663,53.0733515 55.084549,51.4614712 56.5734623,50.4192319 C56.9051208,50.2231179 56.9051208,50.2231179 57.3269958,49.9699929 C57.774991,49.7011958 58.0644087,49.5275452 58.2700914,49.4041356 C58.3204025,49.4739006 58.369841,49.5450371 58.4179497,49.6172002 C58.6674306,49.9914216 58.8506954,50.34891 58.9407592,50.6531256 C58.9808881,50.788672 59,50.9056795 59,51 C59,51.5107022 58.9213254,51.9984845 58.7906345,52.4428337 C58.7146738,52.7011002 58.6429217,52.8780887 58.6055728,52.9527864 L55.8497185,58.4644951 L62.4071068,51.9071068 L60.7570097,51.5328201 C60.7906492,51.6281322 60.8493001,51.7983633 60.9250348,52.0249392 C61.0463918,52.3889532 61.1539647,52.7228824 61.256985,53.0572285 C61.2857698,53.1506475 61.3141991,53.2440991 61.3421737,53.3373479 C61.4079739,53.5566818 61.4695936,53.7694751 61.5262714,53.9738588 C61.7636011,54.8296841 61.9,55.4951454 61.9,55.8 C61.9,56.3383217 62.0797314,57.0737299 62.401058,58.0259005 C62.174039,57.9241553 61.9169893,57.8385812 61.628836,57.7608442 C61.3386925,57.6825701 61.0344545,57.6190072 60.7311365,57.5679415 C60.549224,57.5373153 60.4053521,57.5172624 60.3168412,57.5068494 L58.0196779,57.2365949 L59.3964428,59.0952276 C59.4281575,59.1380424 59.4866441,59.216297 59.5686862,59.324964 C59.7045897,59.5049721 59.8575725,59.7052765 60.0244366,59.9208689 C60.5015604,60.5373246 60.9952792,61.1540339 61.4806664,61.7315623 C61.6608088,61.9459013 61.836897,62.1513058 62.0082409,62.3466378 C62.3616041,62.7494719 62.6909264,63.1051399 62.9928932,63.4071068 C64.6109945,65.0252081 64.7817027,65.1855072 65.434007,65.5974889 C66.0633155,65.9949469 66.7000593,66.2 67.4,66.2 C67.8006982,66.2 68.4988763,66.2567185 69.3897905,66.3567677 C69.6224969,66.3829005 69.8650096,66.4116055 70.1149734,66.4424652 C70.552735,66.4965099 70.9921743,66.5544834 71.4114912,66.6124535 C71.6627595,66.647191 71.850963,66.6741322 71.954506,66.6893591 L72.3509622,64.7320031 C72.2038907,64.6938735 71.936015,64.6184278 71.5885954,64.5102097 C71.009254,64.3297501 70.4306434,64.1253407 69.8958893,63.9029073 C69.3116203,63.6598781 68.8192791,63.4110023 68.4547002,63.1679497 C68.1705973,62.9785478 67.9499238,62.7460333 67.7810929,62.4759038 C67.5487019,62.1040781 67.441508,61.7249099 67.410184,61.4591993 L67.8907648,60.2096893 C67.8994953,60.0342732 67.8994953,60.0342732 67.9005367,60.0009097 C67.9130547,59.5293961 67.8580139,58.9597001 67.6681076,58.3817243 C67.4458732,57.7053588 67.0691364,57.1469545 66.5062118,56.7906818 C66.3684413,56.7034875 66.2195186,56.6284004 66.0589791,56.5666544 C65.2838175,56.2562875 64.7927928,55.6862266 64.6920964,55.0838873 C64.6681567,54.9406865 64.6662787,54.7956614 64.6883717,54.6520572 C64.8148057,53.8302365 64.8148057,53.1376481 64.7339055,52.5848304 C64.7107304,52.4264675 64.6846611,52.3062591 64.6615239,52.2252789 L63.7,52.5 L62.959013,53.1715194 L66.302716,56.8611227 L66.9271106,56.6449861 C67.2478713,56.5339535 67.6929356,56.3360827 68.1497501,56.0430543 C69.3630829,55.2647496 70.0139794,54.179535 69.4061831,52.8771145 C69.1398631,52.3064287 68.781382,51.8459682 68.2334828,51.2851159 C68.1374663,51.1868294 67.8317263,50.8815839 67.7983266,50.8477721 C67.6530418,50.7006944 67.5523748,50.592746 67.4711035,50.4954832 C67.285117,50.2729006 67.2567687,50.1960307 67.2701425,50.1425356 C67.4271015,49.5146994 68.4150114,48.9 69.3,48.9 C71.6852353,48.9 74.7586279,46.2720266 73.962964,43.4303701 C73.8358542,42.8977389 73.6735354,42.348887 73.4789028,41.7767292 C73.3260939,41.3275201 72.8471028,40.0516201 72.7799949,39.849658 C72.663784,39.4999196 72.642432,39.339583 72.619145,39.3939193 C72.844948,38.8670458 72.9007944,38.7367375 72.9146065,38.7045093 C72.919145,38.6939193 73.3187319,37.7615498 73.3187319,37.7615498 L70.6807498,36.6753219 L71.1320503,37.0452998 L70.3320503,35.8452998 L69.8713907,37.3284767 L71.1274979,36.8260338 C71.5883991,37.3757957 72.012382,37.714982 72.5252789,37.8615239 C72.4472066,37.8965767 72.5398146,38.0316247 72.6440232,38.2073491 C72.7297787,38.3519563 72.8204596,38.5188985 72.9146065,38.7045093 C72.9660292,38.8058893 73.018486,38.9128387 73.0717389,39.0247601 C73.240261,39.3789422 73.4070651,39.7619738 73.5637612,40.1454669 C73.6577684,40.3755371 73.726925,40.5531347 73.7636708,40.6511234 L74.3815608,42.2988301 L77.0805689,38.9250699 L75.3900364,35.5440048 L76.986037,33.6663571 L76.8751329,33.1783789 C76.8327132,32.9917324 76.7571889,32.6679902 76.6569391,32.2525362 C76.4898202,31.5599644 76.3148603,30.8671233 76.1401868,30.2186479 C76.0438071,29.8608382 75.9499785,29.525918 75.8593655,29.2178337 C75.5817278,28.2738653 74.8792027,27.4978618 73.9016032,26.8335671 C73.5046943,26.5638611 73.1113667,26.3426989 72.7577005,26.1696058 L72.9064246,24.4344917 L74.7633626,24.6906211 L75.0366374,22.7093789 L71.0935754,22.1655083 L70.6386234,27.4732813 L71.3526856,27.7377488 C71.4292828,27.7661181 71.5820903,27.829462 71.7844741,27.9252743 C72.1251133,28.0865394 72.4653677,28.2756725 72.7775305,28.4877922 C73.408011,28.9162139 73.8196883,29.3709493 73.9406345,29.7821663 C74.0266333,30.0745621 74.1164022,30.3949917 74.2090181,30.7388281 C74.3786011,31.3684049 74.5494345,32.0449053 74.7127403,32.7216751 C74.749326,32.8732929 74.7825039,33.0122479 74.8118304,33.1361519 L73.0099636,35.2559952 Z" id="Shape"></path>
            <path d="M17.1760134,42.8274347 C17.6508427,42.6288156 18.1192229,42.4866287 18.5636969,42.3894 C18.6350177,42.3737986 18.7008564,42.3603243 18.7606796,42.3488013 C18.8603342,42.329606 18.9432959,42.3158253 19.0070991,42.3066457 C19.0447359,42.3012308 19.0757062,42.2974169 19.0995037,42.2950372 L18.0951813,40.874203 L16.8992059,43.4156508 L22.1634244,46.3767737 L22.687763,43.0559626 L21.628753,43.8974587 L26.1320941,44.2191259 L26.3961389,44.0682431 C26.6540412,43.9208704 27.0203705,43.6857219 27.3945096,43.3928244 C27.7576891,43.1085068 28.0553741,42.8231306 28.2733678,42.521293 C28.3729238,42.3834463 28.455643,42.2420908 28.519145,42.0939193 C28.6424704,41.8061601 28.7197526,41.4819763 28.7655968,41.122276 C28.818986,40.7033754 28.8259334,40.2755711 28.8068238,39.8819134 C28.8032408,39.8081032 28.7994706,39.7520523 28.7965458,39.7169545 L28.6921787,38.4645504 L25.2592223,39.5630965 L24.7109703,39.434096 L24.9421831,37.7 L20.690519,37.7 L21.6142725,40.3392956 L21,40.8 L22.5805807,41.4038839 L21.8212015,37.6069879 L18.5,34.2857864 L18.5,40.6 L20.2071068,39.8928932 L19.3923342,39.0781206 L17.906042,33.7699343 L16.200274,38.6435571 L15.357351,39.8696269 L14.5582569,40.1602066 L15.7944272,41.5472136 L17.3616736,38.4127207 L17.740858,36.1376143 L19.6724094,33.870141 L22.2127793,33.0884887 L23.9678246,31.4588038 L24.9176975,28.6091853 L26.9472136,27.5944272 L26.0527864,25.8055728 L23.2823025,27.1908147 L22.2321754,30.3411962 L21.1872207,31.3115113 L18.5275906,32.129859 L15.859142,35.2623857 L15.4383264,37.7872793 L12.8832529,42.8974262 L16.642649,41.5303731 L17.999726,39.5564429 L18.7438584,37.4303504 L16.837036,37.3696299 L17.6076658,40.1218794 L20.5,43.0142136 L20.5,36.7 L18.7928932,37.4071068 L19.9787985,38.5930121 L20.9306053,43.352046 L23.9857275,41.0607044 L23.0438584,38.3696496 L22.1,39.7 L23.8,39.7 L22.8087721,38.5678363 L22.4890297,40.965904 L25.3407777,41.6369035 L26.7187658,41.1959473 C26.7067308,41.2384616 26.6939976,41.2754146 26.680855,41.3060807 C26.56343,41.4729603 26.3898862,41.6393283 26.1616504,41.8180044 C25.9854639,41.9559332 25.8062805,42.0804023 25.6523638,42.1797639 L20.8554336,41.8371261 L20.412237,44.6440374 L21.8902612,43.9284245 L18.6902612,42.1284245 L19.1048187,43.425797 L20.6560614,40.1294063 L18.9004963,40.3049628 C18.7791924,40.3170932 18.6451399,40.3349725 18.5,40.3593511 C18.3327106,40.3874501 18.1506915,40.4241835 17.9564866,40.4707002 C17.7297146,40.5250175 17.486327,40.5926745 17.2303738,40.6755006 C16.9702703,40.7596697 16.6971905,40.859504 16.4153846,40.9769231 C16.2736636,41.0376396 16.1205222,41.1223583 15.9524566,41.2311547 C15.8657537,41.2872814 15.7750789,41.3498161 15.6799511,41.4187692 C15.4723977,41.5692138 15.2436466,41.7502127 14.9887014,41.9618734 C14.9087245,42.0282719 14.8269633,42.0971509 14.7436175,42.1682821 C14.7082027,42.1985069 14.6726851,42.2289785 14.6370934,42.259666 C14.3872356,42.4750959 14.1337275,42.7011613 13.8864895,42.9270989 C13.7169196,43.0820596 13.5870185,43.2032191 13.5122554,43.2740473 L14.8877446,44.7259527 C14.9543038,44.6628967 15.0756048,44.5497585 15.2356743,44.4034796 C15.5026168,44.1595353 15.7769279,43.9157579 16.0419572,43.6895691 C16.1185967,43.6241613 16.19345,43.5611018 16.2662414,43.500669 C16.6921113,43.1471029 17.0376074,42.8955847 17.1760134,42.8274347 Z" id="Shape"></path>
            <polygon id="Shape" points="24.9352111 24.2978645 23.1352111 27.3978645 24.8647889 28.4021355 26.6647889 25.3021355"></polygon>
            <path d="M27.0720287,23.0917779 L30.1720287,23.4917779 L29.4746927,21.9353161 L28.1746927,23.8353161 L29.8024623,24.9967028 L32.3744068,21.537881 L34.962461,21.7295887 L38.2547784,18.6567591 L33.3699069,17.8145399 L33.7070201,19.6619342 L36.2827379,18.1468061 L37.2343046,19.6107548 L41.1228222,21.1661618 L40.7456183,18.4 L41.1795442,18.4 C41.2399136,18.473505 41.2829236,18.5381514 41.3024592,18.5754872 C41.3406718,19.161587 41.8211445,19.6834468 42.5288521,19.5654955 C42.7964407,19.5208974 42.9718745,19.4136879 43.1745594,19.2447838 C43.3576119,19.09224 43.5643433,18.8740235 43.8092566,18.5882914 C43.8766269,18.509276 43.8766269,18.509276 43.9427069,18.4303079 C44.0947084,18.247906 44.2496196,18.0542671 44.4000518,17.8608542 C44.4903355,17.7447752 44.5596559,17.6537921 44.6,17.6 L45.0958658,16.9388455 L44.2524322,16.0110686 C44.2743589,15.9957088 44.295914,15.9808715 44.3170632,15.9665865 C44.4288434,15.8910859 44.5246538,15.8342638 44.594668,15.8008824 C44.6071446,15.7949338 44.5902682,15.8 44.5,15.8 C44.7479482,15.8 45.0095761,15.7539995 45.301093,15.6742684 C45.4359948,15.6373722 45.5746729,15.5936612 45.7160206,15.5444968 C45.961633,15.4590664 46.1702811,15.3741926 46.3061385,15.3138115 L45.4938615,13.4861885 C45.4047189,13.5258074 45.244617,13.5909336 45.0589794,13.6555032 C44.9579085,13.6906583 44.8615644,13.7210257 44.7734632,13.7451217 C44.6389446,13.7819131 44.5360755,13.8 44.5,13.8 C44.0645645,13.8 43.6802732,13.9832225 43.1976182,14.3092263 C43.0869585,14.3839701 42.9736523,14.4656586 42.8581135,14.5533087 C42.6821978,14.686762 42.509008,14.8278796 42.3445211,14.9688684 C42.2452708,15.0539401 42.1695261,15.121366 42.1242754,15.1628459 L41.390161,15.835784 L43.0600599,17.6726728 L43,16.4 C42.96627,16.4449733 42.9039032,16.5268298 42.8213474,16.632973 C42.7380222,16.7401053 42.6533221,16.8471547 42.5692601,16.951186 C42.5431881,16.9834515 42.5171774,17.0154267 42.4912882,17.0470239 C42.4627728,17.0818265 42.4344048,17.1161705 42.4062643,17.1499391 C42.3483731,17.2191191 42.3483731,17.2191191 42.2907434,17.2867086 C42.1137817,17.493164 41.9689506,17.6460412 41.8941906,17.7083412 C41.9503911,17.6615074 42.0115671,17.6241222 42.2000541,17.5927076 C42.8530604,17.4838733 43.3,18.0053028 43.3,18.5 C43.3,18.3165602 43.2676485,18.1386271 43.2099078,17.9654049 C43.1697441,17.8449137 43.1184786,17.7288996 43.0573873,17.6160404 C42.9660922,17.447383 42.8528537,17.2857712 42.7219302,17.1267927 C42.6703771,17.0641925 42.619151,17.005557 42.5692601,16.951186 C42.4511671,16.8224884 42.3405546,16.7176833 42.2507914,16.6407434 L41.9699241,16.4 L38.4543817,16.4 L38.9091698,19.7351132 L40.2713907,18.6715233 L38.2713907,17.8715233 L38.7384436,18.2550116 L36.9172621,15.4531939 L30.3406845,19.321769 L35.9300931,20.2854601 L35.4176817,18.5689447 L33.9176817,19.9689447 L34.6738717,19.7027322 L31.4255932,19.462119 L28.1975377,23.8032972 L29.8253073,24.9646839 L32.0472926,21.7171668 L27.3279713,21.1082221 L27.0720287,23.0917779 Z" id="Shape"></path>
            <path d="M31.0017873,69.4 L31.637215,72.8948522 L33.0847433,76.1846893 L36.3134648,75.7810991 L36.1538147,65.2441944 L33.1853821,69.4 L31.0017873,69.4 Z M34.3001148,74.9151498 L35.1759653,73.9077221 L33.5759653,74.1077221 L34.615315,74.6972614 L33.562785,72.3051478 L33.3982127,71.4 L34.2146179,71.4 L34.2461853,71.3558056 L34.3001148,74.9151498 Z" id="Shape"></path>
            <path d="M68.7974587,75.671247 C68.8255374,75.5104802 68.8475765,75.2896342 68.8819655,74.8670777 C68.9155127,74.4548653 68.9248394,74.3482403 68.9457395,74.1606114 C69.0583831,73.1493618 69.2706315,72.6887804 69.6713907,72.5284767 C70.1329177,72.3148348 70.4433393,72.2632721 71.1954488,72.2211177 C72.3907904,72.1541209 72.9766672,71.979947 73.5808688,71.224695 C73.7859853,70.9682995 74.0182445,70.648943 74.2747289,70.2749034 C74.3501908,70.1648547 74.4273889,70.0505812 74.5061244,69.932478 C74.771831,69.533918 75.0439289,69.108765 75.3083159,68.6838574 C75.3805358,68.5677897 75.4450128,68.4633243 75.5003654,68.3730586 L77.5767517,67.3763931 L79.3046848,67.1945055 L78.24,65.92 L77.2489152,69.3180052 L78.2574644,69.5701425 C78.3160263,69.5840925 78.3598394,69.5927998 78.4283697,69.6024585 C78.9129644,69.6707571 79.452769,69.6016201 79.9751434,69.2854461 C80.1852783,69.1582592 80.3755161,68.9984563 80.543561,68.8070284 C80.7994153,68.5155726 81.0038237,68.1508064 81.1486833,67.7162278 C81.5549038,66.4975662 81.7,65.7720853 81.7,65.4 L80.7,65.4 L79.7315071,65.649041 L80.6315071,69.149041 L82.5684929,68.650959 L79.7,57.4957087 L79.7,65.4 C79.7,65.3922102 79.6915574,65.4681934 79.6569193,65.6413839 C79.5874061,65.9889498 79.4575749,66.4649975 79.2513167,67.0837722 C79.2290531,67.148067 79.217993,67.1772991 79.206785,67.2048107 C79.1236778,67.4088105 79.0324448,67.5182129 78.939538,67.574446 C78.8644225,67.6199107 78.7743219,67.6314505 78.7074903,67.6220313 C78.7108603,67.6225063 79.46,68.88 79.46,68.88 L80.5772281,65.0495037 L77.0232483,65.4236069 L74.0968399,66.8282829 L73.9425071,67.0855042 C73.8784544,67.1922587 73.7626884,67.3821872 73.6102027,67.6272537 C73.3560711,68.0356794 73.0948356,68.4438598 72.8420238,68.8230776 C72.7679815,68.934141 72.6956426,69.0412217 72.6252711,69.1438466 C72.3942555,69.4807445 72.1890147,69.7629505 72.0191312,69.975305 C71.8813533,70.1475273 71.7486729,70.1869715 71.0835281,70.2242517 C70.0918818,70.2798317 69.5831462,70.3643354 68.8771145,70.6938169 C67.6414986,71.1863676 67.144551,72.2647497 66.958033,73.9391996 C66.9340454,74.1545465 66.9239296,74.2701933 66.888556,74.7048476 C66.8579889,75.0804425 66.8391979,75.2687407 66.8116283,75.4479428 C66.7708468,75.9724755 66.6616306,76.3673342 66.5005703,76.7106934 C66.3909235,76.9444461 66.2906745,77.0920655 66.2474233,77.1414954 L65.0073666,78.558703 L66.8759653,78.7922779 C66.9204011,78.7978324 66.9893294,78.8046021 67.0804728,78.8108682 C68.1468167,78.8841793 69.3886658,78.7464743 70.6008188,78.2161573 C70.8133182,78.1173145 71.017136,78.0204673 71.2656639,77.9010792 C71.4167995,77.8284767 71.5939196,77.7429894 71.9244703,77.5834069 C72.0091524,77.5425898 72.0091524,77.5425898 72.0937162,77.5019031 C72.9557853,77.0873682 73.5874734,76.8000205 74.05694,76.6162578 C74.0124565,76.7949864 73.9765145,76.9114415 73.9561416,76.9696496 L75.8438584,77.6303504 C75.8830342,77.5184196 75.936415,77.3454613 75.9893245,77.1335086 C76.0459007,76.9068668 76.0894178,76.6818906 76.1146163,76.4620739 C76.2492878,75.2872797 75.8371561,74.2712968 74.5004963,74.4049628 C73.6954906,74.561098 72.8410939,74.9233057 71.2269939,75.6994624 C71.1413048,75.7406906 71.1413048,75.7406906 71.0558453,75.7818824 C70.7239053,75.9421346 70.5488284,76.0266357 70.3996441,76.0983009 C70.1572933,76.2147215 69.9598014,76.308563 69.7771145,76.3938169 C69.3998543,76.5587259 69.0048503,76.6708757 68.6145247,76.7399083 C68.7076354,76.4039421 68.7705943,76.0473488 68.7974587,75.671247 Z" id="Shape"></path>
            <path d="M75.3,39.5981939 L75.3,43.7661904 L79.7824659,41.0767108 L79.8995121,37.3312348 L79.8906211,37.1633626 C79.8821655,37.102059 79.8659422,36.9943599 79.8415651,36.8467581 C79.8015857,36.6046849 79.7526962,36.3359239 79.6944712,36.0468974 C79.5277294,35.2191969 79.3186659,34.3904632 79.0622675,33.6099356 C78.8624644,33.0016952 78.6409749,32.4458818 78.3944272,31.9527864 C78.0718893,31.3077106 77.5648749,30.4703538 76.9090643,29.4760887 C76.7919917,29.2985965 76.6708214,29.1171242 76.5459214,28.9321072 C76.0766868,28.2370198 75.5749916,27.5212391 75.0734146,26.8238837 C74.8979335,26.5799078 74.7349204,26.3555486 74.588486,26.1557643 C74.5002519,26.0353841 74.4368705,25.9495703 74.4024623,25.9032972 L72.7975377,27.0967028 C72.8292889,27.1394027 72.8899564,27.221542 72.9753906,27.3381023 C73.1184036,27.5332188 73.2779176,27.752762 73.4497733,27.9916974 C73.9405873,28.6740887 74.431283,29.3741761 74.88828,30.0511357 C75.0092829,30.2303801 75.1264991,30.4059303 75.2395334,30.5773001 C75.8550183,31.510428 76.3265947,32.2892573 76.6055728,32.8472136 C76.8046622,33.2453924 76.9908724,33.7126746 77.1621602,34.2341088 C77.3912312,34.9314465 77.5816167,35.6861398 77.7338592,36.4418664 C77.7724066,36.6332141 77.804969,36.8060754 77.8317217,36.9563973 L75.3,39.5981939 Z M75.7855042,41.1425071 L77.3,42 L77.3,40 L77.0219882,40.6919054 L77.6788156,40.0065203 L75.7855042,41.1425071 Z" id="Shape"></path>
            <path d="M25.3668658,32.9302004 L24.8055728,34.0527864 C24.772148,34.1196361 24.7167659,34.234148 24.6466108,34.3855352 C24.5304926,34.6361059 24.4144186,34.9012436 24.3054384,35.1708261 C24.2210917,35.3794732 24.144247,35.5829342 24.0765549,35.7792412 C23.5399773,37.3353164 23.4621431,38.3186237 24.7049779,38.6564561 C25.3086741,38.8631826 25.842224,38.7260929 26.4935464,38.3797078 C26.57994,38.3337621 26.6562177,38.2910553 26.7836389,38.2182431 C27.0307669,38.0770272 27.1405112,38.0175498 27.2260348,37.9815084 C27.726456,38.2090849 28.3579404,38.3287333 28.9164753,38.2985423 C29.8968664,38.2455482 30.7,37.732205 30.7,36.7 C30.7,35.8975071 30.3633589,35.5082101 29.6286863,34.9942269 L29.6077351,34.9795715 C29.3912819,34.8281437 29.3510205,34.7885167 29.3615239,34.8252789 C29.3392719,34.7555379 29.33125,34.6953739 29.33125,34.6125 C29.33125,34.473124 29.3536693,34.3049789 29.3918121,34.1333367 C29.415332,34.0274969 29.4377626,33.9489898 29.4486833,33.9162278 L30.1305041,31.8707654 L28.1286093,32.6715233 C28.0782826,32.691654 27.9947936,32.725973 27.8887331,32.7711342 C27.7119209,32.846422 27.5347401,32.9255247 27.3667693,33.0057172 C27.2663123,33.0536773 27.171776,33.1008068 27.0838536,33.1470818 C26.8894004,33.2494255 26.7299686,33.3454688 26.5974892,33.447376 C26.4931491,33.5276376 26.4032673,33.6117682 26.3231637,33.7177398 L25.3668658,32.9302004 Z M27.7694101,36.0333442 C27.9317573,36.2267598 28.1531908,36.4028289 28.4612649,36.6183535 L28.4821921,36.632992 C28.4993118,36.6449691 28.5150873,36.6559861 28.5296242,36.6660839 C28.7063683,36.788856 28.7,36.7757359 28.7,36.7 C28.7,36.5401696 28.7959013,36.3748834 28.9161269,36.2980382 C28.9352158,36.2858371 28.8928682,36.2968986 28.8085247,36.3014577 C28.7040565,36.3071047 28.5861299,36.2985922 28.4702248,36.2799878 C28.2866074,36.2505146 28.1080634,36.1957137 27.9961389,36.1317569 L27.8939193,36.080855 C27.8524395,36.0630779 27.810938,36.0472644 27.7694101,36.0333442 C27.3774843,35.9019704 26.9832022,35.9392311 26.5825185,36.0860465 C26.4575086,36.1318516 26.3578283,36.1746274 26.2357475,36.2366577 C26.1642758,36.272973 26.0851264,36.3158877 25.9887217,36.3698733 C25.9300465,36.4027307 25.8649794,36.4396892 25.7913611,36.4817569 C25.6805359,36.5450855 25.6180512,36.5800698 25.5544536,36.6138922 C25.3637349,36.7153199 25.2946762,36.7361639 25.3391181,36.7585403 C25.6869203,36.8795865 25.7740317,37.1189164 25.766595,37.2204045 C25.7787303,37.0547935 25.8488541,36.7747183 25.9673009,36.4312226 C25.9742986,36.4109291 25.9814401,36.3904771 25.9887217,36.3698733 C26.0182925,36.2861999 26.0501736,36.200022 26.0841194,36.1117875 L28.7867644,38.3374951 L28.3883717,35.7479428 C28.3577285,35.5487621 28.3096449,35.2546034 28.2553545,34.957435 C28.2461246,34.9069132 28.2370033,34.8579901 28.228001,34.8107879 C28.4684192,34.6960076 28.7141822,34.5913601 28.8713907,34.5284767 L28.5,33.6 L27.5513167,33.2837722 C27.5200499,33.3775727 27.4791992,33.5205499 27.4394379,33.6994758 C27.3721119,34.002443 27.33125,34.3089072 27.33125,34.6125 C27.33125,34.8952511 27.3669781,35.1632121 27.4513167,35.4162278 C27.5220192,35.6653272 27.6210393,35.8565799 27.7694101,36.0333442 Z" id="Shape"></path>
            <path d="M35.3727164,34.4465515 C35.3998321,34.3452896 35.3998321,34.3452896 35.4272638,34.2443674 C35.499521,33.9794243 35.5771878,33.7050017 35.6548775,33.4374039 C35.7014521,33.2769802 35.7375386,33.1549735 35.7578263,33.0873479 L36.7053506,29.9289335 L31.1853821,34.4889075 L33.1369238,37.5884151 L32.7637392,39.3299433 L33.4321123,39.6837879 C33.4826739,39.7105558 33.5680653,39.7544714 33.6800934,39.8099716 C33.8654969,39.9018228 34.060426,39.9936742 34.2573849,40.080144 C34.3836336,40.1355703 34.5069964,40.1871085 34.6266902,40.2340473 C35.3792391,40.5291645 35.8527959,40.6429635 36.3416143,40.4424983 C37.6180946,40.0475119 37.5049336,38.5077193 36.7079594,36.7809418 C36.517069,36.3673459 36.2775609,36.0003686 35.9689461,35.6141918 C35.8416177,35.4548629 35.4187359,34.9632837 35.3487449,34.873353 C35.3196233,34.8359351 35.2985419,34.80745 35.2836028,34.7889987 C35.3107135,34.6817592 35.3405226,34.5672783 35.3727164,34.4465515 Z" id="Shape"></path>
            <path d="M52.2631245,55.4563385 C52.1144432,55.5509539 51.9256881,55.6976273 51.7335697,55.9009733 C51.0741847,56.5988938 50.8397919,57.5197226 51.5,58.4 C51.967925,59.0238999 52.5656657,59.4202964 53.2150588,59.3861178 C54.1594582,59.3364126 54.5969825,58.5174569 54.4938837,57.5895685 C54.4357665,57.0665134 54.2587387,56.5998037 54.0013542,56.1942282 C53.8065595,55.8872789 53.6037607,55.6680923 53.4401844,55.5317787 L52.8791992,55.064291 L52.2631245,55.4563385 Z M52.8,56.3 L52.1598156,57.0682213 C52.1747517,57.0806681 52.2397215,57.1508879 52.3126954,57.265877 C52.414815,57.4267928 52.483655,57.60828 52.5061163,57.8104315 C52.4978878,57.7363756 52.6711983,57.4119739 53.1099412,57.3888822 C53.2288529,57.3826237 53.289469,57.4031744 53.3073616,57.41504 C53.2550257,57.3803331 53.1804967,57.307329 53.1,57.2 C53.1422234,57.2562978 53.1192464,57.3465645 53.1873487,57.2744822 C53.2498859,57.2082902 53.3157863,57.1570819 53.3368755,57.1436615 L52.8,56.3 Z" id="Shape"></path>
            <path d="M67.9,48.9 C67.3908885,49.2818336 67.1774828,49.9476594 67.2761061,50.539399 C67.4244658,51.4295576 68.3143594,51.9975748 69.2144958,51.4574929 L69.3,51.4 C69.7592098,51.0555926 69.9156865,50.5274838 69.802113,50.0164029 C69.7462051,49.7648175 69.6358865,49.5448071 69.4896552,49.3345996 C69.3877807,49.188155 69.2877497,49.0735362 69.2071068,48.9928932 L68.5938363,48.3796228 L67.9,48.9 Z M68.7,50.6 L68.2875,49.9125 L68.2285714,49.9714286 L68.7,50.6 Z" id="Shape"></path>
            <path d="M72.4,47.1 C72.4,47.6682118 72.6892254,48.399461 73.046215,48.8614475 C73.4475202,49.3807837 73.9242816,49.6882461 74.6174651,49.2877401 C75.1694037,48.9688422 75.2501597,48.5136719 75.1970545,47.8233035 C75.0794662,46.9851957 74.8361497,46.4498995 74.3464958,46.1561071 C73.8553697,45.8614314 73.3584808,45.9374262 72.9572139,46.1858295 C72.8453624,46.2550709 72.7593119,46.3264745 72.6928932,46.3928932 L72.4,46.6857864 L72.4,47.1 Z M74.1071068,47.8071068 C74.0726408,47.8415728 74.0443508,47.8650474 74.0099231,47.8863598 C73.8398951,47.9916152 73.5836836,48.0308005 73.3175042,47.8710929 C73.3101412,47.8666751 73.3030162,47.8622451 73.2961247,47.8578124 C73.3592209,47.7512786 73.45972,47.6468308 73.6169099,47.5560099 C73.671552,47.5244389 73.7259613,47.499235 73.7797711,47.4797711 L74.1071068,47.8071068 Z" id="Shape"></path>
            <path d="M73.6013172,55.9098344 C73.200823,56.517014 73.2511716,57.2610179 73.8598156,57.7682213 C73.9362823,57.8319435 73.9495664,57.8458811 74.3139463,58.2398228 C74.4039881,58.3371696 74.4756503,58.4129649 74.547417,58.4859251 C74.9838891,58.9296556 75.3184069,59.1765771 75.7898132,59.2464662 C76.6539423,59.3745792 77.1917651,58.7777031 77.3778024,57.9095291 C77.9715568,55.1386753 77.8465889,53.0142219 75.9940858,52.444221 C75.6458613,52.3077629 75.4865061,52.123174 75.3718313,51.7661029 C75.3340635,51.6485026 75.3210733,51.595219 75.248216,51.273339 C75.2150071,51.1266239 75.1910725,51.0286987 75.1615239,50.9252789 C74.897056,50.1288902 74.5071869,49.6355865 73.6560509,49.8917536 C73.1458636,50.0453051 72.9801553,50.3306916 72.8218399,50.8084398 C72.7698135,50.9654401 72.7363681,51.1098056 72.7161301,51.2211146 L72.7061163,51.2895685 C72.5085398,53.0677569 72.8590986,54.8205511 74.2574644,55.1701425 C74.2723462,55.173863 74.2869741,55.1775867 74.3013444,55.1813096 C73.9018576,55.5247341 73.768405,55.6565166 73.6013172,55.9098344 Z M74.7203171,51.4375539 C74.7237424,51.4272175 74.7239037,51.4268327 74.7108733,51.4492739 C74.626563,51.594475 74.4976183,51.7270864 74.2324523,51.8068937 C73.5438151,52.0141534 73.3250044,51.7372909 73.2513167,51.5162278 C73.2553094,51.5336377 73.2719613,51.6017669 73.2975618,51.7148684 C73.3860901,52.1059818 73.404099,52.1798514 73.4676218,52.3776471 C73.7583233,53.2828254 74.3293086,53.9442255 75.3410209,54.3333456 C75.6359881,54.4261419 75.7426409,55.3830162 75.5696021,56.6521731 C75.5656623,56.6810697 75.5615775,56.7101283 75.5573466,56.7393422 C75.5224411,56.980362 75.4775934,57.2319573 75.4221976,57.4904709 C75.4293726,57.4569873 75.6565637,57.2048505 76.0831207,57.2680905 C76.1773829,57.2820655 76.2071178,57.2967757 76.2055629,57.295628 C76.1501357,57.2547149 76.0723333,57.1841583 75.9732441,57.0834212 C75.9183644,57.0276289 75.8595041,56.9653738 75.7821753,56.8817714 C75.7154669,56.809651 75.658375,56.747919 75.6090185,56.6946668 C75.5952951,56.6798603 75.5821698,56.6657094 75.5696021,56.6521731 C75.3051399,56.3673276 75.2875822,56.3546102 75.1401844,56.2317787 C75.3707293,56.4238995 75.3974718,56.8190748 75.2708448,57.0110509 C75.294368,56.9753879 75.3668848,56.9046506 75.5573466,56.7393422 C75.5736878,56.7251591 75.5908972,56.7102799 75.6090185,56.6946668 C75.6307962,56.6759034 75.6538908,56.6560802 75.6783779,56.6351321 C76.0700042,56.3001046 76.253694,56.1222347 76.4320503,55.8547002 L76.4944272,55.7472136 C76.8481089,55.0398501 76.6797482,54.3069858 76.0982073,53.8280698 C75.7837435,53.5690996 75.3873266,53.4010143 74.8653228,53.2615746 C74.821853,53.1760023 74.7777637,53.0397988 74.7430807,52.8663839 C74.6647105,52.4745327 74.6486446,51.9609517 74.6896006,51.5510467 C74.6966292,51.5194484 74.7078909,51.4750525 74.7203171,51.4375539 Z" id="Shape"></path>
            <path d="M69.1173564,59.3730669 L67.1274262,58.4685532 L67.3052186,60.2020289 C67.3178062,60.3247582 67.3439989,60.5252206 67.386655,60.7789379 C67.4577306,61.201693 67.5512284,61.6255786 67.6718708,62.0287334 C68.2008632,63.7964853 69.1503225,64.8944995 70.7008188,64.2161573 C72.4823481,63.4828435 73.3967453,61.7846773 73.5938837,60.0104315 C73.6263684,59.6861915 73.6333333,59.4749223 73.6333333,59.1333333 C73.6333333,59.1138147 73.6333652,59.0961161 73.6334185,59.0801113 C74.6482504,58.0117557 73.6127583,55.866034 72.1574644,56.2298575 C72.1121624,56.241183 71.9679876,56.2723559 71.9440875,56.2781499 C71.7581445,56.323227 71.6024094,56.3874476 71.437805,56.5191312 C71.2977754,56.6311548 71.2126884,56.7404024 71.1160642,56.8950011 C71.0936171,56.9309163 71.0244314,57.0474609 70.9799923,57.1223818 L69.1173564,59.3730669 Z M72.6787818,58.1787818 C72.6860636,58.1665297 72.6943757,58.1525257 72.7032176,58.1376235 C72.7459577,58.0655898 72.8010784,57.9725709 72.8120608,57.9549989 C72.7979562,57.9775664 72.7675945,58.0165493 72.687195,58.0808688 C72.6815801,58.0853608 72.6760039,58.0897219 72.6704672,58.0939562 C72.6553217,58.1055389 72.6404721,58.116172 72.6259353,58.1259353 C72.5742158,58.1606717 72.5264563,58.1843978 72.4834223,58.2007041 C72.0139127,58.2605284 71.914821,57.9709655 72.1928932,57.6928932 L72.9,58.4 L72.3,57.6 C72.2145014,57.6641239 72.1373427,57.7310799 72.0668213,57.8044221 C71.6892674,58.1970781 71.6333333,58.485698 71.6333333,59.1333333 C71.6333333,59.2696803 71.6321396,59.3759918 71.6282383,59.4760062 C71.6241099,59.5818443 71.6169494,59.6806306 71.6049628,59.8004963 C71.4839926,60.8886932 70.9396044,61.918812 69.9847177,62.3471677 C69.8933393,62.2314903 69.7962656,62.0432819 69.7042312,61.8008482 L72.5703943,58.3375677 L72.6574929,58.2144958 C72.6624007,58.2063161 72.6698091,58.193879 72.6787818,58.1787818 Z" id="Shape"></path>
            <path d="M80.5128828,62.0799589 C80.6331,62.0129831 80.7433266,61.9640048 80.8352272,61.9372986 C80.8997379,61.9185519 80.901064,61.918566 80.8527864,61.8944272 C80.9761223,61.9560952 81.0863819,62.0272303 81.18468,62.1058688 C81.3770295,62.2597485 81.4814617,62.3989914 81.5055728,62.4472136 L81.9783212,63.3927104 L84.2961389,62.0682431 L83.0704628,60.5160589 C83.0181414,60.5718684 82.930511,60.6674272 82.8190319,60.7925315 C82.6336307,61.0005928 82.4480586,61.2170937 82.2732443,61.432698 C82.194735,61.5295261 82.1199466,61.6243089 82.0493772,61.7166908 C81.8245063,62.0110672 81.650354,62.2596622 81.5267724,62.4896127 C81.498081,62.5429991 81.4721155,62.5953806 81.4488739,62.6470967 C81.3495765,62.8680486 81.3,63.0768554 81.3,63.3 L81.3131762,63.4592046 C81.3126635,63.4470448 81.3134767,63.415033 81.3239401,63.3515309 C81.357602,63.1472376 81.4764329,62.9391787 81.6803443,62.7967566 C81.6890302,62.79069 81.6978704,62.7847425 81.7068649,62.7789194 C81.8570826,62.6816687 81.9763848,62.6544213 82.0808162,62.6501865 C82.0816771,62.6501515 82.0624792,62.6494501 81.9773556,62.6450708 C81.8420006,62.6381072 81.7195091,62.6353504 81.6013824,62.6388327 C81.5499526,62.6403488 81.4993503,62.6430476 81.4488739,62.6470967 C81.2909919,62.6597617 81.1343429,62.6856379 80.9574644,62.7298575 C81.0489009,62.7069984 81.1262803,62.7507045 81.0026382,62.6084728 C80.9475492,62.5445476 80.9475492,62.5445476 80.8825396,62.4687117 C80.7510056,62.3161141 80.6323205,62.1887189 80.5128828,62.0799589 C80.3258246,61.9096238 80.1369203,61.7849983 79.8939193,61.680855 L79.7747211,61.6384761 C79.2352039,61.4843283 79.1,61.3877541 79.1,61.4 L79.0923759,61.2927203 C79.0911407,61.3056082 79.0854094,61.3118814 79.0732073,61.3219302 C79.0086556,61.3750904 78.9007565,61.4204004 78.7301828,61.415152 C78.4300686,61.4059177 78.1681316,61.2129115 78.0715233,60.9713907 L79,60.6 L78.0384761,60.8747211 C78.1606344,61.3022755 78.2,61.6368827 78.2,61.8 L78.2,64.0839851 L79.8782801,62.5348034 C79.9606213,62.4587962 80.1237967,62.3261504 80.323292,62.1952316 C80.3883346,62.1525474 80.4518944,62.1139371 80.5128828,62.0799589 Z M77.8017927,59.7780698 C77.3235602,60.1719083 77.0344372,60.8087099 77.1007887,61.4654372 C77.1284968,62.6050192 77.8848009,63.1623093 79.1328082,63.5345329 C79.1760342,63.5645418 79.2454941,63.6327923 79.3676427,63.7745016 C79.4261786,63.8428107 79.4261786,63.8428107 79.4932296,63.9206031 C80.0599927,64.5725788 80.6039101,64.8797989 81.4425356,64.6701425 C81.5743052,64.6372001 81.6767252,64.6322493 81.8745976,64.6424292 C82.0434292,64.6511151 82.0723734,64.6521726 82.1618535,64.648544 C82.3828921,64.6395805 82.5838913,64.5936745 82.7937698,64.4577993 C83.21721,64.1836647 83.3395921,63.8239273 83.3165085,63.3987321 C83.394305,63.2653823 83.5017414,63.1100879 83.6387192,62.9307715 C83.6970363,62.8544291 83.7599461,62.7747005 83.8267557,62.692302 C83.9800664,62.5032188 84.1460568,62.3095634 84.3122181,62.1230935 C84.4116765,62.0114791 84.4881086,61.9281316 84.5295372,61.8839411 L89.0779971,57.0322505 L82.6337018,60.714705 C82.571326,60.6577246 82.5048298,60.600739 82.43407,60.5441312 C82.2276806,60.3790197 81.9988777,60.2314048 81.7472136,60.1055728 C81.2853558,59.8746439 80.7843671,59.8693424 80.2771185,60.016748 C80.1494089,60.0538602 80.0227723,60.1001994 79.8969447,60.1548115 C79.4813054,59.2427084 78.471789,59.2263082 77.8017927,59.7780698 Z" id="Shape"></path>
            <path d="M73.4213427,65.2991812 C73.3290594,65.5101143 73.2672374,65.7079446 73.2298575,65.8574644 L75.1701425,66.3425356 C75.1783281,66.3097933 75.1946366,66.2553051 75.21572,66.1967511 C75.4204684,66.1077494 75.6146537,65.9615048 75.8484596,65.7591728 C75.9146083,65.7019287 75.9818893,65.6407104 76.0502446,65.5759527 C76.2529066,65.3839571 76.4300428,65.1964012 76.5474093,65.0643638 L75.0525907,63.7356362 C74.9699572,63.8285988 74.8283434,63.9785429 74.6747554,64.1240473 C74.6271714,64.1691269 74.5818414,64.2103722 74.5397061,64.2468354 C74.5075351,64.2746757 74.4782088,64.298842 74.4529344,64.3186326 C73.925523,64.4031679 73.6530474,64.7695703 73.4213427,65.2991812 Z" id="Shape"></path>
            <path d="M76.0853121,61.269563 C76.3491402,61.080295 76.5438001,60.8894898 76.6682213,60.7401844 L75.1317787,59.4598156 C75.1074395,59.4890226 75.0289214,59.565986 74.9194963,59.6444865 C74.7898954,59.7374611 74.663461,59.7950673 74.5585786,59.8100505 C74.5108372,59.8158631 74.4433991,59.823747 74.3251523,59.8375031 C74.2211527,59.8499041 74.1514435,59.8595656 74.07939,59.8728678 C73.8094252,59.9227075 73.5836686,60.0154507 73.3731362,60.2025907 C73.2081003,60.3492893 73.1142538,60.4890315 72.9902135,60.7189598 C73.0030054,60.695248 72.8052374,61.0714467 72.7258427,61.2143571 C72.5645908,61.5046106 72.4334323,61.8321321 72.3252705,62.19177 C72.1284118,62.8463252 72.0344872,63.4815099 72.0025413,63.928753 L71.9164254,65.134376 L76.3536034,64.6123551 L75.5574929,63.2855042 C75.5169508,63.217934 75.4429279,63.076215 75.368036,62.8957063 C75.2769775,62.6762319 75.2155783,62.4666619 75.195578,62.2952304 C75.1874095,62.2252155 75.186873,62.1672734 75.1922779,62.1240347 C75.2101206,61.9812929 75.2210631,61.8408322 75.2257996,61.7030518 C75.5383246,61.6077456 75.8222632,61.458272 76.0853121,61.269563 Z M73.287308,62.9593024 C73.3381485,63.1687631 73.4069165,63.3779643 73.4899501,63.5864665 C73.5000004,63.6117033 73.5102596,63.6369298 73.5207214,63.6621453 C73.6375455,63.9437213 73.7552386,64.1690483 73.8425071,64.3144958 L74.5831588,62.8068494 L72.8831588,63.0068494 L73.9974587,64.071247 C73.9990727,64.0486505 74.0016559,64.0190022 74.0053099,63.9830996 C74.0131974,63.9056026 74.0260746,63.7989655 74.0449658,63.6712098 C74.0866211,63.3895065 74.143615,63.1088855 74.2165953,62.8499745 C74.2243897,62.8223226 74.2323664,62.7949183 74.2405263,62.7677868 C74.310233,62.5360119 74.3895643,62.3379102 74.4741573,62.1856429 C74.5260564,62.0922245 74.6132783,61.9286501 74.6761952,61.8098092 C74.7495506,61.8008948 74.8152248,61.793078 74.8299767,61.7914242 C74.9669863,61.7715867 75.0987549,61.7417949 75.2257996,61.7030518 C75.2383259,61.3386766 75.2074479,60.993048 75.1460064,60.6735526 C75.1133104,60.5035334 75.0780199,60.3717821 75.0486833,60.2837722 L73.1513167,60.9162278 C73.1539801,60.9242179 73.1666896,60.9716666 73.1819936,61.0512474 C73.2293194,61.2973419 73.2446923,61.5802035 73.2077221,61.8759653 C73.1811825,62.0882822 73.1831923,62.3053401 73.2090517,62.5269918 C73.2258669,62.6711226 73.2523492,62.8152738 73.287308,62.9593024 Z" id="Shape"></path>
        </g>
    </g>
</svg>