<?xml version="1.0" encoding="UTF-8" standalone="no"?>
<svg width="100px" height="100px" viewBox="0 0 100 100" version="1.1" xmlns="http://www.w3.org/2000/svg" xmlns:xlink="http://www.w3.org/1999/xlink">
    <!-- Generator: Sketch 41 (35326) - http://www.bohemiancoding.com/sketch -->
    <title>globe</title>
    <desc>Created with Sketch.</desc>
    <defs></defs>
    <g id="All" stroke="none" stroke-width="1" fill="none" fill-rule="evenodd">
        <g id="globe" stroke="#000000" stroke-width="2">
            <g id="icon-startamozillaclub" transform="translate(13.000000, 13.000000)">
                <path d="M0.5,37.5 C0.5,17.3 16.9,0.9 37.1,0.9 C57.3,0.9 73.7,17.3 73.7,37.5 C73.7,57.7 57.3,74.1 37.1,74.1 C19.1,74.1 4.2,61.2 1.1,44.1 C0.7,41.9 0.5,39.7 0.5,37.5 Z" id="Shape"></path>
                <path d="M61.9,10.7 L59,10.3 L58.7,13.8 C58.7,13.8 61.4,14.8 61.9,16.5 C62.4,18.2 62.9,20.4 62.9,20.4 L61.2,22.4 L62.9,25.8 L61.7,27.3 C61.7,27.3 60.5,24.1 59.8,23.9 C59.1,23.7 58.5,22.6 58.5,22.6 L56.5,23.4 L57.3,24.6 L59,25.3 C59,25.3 59,25.3 58.7,26 C58.4,26.7 59.4,28.2 60,30.7 C60.7,33.2 57.5,34.9 56.3,34.9 C55.1,34.9 53.6,35.7 53.3,36.9 C53,38.1 54.8,38.8 55.5,40.3 C56.2,41.8 53.6,42.7 53.6,42.7 L50.7,39.5 C50.7,39.5 50.9,40.2 50.7,41.5 C50.5,42.8 51.4,44 52.7,44.5 C54,45 53.9,47 53.9,47 L53.4,48.3 C53.4,48.3 53.4,50 54.9,51 C56.4,52 59.1,52.7 59.1,52.7 C59.1,52.7 55.7,52.2 54.4,52.2 C53.1,52.2 52.2,51.2 50.7,49.7 C49.2,48.2 47.2,45.5 47.2,45.5 C47.2,45.5 48.9,45.7 49.4,46.2 C49.9,46.7 51.4,47.4 51.4,47.4 C51.4,47.4 49.9,44 49.9,42.8 C49.9,41.6 48.7,38.2 48.7,38.2 L46.5,40.4 C46.5,40.4 47,39.4 47,38 C47,36.7 45.5,35.1 45.5,35.1 C45.5,35.1 44,36 43,36.6 C42,37.3 39.6,39.3 39.5,40.8 C39.3,42.3 38,44 38,44 C38,44 35.8,39.3 33.8,36.4 C31.8,33.5 29.9,33.9 27.9,33.9 C25.9,33.9 23.3,32.4 22.3,31.5 C21.3,30.7 20.3,31.2 20.3,31.2 L22.3,34.2 C22.3,34.2 24.7,34 26,34.5 C27.3,35 26.5,36 25.3,37.7 C24.1,39.4 21.6,40.2 20.1,40.6 C18.6,40.9 18.8,39.1 18.8,39.1 L13.4,31.8 L16.3,38.4 L19.5,42.1 L23.4,41.3 C23.4,41.3 22.4,44.3 21,45.9 C19.7,47.4 17,50.1 17,50.1 C17,50.1 17.5,51.6 17.5,53.3 C17.5,55 17.7,56.7 17.7,56.7 L16.2,57 C16.2,57 16.2,57.8 16,59 C15.8,60.2 14.1,62.7 14.1,62.7 C14.1,62.7 12.4,61.7 9.9,58.8 C7.4,55.9 7.2,51.5 6.4,48.7 C5.6,45.8 5.6,45.4 3.7,44.1 C2.7,43.4 1.1,43.9 1.1,43.9" id="Shape"></path>
                <path d="M1.2,31 C1.2,31 3.1,29.2 3.8,28.9 C5,28.4 6,28.3 6,28.3 L5.2,30 L8.4,31.8 L8.7,29.9 L12.9,30.2 C12.9,30.2 14.3,29.4 14.6,28.7 C14.9,28 14.8,26.8 14.8,26.8 L12.3,27.6 L10.6,27.2 L10.8,25.7 L9.1,25.7 L9.8,27.7 L8.6,28.6 L7.9,25.1 L6.5,23.7 L6.5,27.6 L5.5,26.6 L4.8,24.1 L4.1,26.1 L3,27.7 L1.9,28.1 L3.4,25.1 L3.8,22.7 L6.1,20 L8.7,19.2 L10.1,17.9 L11.1,14.9 L13.5,13.7" id="Shape"></path>
                <path d="M12.8,11.8 L11,14.9" id="Shape"></path>
                <path d="M14.2,9.1 L17.3,9.5 L16,11.4 L18.9,7.5 L21.6,7.7 L23.1,6.3 L20.2,5.8 L23.6,3.8 L24.9,5.8 L26.9,6.6 L26.6,4.4 L28.6,4.4 C28.6,4.4 29.3,5 29.3,5.5 C29.3,6 30.8,4 30.8,4 L29.8,2.9 C29.8,2.9 31,1.8 31.5,1.8 C32,1.8 32.9,1.4 32.9,1.4" id="Shape"></path>
                <polygon id="Shape" points="22.2 55.3 20.7 57.4 19.2 57.4 19.6 59.6 20.7 62.1 22.3 61.9"></polygon>
                <path d="M61.9,64.3 C61.9,64.3 62.6,62.3 61.6,62.4 C60.6,62.6 58.7,63.6 57.2,64.3 C55.6,65 54,64.8 54,64.8 C54,64.8 54.7,64 54.8,62.6 C55,61.3 54.8,59.2 56.3,58.6 C57.8,57.9 59,58.6 59.8,57.6 C60.6,56.6 61.8,54.6 61.8,54.6 L64.3,53.4 L66.2,53.2 L65.5,55.6 C65.5,55.6 66.7,55.9 67.2,54.4 C67.7,52.9 67.7,52.4 67.7,52.4 L68.6,55.9" id="Shape"></path>
                <path d="M60.6,13.5 C60.6,13.5 63.5,17.4 64.5,19.4 C65.5,21.4 65.9,24.3 65.9,24.3 L65.8,27.5 L63.3,29 L63.3,27 L65.6,24.6" id="Shape"></path>
                <path d="M15.5,20.6 C15.5,20.6 14,21.2 14.1,21.4 C14.2,21.6 14.4,22.9 14.4,22.9 L12.7,21.5 C12.7,21.5 11.2,24.5 12,24.7 C12.8,25 13.8,23.7 14.5,24 C15.2,24.4 16.7,24.5 16.7,23.7 C16.7,22.9 15.6,22.8 15.4,22.1 C15.2,21.5 15.5,20.6 15.5,20.6 Z" id="Shape"></path>
                <path d="M21.8,19.8 L19.5,21.7 L21.2,24.4 L20.9,25.8 C20.9,25.8 22.6,26.7 23,26.5 C23.4,26.4 23.4,25.5 22.8,24.2 C22.2,22.9 21,22.3 21.3,21.6 C21.5,20.8 21.8,19.8 21.8,19.8 Z" id="Shape"></path>
                <path d="M39.8,43.3 C39.8,43.3 38.7,44 39.3,44.8 C39.9,45.6 40.6,45.6 40.5,44.7 C40.4,43.8 39.8,43.3 39.8,43.3 Z" id="Shape"></path>
                <path d="M55.5,36.7 C55.1,37 55.2,37.9 55.7,37.6 C56.1,37.3 55.5,36.7 55.5,36.7 Z" id="Shape"></path>
                <path d="M60.4,34.1 C60.4,34.8 61.3,36.2 61.2,34.9 C61,33.5 60.4,34.1 60.4,34.1 Z" id="Shape"></path>
                <path d="M60.7,38.4 C60.6,39.3 60.7,41 61.5,41.2 C62.3,41.4 62.9,41.7 62.6,42.3 C62.2,42.9 60.9,43.5 61.5,44 C62.1,44.5 63.1,46.1 63.4,44.7 C63.7,43.3 64,40.8 62.7,40.4 C61.4,39.9 61.4,38.9 61.2,38.2 C60.9,37.3 60.7,38.4 60.7,38.4 Z" id="Shape"></path>
                <path d="M58.8,44.7 L56.4,47.6 L55.3,47.1 C55.3,47.1 55.7,51 57.3,50.3 C59,49.6 59.5,47.8 59.6,46.9 C59.7,45.9 59.5,45.7 59.9,45.4 C60.3,45 59.8,44.1 59.4,44.2 C59,44.3 59.1,44.2 58.8,44.7 Z" id="Shape"></path>
                <path d="M66.2,48.8 C66.2,48.8 67.5,47.6 68.3,48 C69.1,48.4 69.4,49 69.4,49 L70.8,48.2 C70.8,48.2 69.3,49.8 69.3,50.3 C69.4,50.9 69,50.5 68.2,50.7 C67.4,50.9 67.2,49.9 66.5,49.6 C65.8,49.4 65.1,49.1 65.1,48.4 C65,47.7 65.8,47.1 66,47.6 C66.2,48.3 66.2,48.8 66.2,48.8 Z" id="Shape"></path>
                <path d="M62.8,51.4 C62.8,51.4 62,52.3 61.7,52.3 C61.4,52.3 61.2,53.1 61.2,53.1" id="Shape"></path>
                <path d="M62.9,47.1 C62.9,47.1 62.4,47.7 61.7,47.8 C60.9,47.9 61.1,47.8 60.6,48.7 C60.1,49.6 60,51 60,51 L61.7,50.8 C61.7,50.8 61.1,49.8 61.2,49 C61.3,48.2 61.1,47.6 61.1,47.6" id="Shape"></path>
            </g>
        </g>
    </g>
</svg>