<?xml version="1.0" encoding="UTF-8" standalone="no"?>
<svg width="75px" height="75px" viewBox="0 0 75 75" version="1.1" xmlns="http://www.w3.org/2000/svg" xmlns:xlink="http://www.w3.org/1999/xlink">
    <!-- Generator: Sketch 41 (35326) - http://www.bohemiancoding.com/sketch -->
    <title>holding-doc</title>
    <desc>Created with Sketch.</desc>
    <defs></defs>
    <g id="All" stroke="none" stroke-width="1" fill="none" fill-rule="evenodd">
        <g id="holding-doc" fill="#000000">
            <g id="Group" transform="translate(6.000000, 5.000000)">
                <path d="M58.409017,51.8 L62.009017,41.8 C62.209017,41.3 62.209017,40.7 62.109017,40.1 L60.009017,33 C59.809017,32.5 59.509017,32 59.009017,31.7 L54.409017,28.8 L54.409017,28.7 L54.409017,9.7 C54.409017,9.7 54.409017,9.7 54.409017,9.6 C54.409017,9.6 54.409017,9.6 54.409017,9.5 C54.409017,9.4 54.309017,9.3 54.309017,9.3 L45.209017,0.2 C45.109017,0.1 45.009017,0 44.909017,0 C44.909017,0 44.909017,0 44.809017,0 C44.809017,0 44.809017,0 44.709017,0 L8.30901699,0 C8.00901699,0 7.80901699,0.2 7.80901699,0.5 L7.80901699,28.8 L3.20901699,31.7 C2.70901699,32 2.40901699,32.5 2.20901699,33 L0.109016994,40.1 C-0.0909830056,40.6 0.00901699437,41.2 0.209016994,41.8 L3.80901699,51.8 C3.90901699,52 3.90901699,52.3 3.90901699,52.5 L3.90901699,54.8 L3.20901699,54.8 C2.90901699,54.8 2.70901699,55 2.70901699,55.3 L2.70901699,63.7 C2.70901699,64 2.90901699,64.2 3.20901699,64.2 L18.509017,64.2 C18.809017,64.2 19.009017,64 19.009017,63.7 L19.009017,55.3 C19.009017,55 18.809017,54.8 18.509017,54.8 L17.009017,54.8 L17.009017,44.5 C17.009017,43.2 16.809017,41.9 16.409017,40.6 L14.909017,35.6 L14.909017,28.6 C14.909017,26.6 13.309017,25 11.309017,25 C10.309017,25 9.40901699,25.4 8.70901699,26.1 L8.70901699,1 L44.209017,1 L44.209017,9.6 C44.209017,9.9 44.409017,10.1 44.709017,10.1 L53.309017,10.1 L53.309017,26.2 C52.709017,25.5 51.709017,25.1 50.709017,25.1 C48.709017,25.1 47.109017,26.7 47.109017,28.7 L47.109017,35.7 L45.609017,40.7 C45.209017,42 45.009017,43.3 45.009017,44.6 L45.009017,54.9 L43.509017,54.9 C43.209017,54.9 43.009017,55.1 43.009017,55.4 L43.009017,63.8 C43.009017,64.1 43.209017,64.3 43.509017,64.3 L59.009017,64.3 C59.309017,64.3 59.509017,64.1 59.509017,63.8 L59.509017,55.4 C59.509017,55.1 59.309017,54.9 59.009017,54.9 L58.309017,54.9 L58.309017,52.6 C58.309017,52.3 58.309017,52 58.409017,51.8 L58.409017,51.8 Z M18.009017,63.2 L3.70901699,63.2 L3.70901699,55.8 L18.009017,55.8 L18.009017,63.2 L18.009017,63.2 Z M11.309017,26.1 C12.709017,26.1 13.909017,27.2 13.909017,28.7 L13.909017,35.7 L13.909017,35.8 L15.409017,40.8 C15.809017,42 15.909017,43.2 15.909017,44.4 L15.909017,54.7 L4.90901699,54.7 L4.90901699,52.4 C4.90901699,52 4.80901699,51.7 4.70901699,51.4 L1.10901699,41.4 C1.00901699,41.1 1.00901699,40.7 1.10901699,40.4 L3.20901699,33.3 C3.30901699,33 3.50901699,32.7 3.80901699,32.5 L7.80901699,30 L7.80901699,35.7 L6.80901699,42.2 C6.80901699,42.5 6.90901699,42.7 7.20901699,42.8 C7.50901699,42.8 7.70901699,42.7 7.80901699,42.4 L8.80901699,35.9 L8.80901699,29 L8.80901699,28.6 C8.80901699,27.2 9.90901699,26.1 11.309017,26.1 L11.309017,26.1 Z M45.309017,9.1 L45.309017,1.7 L49.009017,5.4 L52.709017,9.1 L45.309017,9.1 L45.309017,9.1 Z M58.509017,63.2 L44.209017,63.2 L44.209017,55.8 L58.509017,55.8 L58.509017,63.2 L58.509017,63.2 Z M46.209017,54.8 L46.209017,44.5 C46.209017,43.3 46.409017,42.1 46.709017,40.9 L48.209017,35.9 L48.209017,35.8 L48.209017,28.8 C48.209017,27.4 49.309017,26.2 50.809017,26.2 C52.309017,26.2 53.409017,27.3 53.409017,28.8 L53.409017,29 L53.409017,29 L53.409017,35.7 L54.409017,42.2 C54.409017,42.5 54.709017,42.7 55.009017,42.6 C55.309017,42.6 55.509017,42.3 55.409017,42 L54.409017,35.6 L54.409017,30 L58.509017,32.6 C58.809017,32.8 59.009017,33 59.109017,33.4 L61.209017,40.5 C61.309017,40.8 61.309017,41.2 61.209017,41.5 L57.609017,51.5 C57.509017,51.8 57.409017,52.2 57.409017,52.5 L57.409017,54.8 L46.209017,54.8 L46.209017,54.8 Z" id="Shape"></path>
                <path d="M19.509017,10.9 L25.309017,10.9 C25.609017,10.9 25.809017,10.7 25.809017,10.4 C25.809017,10.1 25.609017,9.9 25.309017,9.9 L19.509017,9.9 C19.209017,9.9 19.009017,10.1 19.009017,10.4 C19.009017,10.7 19.209017,10.9 19.509017,10.9 L19.509017,10.9 Z" id="Shape"></path>
                <path d="M42.709017,14.1 L19.709017,14.1 C19.409017,14.1 19.209017,14.3 19.209017,14.6 C19.209017,14.9 19.409017,15.1 19.709017,15.1 L42.709017,15.1 C43.009017,15.1 43.209017,14.9 43.209017,14.6 C43.209017,14.3 42.909017,14.1 42.709017,14.1 L42.709017,14.1 Z" id="Shape"></path>
                <path d="M42.709017,18.3 L19.709017,18.3 C19.409017,18.3 19.209017,18.5 19.209017,18.8 C19.209017,19.1 19.409017,19.3 19.709017,19.3 L42.709017,19.3 C43.009017,19.3 43.209017,19.1 43.209017,18.8 C43.209017,18.5 42.909017,18.3 42.709017,18.3 L42.709017,18.3 Z" id="Shape"></path>
                <path d="M42.709017,22.5 L19.709017,22.5 C19.409017,22.5 19.209017,22.7 19.209017,23 C19.209017,23.3 19.409017,23.5 19.709017,23.5 L42.709017,23.5 C43.009017,23.5 43.209017,23.3 43.209017,23 C43.209017,22.7 42.909017,22.5 42.709017,22.5 L42.709017,22.5 Z" id="Shape"></path>
                <path d="M42.709017,26.7 L19.709017,26.7 C19.409017,26.7 19.209017,26.9 19.209017,27.2 C19.209017,27.5 19.409017,27.7 19.709017,27.7 L42.709017,27.7 C43.009017,27.7 43.209017,27.5 43.209017,27.2 C43.209017,26.9 42.909017,26.7 42.709017,26.7 L42.709017,26.7 Z" id="Shape"></path>
                <path d="M42.709017,30.9 L19.709017,30.9 C19.409017,30.9 19.209017,31.1 19.209017,31.4 C19.209017,31.7 19.409017,31.9 19.709017,31.9 L42.709017,31.9 C43.009017,31.9 43.209017,31.7 43.209017,31.4 C43.209017,31.1 42.909017,30.9 42.709017,30.9 L42.709017,30.9 Z" id="Shape"></path>
            </g>
        </g>
    </g>
</svg>