<?xml version="1.0" encoding="UTF-8" standalone="no"?>
<svg width="75px" height="75px" viewBox="0 0 75 75" version="1.1" xmlns="http://www.w3.org/2000/svg" xmlns:xlink="http://www.w3.org/1999/xlink">
    <!-- Generator: Sketch 3.7.1 (28215) - http://www.bohemiancoding.com/sketch -->
    <title>icon-access</title>
    <desc>Created with Sketch.</desc>
    <defs></defs>
    <g id="Icons" stroke="none" stroke-width="1" fill="none" fill-rule="evenodd">
        <g id="icon-access" fill="#000000">
            <g id="Group" transform="translate(0.000000, 4.000000)">
                <path d="M73.9,57.6 L47,57.6 C46.9,57.6 46.7,57.7 46.6,57.7 L44,60.4 L30.4,60.4 L27.8,57.8 C27.7,57.7 27.6,57.7 27.4,57.7 L0.5,57.7 C0.2,57.7 0,57.9 0,58.2 L0,61 C0,61.1 0.1,61.3 0.1,61.4 L5.7,67 C5.8,66.9 5.9,67 6.1,67 L68.3,67 C68.4,67 68.6,66.9 68.7,66.9 L74.3,61.3 C74.4,61.2 74.4,61.1 74.4,60.9 L74.4,58.1 C74.4,57.9 74.2,57.6 73.9,57.6 L73.9,57.6 Z M73.4,60.7 L68.1,66 L6.3,66 L1,60.7 L1,58.6 L27.2,58.6 L29.8,61.2 C29.9,61.3 30,61.3 30.2,61.3 L44.2,61.3 C44.3,61.3 44.5,61.2 44.6,61.2 L47.2,58.6 L73.4,58.6 L73.4,60.7 L73.4,60.7 Z" id="Shape"></path>
                <path d="M6.1,54.4 C6.4,54.4 6.6,54.2 6.6,53.9 L6.6,23.2 C6.6,21.2 8.3,19.5 10.3,19.5 L16,19.5 C16.3,19.5 16.5,19.3 16.5,19 C16.5,18.7 16.3,18.5 16,18.5 L10.2,18.5 C7.6,18.5 5.5,20.6 5.5,23.2 L5.5,53.9 C5.6,54.1 5.8,54.4 6.1,54.4 L6.1,54.4 Z" id="Shape"></path>
                <path d="M67.8,37.8 L67.8,53.8 C67.8,54.1 68,54.3 68.3,54.3 C68.6,54.3 68.8,54.1 68.8,53.8 L68.8,37.8 C68.8,37.5 68.6,37.3 68.3,37.3 C68,37.3 67.8,37.5 67.8,37.8 L67.8,37.8 Z" id="Shape"></path>
                <path d="M16,23.7 C16.3,23.7 16.5,23.5 16.5,23.2 C16.5,22.9 16.3,22.7 16,22.7 L10.2,22.7 C9.9,22.7 9.7,22.9 9.7,23.2 L9.7,52.2 C9.7,52.5 9.9,52.7 10.2,52.7 L64.1,52.7 C64.4,52.7 64.6,52.5 64.6,52.2 L64.6,37.8 C64.6,37.5 64.4,37.3 64.1,37.3 C63.8,37.3 63.6,37.5 63.6,37.8 L63.6,51.7 L10.8,51.7 L10.8,23.7 L16,23.7 L16,23.7 Z" id="Shape"></path>
                <path d="M20.3,49.4 C20.6,49.4 20.8,49.2 20.8,48.9 L20.8,6.2 C20.8,3.4 23.1,1 26,1 L55.9,1 C54.7,1.9 53.9,3.4 53.9,5 L53.9,48.9 C53.9,49.2 54.1,49.4 54.4,49.4 C54.7,49.4 54.9,49.2 54.9,48.9 L54.9,5 C54.9,2.8 56.7,1 58.9,1 C61.1,1 62.9,2.8 62.9,5 L62.9,29.9 C62.9,32.2 64.8,34.1 67.1,34.1 C69.4,34.1 71.3,32.2 71.3,29.9 L71.3,7.7 C71.3,7.4 71.1,7.2 70.8,7.2 C70.5,7.2 70.3,7.4 70.3,7.7 L70.3,29.8 C70.3,31.6 68.9,33 67.1,33 C65.3,33 63.9,31.6 63.9,29.8 L63.9,5 C63.9,2.2 61.7,0 58.9,0 L26,0 C22.6,0 19.8,2.8 19.8,6.2 L19.8,48.9 C19.8,49.2 20,49.4 20.3,49.4 L20.3,49.4 Z" id="Shape"></path>
                <path d="M29.8,11.4 C28.3,11.4 27.6,12.6 27.6,14.9 C27.6,17.2 28.4,18.4 29.8,18.4 C31.3,18.4 32,17.2 32,14.9 C32,12.7 31.2,11.4 29.8,11.4 L29.8,11.4 Z M29.8,17.8 C29,17.8 28.5,17 28.5,15 C28.5,13 29,12.2 29.8,12.2 C30.6,12.2 31.1,13 31.1,15 C31.1,16.9 30.6,17.8 29.8,17.8 L29.8,17.8 Z" id="Shape"></path>
                <polygon id="Shape" points="37.2 11.5 35.2 12.8 35.5 13.4 37.1 12.4 37.1 17.7 35.4 17.7 35.4 18.3 39.3 18.3 39.3 17.7 37.9 17.7 37.9 11.5"></polygon>
                <path d="M44.6,11.4 C43.1,11.4 42.4,12.6 42.4,14.9 C42.4,17.2 43.2,18.4 44.6,18.4 C46.1,18.4 46.8,17.2 46.8,14.9 C46.8,12.7 46.1,11.4 44.6,11.4 L44.6,11.4 Z M44.6,17.8 C43.8,17.8 43.3,17 43.3,15 C43.3,13 43.8,12.2 44.6,12.2 C45.4,12.2 45.9,13 45.9,15 C46,16.9 45.5,17.8 44.6,17.8 L44.6,17.8 Z" id="Shape"></path>
                <polygon id="Shape" points="31.9 28.5 30.5 28.5 30.5 22.4 29.8 22.4 27.7 23.7 28.1 24.3 29.7 23.3 29.7 28.5 28 28.5 28 29.2 31.9 29.2"></polygon>
                <polygon id="Shape" points="28 39.4 28 40.1 31.9 40.1 31.9 39.4 30.5 39.4 30.5 33.3 29.8 33.3 27.7 34.6 28.1 35.1 29.7 34.2 29.7 39.4"></polygon>
                <path d="M37.2,29.3 C38.7,29.3 39.4,28.1 39.4,25.8 C39.4,23.6 38.6,22.3 37.2,22.3 C35.7,22.3 35,23.5 35,25.8 C35,28.1 35.7,29.3 37.2,29.3 L37.2,29.3 Z M37.2,23 C38,23 38.5,23.8 38.5,25.8 C38.5,27.8 38,28.6 37.2,28.6 C36.4,28.6 35.9,27.8 35.9,25.8 C35.8,23.8 36.4,23 37.2,23 L37.2,23 Z" id="Shape"></path>
                <polygon id="Shape" points="42.9 28.5 42.9 29.2 46.8 29.2 46.8 28.5 45.4 28.5 45.4 22.4 44.6 22.4 42.6 23.7 43 24.3 44.5 23.3 44.5 28.5"></polygon>
                <polygon id="Shape" points="35.4 39.4 35.4 40.1 39.3 40.1 39.3 39.4 37.9 39.4 37.9 33.3 37.2 33.3 35.2 34.6 35.5 35.1 37.1 34.2 37.1 39.4"></polygon>
                <path d="M44.6,40.2 C46.1,40.2 46.8,39 46.8,36.7 C46.8,34.5 46,33.2 44.6,33.2 C43.1,33.2 42.4,34.4 42.4,36.7 C42.4,38.9 43.2,40.2 44.6,40.2 L44.6,40.2 Z M44.6,33.9 C45.4,33.9 45.9,34.7 45.9,36.7 C45.9,38.7 45.4,39.5 44.6,39.5 C43.8,39.5 43.3,38.7 43.3,36.7 C43.3,34.7 43.8,33.9 44.6,33.9 L44.6,33.9 Z" id="Shape"></path>
            </g>
        </g>
    </g>
</svg>