<?xml version="1.0" encoding="UTF-8" standalone="no"?>
<svg width="75px" height="75px" viewBox="0 0 75 75" version="1.1" xmlns="http://www.w3.org/2000/svg" xmlns:xlink="http://www.w3.org/1999/xlink">
    <!-- Generator: Sketch 3.7.1 (28215) - http://www.bohemiancoding.com/sketch -->
    <title>icon-community</title>
    <desc>Created with Sketch.</desc>
    <defs></defs>
    <g id="Icons" stroke="none" stroke-width="1" fill="none" fill-rule="evenodd">
        <g id="icon-community" fill="#000000">
            <path d="M50.9,50.4 C51.6,49.8 52.1,48.8 52.1,47.8 C52.1,45.9 50.5,44.3 48.6,44.3 L35.7,44.3 L40.3,35 C40.3,34.9 40.4,34.9 40.4,34.8 L40.4,31.7 C40.4,29.8 38.8,28.2 36.9,28.2 C35,28.2 33.5,29.7 33.4,31.5 L30.6,37.5 L24.6,44.2 L7.8,44.2 C7.5,44.2 7.3,44.4 7.3,44.7 L7.3,68.3 C7.3,68.6 7.5,68.8 7.8,68.8 L22.5,68.8 C22.8,68.8 23,68.6 23,68.3 L23,45.4 L24.8,45.4 C24.9,45.4 25.1,45.3 25.2,45.2 L31.4,38.3 L31.5,38.2 L34.4,32 L34.4,31.8 C34.4,30.4 35.5,29.3 36.9,29.3 C38.3,29.3 39.4,30.4 39.4,31.8 L39.4,34.8 L34.5,44.7 C34.4,44.9 34.4,45 34.5,45.2 C34.6,45.4 34.8,45.4 34.9,45.4 L48.6,45.4 C50,45.4 51.1,46.5 51.1,47.9 C51.1,49.3 50,50.4 48.6,50.4 C48.3,50.4 48.1,50.6 48.1,50.9 C48.1,51.2 48.3,51.4 48.6,51.4 L49.9,51.4 C51.3,51.4 52.4,52.5 52.4,53.9 C52.4,55.3 51.3,56.4 49.9,56.4 L47.3,56.4 C47,56.4 46.8,56.6 46.8,56.9 C46.8,57.2 47,57.4 47.3,57.4 C48.7,57.4 49.8,58.5 49.8,59.9 C49.8,61.3 48.7,62.4 47.3,62.4 L46.7,62.4 C46.4,62.4 46.2,62.6 46.2,62.9 C46.2,63.2 46.4,63.4 46.7,63.4 C48.1,63.4 49.2,64.5 49.2,65.9 C49.2,67.3 48,68 46.7,68 L30.1,68 L26.2,65.9 C26,65.8 25.7,65.9 25.5,66.1 C25.4,66.3 25.5,66.6 25.7,66.8 L29.7,68.9 C29.8,68.9 29.9,69 29.9,69 L46.6,69 C48.5,69 50.1,67.5 50.1,65.5 C50.1,64.4 49.6,63.4 48.7,62.7 C49.9,62.2 50.7,61 50.7,59.6 C50.7,58.6 50.3,57.8 49.7,57.1 L49.8,57.1 C51.7,57.1 53.3,55.6 53.3,53.6 C53.3,52.2 52.3,50.9 50.9,50.4 L50.9,50.4 Z M21.9,68 L8.3,68 L8.3,45.4 L22,45.4 L22,68 L21.9,68 Z" id="Shape"></path>
            <path d="M18.1,65.8 L19.2,65.8 C19.5,65.8 19.7,65.6 19.7,65.3 L19.7,64.2 C19.7,63.9 19.5,63.7 19.2,63.7 L18.1,63.7 C17.8,63.7 17.6,63.9 17.6,64.2 L17.6,65.3 C17.6,65.5 17.8,65.8 18.1,65.8 L18.1,65.8 Z M18.6,64.7 L18.7,64.7 L18.7,64.8 L18.6,64.8 L18.6,64.7 L18.6,64.7 Z" id="Shape"></path>
            <path d="M30.8,19.1 C30.5,19.1 30.3,19.3 30.3,19.6 L30.3,20.7 C30.3,21 30.5,21.2 30.8,21.2 L31.9,21.2 C32.2,21.2 32.4,21 32.4,20.7 L32.4,19.6 C32.4,19.3 32.2,19.1 31.9,19.1 L30.8,19.1 L30.8,19.1 Z M31.4,20.2 L31.3,20.2 L31.3,20.1 L31.4,20.1 L31.4,20.2 L31.4,20.2 Z" id="Shape"></path>
            <path d="M24,19.1 C23.7,19.1 23.5,19.3 23.5,19.6 L23.5,20.7 C23.5,21 23.7,21.2 24,21.2 L25.1,21.2 C25.4,21.2 25.6,21 25.6,20.7 L25.6,19.6 C25.6,19.3 25.4,19.1 25.1,19.1 L24,19.1 L24,19.1 Z M24.6,20.2 L24.5,20.2 L24.5,20.1 L24.6,20.1 L24.6,20.2 L24.6,20.2 Z" id="Shape"></path>
            <path d="M17.2,19.1 C16.9,19.1 16.7,19.3 16.7,19.6 L16.7,20.7 C16.7,21 16.9,21.2 17.2,21.2 L18.3,21.2 C18.6,21.2 18.8,21 18.8,20.7 L18.8,19.6 C18.8,19.3 18.6,19.1 18.3,19.1 L17.2,19.1 L17.2,19.1 Z M17.8,20.2 L17.7,20.2 L17.7,20.1 L17.8,20.1 L17.8,20.2 L17.8,20.2 Z" id="Shape"></path>
            <path d="M17,40.3 C17.1,40.4 17.2,40.5 17.4,40.5 L17.6,40.5 C17.8,40.4 17.9,40.2 17.9,40 L18,32.4 L30,32.4 C30.3,32.4 30.5,32.2 30.5,31.9 C30.5,31.6 30.3,31.4 30,31.4 L17.4,31.4 C17.1,31.4 16.9,31.6 16.9,31.9 L16.8,38.8 L9.8,31.5 C9.7,31.4 9.6,31.3 9.4,31.3 L4,31.3 L4,8 L45,8 L45,31.3 L42.8,31.3 C42.5,31.3 42.3,31.5 42.3,31.8 C42.3,32.1 42.5,32.3 42.8,32.3 L45.5,32.3 C45.8,32.3 46,32.1 46,31.8 L46,7.5 C46,7.2 45.8,7 45.5,7 L3.5,7 C3.2,7 3,7.2 3,7.5 L3,31.8 C3,32.1 3.2,32.3 3.5,32.3 L9.2,32.3 L17,40.3 L17,40.3 Z" id="Shape"></path>
            <path d="M72.5,13 L49.2,13 C48.9,13 48.7,13.2 48.7,13.5 C48.7,13.8 49,14 49.2,14 L72,14 L72,36.8 L66.5,36.8 C66.4,36.8 66.2,36.9 66.1,37 L59.1,44.3 L59,37.4 C59,37.1 58.8,36.9 58.5,36.9 L42.9,36.9 C42.6,36.9 42.4,37.1 42.4,37.4 C42.4,37.7 42.6,37.9 42.9,37.9 L58.1,37.9 L58.2,45.5 C58.2,45.7 58.3,45.9 58.5,46 L58.7,46 C58.8,46 59,45.9 59.1,45.8 L66.8,37.8 L72.5,37.8 C72.8,37.8 73,37.6 73,37.3 L73,13.5 C73,13.2 72.8,13 72.5,13 L72.5,13 Z" id="Shape"></path>
            <path d="M49.2,21 L66.7,21 C67,21 67.2,20.8 67.2,20.5 C67.2,20.2 67,20 66.8,20 L49.2,20 C48.9,20 48.7,20.2 48.7,20.5 C48.7,20.8 49,21 49.2,21 L49.2,21 Z" id="Shape"></path>
            <path d="M49.2,26.4 L66.7,26.4 C67,26.4 67.2,26.2 67.2,25.9 C67.2,25.6 67,25.4 66.7,25.4 L49.2,25.4 C48.9,25.4 48.7,25.6 48.7,25.9 C48.7,26.2 49,26.4 49.2,26.4 L49.2,26.4 Z" id="Shape"></path>
            <path d="M49.2,31.7 L66.7,31.7 C67,31.7 67.2,31.5 67.2,31.2 C67.2,30.9 67,30.7 66.7,30.7 L49.2,30.7 C48.9,30.7 48.7,30.9 48.7,31.2 C48.7,31.5 49,31.7 49.2,31.7 L49.2,31.7 Z" id="Shape"></path>
        </g>
    </g>
</svg>