<?xml version="1.0" encoding="UTF-8" standalone="no"?>
<svg width="18px" height="18px" viewBox="0 0 18 18" version="1.1" xmlns="http://www.w3.org/2000/svg" xmlns:xlink="http://www.w3.org/1999/xlink">
    <!-- Generator: Sketch 41 (35326) - http://www.bohemiancoding.com/sketch -->
    <title>info-i</title>
    <desc>Created with Sketch.</desc>
    <defs></defs>
    <g id="All" stroke="none" stroke-width="1" fill="none" fill-rule="evenodd">
        <g id="info-i" fill="#000000">
            <path d="M9,0 C4.02944122,0 0,4.02944122 0,9 C0,13.9705588 4.02944122,18 9,18 C13.9705588,18 18,13.9705588 18,9 C18,4.02944122 13.9705588,0 9,0 L9,0 Z M8.77839027,1.99063832 C9.61712519,1.99063832 10.297088,2.67060118 10.297088,3.50933609 C10.297088,4.348071 9.61712519,5.02803386 8.77839027,5.02803386 C7.93965536,5.02803386 7.2596925,4.348071 7.2596925,3.50933609 C7.2596925,2.67060118 7.93965536,1.99063832 8.77839027,1.99063832 L8.77839027,1.99063832 Z M11.3772381,15.6422054 L6.58239448,15.6422054 L6.58239448,14.2041439 L7.27156915,14.1455831 C7.64908869,14.1064658 7.88267376,13.8983777 7.88267376,13.520595 L7.88267376,8.09132116 C7.88267376,7.87007333 7.82595536,7.72024989 7.75456386,7.64211404 C7.68281048,7.56401108 7.53732975,7.52499251 7.35516629,7.52499251 L6.66365577,7.48587523 L6.66365577,5.88999569 L10.1581872,5.88999569 L10.1581872,8.09339382 L10.1581872,8.52463792 L10.1581872,13.5226676 C10.1581872,13.9004504 10.3511745,14.1085714 10.7286611,14.1476557 L11.3772381,14.2062494 L11.3772381,15.6422054 Z" id="Fill-1"></path>
        </g>
    </g>
</svg>