<?xml version="1.0" encoding="UTF-8" standalone="no"?>
<svg width="41px" height="41px" viewBox="0 0 41 41" version="1.1" xmlns="http://www.w3.org/2000/svg" xmlns:xlink="http://www.w3.org/1999/xlink">
    <!-- Generator: Sketch 41 (35326) - http://www.bohemiancoding.com/sketch -->
    <title>institution</title>
    <desc>Created with Sketch.</desc>
    <defs></defs>
    <g id="All" stroke="none" stroke-width="1" fill="none" fill-rule="evenodd">
        <g id="institution" fill="#000000">
            <path d="M34.5,22 L28.24,22 L28.24,17.14 L29,17.14 C29.2761424,17.1979899 29.5470101,17.0211424 29.605,16.745 C29.6629899,16.4688576 29.4861424,16.1979899 29.21,16.14 L21.5,12.7 L21.5,7.5 C21.5,7.22385762 21.2761424,7 21,7 C20.8439744,7.00389407 20.6991367,7.08188359 20.61,7.21 L17.66,7.21 C17.3838576,7.21 17.16,7.43385762 17.16,7.71 L17.16,10.26 C17.16,10.5361424 17.3838576,10.76 17.66,10.76 L20.5,10.76 L20.5,12.7 L12.84,16.18 C12.5638576,16.2379899 12.3870101,16.5088576 12.445,16.785 C12.5029899,17.0611424 12.7738576,17.2379899 13.05,17.18 L13.76,17.18 L13.76,22 L7.5,22 C7.22385762,22 7,22.2238576 7,22.5 L7,33.63 C7,33.9061424 7.22385762,34.13 7.5,34.13 L34.5,34.13 C34.7761424,34.13 35,33.9061424 35,33.63 L35,22.46 C34.9791015,22.199589 34.7612469,21.9991628 34.5,22 L34.5,22 Z M18.16,9.76 L18.16,8.21 L20.5,8.21 L20.5,9.76 L18.16,9.76 L18.16,9.76 Z M19,33.13 L19,27.43 L23,27.43 L23,33.13 L19,33.13 L19,33.13 Z M34,33.13 L24,33.13 L24,26.93 C24,26.6538576 23.7761424,26.43 23.5,26.43 L18.5,26.43 C18.2238576,26.43 18,26.6538576 18,26.93 L18,33.13 L8,33.13 L8,23 L14.26,23 C14.5361424,23 14.76,22.7761424 14.76,22.5 L14.76,16.64 C14.7748657,16.5707893 14.7748657,16.4992108 14.76,16.43 L21,13.57 L27.29,16.43 C27.2751343,16.4992108 27.2751343,16.5707893 27.29,16.64 L27.29,22.47 C27.29,22.7461424 27.5138576,22.97 27.79,22.97 L34,22.97 L34,33.13 L34,33.13 Z" id="Shape"></path>
        </g>
    </g>
</svg>