<?xml version="1.0" encoding="UTF-8" standalone="no"?>
<svg width="125px" height="125px" viewBox="0 0 125 125" version="1.1" xmlns="http://www.w3.org/2000/svg" xmlns:xlink="http://www.w3.org/1999/xlink">
    <!-- Generator: Sketch 41 (35326) - http://www.bohemiancoding.com/sketch -->
    <title>learning-about-us</title>
    <desc>Created with Sketch.</desc>
    <defs>
        <polygon id="path-1" points="0 0.575608466 117.473403 0.575608466 117.473403 110 0 110"></polygon>
        <polygon id="path-3" points="0 0.575608466 117.473403 0.575608466 117.473403 110 0 110"></polygon>
        <polygon id="path-5" points="0 0.575608466 117.473403 0.575608466 117.473403 110 0 110"></polygon>
        <polygon id="path-7" points="0 0.575608466 117.473403 0.575608466 117.473403 110 0 110"></polygon>
        <polygon id="path-9" points="0 0.575608466 117.473403 0.575608466 117.473403 110 0 110"></polygon>
        <polygon id="path-11" points="0 0.575608466 117.473403 0.575608466 117.473403 110 0 110"></polygon>
        <polygon id="path-13" points="0 0.575608466 117.473403 0.575608466 117.473403 110 0 110"></polygon>
        <polygon id="path-15" points="0 0.575608466 117.473403 0.575608466 117.473403 110 0 110"></polygon>
        <polygon id="path-17" points="0 0.575608466 117.473403 0.575608466 117.473403 110 0 110"></polygon>
        <polygon id="path-19" points="0 0.575608466 117.473403 0.575608466 117.473403 110 0 110"></polygon>
        <polygon id="path-21" points="0 0.575608466 117.473403 0.575608466 117.473403 110 0 110"></polygon>
        <polygon id="path-23" points="0 0.575608466 117.473403 0.575608466 117.473403 110 0 110"></polygon>
        <polygon id="path-25" points="0 0.575608466 117.473403 0.575608466 117.473403 110 0 110"></polygon>
        <polygon id="path-27" points="0 0.575608466 117.473403 0.575608466 117.473403 110 0 110"></polygon>
        <polygon id="path-29" points="0 0.575608466 117.473403 0.575608466 117.473403 110 0 110"></polygon>
        <polygon id="path-31" points="0 0.575608466 117.473403 0.575608466 117.473403 110 0 110"></polygon>
        <polygon id="path-33" points="0 0.575608466 117.473403 0.575608466 117.473403 110 0 110"></polygon>
        <polygon id="path-35" points="0 0.575608466 117.473403 0.575608466 117.473403 110 0 110"></polygon>
        <polygon id="path-37" points="0 0.575608466 117.473403 0.575608466 117.473403 110 0 110"></polygon>
        <polygon id="path-39" points="0 0.575608466 117.473403 0.575608466 117.473403 110 0 110"></polygon>
        <polygon id="path-41" points="0 0.575608466 117.473403 0.575608466 117.473403 110 0 110"></polygon>
    </defs>
    <g id="All" stroke="none" stroke-width="1" fill="none" fill-rule="evenodd">
        <g id="learning-about-us">
            <g id="icon-circle-home" transform="translate(4.000000, 8.000000)">
                <mask id="mask-2" fill="white">
                    <use xlink:href="#path-1"></use>
                </mask>
                <g id="path-1"></g>
                <path d="M109.352244,93.2447302 L106.212035,93.5275873 L106.079945,93.8616614 C105.459418,95.4272698 104.602891,96.8433016 103.532672,98.0713439 L103.29491,98.3443069 L104.494284,101.174624 L101.113378,103.664466 L98.7111095,101.679228 L98.3741343,101.83346 C96.918801,102.49928 95.3442935,102.894466 93.6940547,103.006794 L93.3236169,103.032402 L92.1811891,105.919175 L88.0376866,105.298169 L87.7529602,102.132032 L87.4212687,101.998169 C85.9412786,101.399862 84.5687214,100.568751 83.3435174,99.5269524 L83.0652488,99.2906561 L80.1575174,100.534413 L77.7053483,97.197746 L79.817607,94.7637778 L79.6755373,94.4314497 C79.6074378,94.2713968 79.5446219,94.1107619 79.481806,93.950127 L83.1574179,93.950127 C84.8158756,96.8456296 87.7412189,98.844836 91.0546119,99.3191746 C91.6228905,99.4058942 92.1905821,99.448963 92.7547512,99.448963 C95.0777662,99.448963 97.3291592,98.7179577 99.2289005,97.3240423 C101.598294,95.5861587 103.135229,93.0317143 103.556741,90.1367937 C104.482542,84.1997037 100.354303,78.6135661 94.3539154,77.6835132 C92.7218756,77.4332487 91.0610697,77.5548889 89.5018259,78.0274815 L89.5018259,74.867164 C90.2338955,74.6861587 90.9430697,74.5691746 91.6551791,74.5208677 L92.0215075,74.4958413 L93.2214677,71.5497037 L97.3626219,72.170127 L97.5915771,75.2943598 L97.9520348,75.4218201 C99.4396567,75.9491217 100.803408,76.7540423 102.121955,77.8819788 L102.402572,78.1229312 L105.256881,76.8774286 L107.760124,80.2175873 L105.76293,82.5368995 L105.913219,82.8721376 C106.599498,84.4022434 106.987547,85.9602857 107.100264,87.6353122 L107.12492,88.0008148 L109.979229,89.1328254 L109.352244,93.2447302 Z M35.0938458,88.3494392 C35.6914776,88.5135661 36.3225721,88.453037 36.9149204,88.1614497 C38.1336667,87.5613968 38.9203333,86.1465291 38.9203333,84.5558942 L38.9203333,68.156582 C38.9203333,65.2500212 36.8855672,65.0067407 34.8014876,65.0067407 L34.5191095,65.0067407 L34.5191095,15.5131429 L87.5016965,15.5131429 C87.941408,15.5131429 88.3276965,15.8955238 88.3276965,16.3314497 L88.3276965,91.9677989 C88.3276965,92.4037249 87.941408,92.7861058 87.5016965,92.7861058 L35.0938458,92.7861058 L35.0938458,88.3494392 Z M33.9197164,106.09145 C33.9197164,107.630286 32.6522438,108.836212 31.0337065,108.836212 C29.4421741,108.836212 28.1476965,107.604677 28.1476965,106.09145 L28.1476965,86.8920847 L24.9722637,86.8920847 L24.9722637,106.09145 C24.9722637,107.630286 23.704204,108.836212 22.0856667,108.836212 C20.4941343,108.836212 19.1996567,107.604677 19.1996567,106.09145 L19.1996567,74.0506032 L18.0255274,74.0506032 L18.0255274,87.0591217 C17.5447214,87.243037 16.9746816,87.2081164 16.5026816,86.9485397 C15.7741343,86.5481164 15.3731692,85.698963 15.3731692,84.5558942 L15.3731692,68.156582 C15.3731692,66.6904974 15.8974179,66.1707619 17.3762338,66.1707619 L34.8014876,66.1707619 C37.1685323,66.1707619 37.746204,66.560127 37.746204,68.156582 L37.746204,84.5558942 C37.746204,85.866 37.0663831,86.7873228 36.3930199,87.1190688 C36.0777662,87.2738836 35.613398,87.3809735 35.0938458,87.1016085 L35.0938458,74.0506032 L33.9197164,74.0506032 L33.9197164,106.09145 Z M28.1024925,63.4376402 C28.7887711,63.2874815 29.4327811,63.0343069 30.021607,62.6979048 L33.3449801,62.6979048 L33.3449801,65.0067407 L28.1024925,65.0067407 L28.1024925,63.4376402 Z M21.0835473,57.1263175 C21.0835473,54.1470053 23.5151692,51.8137249 26.618393,51.8137249 C29.6705423,51.8137249 32.1538259,54.1970582 32.1538259,57.1263175 C32.1538259,60.0555767 29.6705423,62.4389101 26.618393,62.4389101 C23.5668308,62.4389101 21.0835473,60.0555767 21.0835473,57.1263175 L21.0835473,57.1263175 Z M28.1024925,46.7653651 L33.3449801,46.7653651 L33.3449801,61.5338836 L31.5203831,61.5338836 C32.6381542,60.3762646 33.3279552,58.8292804 33.3279552,57.1263175 C33.3279552,54.0480635 31.0894776,51.4691746 28.1024925,50.8149947 L28.1024925,46.7653651 Z M28.1024925,30.8328254 L33.3449801,30.8328254 L33.3449801,45.6013439 L28.1024925,45.6013439 L28.1024925,30.8328254 Z M6.23844279,38.0433545 C3.44577612,38.0433545 1.17383582,35.7915556 1.17383582,33.0229312 L1.17383582,30.8048889 C1.17383582,28.0362646 3.44577612,25.7844656 6.23844279,25.7844656 L10.9461144,25.7844656 L10.9461144,24.5022963 C10.9461144,21.733672 13.2180547,19.481291 16.0101343,19.481291 L18.2474378,19.481291 C18.7851891,19.481291 19.2313582,19.5458942 19.6511095,19.6849947 L20.1583333,19.8526138 L20.3743731,19.3677989 C21.1950896,17.5222434 23.0179254,16.3297037 25.0174677,16.3297037 L26.9283632,16.3297037 L26.9283632,16.3314497 L26.9283632,29.6688042 L25.4260647,29.6688042 C25.1014179,29.6688042 24.839,29.928963 24.839,30.2508148 C24.839,30.5720847 25.1014179,30.8328254 25.4260647,30.8328254 L26.9283632,30.8328254 L26.9283632,38.0433545 L6.23844279,38.0433545 Z M33.3449801,29.6688042 L28.1024925,29.6688042 L28.1024925,16.3314497 C28.1024925,15.8646772 28.4576667,15.5131429 28.9279055,15.5131429 L33.3449801,15.5131429 L33.3449801,29.6688042 Z M16.0089602,12.7421905 C16.0089602,10.6131958 16.6042438,9.01324868 17.8294478,7.85213757 C19.0640448,6.68113228 20.7688806,6.08748148 22.8981642,6.08748148 C23.4752488,6.08748148 24.0523333,6.18933333 24.7139552,6.4075873 C25.3121741,6.6054709 25.8575572,6.85922751 26.4810199,7.22996825 C26.8479353,7.44822222 27.1643632,7.69033862 27.4708109,7.92488889 C27.6269701,8.04361905 27.7737363,8.15594709 27.8852786,8.23451852 C28.2780249,8.56801058 28.6836866,8.91314286 29.0171393,9.24372487 L29.432194,9.65520635 L29.8472488,9.24372487 C30.1812886,8.91314286 30.5869502,8.56801058 30.9914378,8.22346032 C31.3771393,7.89637037 31.9002139,7.55007407 32.3857164,7.22880423 C32.9516468,6.89240212 33.4864627,6.57404233 34.1075771,6.42039153 L34.1656965,6.40293122 C34.7298657,6.19922751 35.3691791,6.08748148 35.9668109,6.08748148 C38.1489303,6.08748148 39.8514179,6.67822222 41.0261343,7.8428254 C42.2795174,9.08541799 42.9147214,10.733672 42.9147214,12.7421905 C42.9147214,13.2712381 42.8401642,13.8101799 42.6992687,14.3491217 L28.9279055,14.3491217 C28.2504328,14.3491217 27.6651294,14.6703915 27.3052587,15.1674286 C27.2882338,15.1674286 27.271209,15.1656825 27.2541841,15.1656825 L25.0174677,15.1656825 C22.7214577,15.1656825 20.6162438,16.4373757 19.5231294,18.4447302 C19.1955473,18.3737249 18.8433085,18.3399683 18.4722836,18.328328 L18.1006716,17.9034603 C17.7472587,17.503037 17.4149801,17.0263704 17.1120547,16.4862646 C16.8085423,15.9449947 16.5384925,15.3333016 16.3318458,14.7175344 C16.1234378,14.0982751 16.0089602,13.3969524 16.0089602,12.7421905 L16.0089602,12.7421905 Z M81.9650896,12.5966878 C81.9650896,6.61012698 86.7719751,1.73986243 92.6807811,1.73986243 C98.5332289,1.73986243 103.340114,6.61245503 103.395886,12.5966878 C103.395886,15.5300212 101.19498,20.6226138 98.2796169,24.4382751 C95.9906517,27.3745185 93.6441542,30.3410265 92.6772587,31.5603386 C92.0890199,30.8270053 90.9677264,29.4255238 89.5018259,27.5747302 L89.5018259,18.0251005 C90.4599154,18.5913968 91.554791,18.8975344 92.6807811,18.8975344 C96.1526816,18.8975344 98.9776368,16.0445185 98.9776368,12.5379048 C98.9776368,9.03129101 96.1526816,6.17827513 92.6807811,6.17827513 C89.2082935,6.17827513 86.3833383,9.03129101 86.3833383,12.5379048 C86.3833383,13.1594921 86.4772687,13.7642011 86.6498657,14.3491217 L82.1423831,14.3491217 C82.0267313,13.708328 81.9650896,13.1187513 81.9650896,12.5966878 L81.9650896,12.5966878 Z M89.5018259,36.2047831 L89.5018259,29.4569524 C90.8409204,31.142455 91.7702438,32.3000741 92.0937164,32.7016614 L92.0937164,35.1705503 L89.5018259,36.2047831 Z M110.5751,41.3008677 L95.2233582,47.4253651 L89.5018259,45.1433016 L89.5018259,37.4595979 L95.2233582,35.1769524 L110.5751,41.3008677 Z M104.702692,49.2848889 C104.702692,51.2299683 100.328473,53.6051534 95.2233582,53.6051534 C93.242602,53.6051534 91.2295572,53.2396508 89.5018259,52.5790688 L89.5018259,46.3981164 L95.2233582,48.6801799 L104.702692,44.8988571 L104.702692,49.2848889 Z M89.5018259,79.2526138 C90.9900348,78.7404444 92.5968308,78.5926138 94.1736866,78.8335661 C99.5347612,79.6646772 103.223876,84.654836 102.395527,89.9645185 C102.018045,92.5550476 100.645488,94.8365291 98.5308806,96.3881693 C96.4227313,97.9345714 93.8296667,98.5677989 91.227796,98.1673757 C88.4492189,97.7698624 86.062801,96.2479048 84.5370199,93.950127 L87.5016965,93.950127 C88.5854179,93.950127 89.5018259,93.0421905 89.5018259,91.9677989 L89.5018259,79.2526138 Z M87.8997264,14.3904444 C87.6772289,13.8002857 87.5574677,13.1798624 87.5574677,12.5379048 C87.5574677,9.67324868 89.8558259,7.3422963 92.6807811,7.3422963 C95.5057363,7.3422963 97.8035075,9.67324868 97.8035075,12.5379048 C97.8035075,15.4025608 95.5057363,17.7335132 92.6807811,17.7335132 C91.5219154,17.7335132 90.4041443,17.3319259 89.5018259,16.6061587 L89.5018259,16.3314497 C89.5018259,15.3915026 88.8008706,14.5795979 87.8997264,14.3904444 L87.8997264,14.3904444 Z M108.421746,49.6882222 C108.132323,49.6882222 107.897498,49.454836 107.897498,49.1684868 C107.897498,48.8815556 108.132323,48.6481693 108.421746,48.6481693 C108.711169,48.6481693 108.945995,48.8815556 108.945995,49.1684868 C108.945995,49.454836 108.711169,49.6882222 108.421746,49.6882222 L108.421746,49.6882222 Z M107.133139,82.7382751 L109.260075,80.2682222 L105.640821,75.4381164 L102.604522,76.7627725 C101.369338,75.7500741 100.087776,74.9928783 98.7075871,74.4591746 L98.4657164,71.1580106 L92.480592,70.2611323 L91.2060746,73.3900212 C90.6424925,73.4441481 90.0753881,73.5500741 89.5018259,73.6798624 L89.5018259,53.8228254 C90.3231294,54.1085926 91.1966816,54.3303386 92.0937164,54.4892275 L92.0937164,63.9655238 L93.2678458,63.9655238 L93.2678458,54.6568466 C93.9171393,54.7284339 94.5717164,54.7691746 95.2233582,54.7691746 C100.798711,54.7691746 105.876821,52.1553651 105.876821,49.2848889 L105.876821,44.4303386 L107.834682,43.6492804 L107.834682,47.5941481 C107.187736,47.8327725 106.723368,48.4450476 106.723368,49.1684868 C106.723368,49.7592275 107.033338,50.2777989 107.498881,50.5781164 L107.121985,51.1746772 C106.944104,51.4563704 106.934711,51.8119788 107.097328,52.1029841 C107.259358,52.3934074 107.568741,52.5738307 107.903955,52.5738307 L108.939537,52.5738307 C109.275338,52.5738307 109.584134,52.3934074 109.746164,52.1024021 C109.908781,51.8113968 109.898801,51.4557884 109.72092,51.1746772 L109.344612,50.5781164 C109.810154,50.2777989 110.120124,49.7592275 110.120124,49.1684868 C110.120124,48.4450476 109.655756,47.8327725 109.008811,47.5941481 L109.008811,43.1807619 L113.720005,41.3008677 L95.2233582,33.9221376 L93.2678458,34.7026138 L93.2678458,32.6993333 C93.8648905,31.9467937 96.5724328,28.5321376 99.2118756,25.145418 C102.316861,21.0824021 104.570015,15.8047302 104.570015,12.5908677 C104.508373,5.96584127 99.1743035,0.57584127 92.6807811,0.57584127 C86.1244428,0.57584127 80.7909602,5.96816931 80.7909602,12.5966878 C80.7909602,13.1298095 80.8449701,13.7176402 80.9494677,14.3491217 L43.9050995,14.3491217 C44.0236866,13.8119259 44.0888507,13.2735661 44.0888507,12.7421905 C44.0888507,10.4135661 43.337995,8.48827513 41.8562438,7.01986243 C40.4531592,5.62885714 38.4718159,4.92346032 35.9668109,4.92346032 C35.2458955,4.92346032 34.4756667,5.05674074 33.7929104,5.29827513 C33.0168109,5.49615873 32.3886517,5.86980952 31.755796,6.24695238 C31.220393,6.60081481 30.666791,6.96631746 30.2147512,7.35044444 C29.9529204,7.57277249 29.686393,7.79975661 29.432194,8.02965079 C29.1785821,7.79975661 28.9114677,7.57277249 28.6502239,7.35044444 L28.5962139,7.30795767 C28.4664726,7.21658201 28.3314478,7.11240212 28.188204,7.00298413 C27.870602,6.76028571 27.5107313,6.48499471 27.0851095,6.23240212 C26.3853284,5.81568254 25.7683234,5.52933333 25.0849801,5.30351323 C24.3112289,5.04742857 23.595597,4.92346032 22.8981642,4.92346032 C20.4565622,4.92346032 18.4781542,5.62594709 17.0175373,7.01055026 C15.5487015,8.4038836 14.8348308,10.2785397 14.8348308,12.7421905 C14.8348308,13.5302328 14.9675075,14.3403915 15.2181841,15.0853651 C15.4471393,15.7680635 15.7477164,16.4478519 16.0858657,17.0513968 C16.3482836,17.5199153 16.6388806,17.9348889 16.9406318,18.3172698 L16.0101343,18.3172698 C12.5705224,18.3172698 9.77198507,21.0917143 9.77198507,24.5022963 L9.77198507,24.6204444 L6.23844279,24.6204444 C2.79883085,24.6204444 -0.000293532338,27.3948889 -0.000293532338,30.8048889 L-0.000293532338,33.0229312 C-0.000293532338,36.4329312 2.79883085,39.2073757 6.23844279,39.2073757 L26.9283632,39.2073757 L26.9283632,45.6013439 L25.4260647,45.6013439 C25.1014179,45.6013439 24.839,45.8620847 24.839,46.1833545 C24.839,46.5046243 25.1014179,46.7653651 25.4260647,46.7653651 L26.9283632,46.7653651 L26.9283632,50.664836 C26.8250398,50.6601799 26.7228905,50.6497037 26.618393,50.6497037 C22.9192985,50.6497037 19.9094179,53.5551005 19.9094179,57.1263175 C19.9094179,60.6975344 22.9192985,63.6029312 26.618393,63.6029312 C26.7228905,63.6029312 26.8250398,63.592455 26.9283632,63.5877989 L26.9283632,65.0067407 L17.3762338,65.0067407 C15.2680846,65.0067407 14.1990398,66.066582 14.1990398,68.156582 L14.1990398,84.5558942 C14.1990398,86.1180106 14.8313085,87.3611852 15.9332289,87.9664762 C16.5743035,88.3185926 17.3286816,88.4186984 18.0255274,88.2685397 L18.0255274,106.09145 C18.0255274,108.246635 19.8471891,110.000233 22.0856667,110.000233 C24.3623035,110.000233 26.146393,108.283302 26.146393,106.09145 L26.146393,88.0561058 L26.9735672,88.0561058 L26.9735672,106.09145 C26.9735672,108.246635 28.7946418,110.000233 31.0337065,110.000233 C33.3103433,110.000233 35.0938458,108.283302 35.0938458,106.09145 L35.0938458,93.950127 L78.2360547,93.950127 C78.3076766,94.1503386 78.374602,94.3493862 78.4550299,94.5490159 L76.2083333,97.1377989 L79.7612488,101.971979 L82.8615373,100.645577 C84.0168806,101.583778 85.2872886,102.352614 86.6463433,102.937534 L86.9504428,106.312614 L92.9320448,107.20891 L94.1472687,104.138222 C95.6783333,103.996212 97.1471692,103.627799 98.52501,103.041132 L101.071697,105.145101 L105.933179,101.565153 L104.657488,98.5549947 C105.629667,97.3828254 106.428075,96.0628254 107.035687,94.6223492 L110.375498,94.3214497 L111.279577,88.394836 L108.242692,87.1906561 C108.102383,85.6372698 107.737816,84.1740952 107.133139,82.7382751 L107.133139,82.7382751 Z" id="Fill-1" fill="#000000" mask="url(#mask-2)"></path>
                <path d="M113.915791,71.0606984 L112.352438,70.3966243 L112.072995,70.650381 C111.450119,71.2166772 110.753274,71.6590053 109.942537,72.0035556 L109.610846,72.1444021 L109.500478,73.842709 L107.728716,74.1098519 L107.115234,72.5058307 L106.737164,72.4825503 C105.920557,72.4319153 105.095144,72.2317037 104.282647,71.8865714 L103.935692,71.7393228 L102.7281,72.8276825 L101.284507,71.7055661 L101.893881,70.1684762 L101.691343,69.9077354 C101.137741,69.1947725 100.689811,68.4166243 100.358119,67.5948254 L100.221333,67.2555132 L98.6186468,67.1460952 L98.3409652,65.2597989 L99.846199,64.6521799 L99.8690945,64.2872593 C99.9219303,63.4549841 100.125642,62.5924444 100.476119,61.7240847 L100.605274,61.4033968 L99.5532537,60.1410159 L100.658697,58.6138201 L102.163343,59.2767302 L102.446896,59.0194815 C103.09208,58.4322328 103.783642,58.003873 104.622557,57.671545 L104.966577,57.5353545 L105.078119,55.8271534 L106.849881,55.5594286 L107.454557,57.1401693 L107.805035,57.1832381 C108.655692,57.288582 109.428269,57.4975238 110.236657,57.8409101 L110.575393,57.9852487 L111.841692,56.8933968 L113.287632,58.0166772 L112.615443,59.6265185 L112.842637,59.8965714 C113.349274,60.4989524 113.73791,61.1705926 114.103065,62.074455 L114.235154,62.402127 L115.898896,62.567418 L116.178338,64.4676825 L114.674866,65.0747196 L114.650796,65.4378942 C114.597373,66.2352487 114.383682,67.1001164 114.049642,67.8736085 L113.907572,68.2012804 L115.024169,69.5300106 L113.915791,71.0606984 Z M115.788527,65.8825503 L117.473403,65.2021799 L116.928607,61.4994286 L115.055284,61.3137672 C114.737095,60.585672 114.384856,59.9745608 113.96804,59.430381 L114.713025,57.6459365 L111.802358,55.3842434 L110.355831,56.6314921 C109.677184,56.3690053 109.011453,56.189164 108.30404,56.078 L107.611303,54.2673651 L103.966806,54.8167831 L103.842348,56.735672 C103.145502,57.0453016 102.519692,57.4317566 101.945542,57.9072593 L100.262428,57.1657778 L98.0715025,60.1910688 L99.2603085,61.6175767 C98.9861493,62.3666243 98.8082687,63.1133439 98.7290149,63.8466772 L97.0464876,64.5258836 L97.5936318,68.2431852 L99.4117711,68.3671534 C99.7211542,69.0626561 100.106269,69.7273122 100.56007,70.3506455 L99.8720299,72.0873651 L102.784458,74.3502222 L104.173453,73.0983175 C104.870299,73.3619683 105.577124,73.5342434 106.282776,73.6116508 L106.967881,75.4024974 L110.611791,74.8524974 L110.736836,72.9248783 C111.413721,72.6065185 112.020746,72.2223915 112.578458,71.7591111 L114.319692,72.4988466 L116.508269,69.4770476 L115.264279,67.9975767 C115.526109,67.3148783 115.706925,66.584455 115.788527,65.8825503 L115.788527,65.8825503 Z" id="Fill-4" fill="#000000" mask="url(#mask-2)"></path>
                <path d="M108.631915,66.0402751 C108.35893,66.4104339 107.958552,66.6478942 107.504164,66.7090053 C107.032164,66.7718624 106.569557,66.6542963 106.201468,66.3755132 C105.824572,66.089746 105.581527,65.6608042 105.513428,65.1433968 C105.424194,64.6382116 105.536323,64.1423386 105.828682,63.7459894 C106.101667,63.3758307 106.502632,63.1383704 106.956433,63.0766772 C107.040383,63.065619 107.123159,63.0597989 107.205348,63.0597989 C107.589289,63.0597989 107.956204,63.1808571 108.259129,63.4107513 C108.636025,63.6965185 108.87907,64.1248783 108.947756,64.6428677 C109.036403,65.1474709 108.924274,65.6439259 108.631915,66.0402751 M108.972413,62.4859365 C108.354234,62.017418 107.583418,61.8177884 106.797925,61.9237143 C106.024761,62.0278942 105.343766,62.4312275 104.881159,63.0586349 C104.399179,63.7122328 104.212493,64.5235556 104.352214,65.318582 C104.457886,66.1211746 104.861786,66.8248254 105.488771,67.300328 C105.998343,67.6867831 106.613587,67.8904868 107.2529,67.8904868 C107.388512,67.8904868 107.525886,67.8811746 107.663259,67.8625503 C108.435836,67.7583704 109.116831,67.355037 109.579438,66.7276296 C110.062005,66.0740317 110.248104,65.262709 110.108383,64.4676825 C110.002711,63.6650899 109.599398,62.9614392 108.972413,62.4859365" id="Fill-6" fill="#000000" mask="url(#mask-2)"></path>
                <mask id="mask-4" fill="white">
                    <use xlink:href="#path-3"></use>
                </mask>
                <g id="path-3"></g>
                <polygon id="Fill-8" fill="#000000" mask="url(#mask-4)" points="63.2855721 29.5224868 79.7685871 29.5224868 79.7685871 28.3584656 63.2855721 28.3584656"></polygon>
                <mask id="mask-6" fill="white">
                    <use xlink:href="#path-5"></use>
                </mask>
                <g id="path-3"></g>
                <polygon id="Fill-10" fill="#000000" mask="url(#mask-6)" points="63.2855721 33.7042328 79.7685871 33.7042328 79.7685871 32.5402116 63.2855721 32.5402116"></polygon>
                <mask id="mask-8" fill="white">
                    <use xlink:href="#path-7"></use>
                </mask>
                <g id="path-3"></g>
                <polygon id="Fill-11" fill="#000000" mask="url(#mask-8)" points="63.2855721 37.8859788 79.7685871 37.8859788 79.7685871 36.7219577 63.2855721 36.7219577"></polygon>
                <mask id="mask-10" fill="white">
                    <use xlink:href="#path-9"></use>
                </mask>
                <g id="path-3"></g>
                <path d="M44.0889095,25.5337354 L58.444402,25.5337354 L58.4449891,39.7656402 L44.0889095,39.7656402 L44.0889095,25.5337354 Z M59.6185313,39.7656402 L59.6185313,25.5337354 C59.6185313,24.8917778 59.0919343,24.3697143 58.444402,24.3697143 L44.0889095,24.3697143 C43.4413771,24.3697143 42.9147801,24.8917778 42.9147801,25.5337354 L42.9147801,39.7656402 C42.9147801,40.4075979 43.4413771,40.9296614 44.0889095,40.9296614 L58.444402,40.9296614 C59.0919343,40.9296614 59.6185313,40.4075979 59.6185313,39.7656402 L59.6185313,39.7656402 Z" id="Fill-12" fill="#000000" mask="url(#mask-10)"></path>
                <mask id="mask-12" fill="white">
                    <use xlink:href="#path-11"></use>
                </mask>
                <g id="path-3"></g>
                <polygon id="Fill-13" fill="#000000" mask="url(#mask-12)" points="46.8025572 49.4330688 79.7685871 49.4330688 79.7685871 48.2690476 46.8025572 48.2690476"></polygon>
                <mask id="mask-14" fill="white">
                    <use xlink:href="#path-13"></use>
                </mask>
                <g id="path-3"></g>
                <polygon id="Fill-14" fill="#000000" mask="url(#mask-14)" points="46.8025572 53.6148148 79.7685871 53.6148148 79.7685871 52.4507937 46.8025572 52.4507937"></polygon>
                <mask id="mask-16" fill="white">
                    <use xlink:href="#path-15"></use>
                </mask>
                <g id="path-3"></g>
                <polygon id="Fill-15" fill="#000000" mask="url(#mask-16)" points="46.8025572 57.7965608 79.7685871 57.7965608 79.7685871 56.6325397 46.8025572 56.6325397"></polygon>
                <mask id="mask-18" fill="white">
                    <use xlink:href="#path-17"></use>
                </mask>
                <g id="path-3"></g>
                <polygon id="Fill-16" fill="#000000" mask="url(#mask-18)" points="46.8025572 61.9783069 79.7685871 61.9783069 79.7685871 60.8142857 46.8025572 60.8142857"></polygon>
                <mask id="mask-20" fill="white">
                    <use xlink:href="#path-19"></use>
                </mask>
                <g id="path-3"></g>
                <polygon id="Fill-17" fill="#000000" mask="url(#mask-20)" points="42.6279403 49.4330688 43.8020697 49.4330688 43.8020697 48.2690476 42.6279403 48.2690476"></polygon>
                <mask id="mask-22" fill="white">
                    <use xlink:href="#path-21"></use>
                </mask>
                <g id="path-3"></g>
                <polygon id="Fill-18" fill="#000000" mask="url(#mask-22)" points="42.6279403 53.6148148 43.8020697 53.6148148 43.8020697 52.4507937 42.6279403 52.4507937"></polygon>
                <mask id="mask-24" fill="white">
                    <use xlink:href="#path-23"></use>
                </mask>
                <g id="path-3"></g>
                <polygon id="Fill-19" fill="#000000" mask="url(#mask-24)" points="42.6279403 57.7965608 43.8020697 57.7965608 43.8020697 56.6325397 42.6279403 56.6325397"></polygon>
                <mask id="mask-26" fill="white">
                    <use xlink:href="#path-25"></use>
                </mask>
                <g id="path-3"></g>
                <polygon id="Fill-20" fill="#000000" mask="url(#mask-26)" points="42.6279403 61.9783069 43.8020697 61.9783069 43.8020697 60.8142857 42.6279403 60.8142857"></polygon>
                <mask id="mask-28" fill="white">
                    <use xlink:href="#path-27"></use>
                </mask>
                <g id="path-3"></g>
                <polygon id="Fill-21" fill="#000000" mask="url(#mask-28)" points="46.8025572 70.2195767 79.7685871 70.2195767 79.7685871 69.0555556 46.8025572 69.0555556"></polygon>
                <mask id="mask-30" fill="white">
                    <use xlink:href="#path-29"></use>
                </mask>
                <g id="path-3"></g>
                <polygon id="Fill-22" fill="#000000" mask="url(#mask-30)" points="46.8025572 74.4019048 79.7685871 74.4019048 79.7685871 73.2378836 46.8025572 73.2378836"></polygon>
                <mask id="mask-32" fill="white">
                    <use xlink:href="#path-31"></use>
                </mask>
                <g id="path-3"></g>
                <polygon id="Fill-23" fill="#000000" mask="url(#mask-32)" points="46.8025572 78.5836508 79.7685871 78.5836508 79.7685871 77.4196296 46.8025572 77.4196296"></polygon>
                <mask id="mask-34" fill="white">
                    <use xlink:href="#path-33"></use>
                </mask>
                <g id="path-3"></g>
                <polygon id="Fill-24" fill="#000000" mask="url(#mask-34)" points="46.8025572 82.7653968 79.7685871 82.7653968 79.7685871 81.6013757 46.8025572 81.6013757"></polygon>
                <mask id="mask-36" fill="white">
                    <use xlink:href="#path-35"></use>
                </mask>
                <g id="path-3"></g>
                <polygon id="Fill-25" fill="#000000" mask="url(#mask-36)" points="42.6279403 70.2195767 43.8020697 70.2195767 43.8020697 69.0555556 42.6279403 69.0555556"></polygon>
                <mask id="mask-38" fill="white">
                    <use xlink:href="#path-37"></use>
                </mask>
                <g id="path-3"></g>
                <polygon id="Fill-26" fill="#000000" mask="url(#mask-38)" points="42.6279403 74.4019048 43.8020697 74.4019048 43.8020697 73.2378836 42.6279403 73.2378836"></polygon>
                <mask id="mask-40" fill="white">
                    <use xlink:href="#path-39"></use>
                </mask>
                <g id="path-3"></g>
                <polygon id="Fill-27" fill="#000000" mask="url(#mask-40)" points="42.6279403 78.5836508 43.8020697 78.5836508 43.8020697 77.4196296 42.6279403 77.4196296"></polygon>
                <mask id="mask-42" fill="white">
                    <use xlink:href="#path-41"></use>
                </mask>
                <g id="path-3"></g>
                <polygon id="Fill-28" fill="#000000" mask="url(#mask-42)" points="42.6279403 82.7653968 43.8020697 82.7653968 43.8020697 81.6013757 42.6279403 81.6013757"></polygon>
            </g>
        </g>
    </g>
</svg>