<?xml version="1.0" encoding="UTF-8" standalone="no"?>
<svg width="26px" height="26px" viewBox="0 0 26 26" version="1.1" xmlns="http://www.w3.org/2000/svg" xmlns:xlink="http://www.w3.org/1999/xlink">
    <!-- Generator: Sketch 3.6.1 (26313) - http://www.bohemiancoding.com/sketch -->
    <title>lock</title>
    <desc>Created with Sketch.</desc>
    <defs></defs>
    <g id="Page-1" stroke="none" stroke-width="1" fill="none" fill-rule="evenodd">
        <g id="lock" fill="#000000">
            <g id="Group" transform="translate(3.000000, 3.500000)">
                <path d="M9.8174,5.3863 C8.8994,5.3863 8.1524,6.1333 8.1524,7.0513 L8.1524,8.1543 L11.4834,8.1543 L11.4834,7.0513 C11.4834,6.1333 10.7364,5.3863 9.8174,5.3863" id="Fill-1"></path>
                <path d="M13.8174,14.1538 L5.8174,14.1538 L5.8174,8.1538 L6.8514,8.1538 L6.8514,7.0508 C6.8514,5.4168 8.1824,4.0858 9.8174,4.0858 C11.4534,4.0858 12.7844,5.4168 12.7844,7.0508 L12.7844,8.1538 L13.8174,8.1538 L13.8174,14.1538 Z M9.8174,-0.0002 C4.6714,-0.0002 0.5004,4.1718 0.5004,9.3168 C0.5004,14.4628 4.6714,18.6338 9.8174,18.6338 C14.9634,18.6338 19.1344,14.4628 19.1344,9.3168 C19.1344,4.1718 14.9634,-0.0002 9.8174,-0.0002 L9.8174,-0.0002 Z" id="Fill-3"></path>
            </g>
        </g>
    </g>
</svg>