<?xml version="1.0" encoding="UTF-8" standalone="no"?>
<svg width="26px" height="26px" viewBox="0 0 26 26" version="1.1" xmlns="http://www.w3.org/2000/svg" xmlns:xlink="http://www.w3.org/1999/xlink">
    <!-- Generator: Sketch 3.7.1 (28215) - http://www.bohemiancoding.com/sketch -->
    <title>lock</title>
    <desc>Created with Sketch.</desc>
    <defs></defs>
    <g id="Icons" stroke="none" stroke-width="1" fill="none" fill-rule="evenodd">
        <g id="lock" fill="#000000">
            <path d="M12.8174,8.8863 C11.8994,8.8863 11.1524,9.6333 11.1524,10.5513 L11.1524,11.6543 L14.4834,11.6543 L14.4834,10.5513 C14.4834,9.6333 13.7364,8.8863 12.8174,8.8863" id="Fill-1"></path>
            <path d="M16.8174,17.6538 L8.8174,17.6538 L8.8174,11.6538 L9.8514,11.6538 L9.8514,10.5508 C9.8514,8.9168 11.1824,7.5858 12.8174,7.5858 C14.4534,7.5858 15.7844,8.9168 15.7844,10.5508 L15.7844,11.6538 L16.8174,11.6538 L16.8174,17.6538 Z M12.8174,3.4998 C7.6714,3.4998 3.5004,7.6718 3.5004,12.8168 C3.5004,17.9628 7.6714,22.1338 12.8174,22.1338 C17.9634,22.1338 22.1344,17.9628 22.1344,12.8168 C22.1344,7.6718 17.9634,3.4998 12.8174,3.4998 L12.8174,3.4998 Z" id="Fill-3"></path>
        </g>
    </g>
</svg>