<?xml version="1.0" encoding="UTF-8" standalone="no"?>
<svg width="30px" height="30px" viewBox="0 0 30 30" version="1.1" xmlns="http://www.w3.org/2000/svg" xmlns:xlink="http://www.w3.org/1999/xlink">
    <!-- Generator: Sketch 41 (35326) - http://www.bohemiancoding.com/sketch -->
    <title>map-marker</title>
    <desc>Created with Sketch.</desc>
    <defs></defs>
    <g id="All" stroke="none" stroke-width="1" fill="none" fill-rule="evenodd">
        <g id="map-marker" fill="#000000">
            <g id="Group" transform="translate(4.644679, 1.446169)">
                <path d="M10.3646947,-4.26325641e-14 C4.6242484,-4.26325641e-14 3.55271368e-15,4.30533472 3.55271368e-15,9.56741048 C3.55271368e-15,16.9024252 9.40795364,26.150922 9.72686732,26.4698357 L10.3646947,27.107663 L10.8430652,26.6292925 C11.3214357,26.150922 20.7293894,17.2213389 20.7293894,9.56741048 L20.7293894,9.56741048 C20.7293894,4.30533472 16.105141,-4.26325641e-14 10.3646947,-4.26325641e-14 L10.3646947,-4.26325641e-14 Z M10.3646947,24.8752672 C8.29175575,22.8023283 1.59456841,15.3078568 1.59456841,9.56741048 C1.59456841,5.10261892 5.58098945,1.59456841 10.3646947,1.59456841 C15.1483999,1.59456841 19.134821,5.26207576 19.134821,9.56741048 C19.134821,15.4673136 12.4376336,22.8023283 10.3646947,24.8752672 L10.3646947,24.8752672 Z" id="Shape"></path>
                <path d="M10.3646947,7.01610102 C8.61066943,7.01610102 7.17555786,8.45121259 7.17555786,10.2052378 C7.17555786,11.9592631 8.61066943,13.3943747 10.3646947,13.3943747 C12.1187199,13.3943747 13.5538315,11.9592631 13.5538315,10.2052378 C13.5538315,8.45121259 12.1187199,7.01610102 10.3646947,7.01610102 L10.3646947,7.01610102 Z M10.3646947,11.7998063 C9.40795364,11.7998063 8.77012627,11.002522 8.77012627,10.2052378 C8.77012627,9.40795364 9.40795364,8.61066943 10.3646947,8.61066943 C11.3214357,8.61066943 11.9592631,9.40795364 11.9592631,10.2052378 C11.9592631,11.002522 11.3214357,11.7998063 10.3646947,11.7998063 L10.3646947,11.7998063 Z" id="Shape"></path>
            </g>
        </g>
    </g>
</svg>