<?xml version="1.0" encoding="UTF-8" standalone="no"?>
<svg width="18px" height="18px" viewBox="0 0 18 18" version="1.1" xmlns="http://www.w3.org/2000/svg" xmlns:xlink="http://www.w3.org/1999/xlink">
    <!-- Generator: Sketch 41 (35326) - http://www.bohemiancoding.com/sketch -->
    <title>moon</title>
    <desc>Created with Sketch.</desc>
    <defs></defs>
    <g id="All" stroke="none" stroke-width="1" fill="none" fill-rule="evenodd">
        <g id="moon" fill="#000000">
            <path d="M12.8928571,11.638125 C13.2257143,11.638125 13.5457143,11.594125 13.85,11.506125 C13.6371429,11.82925 13.4542857,12.091875 13.3028571,12.29675 C12.2685714,13.49575 10.9314286,14.09525 9.29,14.09525 C7.83,14.09525 6.58285714,13.607125 5.55,12.625375 C4.51571429,11.643625 4,10.452875 4,9.049 C4,7.906375 4.34142857,6.89025 5.02571429,5.997875 C5.71,5.104125 6.59857143,4.499125 7.69428571,4.176 C7.93714286,4.116875 8.27,4.059125 8.69714286,4 C8.45285714,4.350625 8.28571429,4.614625 8.19571429,4.790625 C7.86,5.434125 7.69428571,6.121625 7.69428571,6.853125 C7.69428571,8.170375 8.18,9.2965 9.15285714,10.23425 C10.1257143,11.170625 11.2971429,11.638125 12.6642857,11.638125 L12.8928571,11.638125" id="Imported-Layers"></path>
        </g>
    </g>
</svg>