<?xml version="1.0" encoding="UTF-8" standalone="no"?>
<svg width="60px" height="60px" viewBox="0 0 60 60" version="1.1" xmlns="http://www.w3.org/2000/svg" xmlns:xlink="http://www.w3.org/1999/xlink">
    <!-- Generator: Sketch 41 (35326) - http://www.bohemiancoding.com/sketch -->
    <title>mozfest-logo</title>
    <desc>Created with Sketch.</desc>
    <defs></defs>
    <g id="All" stroke="none" stroke-width="1" fill="none" fill-rule="evenodd">
        <g id="mozfest-logo" fill="#000000">
            <g id="logo-mozfest">
                <path d="M26.31324,57.93144 C28.48924,58.22064 30.69724,58.25384 32.87124,58.03144 L32.91724,57.93024 C34.68404,54.03784 38.63564,51.52264 42.98324,51.52264 C44.38804,51.52264 45.75404,51.78984 47.04324,52.31664 L47.14804,52.35984 C48.88204,51.03104 50.45964,49.49504 51.84884,47.78584 L51.81244,47.68864 C49.76804,42.24184 52.46964,35.98064 57.83324,33.72944 L57.93004,33.68864 C58.22084,31.50424 58.25524,29.30304 58.03124,27.12944 L57.92964,27.08264 C52.63404,24.67744 50.11604,18.34024 52.31764,12.95584 L52.36004,12.85064 C51.03124,11.11744 49.49524,9.53984 47.78404,8.15024 L47.68204,8.18824 C46.48204,8.63864 45.21524,8.86784 43.92004,8.86824 C39.50604,8.86824 35.41004,6.17504 33.72764,2.16664 L33.68724,2.06984 C31.51204,1.77984 29.30524,1.74464 27.12884,1.96744 L27.08204,2.06984 C25.31644,5.96184 21.36524,8.47664 17.01724,8.47664 C15.61124,8.47664 14.24404,8.20944 12.95444,7.68144 L12.85084,7.63944 C11.11924,8.96744 9.54164,10.50304 8.15124,12.21584 L8.18804,12.31384 C10.23124,17.75904 7.52964,24.01944 2.16524,26.27024 L2.06964,26.31064 C1.77924,28.49544 1.74484,30.69744 1.96724,32.87024 L2.06844,32.91584 C7.36444,35.32264 9.88204,41.66064 7.68164,47.04464 L7.63924,47.14864 C8.96764,48.88104 10.50404,50.45944 12.21564,51.84984 L12.31004,51.81344 C13.51684,51.36064 14.78364,51.13184 16.07804,51.13184 C20.49324,51.13184 24.59004,53.82544 26.27284,57.83464 L26.31324,57.93144 Z M30.02084,59.99984 C28.52804,59.99984 27.01884,59.88584 25.53564,59.66224 L25.02844,59.58584 L24.59124,58.53784 C23.18964,55.19904 19.76844,52.95464 16.07804,52.95464 C15.00324,52.95464 13.95204,53.14424 12.95404,53.51904 L11.89684,53.92104 L11.49164,53.60384 C9.35404,51.92984 7.46164,49.98544 5.86644,47.82384 L5.56244,47.41184 L5.99444,46.35504 C7.82924,41.86664 5.73004,36.58224 1.31484,34.57544 L0.27604,34.10424 L0.21404,33.59544 C-0.10836,30.92904 -0.06636,28.21704 0.33844,25.53424 L0.41484,25.02864 L1.46004,24.58944 C5.93244,22.71304 8.18484,17.49384 6.48164,12.95424 L6.08324,11.89264 L6.39844,11.48984 C8.07204,9.35224 10.01564,7.46024 12.17564,5.86664 L12.58724,5.56304 L13.64364,5.99424 C14.71444,6.43224 15.84924,6.65424 17.01724,6.65424 C20.65164,6.65424 23.95124,4.55864 25.42284,1.31624 L25.89564,0.27624 L26.40404,0.21464 C29.06764,-0.10816 31.79964,-0.06576 34.46604,0.33984 L34.97204,0.41664 L35.40884,1.46224 C36.81044,4.80144 40.23084,7.04544 43.92004,7.04544 C44.99564,7.04504 46.04724,6.85504 47.04524,6.48024 L48.11084,6.08544 L48.51164,6.39904 C50.64684,8.07104 52.53804,10.01424 54.13284,12.17464 L54.43684,12.58584 L54.00524,13.64504 C52.16924,18.13464 54.26844,23.41784 58.68404,25.42344 L59.72284,25.89664 L59.78444,26.40424 C60.10844,29.07184 60.06724,31.78384 59.66044,34.46504 L59.58404,34.97064 L58.53924,35.40984 C54.06684,37.28664 51.81444,42.50664 53.51804,47.04664 L53.91804,48.10744 L53.60204,48.51104 C51.93004,50.64584 49.98524,52.53784 47.82244,54.13344 L47.40964,54.43784 L46.35164,54.00344 C45.28444,53.56704 44.15044,53.34544 42.98324,53.34544 C39.34884,53.34544 36.04924,55.44064 34.57684,58.68384 L34.10484,59.72304 L33.59604,59.78464 C32.41484,59.92744 31.21204,59.99984 30.02084,59.99984 L30.02084,59.99984 Z" id="Fill-1"></path>
                <path d="M30.00032,10.35092 C19.16592,10.35092 10.35152,19.16532 10.35152,29.99892 C10.35152,40.83412 19.16592,49.64892 29.99992,49.64892 C40.83352,49.64892 49.64752,40.83412 49.64832,29.99932 C49.64832,24.75172 47.60472,19.81772 43.89392,16.10652 C40.18272,12.39452 35.24872,10.35092 30.00032,10.35092 M29.99992,51.47172 C18.16072,51.47172 8.52872,41.83852 8.52872,29.99892 C8.52872,18.16012 18.16072,8.52812 29.99952,8.52812 C35.73512,8.52772 41.12712,10.76132 45.18272,14.81772 C49.23752,18.87332 51.47112,24.26492 51.47072,29.99932 C51.47032,41.83932 41.83832,51.47172 29.99992,51.47172" id="Fill-4"></path>
                <path d="M20.13672,37.82296 L25.33432,37.82296 L28.33552,42.75976 L23.17672,42.75976 L20.13672,37.82296 Z M23.18232,17.24096 L28.20872,17.24096 L25.24312,22.32896 L20.11792,22.32896 L23.18232,17.24096 Z M41.52792,35.14936 L38.39752,29.99856 L41.45272,24.75696 L44.76872,30.06976 L41.52792,35.14936 Z M31.69272,30.98696 L36.86552,30.98696 L39.86592,35.92416 L34.77432,35.92416 L31.69272,30.98696 Z M28.20872,30.91176 L25.24312,36.00016 L20.11792,36.00016 L23.18232,30.91176 L28.20872,30.91176 Z M25.33432,24.15176 L28.33552,29.08856 L23.17672,29.08856 L20.13672,24.15176 L25.33432,24.15176 Z M37.33752,30.00816 L37.33792,30.00816 L37.33752,30.00816 Z M34.86432,24.07616 L39.73952,24.07616 L36.77472,29.16376 L31.64952,29.16376 L32.20232,28.24696 L34.86432,24.07616 Z M29.92152,17.92176 L33.16432,23.11616 L30.65512,27.28296 L29.99712,28.31296 L26.86672,23.16336 L29.92152,17.92176 Z M26.86672,36.83376 L29.91152,31.61016 L33.20472,36.95896 L29.99752,41.98416 L26.86672,36.83376 Z M46.92432,30.08056 L42.03832,22.25296 L34.77472,22.25296 L30.50752,15.41816 L22.15232,15.41816 L17.43792,23.24576 L21.60032,30.00536 L17.43792,36.91696 L22.15832,44.58256 L30.50192,44.58256 L34.86432,37.74696 L42.03232,37.74696 L46.92432,30.08056 Z" id="Fill-6"></path>
            </g>
        </g>
    </g>
</svg>