<?xml version="1.0" encoding="UTF-8" standalone="no"?>
<svg width="55px" height="18px" viewBox="0 0 55 18" version="1.1" xmlns="http://www.w3.org/2000/svg" xmlns:xlink="http://www.w3.org/1999/xlink">
    <!-- Generator: Sketch 3.7.1 (28215) - http://www.bohemiancoding.com/sketch -->
    <title>mozilla-logo</title>
    <desc>Created with Sketch.</desc>
    <defs></defs>
    <g id="Icons" stroke="none" stroke-width="1" fill="none" fill-rule="evenodd">
        <g id="mozilla-logo" fill="#000000">
            <g id="Group" transform="translate(1.000000, 2.000000)">
                <path d="M2.159,3.9062 C2.318,4.1512 2.388,4.3702 2.477,4.8312 C3.098,4.2252 3.865,3.9062 4.7,3.9062 C5.456,3.9062 6.076,4.1512 6.556,4.6512 C6.684,4.7772 6.808,4.9392 6.917,5.0972 C7.752,4.2432 8.498,3.9062 9.5,3.9062 C10.213,3.9062 10.889,4.1182 11.302,4.4742 C11.817,4.9192 11.981,5.4552 11.981,6.7012 L11.981,13.1882 L9.663,13.1882 L9.663,7.1662 C9.663,6.0752 9.534,5.8642 8.913,5.8642 C8.467,5.8642 7.841,6.1672 7.327,6.6302 L7.327,13.1882 L5.067,13.1882 L5.067,7.2522 C5.067,6.1142 4.902,5.8462 4.238,5.8462 C3.797,5.8462 3.188,6.0752 2.674,6.5402 L2.674,13.1882 L0.341,13.1882 L0.341,6.8252 C0.341,5.5082 0.25,4.9392 0,4.4912 L2.159,3.9062 L2.159,3.9062 Z" id="Fill-1"></path>
                <path d="M16.217,6.5767 C16.054,7.0597 15.967,7.6997 15.967,8.6087 C15.967,9.6587 16.074,10.4457 16.269,10.9077 C16.484,11.4057 17.021,11.6557 17.48,11.6557 C18.514,11.6557 18.957,10.7297 18.957,8.5737 C18.957,7.3447 18.796,6.5397 18.477,6.1297 C18.248,5.8287 17.875,5.6497 17.446,5.6497 C16.874,5.6497 16.411,6.0047 16.217,6.5767 M20.51,5.2587 C21.239,6.1137 21.564,7.1107 21.564,8.5897 C21.564,10.1577 21.205,11.2287 20.419,12.1187 C19.727,12.9017 18.817,13.3837 17.411,13.3837 C14.931,13.3837 13.314,11.5307 13.314,8.6627 C13.314,5.7927 14.949,3.8857 17.411,3.8857 C18.712,3.8857 19.727,4.3327 20.51,5.2587" id="Fill-3"></path>
                <polygon id="Fill-5" points="29.2448 4.0649 29.2448 5.7039 25.2138 11.5299 29.4018 11.5299 28.8308 13.1879 22.1158 13.1879 22.1158 11.7089 26.4048 5.7399 22.4738 5.7399 22.4738 4.0649"></polygon>
                <path d="M33.0011,3.8499 L33.0011,13.1879 L30.6141,13.1879 L30.6141,4.2249 L33.0011,3.8499 L33.0011,3.8499 Z M33.2821,1.5529 C33.2821,2.3729 32.6291,3.0289 31.8041,3.0289 C31.0061,3.0289 30.3481,2.3729 30.3481,1.5529 C30.3481,0.7339 31.0271,0.0729 31.8441,0.0729 C32.6451,0.0729 33.2821,0.7339 33.2821,1.5529 L33.2821,1.5529 L33.2821,1.5529 Z" id="Fill-7"></path>
                <path d="M37.3488,2.373 L37.3488,9.481 C37.3488,11.052 37.3678,11.264 37.5108,11.513 C37.6018,11.675 37.7948,11.761 37.9938,11.761 C38.0798,11.761 38.1308,11.761 38.2608,11.729 L38.6678,13.153 C38.2608,13.312 37.7608,13.401 37.2438,13.401 C36.2258,13.401 35.4068,12.922 35.1218,12.157 C34.9428,11.694 34.9058,11.406 34.9058,10.107 L34.9058,3.297 C34.9058,2.104 34.8738,1.375 34.7848,0.552 L37.2258,0 C37.3118,0.498 37.3488,1.088 37.3488,2.373" id="Fill-9"></path>
                <path d="M42.3006,2.373 L42.3006,9.481 C42.3006,11.052 42.3216,11.264 42.4686,11.513 C42.5516,11.675 42.7456,11.761 42.9446,11.761 C43.0336,11.761 43.0886,11.761 43.2146,11.729 L43.6226,13.153 C43.2146,13.312 42.7146,13.401 42.1966,13.401 C41.1796,13.401 40.3586,12.922 40.0746,12.157 C39.8926,11.694 39.8626,11.406 39.8626,10.107 L39.8626,3.297 C39.8626,2.104 39.8266,1.375 39.7346,0.552 L42.1736,0 C42.2706,0.498 42.3006,1.088 42.3006,2.373" id="Fill-11"></path>
                <path d="M49.1422,9.197 C47.4912,9.197 46.9122,9.498 46.9122,10.589 C46.9122,11.299 47.3632,11.78 47.9692,11.78 C48.4122,11.78 48.8612,11.548 49.2142,11.157 L49.2532,9.197 L49.1422,9.197 L49.1422,9.197 Z M46.0472,4.404 C46.9352,4.029 47.6972,3.87 48.5382,3.87 C50.0742,3.87 51.1232,4.438 51.4832,5.455 C51.6012,5.829 51.6572,6.114 51.6452,7.095 L51.5872,10.157 L51.5872,10.32 C51.5872,11.299 51.7492,11.675 52.4472,12.189 L51.1802,13.654 C50.6232,13.42 50.1252,13.008 49.8932,12.547 C49.7182,12.727 49.5202,12.901 49.3402,13.027 C48.8972,13.349 48.2512,13.528 47.5032,13.528 C45.4722,13.528 44.3672,12.492 44.3672,10.678 C44.3672,8.536 45.8502,7.537 48.7522,7.537 C48.9272,7.537 49.0912,7.537 49.2892,7.557 L49.2892,7.185 C49.2892,6.168 49.0912,5.829 48.2132,5.829 C47.4562,5.829 46.5582,6.201 45.5802,6.862 L44.5632,5.151 C45.0472,4.847 45.4042,4.67 46.0472,4.404 L46.0472,4.404 L46.0472,4.404 Z" id="Fill-13"></path>
            </g>
        </g>
    </g>
</svg>