<?xml version="1.0" encoding="UTF-8" standalone="no"?>
<svg width="132px" height="37px" viewBox="0 0 132 37" version="1.1" xmlns="http://www.w3.org/2000/svg" xmlns:xlink="http://www.w3.org/1999/xlink">
    <!-- Generator: Sketch 41 (35326) - http://www.bohemiancoding.com/sketch -->
    <title>mozilla-logo</title>
    <desc>Created with Sketch.</desc>
    <defs></defs>
    <g id="All" stroke="none" stroke-width="1" fill="none" fill-rule="evenodd">
        <g id="mozilla-logo" fill="#000000">
            <g id="Group" transform="translate(1.000000, 2.000000)">
                <path d="M5.33639623,9.65494717 C5.72939623,10.2605132 5.90241509,10.8018151 6.12239623,11.9412679 C7.65732075,10.4434189 9.55311321,9.65494717 11.6169811,9.65494717 C13.4855849,9.65494717 15.0180377,10.2605132 16.2044528,11.4963623 C16.5208302,11.8077962 16.8273208,12.2082113 17.0967358,12.5987396 C19.1606038,10.4879094 21.0044906,9.65494717 23.4811321,9.65494717 C25.2434528,9.65494717 26.9143208,10.1789472 27.9351321,11.0588717 C29.2080566,12.1587774 29.6134151,13.4836075 29.6134151,16.5633434 L29.6134151,32.5972491 L23.8840189,32.5972491 L23.8840189,17.712683 C23.8840189,15.0160604 23.5651698,14.4945321 22.0302453,14.4945321 C20.9278679,14.4945321 19.3805849,15.2434566 18.1101321,16.3878528 L18.1101321,32.5972491 L12.5240943,32.5972491 L12.5240943,17.9252491 C12.5240943,15.1124566 12.1162642,14.4500415 10.4750566,14.4500415 C9.38503774,14.4500415 7.87977358,15.0160604 6.60932075,16.1654 L6.60932075,32.5972491 L0.842849057,32.5972491 L0.842849057,16.869834 C0.842849057,13.6146075 0.617924528,12.2082113 0,11.1008906 L5.33639623,9.65494717 L5.33639623,9.65494717 Z" id="Fill-1"></path>
                <path d="M40.0835283,16.255617 C39.6806415,17.4494472 39.4656038,19.031334 39.4656038,21.2781075 C39.4656038,23.8733906 39.7300755,25.818617 40.2120566,26.9605415 C40.7434717,28.1914472 42.0707736,28.8093717 43.205283,28.8093717 C45.7610189,28.8093717 46.8559811,26.5205792 46.8559811,21.1915981 C46.8559811,18.1538811 46.4580377,16.1641642 45.669566,15.1507679 C45.1035472,14.4067868 44.1816038,13.9643528 43.1212453,13.9643528 C41.707434,13.9643528 40.5630377,14.8418057 40.0835283,16.255617 M50.6945283,12.9979189 C52.4963962,15.1112208 53.2996981,17.5755038 53.2996981,21.2311453 C53.2996981,25.1067679 52.4123585,27.7539566 50.4696038,29.9537679 C48.7591887,31.8891075 46.5099434,33.080466 43.0347358,33.080466 C36.9049245,33.080466 32.9081887,28.5004094 32.9081887,21.4115792 C32.9081887,14.3178057 36.9494151,9.60427736 43.0347358,9.60427736 C46.2504151,9.60427736 48.7591887,10.7091264 50.6945283,12.9979189" id="Fill-3"></path>
                <polygon id="Fill-5" points="72.284317 10.0472057 72.284317 14.0983189 62.3209019 28.4984321 72.6723736 28.4984321 71.261034 32.5965075 54.6635811 32.5965075 54.6635811 28.940866 65.2646943 14.1873 55.5484491 14.1873 55.5484491 10.0472057"></polygon>
                <path d="M81.5687566,9.51579057 L81.5687566,32.5965075 L75.6688132,32.5965075 L75.6688132,10.4426774 L81.5687566,9.51579057 L81.5687566,9.51579057 Z M82.2633038,3.8383 C82.2633038,5.86509245 80.6492849,7.48652642 78.610134,7.48652642 C76.6377189,7.48652642 75.0113415,5.86509245 75.0113415,3.8383 C75.0113415,1.81397925 76.6896245,0.180186792 78.7090019,0.180186792 C80.6888321,0.180186792 82.2633038,1.81397925 82.2633038,3.8383 L82.2633038,3.8383 L82.2633038,3.8383 Z" id="Fill-7"></path>
                <path d="M92.3149585,5.86533962 L92.3149585,23.4341698 C92.3149585,27.3172075 92.3619208,27.8412075 92.7153736,28.4566604 C92.9402981,28.8570755 93.4173358,29.0696415 93.9092038,29.0696415 C94.1217698,29.0696415 94.2478264,29.0696415 94.5691472,28.9905472 L95.5751283,32.5102453 C94.5691472,32.9032453 93.3332981,33.1232264 92.0554302,33.1232264 C89.5392415,33.1232264 87.5149208,31.939283 86.8104868,30.048434 C86.3680528,28.9040377 86.2766,28.1921887 86.2766,24.9814528 L86.2766,8.14918868 C86.2766,5.20045283 86.1975057,3.39858491 85.9775245,1.36437736 L92.0109396,0 C92.2235057,1.23090566 92.3149585,2.68920755 92.3149585,5.86533962" id="Fill-9"></path>
                <path d="M104.554313,5.86533962 L104.554313,23.4341698 C104.554313,27.3172075 104.606219,27.8412075 104.969558,28.4566604 C105.174709,28.8570755 105.654219,29.0696415 106.146087,29.0696415 C106.366068,29.0696415 106.502011,29.0696415 106.813445,28.9905472 L107.821898,32.5102453 C106.813445,32.9032453 105.577596,33.1232264 104.297257,33.1232264 C101.78354,33.1232264 99.7542755,31.939283 99.0523132,30.048434 C98.6024642,28.9040377 98.5283132,28.1921887 98.5283132,24.9814528 L98.5283132,8.14918868 C98.5283132,5.20045283 98.4393321,3.39858491 98.2119358,1.36437736 L104.240408,0 C104.480162,1.23090566 104.554313,2.68920755 104.554313,5.86533962" id="Fill-11"></path>
                <path d="M121.464683,22.7322075 C117.383909,22.7322075 115.952796,23.4761887 115.952796,26.1728113 C115.952796,27.927717 117.067532,29.1166038 118.565381,29.1166038 C119.660343,29.1166038 120.770136,28.5431698 121.642645,27.5767358 L121.739042,22.7322075 L121.464683,22.7322075 L121.464683,22.7322075 Z M113.814777,10.8853585 C116.009645,9.9584717 117.893079,9.5654717 119.971777,9.5654717 C123.768306,9.5654717 126.361117,10.9693962 127.250928,13.4831132 C127.542589,14.4075283 127.681004,15.1119623 127.651343,17.5366981 L127.507985,25.1050377 L127.507985,25.5079245 C127.507985,27.927717 127.9084,28.8570755 129.633645,30.1275283 L126.502004,33.748566 C125.125268,33.1701887 123.894362,32.1518491 123.320928,31.0123962 C122.888381,31.4573019 122.398985,31.8873774 121.954079,32.1988113 C120.859117,32.9946981 119.2624,33.4371321 117.41357,33.4371321 C112.393551,33.4371321 109.662325,30.8764528 109.662325,26.3927925 C109.662325,21.0984151 113.327853,18.6291887 120.500721,18.6291887 C120.933268,18.6291887 121.338626,18.6291887 121.828023,18.6786226 L121.828023,17.7591509 C121.828023,15.245434 121.338626,14.4075283 119.168475,14.4075283 C117.2974,14.4075283 115.077815,15.327 112.660494,16.9607925 L110.146777,12.731717 C111.343079,11.9803208 112.225475,11.5428302 113.814777,10.8853585 L113.814777,10.8853585 L113.814777,10.8853585 Z" id="Fill-13"></path>
            </g>
        </g>
    </g>
</svg>