<?xml version="1.0" encoding="UTF-8" standalone="no"?>
<svg width="50px" height="50px" viewBox="0 0 50 50" version="1.1" xmlns="http://www.w3.org/2000/svg" xmlns:xlink="http://www.w3.org/1999/xlink">
    <!-- Generator: Sketch 41 (35326) - http://www.bohemiancoding.com/sketch -->
    <title>open-book</title>
    <desc>Created with Sketch.</desc>
    <defs></defs>
    <g id="All" stroke="none" stroke-width="1" fill="none" fill-rule="evenodd">
        <g id="open-book" fill="#000000">
            <path d="M25,11 L5.5,8.5 L5.5,38.5 L24.9,41 L25,41 L44.5,38.5 L44.5,8.5 L25,11 L25,11 Z M32.2,11.1 L36.1,10.6 L36.1,21 L34.1,20 L32.1,21 L32.1,11.1 L32.2,11.1 Z M6.5,9.6 L24.5,11.9 L24.5,39.9 L6.5,37.7 L6.5,9.6 L6.5,9.6 Z M43.5,37.7 L25.5,40 L25.5,12 L31.2,11.3 L31.2,22.7 L34.2,21.2 L37.2,22.7 L37.2,10.4 L43.5,9.6 L43.5,37.7 L43.5,37.7 Z" id="Shape"></path>
            <path d="M9.65729,15.61782 L9.76059,14.62322 L21.39741,15.83183 L21.29411,16.82643 L9.65729,15.61782 Z M9.60789,21.66182 L9.71119,20.66722 L21.34801,21.87583 L21.24471,22.87043 L9.60789,21.66182 Z M9.65855,27.71565 L9.76185,26.72105 L21.39867,27.92966 L21.29537,28.92426 L9.65855,27.71565 Z M9.60875,33.76005 L9.71205,32.76545 L21.34887,33.97406 L21.24557,34.96866 L9.60875,33.76005 Z" id="Combined-Shape"></path>
            <path d="M28.57804,27.91262 L40.21486,26.7005 L40.31846,27.6951 L28.68164,28.90722 L28.57804,27.91262 Z M28.5834,34.01218 L40.22022,32.80006 L40.32382,33.79466 L28.687,35.00678 L28.5834,34.01218 Z" id="Combined-Shape"></path>
        </g>
    </g>
</svg>