<?xml version="1.0" encoding="UTF-8" standalone="no"?>
<svg width="80px" height="80px" viewBox="0 0 80 80" version="1.1" xmlns="http://www.w3.org/2000/svg" xmlns:xlink="http://www.w3.org/1999/xlink">
    <!-- Generator: Sketch 3.7.1 (28215) - http://www.bohemiancoding.com/sketch -->
    <title>pencil-hand</title>
    <desc>Created with Sketch.</desc>
    <defs></defs>
    <g id="Icons" stroke="none" stroke-width="1" fill="none" fill-rule="evenodd">
        <g id="pencil-hand" fill="#000000">
            <g id="Group" transform="translate(0.500000, 2.500000)">
                <path d="M78.4,25 L72.2,21.1 C72.1,21.1 72,21 71.9,21 L50.1,21 C49.7,19.9 48.6,19.1 47.4,19.1 C46.6,19.1 45.9,19.4 45.4,19.9 C45,18.7 43.9,17.8 42.6,17.8 C41.9,17.8 41.2,18.1 40.7,18.5 L40.7,18.2 C40.7,16.6 39.4,15.3 37.8,15.3 C36.2,15.3 34.9,16.6 34.9,18.2 L34.9,18.5 C34.4,18.1 33.7,17.8 33,17.8 C31.4,17.8 30.1,19.1 30.1,20.7 L30.1,21 L4.4,21 C2,21 0,23 0,25.5 C0,28 2,29.9 4.4,29.9 L25.2,29.9 L25.2,30 L25.2,35 L25.2,35.1 C26.3,39.2 30.5,43.5 31.4,44.4 L31.4,48.9 L30.5,48.9 C30.2,48.9 30,49.1 30,49.4 L30,73.7 C30,74 30.2,74.2 30.5,74.2 L48.1,74.2 C48.4,74.2 48.6,74 48.6,73.7 L48.6,49.4 C48.6,49.1 48.4,48.9 48.1,48.9 L47,48.9 L47,46.2 L50.3,35.8 L50.3,35.7 L50.3,29.9 L71.9,29.9 C72,29.9 72.1,29.9 72.2,29.8 L78.4,25.9 C78.5,25.8 78.6,25.6 78.6,25.5 C78.6,25.4 78.6,25.1 78.4,25 L78.4,25 Z M30.1,28.9 L13.4,28.9 L13.4,22 L30.1,22 L30.1,28.9 L30.1,28.9 Z M12.4,28.9 L8.7,28.9 L8.7,22 L12.4,22 L12.4,28.9 L12.4,28.9 Z M1,25.5 C1,23.6 2.5,22 4.4,22 L7.6,22 L7.6,28.9 L4.4,28.9 C2.5,28.9 1,27.4 1,25.5 L1,25.5 Z M47.7,73.2 L31.1,73.2 L31.1,49.9 L47.7,49.9 L47.7,73.2 L47.7,73.2 Z M49.3,35.6 L46.1,46 L46.1,46.1 L46.1,48.8 L32.5,48.8 L32.5,44.1 C32.5,44 32.4,43.8 32.3,43.7 C32.3,43.7 27.3,39 26.2,34.8 L26.2,29.8 L26.2,29.7 L30.1,29.7 L30.1,30.3 C30.1,30.6 30.3,30.8 30.6,30.8 C30.9,30.8 31.1,30.6 31.1,30.3 L31.1,20.6 C31.1,19.6 32,18.7 33,18.7 C34,18.7 34.9,19.6 34.9,20.6 L34.9,22.7 C34.9,23 35.1,23.2 35.4,23.2 C35.7,23.2 35.9,23 35.9,22.7 L35.9,20.6 L35.9,18.1 C35.9,17.1 36.8,16.2 37.8,16.2 C38.8,16.2 39.7,17.1 39.7,18.1 L39.7,20.6 L39.7,22.7 C39.7,23 39.9,23.2 40.2,23.2 C40.5,23.2 40.7,23 40.7,22.7 L40.7,20.6 C40.7,19.6 41.6,18.7 42.6,18.7 C43.6,18.7 44.5,19.6 44.5,20.6 L44.5,21.7 L44.5,21.7 L44.5,21.8 L44.5,22.9 C44.5,23.2 44.7,23.4 45,23.4 C45.3,23.4 45.5,23.2 45.5,22.9 L45.5,22 C45.5,21 46.4,20.1 47.4,20.1 C48.4,20.1 49.3,21 49.3,22 L49.3,35.6 L49.3,35.6 Z M50.3,22 L65.2,22 L65.2,28.9 L50.3,28.9 L50.3,22 L50.3,22 Z M71.8,28.9 L66.2,28.9 L66.2,22 L71.8,22 L77.3,25.4 L71.8,28.9 L71.8,28.9 Z" id="Shape"></path>
                <rect id="Rectangle-path" x="34.8" y="53.6" width="1.7" height="1.7"></rect>
                <path d="M13.6,16 C18.9,6.8 28.7,1 39.4,1 C50,1 59.9,6.8 65.2,16 L65.4,16.4 L66.3,15.9 L66,15.5 C60.6,6 50.4,0 39.4,0 C28.4,0 18.2,6 12.7,15.5 L12.5,16 L13.4,16.5 L13.6,16 L13.6,16 Z" id="Shape"></path>
                <path d="M10,34.4 L9.9,34 L8.9,34.1 L9,34.6 C10.2,44 15.8,52.5 24.1,57.3 L24.5,57.6 L25,56.7 L24.6,56.4 C16.6,51.8 11.1,43.6 10,34.4 L10,34.4 Z" id="Shape"></path>
                <path d="M68.8,34.6 C67.6,43.7 62.1,51.8 54.1,56.4 L53.7,56.6 L54.2,57.5 L54.6,57.3 C62.8,52.6 68.5,44.1 69.7,34.8 L69.8,34.3 L68.8,34.2 L68.8,34.6 L68.8,34.6 Z" id="Shape"></path>
            </g>
        </g>
    </g>
</svg>