<?xml version="1.0" encoding="UTF-8" standalone="no"?>
<svg width="26px" height="26px" viewBox="0 0 26 26" version="1.1" xmlns="http://www.w3.org/2000/svg" xmlns:xlink="http://www.w3.org/1999/xlink">
    <!-- Generator: Sketch 41 (35326) - http://www.bohemiancoding.com/sketch -->
    <title>question-mark</title>
    <desc>Created with Sketch.</desc>
    <defs></defs>
    <g id="All" stroke="none" stroke-width="1" fill="none" fill-rule="evenodd">
        <g id="question-mark" fill="#000000">
            <path d="M6.63153904,6.63153904 C8.38627748,4.87793783 10.5094769,4 13,4 C15.4905231,4 17.6137225,4.87793783 19.368461,6.63153904 C21.1220622,8.38627748 22,10.5083397 22,13 C22,15.4916603 21.1220622,17.6137225 19.368461,19.368461 C17.6137225,21.1220622 15.4916603,22 13,22 C10.5083397,22 8.38627748,21.1220622 6.63153904,19.368461 C4.87680061,17.6137225 4,15.4905231 4,13 C4,10.5094769 4.87680061,8.38741471 6.63153904,6.63153904 Z M15.772555,11.9958302 C16.0943897,11.5409401 16.2547384,11.0587566 16.2547384,10.5492798 C16.2547384,9.6656558 15.919257,8.969674 15.2505686,8.46019712 C14.6080364,7.97801365 13.7767248,7.73692191 12.7600455,7.73692191 C12.0094769,7.73692191 11.3805914,7.91091736 10.8722517,8.25890826 C10.1205459,8.76838514 9.74526156,9.6793025 9.74526156,10.9916603 L11.7137983,10.9916603 C11.7137983,10.4287339 11.7672479,10.0670963 11.8741471,9.90674754 C12.1152388,9.50530705 12.4632297,9.3040182 12.919257,9.3040182 C13.3741471,9.3040182 13.7084913,9.45185747 13.9234268,9.74639879 C14.1372252,10.0409401 14.2452616,10.3491281 14.2452616,10.6709629 C14.2452616,10.8858984 14.1383624,11.1531463 13.9234268,11.474981 C13.8699773,11.580743 13.7369219,11.7137983 13.5219864,11.8752843 C12.8248673,12.2767248 12.3563306,12.6793025 12.1152388,13.080743 C11.9014405,13.4298711 11.7672479,13.9780136 11.7137983,14.727445 C11.7137983,14.8354814 11.7672479,14.8877938 11.8741471,14.8877938 L13.4412434,14.8877938 C13.5754359,14.8877938 13.6425322,14.8354814 13.6425322,14.727445 C13.6425322,14.4340409 13.6686884,14.1793025 13.7232752,13.9643669 C13.8040182,13.7232752 13.9643669,13.4958302 14.2054587,13.2808946 L14.7683851,12.919257 C15.2767248,12.5451099 15.611069,12.2369219 15.772555,11.9958302 Z M13.8040182,17.1383624 C13.8301744,16.7903715 13.7300986,16.4958302 13.5026535,16.2547384 C13.2752085,16.0136467 12.9863533,15.8931008 12.6383624,15.8931008 C12.3165277,15.8931008 12.0356331,16.0011372 11.7945413,16.2149356 C11.5534496,16.4298711 11.4329037,16.7107657 11.4329037,17.0587566 C11.4329037,17.4078848 11.5398029,17.6956027 11.7547384,17.9230478 C11.9685368,18.15163 12.2369219,18.2642153 12.5587566,18.2642153 C12.9067475,18.2642153 13.2012889,18.1641395 13.4423806,17.9628506 C13.6834723,17.7615618 13.8040182,17.4874905 13.8040182,17.1383624 Z" id="Shape"></path>
        </g>
    </g>
</svg>