<?xml version="1.0" encoding="UTF-8" standalone="no"?>
<svg width="18px" height="18px" viewBox="0 0 18 18" version="1.1" xmlns="http://www.w3.org/2000/svg" xmlns:xlink="http://www.w3.org/1999/xlink">
    <!-- Generator: Sketch 41 (35326) - http://www.bohemiancoding.com/sketch -->
    <title>question-mark</title>
    <desc>Created with Sketch.</desc>
    <defs></defs>
    <g id="All" stroke="none" stroke-width="1" fill="none" fill-rule="evenodd">
        <g id="question-mark" fill="#000000">
            <path d="M10.8086933,9.65827743 C10.3199356,9.94032734 10.0137376,10.5111886 10.0137376,10.7517038 C10.0137376,10.9332976 9.87271264,11.1486987 9.68242554,11.1486987 L7.69358734,11.1486987 C7.51199356,11.1486987 7.39608264,10.8676147 7.39608264,10.685055 L7.39608264,10.3122082 C7.39608264,9.31054467 8.39001878,8.44894017 9.11929166,8.11762812 C9.75680172,7.82688489 10.0224309,7.55449423 10.0224309,7.02420177 C10.0224309,6.55959217 9.41776228,6.14617655 8.74547894,6.14617655 C8.37359807,6.14617655 8.0335927,6.26208747 7.851033,6.38669171 C7.65205259,6.52675074 7.45307218,6.72573115 6.96528039,7.3390931 C6.89863161,7.4221626 6.80010732,7.47142474 6.70834451,7.47142474 C6.63396834,7.47142474 6.56731956,7.44631071 6.50163671,7.40477596 L5.14258116,6.36930507 C5.00155621,6.26208747 4.96871478,6.07952777 5.0604776,5.93077542 C5.95492353,4.44808157 7.21352294,3.72750201 8.9029246,3.72750201 C10.6753958,3.72750201 12.664234,5.14354709 12.664234,7.04062248 C12.664234,8.61411323 11.5949557,9.21878186 10.8086933,9.65827743 L10.8086933,9.65827743 Z M10.046579,13.9981755 C10.046579,14.1807352 9.89782667,14.3294875 9.71526697,14.3294875 L7.72739469,14.3294875 C7.54483499,14.3294875 7.39608264,14.1807352 7.39608264,13.9981755 L7.39608264,12.0112691 C7.39608264,11.8287094 7.54483499,11.6789911 7.72739469,11.6789911 L9.71526697,11.6789911 C9.89782667,11.6789911 10.046579,11.8287094 10.046579,12.0112691 L10.046579,13.9981755 Z M8.99951704,7.10542736e-15 C4.02983633,7.10542736e-15 3.55271368e-15,4.02983633 3.55271368e-15,8.99951704 C3.55271368e-15,13.9701637 4.02983633,18 8.99951704,18 C13.9701637,18 18,13.9701637 18,8.99951704 C18,4.02983633 13.9701637,7.10542736e-15 8.99951704,7.10542736e-15 L8.99951704,7.10542736e-15 Z" id="Fill-1"></path>
        </g>
    </g>
</svg>