<?xml version="1.0" encoding="UTF-8" standalone="no"?>
<svg width="26px" height="26px" viewBox="0 0 26 26" version="1.1" xmlns="http://www.w3.org/2000/svg" xmlns:xlink="http://www.w3.org/1999/xlink">
    <!-- Generator: Sketch 41 (35326) - http://www.bohemiancoding.com/sketch -->
    <title>question-mark</title>
    <desc>Created with Sketch.</desc>
    <defs></defs>
    <g id="All" stroke="none" stroke-width="1" fill="none" fill-rule="evenodd">
        <g id="question-mark" fill="#000000">
            <path d="M14.4911933,13.3407774 C14.0024356,13.6228273 13.6962376,14.1936886 13.6962376,14.4342038 C13.6962376,14.6157976 13.5552126,14.8311987 13.3649255,14.8311987 L11.3760873,14.8311987 C11.1944936,14.8311987 11.0785826,14.5501147 11.0785826,14.367555 L11.0785826,13.9947082 C11.0785826,12.9930447 12.0725188,12.1314402 12.8017917,11.8001281 C13.4393017,11.5093849 13.7049309,11.2369942 13.7049309,10.7067018 C13.7049309,10.2420922 13.1002623,9.82867655 12.4279789,9.82867655 C12.0560981,9.82867655 11.7160927,9.94458747 11.533533,10.0691917 C11.3345526,10.2092507 11.1355722,10.4082312 10.6477804,11.0215931 C10.5811316,11.1046626 10.4826073,11.1539247 10.3908445,11.1539247 C10.3164683,11.1539247 10.2498196,11.1288107 10.1841367,11.087276 L8.82508116,10.0518051 C8.68405621,9.94458747 8.65121478,9.76202777 8.7429776,9.61327542 C9.63742353,8.13058157 10.8960229,7.41000201 12.5854246,7.41000201 C14.3578958,7.41000201 16.346734,8.82604709 16.346734,10.7231225 C16.346734,12.2966132 15.2774557,12.9012819 14.4911933,13.3407774 L14.4911933,13.3407774 Z M13.729079,17.6806755 C13.729079,17.8632352 13.5803267,18.0119875 13.397767,18.0119875 L11.4098947,18.0119875 C11.227335,18.0119875 11.0785826,17.8632352 11.0785826,17.6806755 L11.0785826,15.6937691 C11.0785826,15.5112094 11.227335,15.3614911 11.4098947,15.3614911 L13.397767,15.3614911 C13.5803267,15.3614911 13.729079,15.5112094 13.729079,15.6937691 L13.729079,17.6806755 Z M12.682017,3.6825 C7.71233633,3.6825 3.6825,7.71233633 3.6825,12.682017 C3.6825,17.6526637 7.71233633,21.6825 12.682017,21.6825 C17.6526637,21.6825 21.6825,17.6526637 21.6825,12.682017 C21.6825,7.71233633 17.6526637,3.6825 12.682017,3.6825 L12.682017,3.6825 Z" id="Fill-1"></path>
        </g>
    </g>
</svg>