<?xml version="1.0" encoding="UTF-8" standalone="no"?>
<svg width="26px" height="26px" viewBox="0 0 26 26" version="1.1" xmlns="http://www.w3.org/2000/svg" xmlns:xlink="http://www.w3.org/1999/xlink">
    <!-- Generator: Sketch 3.6.1 (26313) - http://www.bohemiancoding.com/sketch -->
    <title>question-mark</title>
    <desc>Created with Sketch.</desc>
    <defs></defs>
    <g id="Page-1" stroke="none" stroke-width="1" fill="none" fill-rule="evenodd">
        <g id="question-mark" fill="#000000">
            <path d="M14.8725,13.6815 C14.3665,13.9735 14.0495,14.5645 14.0495,14.8135 C14.0495,15.0015 13.9035,15.2245 13.7065,15.2245 L11.6475,15.2245 C11.4595,15.2245 11.3395,14.9335 11.3395,14.7445 L11.3395,14.3585 C11.3395,13.3215 12.3685,12.4295 13.1235,12.0865 C13.7835,11.7855 14.0585,11.5035 14.0585,10.9545 C14.0585,10.4735 13.4325,10.0455 12.7365,10.0455 C12.3515,10.0455 11.9995,10.1655 11.8105,10.2945 C11.6045,10.4395 11.3985,10.6455 10.8935,11.2805 C10.8245,11.3665 10.7225,11.4175 10.6275,11.4175 C10.5505,11.4175 10.4815,11.3915 10.4135,11.3485 L9.0065,10.2765 C8.8605,10.1655 8.8265,9.9765 8.9215,9.8225 C9.8475,8.2875 11.1505,7.5415 12.8995,7.5415 C14.7345,7.5415 16.7935,9.0075 16.7935,10.9715 C16.7935,12.6005 15.6865,13.2265 14.8725,13.6815 L14.8725,13.6815 Z M14.0835,18.1745 C14.0835,18.3635 13.9295,18.5175 13.7405,18.5175 L11.6825,18.5175 C11.4935,18.5175 11.3395,18.3635 11.3395,18.1745 L11.3395,16.1175 C11.3395,15.9285 11.4935,15.7735 11.6825,15.7735 L13.7405,15.7735 C13.9295,15.7735 14.0835,15.9285 14.0835,16.1175 L14.0835,18.1745 Z M12.9995,3.6825 C7.8545,3.6825 3.6825,7.8545 3.6825,12.9995 C3.6825,18.1455 7.8545,22.3175 12.9995,22.3175 C18.1455,22.3175 22.3175,18.1455 22.3175,12.9995 C22.3175,7.8545 18.1455,3.6825 12.9995,3.6825 L12.9995,3.6825 Z" id="Fill-1"></path>
        </g>
    </g>
</svg>