<?xml version="1.0" encoding="UTF-8" standalone="no"?>
<svg width="18px" height="18px" viewBox="0 0 18 18" version="1.1" xmlns="http://www.w3.org/2000/svg" xmlns:xlink="http://www.w3.org/1999/xlink">
    <!-- Generator: Sketch 41 (35326) - http://www.bohemiancoding.com/sketch -->
    <title>redo</title>
    <desc>Created with Sketch.</desc>
    <defs></defs>
    <g id="All" stroke="none" stroke-width="1" fill="none" fill-rule="evenodd">
        <g id="redo" fill="#000000">
            <path d="M10.585,6.174 L8.292,6.174 L8.292,4 L4,6.888 L8.292,9.775 L8.292,7.674 L10.519,7.674 C10.832,7.738 12.224,8.135 12.224,10.116 C12.224,12.111 10.826,12.542 10.512,12.614 L5.205,12.614 L5.205,14.114 L10.585,14.114 C10.625,14.114 10.666,14.111 10.705,14.104 C11.749,13.934 13.724,12.882 13.724,10.116 C13.724,7.344 11.739,6.33 10.691,6.182 C10.656,6.177 10.62,6.174 10.585,6.174 Z" id="Imported-Layers" transform="translate(8.862000, 9.057000) scale(-1, 1) translate(-8.862000, -9.057000) "></path>
        </g>
    </g>
</svg>