<?xml version="1.0" encoding="UTF-8" standalone="no"?>
<svg width="18px" height="18px" viewBox="0 0 18 18" version="1.1" xmlns="http://www.w3.org/2000/svg" xmlns:xlink="http://www.w3.org/1999/xlink">
    <!-- Generator: Sketch 41 (35326) - http://www.bohemiancoding.com/sketch -->
    <title>refresh</title>
    <desc>Created with Sketch.</desc>
    <defs></defs>
    <g id="All" stroke="none" stroke-width="1" fill="none" fill-rule="evenodd">
        <g id="refresh" fill="#000000">
            <g transform="translate(2.000000, 2.000000)" id="Layer_1">
                <g transform="translate(-0.000000, 0.000000)">
                    <path d="M7,12.25 C4.11261932,12.25 1.75,9.88730114 1.75,7 C1.75,4.11246023 4.11261932,1.75 7,1.75 C8.44375,1.75 9.75621023,2.3625 10.6752386,3.32503977 L7.875,6.125 L14,6.125 L14,0 L11.9438295,2.05632955 C10.6752386,0.787420455 8.92523864,0 7,0 C3.15011932,0 0,3.15011932 0,7 C0,10.8498807 3.10601136,14 7,14 C10.2233807,14 12.8977784,11.8469432 13.7375398,8.90909091 L11.8860795,8.90909091 C11.1405398,10.880267 9.21581818,12.25 7,12.25 Z" id="Shape"></path>
                </g>
            </g>
        </g>
    </g>
</svg>