<?xml version="1.0" encoding="UTF-8" standalone="no"?>
<svg width="41px" height="41px" viewBox="0 0 41 41" version="1.1" xmlns="http://www.w3.org/2000/svg" xmlns:xlink="http://www.w3.org/1999/xlink">
    <!-- Generator: Sketch 41 (35326) - http://www.bohemiancoding.com/sketch -->
    <title>ribbon</title>
    <desc>Created with Sketch.</desc>
    <defs></defs>
    <g id="All" stroke="none" stroke-width="1" fill="none" fill-rule="evenodd">
        <g id="ribbon" fill="#000000">
            <path d="M27.16,23.6 C30.4271486,20.9563199 31.6737975,16.5407362 30.2716172,12.5787676 C28.8694369,8.61679901 25.1227734,5.96839835 20.92,5.96839835 C16.7172266,5.96839835 12.9705631,8.61679901 11.5683828,12.5787676 C10.1662025,16.5407362 11.4128514,20.9563199 14.68,23.6 L12.19,30.34 C12.1249714,30.5140216 12.1617867,30.7097505 12.285599,30.8482524 C12.4094113,30.9867543 12.599806,31.0451926 12.78,31 L15.93,30.25 L17.84,32.87 C17.9323051,32.99968 18.0808408,33.0776612 18.24,33.08 L18.31,33.08 C18.4919972,33.0549206 18.6455817,32.932053 18.71,32.76 L20.92,26.76 L24.17,35.55 C24.2344183,35.722053 24.3880028,35.8449206 24.57,35.87 L24.64,35.87 C24.7991592,35.8676612 24.9476949,35.78968 25.04,35.66 L26.95,33.04 L30.1,33.79 C30.2784196,33.831645 30.4654673,33.7743855 30.59,33.64 C30.7087455,33.502126 30.7432153,33.310627 30.68,33.14 L27.16,23.6 Z M12,15.91 C12,10.9891429 15.9891429,7 20.91,7 C25.8308571,7 29.82,10.9891429 29.82,15.91 C29.82,20.8308571 25.8308571,24.82 20.91,24.82 C15.9914274,24.814489 12.005511,20.8285726 12,15.91 L12,15.91 Z M18.1,31.52 L16.54,29.39 C16.4176511,29.2196969 16.2020334,29.1438314 16,29.2 L13.43,29.81 L15.5,24.21 C16.9043668,25.1236883 18.5185846,25.6640555 20.19,25.78 L18.1,31.52 Z M26.86,32 C26.6642205,31.9528367 26.459255,32.0277279 26.34,32.19 L24.79,34.32 L21.64,25.78 C23.3123214,25.661053 24.9266069,25.1172212 26.33,24.2 L29.43,32.61 L26.86,32 Z" id="Shape"></path>
            <path d="M26.0666746,12.26 C25.9727913,12.1653437 25.8449934,12.1121008 25.7116746,12.1121008 C25.5783558,12.1121008 25.4505579,12.1653437 25.3566746,12.26 L19.4666746,18.15 L16.4666746,15.15 C16.2706135,14.9539389 15.9527357,14.9539389 15.7566746,15.15 C15.5606135,15.3460611 15.5606135,15.6639389 15.7566746,15.86 L19.0866746,19.19 C19.1805579,19.2846563 19.3083558,19.3378992 19.4416746,19.3378992 C19.5749934,19.3378992 19.7027913,19.2846563 19.7966746,19.19 L26.0666746,13 C26.1709317,12.9052378 26.2303712,12.770888 26.2303712,12.63 C26.2303712,12.489112 26.1709317,12.3547622 26.0666746,12.26 L26.0666746,12.26 Z" id="Shape"></path>
        </g>
    </g>
</svg>