<?xml version="1.0" encoding="UTF-8" standalone="no"?>
<svg width="80px" height="80px" viewBox="0 0 80 80" version="1.1" xmlns="http://www.w3.org/2000/svg" xmlns:xlink="http://www.w3.org/1999/xlink">
    <!-- Generator: Sketch 41 (35326) - http://www.bohemiancoding.com/sketch -->
    <title>science-drop-double</title>
    <desc>Created with Sketch.</desc>
    <defs></defs>
    <g id="All" stroke="none" stroke-width="1" fill="none" fill-rule="evenodd">
        <g id="science-drop-double" fill="#000000">
            <g id="icon-droptwo" transform="translate(5.000000, 5.000000)">
                <path d="M51.8,0 L51.8,0 C47.1,0 42.7,1.8 39.4,5.2 C36,8.5 34.2,13 34.2,17.7 L34.2,34.4 L17.6,34.4 C7.9,34.5 0,42.4 0,52.2 C0,62 7.9,70 17.6,70 C27.3,70 35.2,62 35.2,52.3 L35.2,35.5 L51.8,35.5 C61.5,35.5 69.4,27.5 69.4,17.8 C69.4,8.1 61.5,0 51.8,0 L51.8,0 Z M34.2,52.2 C34.2,61.4 26.8,68.9 17.6,68.9 C8.4,68.9 1,61.5 1,52.2 C1,42.9 8.4,35.5 17.6,35.5 L34.2,35.5 L34.2,52.2 L34.2,52.2 Z M51.8,34.5 L35.2,34.5 L35.2,17.7 C35.2,13.2 36.9,9 40.1,5.9 C43.2,2.7 47.3,1 51.8,1 L51.8,1 C60.9,1 68.4,8.5 68.4,17.7 C68.4,26.9 60.9,34.5 51.8,34.5 L51.8,34.5 Z" id="Shape"></path>
            </g>
        </g>
    </g>
</svg>