<?xml version="1.0" encoding="UTF-8" standalone="no"?>
<svg width="18px" height="18px" viewBox="0 0 18 18" version="1.1" xmlns="http://www.w3.org/2000/svg" xmlns:xlink="http://www.w3.org/1999/xlink">
    <!-- Generator: Sketch 41 (35326) - http://www.bohemiancoding.com/sketch -->
    <title>share</title>
    <desc>Created with Sketch.</desc>
    <defs></defs>
    <g id="All" stroke="none" stroke-width="1" fill="none" fill-rule="evenodd">
        <g id="share" fill="#000000">
            <path d="M13.584,12.247 C13.933,12.596 14.108,13.023 14.108,13.527 C14.108,14.031 13.933,14.457 13.584,14.806 C13.236,15.155 12.809,15.33 12.305,15.33 C11.801,15.33 11.375,15.155 11.026,14.806 C10.677,14.457 10.502,14.031 10.502,13.527 C10.502,13.41 10.522,13.275 10.56,13.12 L6.14,10.561 C5.772,10.89 5.346,11.055 4.861,11.055 C4.357,11.055 3.921,10.871 3.552,10.503 C3.184,10.134 3,9.698 3,9.194 C3,8.69 3.179,8.254 3.538,7.886 C3.896,7.517 4.328,7.333 4.832,7.333 C5.316,7.333 5.743,7.498 6.111,7.827 L10.502,5.298 C10.463,5.104 10.444,4.958 10.444,4.861 C10.444,4.357 10.628,3.921 10.996,3.553 C11.365,3.185 11.801,3 12.305,3 C12.809,3 13.245,3.185 13.614,3.553 C13.982,3.921 14.166,4.357 14.166,4.861 C14.166,5.365 13.982,5.802 13.614,6.17 C13.245,6.538 12.809,6.722 12.305,6.722 C11.82,6.722 11.394,6.558 11.026,6.228 L6.635,8.758 C6.673,8.952 6.693,9.097 6.693,9.194 C6.693,9.291 6.673,9.436 6.635,9.63 L11.084,12.189 C11.394,11.879 11.801,11.724 12.305,11.724 C12.809,11.724 13.236,11.898 13.584,12.247 Z" id="Imported-Layers"></path>
        </g>
    </g>
</svg>