<?xml version="1.0" encoding="UTF-8" standalone="no"?>
<svg width="18px" height="18px" viewBox="0 0 18 18" version="1.1" xmlns="http://www.w3.org/2000/svg" xmlns:xlink="http://www.w3.org/1999/xlink">
    <!-- Generator: Sketch 41 (35326) - http://www.bohemiancoding.com/sketch -->
    <title>sign-out</title>
    <desc>Created with Sketch.</desc>
    <defs></defs>
    <g id="All" stroke="none" stroke-width="1" fill="none" fill-rule="evenodd">
        <g id="sign-out" fill="#000000">
            <path d="M14.4327281,2 C14.8456355,2 15.2108142,2.15760266 15.5260446,2.47391786 C15.8423849,2.79023308 16,3.1553829 16,3.5682575 L16,14.4317426 C16,14.845727 15.8423849,15.209767 15.5260446,15.5260822 C15.2108142,15.8423974 14.8456355,16 14.4327281,16 L3.56727187,16 C3.15436454,16 2.78918576,15.8423974 2.47395544,15.5260822 C2.15761516,15.209767 2,14.845727 2,14.4317426 L2,11.3329634 L3.56727187,11.3329634 L3.56727187,14.4317426 L14.4327281,14.4317426 L14.4327281,3.5682575 L3.56727187,3.5682575 L3.56727187,6.66703662 L2,6.66703662 L2,3.5682575 C2,3.1553829 2.15761516,2.79023308 2.47395544,2.47391786 C2.78918576,2.15760266 3.15436454,2 3.56727187,2 L14.4327281,2 L14.4327281,2 Z M7.50543091,11.8063264 L9.51002935,9.76526082 L2,9.76526082 L2,8.2336293 L9.54665823,8.2336293 L7.50543091,6.19256382 L8.59874734,5.09933408 L12.5002775,8.99944506 L8.59874734,12.900666 L7.50543091,11.8063264 L7.50543091,11.8063264 Z" id="Imported-Layers"></path>
        </g>
    </g>
</svg>