<?xml version="1.0" encoding="UTF-8" standalone="no"?>
<svg width="80px" height="80px" viewBox="0 0 80 80" version="1.1" xmlns="http://www.w3.org/2000/svg" xmlns:xlink="http://www.w3.org/1999/xlink">
    <!-- Generator: Sketch 41 (35326) - http://www.bohemiancoding.com/sketch -->
    <title>skill-collaboration</title>
    <desc>Created with Sketch.</desc>
    <defs></defs>
    <g id="All" stroke="none" stroke-width="1" fill="none" fill-rule="evenodd">
        <g id="skill-collaboration" fill="#000000">
            <g id="21c-skill-icon_collaboration" transform="translate(5.000000, 12.000000)">
                <path d="M69.84,20.42 C69.7461167,20.3253437 69.6183188,20.2721008 69.485,20.2721008 C69.3516812,20.2721008 69.2238833,20.3253437 69.13,20.42 L62.81,26.74 L46.47,10.41 L43.47,7.41 L49.81,1.1 C49.9534818,0.978798534 50.0169374,0.787410968 49.9742869,0.604496357 C49.9316365,0.421581746 49.7900753,0.277998214 49.607784,0.232757667 C49.4254927,0.18751712 49.2332244,0.248251744 49.11,0.39 L42.43,7.07 C42.3353437,7.1638833 42.2821008,7.29168123 42.2821008,7.425 C42.2821008,7.55831877 42.3353437,7.6861167 42.43,7.78 L44.91,10.26 L25.08,10.26 L27.56,7.78 C27.6546563,7.6861167 27.7078992,7.55831877 27.7078992,7.425 C27.7078992,7.29168123 27.6546563,7.1638833 27.56,7.07 L20.88,0.39 C20.7531707,0.263170716 20.568313,0.213638242 20.395061,0.260060982 C20.221809,0.306483722 20.0864837,0.441808957 20.040061,0.615060982 C19.9936382,0.788313006 20.0431707,0.973170716 20.17,1.1 L26.5,7.42 L23.5,10.42 L7.18,26.74 L0.86,20.42 C0.733170716,20.2931707 0.548313006,20.2436382 0.375060982,20.290061 C0.201808957,20.3364837 0.0664837217,20.471809 0.0200609817,20.645061 C-0.0263617584,20.818313 0.0231707156,21.0031707 0.15,21.13 L6.83,27.8 C6.9238833,27.8946563 7.05168123,27.9478992 7.185,27.9478992 C7.31831877,27.9478992 7.4461167,27.8946563 7.54,27.8 L8.93,26.41 C8.94407441,26.5113674 8.98953428,26.605784 9.06,26.68 L13.36,30.98 L13.36,34.11 C13.3618785,34.2418846 13.4157929,34.3676848 13.51,34.46 L14.9,35.85 C14.7986326,35.8640744 14.704216,35.9095343 14.63,35.98 C13.9301014,36.6726069 13.4858912,37.5821802 13.37,38.56 C13.37,40.6807734 15.0892266,42.4 17.21,42.4 C17.461792,42.3940392 17.7112527,42.350215 17.95,42.27 C17.869932,42.5087846 17.8261117,42.758223 17.82,43.01 C17.82,45.1307734 19.5392266,46.85 21.66,46.85 C21.911777,46.8438883 22.1612154,46.800068 22.4,46.72 C22.319785,46.9587473 22.2759608,47.208208 22.27,47.46 C22.27,49.5807734 23.9892266,51.3 26.11,51.3 C26.361777,51.2938883 26.6112154,51.250068 26.85,51.17 C26.769932,51.4087846 26.7261117,51.658223 26.72,51.91 C26.72,52.9284313 27.1245703,53.9051503 27.84471,54.62529 C28.5648497,55.3454297 29.5415687,55.75 30.56,55.75 C31.5378198,55.6341088 32.4473931,55.1898986 33.14,54.49 C33.2104657,54.415784 33.2559256,54.3213674 33.27,54.22 L33.54,54.49 C34.2326069,55.1898986 35.1421802,55.6341088 36.12,55.75 C38.1983408,55.7397455 39.8913136,54.0777958 39.94,52 L40.21,52.27 C40.9026069,52.9698986 41.8121802,53.4141088 42.79,53.53 C44.9107734,53.53 46.63,51.8107734 46.63,49.69 L46.63,49.59 C47.142605,49.948533 47.7453566,50.1563783 48.37,50.19 C50.4907734,50.19 52.21,48.4707734 52.21,46.35 C52.0941088,45.3721802 51.6498986,44.4626069 50.95,43.77 L50.68,43.5 C52.7616641,43.4512032 54.4251494,41.7522303 54.43,39.67 C54.3141088,38.6921802 53.8698986,37.7826069 53.17,37.09 L52.9,36.82 C53.0013674,36.8059256 53.095784,36.7604657 53.17,36.69 L57.62,32.24 C57.7142071,32.1476848 57.7681215,32.0218846 57.77,31.89 L57.77,29.89 L60.96,26.7 C61.0323701,26.6231114 61.0779672,26.5249023 61.09,26.42 L62.48,27.81 C62.5738833,27.9046563 62.7016812,27.9578992 62.835,27.9578992 C62.9683188,27.9578992 63.0961167,27.9046563 63.19,27.81 L69.87,21.13 C69.9608027,21.0321716 70.0087214,20.9020986 70.0030867,20.7687428 C69.9974519,20.635387 69.9387315,20.5098199 69.84,20.42 L69.84,20.42 Z M17.19,41.42 C16.4367852,41.42 15.7144201,41.1207866 15.1818167,40.5881833 C14.6492134,40.0555799 14.35,39.3332148 14.35,38.58 C14.4692373,37.8638678 14.8206107,37.2067996 15.35,36.71 C15.4223701,36.6331114 15.4679672,36.5349023 15.48,36.43 L19.37,40.32 C19.268433,40.3334093 19.1738206,40.3789634 19.1,40.45 C18.5870325,40.9724391 17.91532,41.3100538 17.19,41.41 L17.19,41.42 Z M21.64,45.87 C20.8832933,45.8673778 20.158923,45.562876 19.6276154,45.0240587 C19.0963078,44.4852414 18.802002,43.7566689 18.81,43 C18.9299465,42.2841093 19.2812053,41.6272553 19.81,41.13 L19.81,41.07 C19.8579701,41.005372 19.8889191,40.9297191 19.9,40.85 L23.79,44.74 C23.6886326,44.7540744 23.594216,44.7995343 23.52,44.87 C23.0200729,45.3988427 22.3589119,45.7470072 21.64,45.86 L21.64,45.87 Z M26.09,50.32 C25.3367852,50.32 24.6144201,50.0207866 24.0818167,49.4881833 C23.5492134,48.9555799 23.25,48.2332148 23.25,47.48 C23.3692373,46.7638678 23.7206107,46.1067996 24.25,45.61 C24.3122808,45.5266912 24.3565518,45.4313382 24.38,45.33 L28.27,49.22 C28.205877,49.2308969 28.1446376,49.2547122 28.09,49.29 L28,49.35 C27.4865834,49.871823 26.8150935,50.2093257 26.09,50.31 L26.09,50.32 Z M32.41,53.8 C31.9127447,54.3287947 31.2558907,54.6800535 30.54,54.8 C28.9715113,54.8 27.7,53.5284887 27.7,51.96 C27.8192373,51.2438678 28.1706107,50.5867996 28.7,50.09 C28.7631626,50.0109693 28.8076074,49.9186607 28.83,49.82 L32.72,53.71 C32.6128468,53.7063713 32.5074607,53.7379871 32.42,53.8 L32.41,53.8 Z M53.41,39.69 C53.41,41.2584887 52.1384887,42.53 50.57,42.53 C49.8538678,42.4107627 49.1967996,42.0593893 48.7,41.53 L38.7,31.53 C38.5039389,31.3339389 38.1860611,31.3339389 37.99,31.53 C37.7939389,31.7260611 37.7939389,32.0439389 37.99,32.24 L47.99,42.24 L50.21,44.46 C50.7387947,44.9572553 51.0900535,45.6141093 51.21,46.33 C51.21,47.0832148 50.9107866,47.8055799 50.3781833,48.3381833 C49.8455799,48.8707866 49.1232148,49.17 48.37,49.17 C47.6541093,49.0500535 46.9972553,48.6987947 46.5,48.17 L45.41,47.08 L34.24,36 C34.0439389,35.8039389 33.7260611,35.8039389 33.53,36 C33.3339389,36.1960611 33.3339389,36.5139389 33.53,36.71 L44.67,47.84 C45.1998684,48.332341 45.5515489,48.9864669 45.67,49.7 C45.67,50.4532148 45.3707866,51.1755799 44.8381833,51.7081833 C44.3055799,52.2407866 43.5832148,52.54 42.83,52.54 C42.1141093,52.4200535 41.4572553,52.0687947 40.96,51.54 L38.74,49.32 L29.84,40.42 C29.6439389,40.2239389 29.3260611,40.2239389 29.13,40.42 C28.9339389,40.6160611 28.9339389,40.9339389 29.13,41.13 L38,50.07 C38.5280692,50.5637285 38.8793993,51.2172024 39,51.93 C39,52.6832148 38.7007866,53.4055799 38.1681833,53.9381833 C37.6355799,54.4707866 36.9132148,54.77 36.16,54.77 C35.4441093,54.6500535 34.7872553,54.2987947 34.29,53.77 L14.35,33.92 L14.35,30.79 C14.3481215,30.6581154 14.2942071,30.5323152 14.2,30.44 L9.76,26 C9.68578401,25.9295343 9.59136737,25.8840744 9.49,25.87 L24.08,11.26 L30.45,11.26 L24.63,17.08 C23.9301014,17.7726069 23.4858912,18.6821802 23.37,19.66 C23.37,21.7807734 25.0892266,23.5 27.21,23.5 C28.1878198,23.3841088 29.0973931,22.9398986 29.79,22.24 L35.21,16.82 L37.84,16.82 L37.84,23 C37.8418785,23.1318846 37.8957929,23.2576848 37.99,23.35 L40.21,25.57 L52.44,37.82 C52.9577626,38.3215044 53.2982427,38.9778939 53.41,39.69 L53.41,39.69 Z M60.23,26 L56.89,29.34 C56.7957929,29.4323152 56.7418785,29.5581154 56.74,29.69 L56.74,31.69 L52.44,36 C52.3695343,36.074216 52.3240744,36.1686326 52.31,36.27 L41.77,25.72 L43.9,25.72 C46.0207734,25.72 47.74,24.0007734 47.74,21.88 C47.74,21.6038576 47.5161424,21.38 47.24,21.38 C46.9638576,21.38 46.74,21.6038576 46.74,21.88 C46.74,23.4484887 45.4684887,24.72 43.9,24.72 L40.77,24.72 L38.84,22.79 L38.84,16.32 C38.84,16.0438576 38.6161424,15.82 38.34,15.82 L35,15.82 C34.8681154,15.8218785 34.7423152,15.8757929 34.65,15.97 L29.09,21.53 C28.5941218,22.0605898 27.936619,22.4121956 27.22,22.53 C25.6515113,22.53 24.38,21.2584887 24.38,19.69 C24.4999465,18.9741093 24.8512053,18.3172553 25.38,17.82 L31.91,11.29 L45.91,11.29 L60.51,25.85 C60.4025999,25.8675214 60.3040879,25.9202957 60.23,26 Z" id="Shape"></path>
                <path d="M62.46,21.13 C62.5868293,21.2568293 62.771687,21.3063618 62.944939,21.259939 C63.118191,21.2135163 63.2535163,21.078191 63.299939,20.904939 C63.3463618,20.731687 63.2968293,20.5468293 63.17,20.42 L60.94,18.2 C60.7439389,18.0039389 60.4260611,18.0039389 60.23,18.2 C60.0339389,18.3960611 60.0339389,18.7139389 60.23,18.91 L62.46,21.13 Z M7.18,21.27 C7.31188463,21.2681215 7.43768477,21.2142071 7.53,21.12 L9.76,18.9 C9.95606107,18.7039389 9.95606105,18.3860611 9.75999998,18.19 C9.5639389,17.9939389 9.24606109,17.9939389 9.05,18.19 L6.83,20.42 C6.68994014,20.5628502 6.64851223,20.7754356 6.72468402,20.9604242 C6.8008558,21.1454129 6.97996242,21.26719 7.18,21.27 L7.18,21.27 Z" id="Shape"></path>
            </g>
        </g>
    </g>
</svg>