<?xml version="1.0" encoding="UTF-8" standalone="no"?>
<svg width="80px" height="80px" viewBox="0 0 80 80" version="1.1" xmlns="http://www.w3.org/2000/svg" xmlns:xlink="http://www.w3.org/1999/xlink">
    <!-- Generator: Sketch 41 (35326) - http://www.bohemiancoding.com/sketch -->
    <title>skill-problem-solving</title>
    <desc>Created with Sketch.</desc>
    <defs></defs>
    <g id="All" stroke="none" stroke-width="1" fill="none" fill-rule="evenodd">
        <g id="skill-problem-solving" fill="#000000">
            <g id="21c-skill-icon_problem-solving" transform="translate(5.000000, 3.000000)">
                <path d="M69.5,0 L0.5,0 C0.223857625,-1.69088438e-17 3.38176876e-17,0.223857625 0,0.5 L0,67 C3.38176876e-17,67.2761424 0.223857625,67.5 0.5,67.5 L29.57,67.5 L29.57,72 C29.57,74.9989062 32.0010938,77.43 35,77.43 C37.9989062,77.43 40.43,74.9989062 40.43,72 L40.43,67.54 L69.5,67.54 C69.6398388,67.5404483 69.773475,67.4823153 69.8684831,67.3797066 C69.9634912,67.2770979 70.0111879,67.1393912 70,67 L70,0.5 C70,0.223857625 69.7761424,1.69088438e-17 69.5,0 Z M1,1 L19.72,1 L19.72,9.86 L1,9.86 L1,1 Z M29.57,49.28 L29.57,50.52 L7.16,50.52 L7.16,32.73 L19.06,32.73 C19.06,33.22 18.98,33.73 18.98,34.22 C18.9832137,40.9678747 23.219566,46.9883754 29.57,49.27 L29.57,49.28 Z M35,19.2 C43.2842712,19.2 50,25.9157288 50,34.2 C50,42.4842712 43.2842712,49.2 35,49.2 C26.7157288,49.2 20,42.4842712 20,34.2 C20,25.9157288 26.7157288,19.2 35,19.2 L35,19.2 Z M7.16,28.34 L7.16,17 L62.84,17 L62.84,28.34 L49.89,28.34 C47.4831749,22.2197552 41.5764887,18.1955871 35,18.1955871 C28.4235113,18.1955871 22.5168251,22.2197552 20.11,28.34 L7.16,28.34 L7.16,28.34 Z M39.43,51 L39.43,72 C39.43,74.4466214 37.4466214,76.43 35,76.43 C32.5533786,76.43 30.57,74.4466214 30.57,72 L30.57,49.6 C33.4627311,50.4461175 36.5372689,50.4461175 39.43,49.6 L39.43,51 L39.43,51 Z M40.43,49.25 C46.7656569,46.9641816 50.9914026,40.9553872 51,34.22 C51,33.72 51,33.22 50.92,32.73 L62.82,32.73 L62.82,50.52 L40.43,50.52 L40.43,49.28 L40.43,49.25 Z M69,66.54 L40.43,66.54 L40.43,51.54 L63.34,51.54 C63.6161424,51.54 63.84,51.3161424 63.84,51.04 L63.84,32.23 C63.84,31.9538576 63.6161424,31.73 63.34,31.73 L50.81,31.73 C50.6883547,30.9203837 50.5044766,30.1213497 50.26,29.34 L63.34,29.34 C63.6161424,29.34 63.84,29.1161424 63.84,28.84 L63.84,16.52 C63.84,16.2438576 63.6161424,16.02 63.34,16.02 L6.66,16.02 C6.38385763,16.02 6.16,16.2438576 6.16,16.52 L6.16,28.84 C6.16,29.1161424 6.38385763,29.34 6.66,29.34 L19.74,29.34 C19.4955234,30.1213497 19.3116453,30.9203837 19.19,31.73 L6.66,31.73 C6.38385763,31.73 6.16,31.9538576 6.16,32.23 L6.16,51 C6.16,51.2761424 6.38385763,51.5 6.66,51.5 L29.57,51.5 L29.57,66.5 L1,66.5 L1,10.86 L69,10.86 L69,66.54 L69,66.54 Z M69,9.86 L20.72,9.86 L20.72,1 L69,1 L69,9.86 L69,9.86 Z" id="Shape"></path>
                <path d="M6.59,4.93 L4.27,4.93 C3.99385763,4.93 3.77,5.15385763 3.77,5.43 C3.77,5.70614237 3.99385763,5.93 4.27,5.93 L6.59,5.93 C6.86614237,5.93 7.09,5.70614237 7.09,5.43 C7.09,5.15385763 6.86614237,4.93 6.59,4.93 Z M11.52,4.93 L9.2,4.93 C8.92385763,4.93 8.7,5.15385763 8.7,5.43 C8.7,5.70614237 8.92385763,5.93 9.2,5.93 L11.52,5.93 C11.7961424,5.93 12.02,5.70614237 12.02,5.43 C12.02,5.15385763 11.7961424,4.93 11.52,4.93 Z M16.45,4.93 L14.13,4.93 C13.8538576,4.93 13.63,5.15385763 13.63,5.43 C13.63,5.70614237 13.8538576,5.93 14.13,5.93 L16.45,5.93 C16.7261424,5.93 16.95,5.70614237 16.95,5.43 C16.95,5.15385763 16.7261424,4.93 16.45,4.93 Z M23.91,5.93 L65.81,5.93 C66.0861424,5.93 66.31,5.70614237 66.31,5.43 C66.31,5.15385763 66.0861424,4.93 65.81,4.93 L23.91,4.93 C23.6338576,4.93 23.41,5.15385763 23.41,5.43 C23.41,5.70614237 23.6338576,5.93 23.91,5.93 L23.91,5.93 Z M63.34,59.15 L43.63,59.15 C43.3538576,59.15 43.13,59.3738576 43.13,59.65 C43.13,59.9261424 43.3538576,60.15 43.63,60.15 L63.34,60.15 C63.6161424,60.15 63.84,59.9261424 63.84,59.65 C63.84,59.3738576 63.6161424,59.15 63.34,59.15 Z M63.34,54.22 L43.63,54.22 C43.3538576,54.22 43.13,54.4438576 43.13,54.72 C43.13,54.9961424 43.3538576,55.22 43.63,55.22 L63.34,55.22 C63.6161424,55.22 63.84,54.9961424 63.84,54.72 C63.84,54.4438576 63.6161424,54.22 63.34,54.22 Z M6.66,60.15 L26.38,60.15 C26.6561424,60.15 26.88,59.9261424 26.88,59.65 C26.88,59.3738576 26.6561424,59.15 26.38,59.15 L6.66,59.15 C6.38385763,59.15 6.16,59.3738576 6.16,59.65 C6.16,59.9261424 6.38385763,60.15 6.66,60.15 Z M6.66,55.22 L26.38,55.22 C26.6561424,55.22 26.88,54.9961424 26.88,54.72 C26.88,54.4438576 26.6561424,54.22 26.38,54.22 L6.66,54.22 C6.38385763,54.22 6.16,54.4438576 6.16,54.72 C6.16,54.9961424 6.38385763,55.22 6.66,55.22 Z M34.5,68.34 L34.5,70.66 C34.5,70.9361424 34.7238576,71.16 35,71.16 C35.2761424,71.16 35.5,70.9361424 35.5,70.66 L35.5,68.34 C35.5,68.0638576 35.2761424,67.84 35,67.84 C34.7238576,67.84 34.5,68.0638576 34.5,68.34 Z M32.18,39.5 C32.2738833,39.5946563 32.4016812,39.6478992 32.535,39.6478992 C32.6683188,39.6478992 32.7961167,39.5946563 32.89,39.5 L42.75,29.64 C42.9460611,29.4328932 42.9371067,29.1060611 42.73,28.91 C42.5228932,28.713939 42.1960611,28.7228932 42,28.93 L32.5,38.43 L28,33.86 C27.8039389,33.6639389 27.4860611,33.6639389 27.29,33.86 C27.0939389,34.0560611 27.0939389,34.3739389 27.29,34.57 L32.18,39.5 Z" id="Shape"></path>
            </g>
        </g>
    </g>
</svg>