<?xml version="1.0" encoding="UTF-8" standalone="no"?>
<svg width="80px" height="80px" viewBox="0 0 80 80" version="1.1" xmlns="http://www.w3.org/2000/svg" xmlns:xlink="http://www.w3.org/1999/xlink">
    <!-- Generator: Sketch 41 (35326) - http://www.bohemiancoding.com/sketch -->
    <title>skill-participate</title>
    <desc>Created with Sketch.</desc>
    <defs></defs>
    <g id="All" stroke="none" stroke-width="1" fill="none" fill-rule="evenodd">
        <g id="skill-participate" fill="#000000">
            <g id="web-lit-icon_participate" transform="translate(5.000000, 5.000000)">
                <path d="M64.24,23.7 L69.46,23.7 C69.7361424,23.7 69.96,23.4761424 69.96,23.2 C69.96,22.9238576 69.7361424,22.7 69.46,22.7 L64.56,22.7 L66.11,17.81 C66.1175427,17.7602845 66.1175427,17.7097155 66.11,17.66 L66.11,8.08 L69.44,8.08 C69.7161424,8.08 69.94,7.85614237 69.94,7.58 C69.94,7.30385763 69.7161424,7.08 69.44,7.08 L66.05,7.08 C65.9728386,6.58809552 65.7539012,6.12936958 65.42,5.76 C64.3720644,4.79191118 62.787313,4.69573894 61.63,5.53 C61.6317995,4.8012767 61.3808834,4.09447088 60.92,3.53 C59.8958111,2.51044076 58.2746183,2.40777948 57.13,3.29 L57.13,2.89 C57.1285339,2.16183875 56.8779944,1.45609368 56.42,0.89 C55.2921991,-0.233905229 53.4678009,-0.233905229 52.34,0.89 C51.8783822,1.45405698 51.6273695,2.16113487 51.63,2.89 C50.4853817,2.00777948 48.8641889,2.11044076 47.84,3.13 C47.3820056,3.69609368 47.1314661,4.40183875 47.13,5.13 L47.13,7.08 L30.87,7.08 C30.5938576,7.08 30.37,7.30385763 30.37,7.58 L30.37,8.1 L28.26,8.1 L22.94,6.42 L22.94,0.51 C22.94,0.233857625 22.7161424,0.01 22.44,0.01 C22.1638576,0.01 21.94,0.233857625 21.94,0.51 L21.94,6.1 L17.81,4.79 L7.8,4.79 C7.64347435,4.78059954 7.48652565,4.78059954 7.33,4.79 L7.33,0.51 C7.33,0.233857625 7.10614237,0.01 6.83,0.01 C6.55385763,0.01 6.33,0.233857625 6.33,0.51 L6.33,5.09 C6.11882158,5.18596219 5.92594637,5.31792944 5.76,5.48 C4.73177509,6.50026988 4.62868866,8.12817637 5.52,9.27 C4.79113487,9.26736951 4.08405698,9.51838216 3.52,9.98 C2.50044076,11.0041889 2.39777948,12.6253817 3.28,13.77 L2.89,13.77 C2.16183875,13.7714661 1.45609368,14.0220056 0.89,14.48 C-0.233905229,15.6078009 -0.233905229,17.4321991 0.89,18.56 C1.45405698,19.0216178 2.16113487,19.2726305 2.89,19.27 C1.99868866,20.4118236 2.10177509,22.0397301 3.13,23.06 C3.69609368,23.5179944 4.40183875,23.7685339 5.13,23.77 L6.33,23.77 L6.33,39.1 C6.33,39.3761424 6.55385763,39.6 6.83,39.6 L7.35,39.6 L7.35,41.71 L5.35,48.05 L0.5,48.05 C0.223857625,48.05 1.99398967e-17,48.2738576 -1.38777878e-17,48.55 C-4.76954723e-17,48.8261424 0.223857625,49.05 0.5,49.05 L5,49.05 L4,52.16 C3.99245733,52.2097155 3.99245733,52.2602845 4,52.31 L4,62.17 C4.00562149,62.6873797 4.11796486,63.1980313 4.33,63.67 L0.5,63.67 C0.321367191,63.67 0.156303659,63.7652994 0.0669872484,63.92 C-0.0223291623,64.0747005 -0.0223291623,64.2652995 0.0669872484,64.42 C0.156303659,64.5747006 0.321367191,64.67 0.5,64.67 L5.35,64.67 C6.35133896,65.2556479 7.60915962,65.1683543 8.52,64.45 C8.5165325,65.1790075 8.76764274,65.8863603 9.23,66.45 C10.2449127,67.4697015 11.8593273,67.5767581 13,66.7 L13,67.08 C13.0006583,67.808301 13.2512905,68.5143072 13.71,69.08 C14.8378009,70.2039052 16.6621991,70.2039052 17.79,69.08 C18.2523573,68.5163603 18.5034675,67.8090075 18.5,67.08 C19.6418236,67.9713113 21.2697301,67.8682249 22.29,66.84 C22.7479944,66.2739063 22.9985339,65.5681612 23,64.84 L23,64.67 L39.1,64.67 C39.3761424,64.67 39.6,64.4461424 39.6,64.17 L39.6,63.65 L41.71,63.65 L47.21,65.39 L47.21,69.47 C47.21,69.7461424 47.4338576,69.97 47.71,69.97 C47.9861424,69.97 48.21,69.7461424 48.21,69.47 L48.21,65.7 L52.21,66.95 L62.22,66.95 C62.4381788,66.9439209 62.6555296,66.9205139 62.87,66.88 L62.87,69.43 C62.87,69.7061424 63.0938576,69.93 63.37,69.93 C63.6461424,69.93 63.87,69.7061424 63.87,69.43 L63.87,66.56 C64.0118782,66.4804269 64.1429502,66.3829631 64.26,66.27 C65.2795592,65.2458111 65.3822205,63.6246183 64.5,62.48 C65.2288651,62.4826305 65.935943,62.2316178 66.5,61.77 C67.4958825,60.7383481 67.5811409,59.1312288 66.7,58 L67.09,58 C67.8181612,57.9985339 68.5239063,57.7479944 69.09,57.29 C70.2139052,56.1621991 70.2139052,54.3378009 69.09,53.21 C68.525943,52.7483822 67.8188651,52.4973695 67.09,52.5 C67.9722205,51.3553817 67.8695592,49.7341889 66.85,48.71 C66.2839063,48.2520056 65.5781612,48.0014661 64.85,48 L63.85,48 L63.85,30.87 C63.85,30.5938576 63.6261424,30.37 63.35,30.37 L62.8,30.37 L62.8,28.26 L64.24,23.7 Z M31.37,8.08 L47.14,8.08 L47.14,10.63 C45.9953817,9.74777948 44.3741889,9.85044076 43.35,10.87 C42.8912905,11.4356928 42.6406583,12.141699 42.64,12.87 L42.64,17.32 C42.6382949,17.4192035 42.6661429,17.5166714 42.72,17.6 L46.11,22.66 L31.37,22.66 L31.37,8.08 Z M48.73,30.37 L47.73,30.37 C47.4538576,30.37 47.23,30.5938576 47.23,30.87 L47.23,47 L43.4,49.56 L39.6,49.56 L39.6,48.56 C39.6,48.2838576 39.3761424,48.06 39.1,48.06 L24.55,48.06 L21.42,43.38 L21.42,39.6 L22.42,39.6 C22.6961424,39.6 22.92,39.3761424 22.92,39.1 L22.92,24.61 L26.57,22.17 L30.35,22.17 L30.35,23.17 C30.35,23.4461424 30.5738576,23.67 30.85,23.67 L46.79,23.67 L48.73,26.57 L48.73,30.35 L48.73,30.37 Z M3.25,21 C3.24855468,20.5010446 3.4465718,20.0222032 3.8,19.67 C4.18670085,19.3907545 4.65305857,19.2434836 5.13,19.25 L15.25,19.25 C15.5261424,19.25 15.75,19.0261424 15.75,18.75 C15.75,18.4738576 15.5261424,18.25 15.25,18.25 L2.89,18.25 C2.41337082,18.2544106 1.94765459,18.1073423 1.56,17.83 C0.823816134,17.0922378 0.823816134,15.8977622 1.56,15.16 C1.94702235,14.8813949 2.41316316,14.7341925 2.89,14.74 L15.25,14.74 C15.5261424,14.74 15.75,14.5161424 15.75,14.24 C15.75,13.9638576 15.5261424,13.74 15.25,13.74 L5.55,13.74 C5.07326724,13.7451056 4.60734024,13.5979707 4.22,13.32 C3.48381613,12.5822378 3.48381613,11.3877622 4.22,10.65 C4.60702235,10.3713949 5.07316316,10.2241925 5.55,10.23 L15.25,10.23 C15.5261424,10.23 15.75,10.0061424 15.75,9.73 C15.75,9.45385763 15.5261424,9.23 15.25,9.23 L7.8,9.23 C7.32326724,9.23510557 6.85734024,9.08797073 6.47,8.81 C5.73381613,8.07223783 5.73381613,6.87776217 6.47,6.14 C6.86274516,5.8784545 7.32861098,5.74885273 7.8,5.77 L17.58,5.77 L28,9.08 L30.34,9.08 L30.34,21.17 L26.44,21.17 C26.3407965,21.1682949 26.2433286,21.1961429 26.16,21.25 L17.16,27.25 L12.91,27.25 C12.4332672,27.2551056 11.9673402,27.1079707 11.58,26.83 C11.223969,26.4769832 11.0236975,25.996377 11.0236975,25.495 C11.0236975,24.993623 11.223969,24.5130168 11.58,24.16 C11.9667008,23.8807545 12.4330586,23.7334836 12.91,23.74 L15.26,23.74 C15.5361424,23.74 15.76,23.5161424 15.76,23.24 C15.76,22.9638576 15.5361424,22.74 15.26,22.74 L5.14,22.74 C4.66316316,22.7458075 4.19702235,22.5986051 3.81,22.32 C3.45535611,21.9718876 3.25385904,21.4969302 3.25,21 Z M7.33,23.75 L10.63,23.75 C9.73868866,24.8918236 9.84177509,26.5197301 10.87,27.54 C11.4356928,27.9987095 12.141699,28.2493417 12.87,28.25 L17.32,28.25 C17.4192035,28.2517051 17.5166714,28.2238571 17.6,28.17 L21.91,25.28 L21.91,38.6 L7.33,38.6 L7.33,23.76 L7.33,23.75 Z M21.59,66.17 C20.8522378,66.9061839 19.6577622,66.9061839 18.92,66.17 C18.6413949,65.7829777 18.4941925,65.3168368 18.5,64.84 L18.5,54.72 C18.5,54.4438576 18.2761424,54.22 18,54.22 C17.7238576,54.22 17.5,54.4438576 17.5,54.72 L17.5,67.08 C17.5065164,67.5569414 17.3592455,68.0232992 17.08,68.41 C16.3422378,69.1461839 15.1477622,69.1461839 14.41,68.41 C14.1343067,68.0220741 13.9905742,67.5558198 14,67.08 L14,54.72 C14,54.4438576 13.7761424,54.22 13.5,54.22 C13.2238576,54.22 13,54.4438576 13,54.72 L13,64.42 C13.0051056,64.8967328 12.8579707,65.3626598 12.58,65.75 C11.8335764,66.464935 10.6564236,66.464935 9.91,65.75 C9.63075451,65.3632992 9.48348365,64.8969414 9.49,64.42 L9.49,54.72 C9.49,54.4438576 9.26614237,54.22 8.99,54.22 C8.71385763,54.22 8.49,54.4438576 8.49,54.72 L8.49,62.17 C8.49441057,62.6466292 8.34734229,63.1123454 8.07,63.5 C7.33223783,64.2361839 6.13776217,64.2361839 5.4,63.5 C5.12785285,63.1108573 4.98765635,62.6447039 5,62.17 L5,52.39 L8.33,41.94 C8.33754267,41.8902845 8.33754267,41.8397155 8.33,41.79 L8.33,39.6 L20.42,39.6 L20.42,43.53 C20.4182949,43.6292035 20.4461429,43.7266714 20.5,43.81 L26.5,52.81 L26.5,57.1 C26.5044106,57.5766292 26.3573423,58.0423454 26.08,58.43 C25.3422378,59.1661839 24.1477622,59.1661839 23.41,58.43 C23.1266452,58.030724 22.9825672,57.5492928 23,57.06 L23,54.72 C23,54.4438576 22.7761424,54.22 22.5,54.22 C22.2238576,54.22 22,54.4438576 22,54.72 L22,64.84 C22.0080203,65.3156212 21.8644199,65.7814468 21.59,66.17 L21.59,66.17 Z M38.59,63.67 L23,63.67 L23,59.34 C24.1418236,60.2313113 25.7697301,60.1282249 26.79,59.1 C27.2479944,58.5339063 27.4985339,57.8281612 27.5,57.1 L27.5,52.62 C27.5017051,52.5207965 27.4738571,52.4233286 27.42,52.34 L25.22,49.05 L38.6,49.05 L38.6,63.67 L38.59,63.67 Z M66.72,50.74 C66.7214453,51.2389554 66.5234282,51.7177968 66.17,52.07 C65.7832992,52.3492455 65.3169414,52.4965164 64.84,52.49 L54.72,52.49 C54.4438576,52.49 54.22,52.7138576 54.22,52.99 C54.22,53.2661424 54.4438576,53.49 54.72,53.49 L67.08,53.49 C67.5566292,53.4855894 68.0223454,53.6326577 68.41,53.91 C69.1461839,54.6477622 69.1461839,55.8422378 68.41,56.58 C68.0232992,56.8592455 67.5569414,57.0065164 67.08,57 L54.72,57 C54.4438576,57 54.22,57.2238576 54.22,57.5 C54.22,57.7761424 54.4438576,58 54.72,58 L64.42,58 C64.8968368,57.9941925 65.3629777,58.1413949 65.75,58.42 C66.4861839,59.1577622 66.4861839,60.3522378 65.75,61.09 C65.3629777,61.3686051 64.8968368,61.5158075 64.42,61.51 L54.72,61.51 C54.4438576,61.51 54.22,61.7338576 54.22,62.01 C54.22,62.2861424 54.4438576,62.51 54.72,62.51 L62.17,62.51 C62.6467328,62.5048944 63.1126598,62.6520293 63.5,62.93 C64.2361839,63.6677622 64.2361839,64.8622378 63.5,65.6 C63.1129777,65.8786051 62.6468368,66.0258075 62.17,66.02 L52.39,66.02 L41.94,62.67 L39.6,62.67 L39.6,50.58 L43.53,50.58 C43.6292035,50.5817051 43.7266714,50.5538571 43.81,50.5 L52.81,44.5 L57.1,44.5 C57.5767328,44.4948944 58.0426598,44.6420293 58.43,44.92 C58.786031,45.2730168 58.9863025,45.753623 58.9863025,46.255 C58.9863025,46.756377 58.786031,47.2369832 58.43,47.59 C58.0432992,47.8692455 57.5769414,48.0165164 57.1,48.01 L54.72,48.01 C54.4438576,48.01 54.22,48.2338576 54.22,48.51 C54.22,48.7861424 54.4438576,49.01 54.72,49.01 L64.83,49.01 C65.3067328,49.0048944 65.7726598,49.1520293 66.16,49.43 C66.5122094,49.775668 66.7135013,50.2465472 66.72,50.74 L66.72,50.74 Z M62.82,48 L59.34,48 C60.2313113,46.8581764 60.1282249,45.2302699 59.1,44.21 C58.5343072,43.7512905 57.828301,43.5006583 57.1,43.5 L52.62,43.5 C52.5207965,43.4982949 52.4233286,43.5261429 52.34,43.58 L48.2,46.35 L48.2,31.35 L62.82,31.35 L62.82,48 L62.82,48 Z M49.73,30.37 L49.73,26.44 C49.7317051,26.3407965 49.7038571,26.2433286 49.65,26.16 L43.65,17.16 L43.65,12.91 C43.6434836,12.4330586 43.7907545,11.9667008 44.07,11.58 C44.8077622,10.8438161 46.0022378,10.8438161 46.74,11.58 C47.0192455,11.9667008 47.1665164,12.4330586 47.16,12.91 L47.16,15.26 C47.16,15.5361424 47.3838576,15.76 47.66,15.76 C47.9361424,15.76 48.16,15.5361424 48.16,15.26 L48.16,5.14 C48.1541925,4.66316316 48.3013949,4.19702235 48.58,3.81 C49.3177622,3.07381613 50.5122378,3.07381613 51.25,3.81 C51.5292455,4.19670085 51.6765164,4.66305857 51.67,5.14 L51.67,15.26 C51.67,15.5361424 51.8938576,15.76 52.17,15.76 C52.4461424,15.76 52.67,15.5361424 52.67,15.26 L52.67,2.89 C52.6655894,2.41337082 52.8126577,1.94765459 53.09,1.56 C53.8277622,0.823816134 55.0222378,0.823816134 55.76,1.56 C56.0386051,1.94702235 56.1858075,2.41316316 56.18,2.89 L56.18,15.26 C56.18,15.5361424 56.4038576,15.76 56.68,15.76 C56.9561424,15.76 57.18,15.5361424 57.18,15.26 L57.18,5.55 C57.1748944,5.07326724 57.3220293,4.60734024 57.6,4.22 C58.3377622,3.48381613 59.5322378,3.48381613 60.27,4.22 C60.5486051,4.60702235 60.6958075,5.07316316 60.69,5.55 L60.69,15.25 C60.69,15.5261424 60.9138576,15.75 61.19,15.75 C61.4661424,15.75 61.69,15.5261424 61.69,15.25 L61.69,7.8 C61.6848944,7.32326724 61.8320293,6.85734024 62.11,6.47 C62.8564236,5.75506502 64.0335764,5.75506502 64.78,6.47 C65.0592455,6.85670085 65.2065164,7.32305857 65.2,7.8 L65.2,17.58 L61.82,28 C61.8124573,28.0497155 61.8124573,28.1002845 61.82,28.15 L61.82,30.34 L49.73,30.34 L49.73,30.37 Z" id="Shape"></path>
                <path d="M59.43,34.58 L57.18,34.58 C56.9038576,34.58 56.68,34.8038576 56.68,35.08 C56.68,35.3561424 56.9038576,35.58 57.18,35.58 L59.43,35.58 C59.7061424,35.58 59.93,35.3561424 59.93,35.08 C59.93,34.8038576 59.7061424,34.58 59.43,34.58 Z M35.07,14.22 C35.3461424,14.22 35.57,13.9961424 35.57,13.72 L35.57,11.48 C35.57,11.2038576 35.3461424,10.98 35.07,10.98 C34.7938576,10.98 34.57,11.2038576 34.57,11.48 L34.57,13.73 C34.5754457,14.0022294 34.7977162,14.2200545 35.07,14.22 L35.07,14.22 Z M10.72,35.4 L13,35.4 C13.2761424,35.4 13.5,35.1761424 13.5,34.9 C13.5,34.6238576 13.2761424,34.4 13,34.4 L10.72,34.4 C10.4438576,34.4 10.22,34.6238576 10.22,34.9 C10.22,35.1761424 10.4438576,35.4 10.72,35.4 Z M34.9,57.53 C34.6238576,57.53 34.4,57.7538576 34.4,58.03 L34.4,60.28 C34.4,60.5561424 34.6238576,60.78 34.9,60.78 C35.1761424,60.78 35.4,60.5561424 35.4,60.28 L35.4,58 C35.3841101,57.7356381 35.1648386,57.5295229 34.9,57.53 Z" id="Shape"></path>
            </g>
        </g>
    </g>
</svg>