<?xml version="1.0" encoding="UTF-8" standalone="no"?>
<svg width="80px" height="80px" viewBox="0 0 80 80" version="1.1" xmlns="http://www.w3.org/2000/svg" xmlns:xlink="http://www.w3.org/1999/xlink">
    <!-- Generator: Sketch 41 (35326) - http://www.bohemiancoding.com/sketch -->
    <title>skill-creativity</title>
    <desc>Created with Sketch.</desc>
    <defs></defs>
    <g id="All" stroke="none" stroke-width="1" fill="none" fill-rule="evenodd">
        <g id="skill-creativity" fill="#000000">
            <g id="21c-skill-icon_creativity" transform="translate(4.000000, 7.000000)">
                <path d="M70.51,57.88 L66.51,57.88 L66.51,23.88 C66.5322308,21.7630391 64.8368997,20.0274494 62.72,20 L49.86,20 L49.86,0.51 C49.86,0.233857625 49.6361424,0.01 49.36,0.01 L38.23,0.01 C37.9538576,0.01 37.73,0.233857625 37.73,0.51 L37.73,20 L32.05,20 L32.05,9.41 C32.0651763,9.34082257 32.0651763,9.26917743 32.05,9.2 L27.6,0.3 C27.5058215,0.144217886 27.3370375,0.049026021 27.155,0.049026021 C26.9729625,0.049026021 26.8041785,0.144217886 26.71,0.3 L22.2,9.19 C22.1848237,9.25917743 22.1848237,9.33082257 22.2,9.4 L22.2,20 L9.29,20 C7.16922656,20 5.45,21.7192266 5.45,23.84 L5.45,57.84 L1.45,57.84 C1.17385763,57.84 0.95,58.0638576 0.95,58.34 L0.95,60.57 C0.94012902,60.7378433 1.01527633,60.89941 1.15,61 L5.6,65.42 C5.69231523,65.5142071 5.81811537,65.5681215 5.95,65.57 L66.05,65.57 C66.1818846,65.5681215 66.3076848,65.5142071 66.4,65.42 L70.86,61 C70.9608733,60.896365 71.0119322,60.7541293 71,60.61 L71,58.38 C71.0000545,58.1077162 70.7822294,57.8854457 70.51,57.88 Z M49.86,24.38 L62.22,24.38 L62.22,54.55 L49.86,54.55 L49.86,24.38 L49.86,24.38 Z M32.05,21 L37.73,21 L37.73,23.34 L32.05,23.34 L32.05,21 L32.05,21 Z M32.05,24.34 L37.73,24.34 L37.73,54.55 L32.05,54.55 L32.05,24.38 L32.05,24.34 Z M27.05,1.59 L28,3.35 L26.24,3.35 L27.05,1.59 Z M25.74,4.35 L28.46,4.35 L30.74,8.91 L23.46,8.91 L25.74,4.35 Z M6.46,23.88 C6.44931294,23.1216093 6.74242788,22.3904532 7.27402767,21.8494612 C7.80562746,21.3084692 8.53153843,21.0025954 9.29,21 L22.15,21 L22.15,23.34 L9.29,23.34 C9.01385763,23.34 8.79,23.5638576 8.79,23.84 L8.79,55 C8.79,55.2761424 9.01385763,55.5 9.29,55.5 L22.65,55.5 C22.9261424,55.5 23.15,55.2761424 23.15,55 L23.15,9.91 L26.6,9.91 L26.6,55 C26.6,55.2761424 26.8238576,55.5 27.1,55.5 C27.3761424,55.5 27.6,55.2761424 27.6,55 L27.6,9.91 L31.05,9.91 L31.05,55 C31.05,55.2761424 31.2738576,55.5 31.55,55.5 L38.23,55.5 C38.5061424,55.5 38.73,55.2761424 38.73,55 L38.73,48.38 L41.57,48.38 C41.8461424,48.38 42.07,48.1561424 42.07,47.88 C42.07,47.6038576 41.8461424,47.38 41.57,47.38 L38.73,47.38 L38.73,42 L41.57,42 C41.8461424,42 42.07,41.7761424 42.07,41.5 C42.07,41.2238576 41.8461424,41 41.57,41 L38.73,41 L38.73,35.66 L41.57,35.66 C41.8461424,35.66 42.07,35.4361424 42.07,35.16 C42.07,34.8838576 41.8461424,34.66 41.57,34.66 L38.73,34.66 L38.73,29.3 L41.57,29.3 C41.8461424,29.3 42.07,29.0761424 42.07,28.8 C42.07,28.5238576 41.8461424,28.3 41.57,28.3 L38.73,28.3 L38.73,22.94 L41.57,22.94 C41.8461424,22.94 42.07,22.7161424 42.07,22.44 C42.07,22.1638576 41.8461424,21.94 41.57,21.94 L38.73,21.94 L38.73,16.58 L41.57,16.58 C41.8461424,16.58 42.07,16.3561424 42.07,16.08 C42.07,15.8038576 41.8461424,15.58 41.57,15.58 L38.73,15.58 L38.73,10.22 L41.57,10.22 C41.8461424,10.22 42.07,9.99614237 42.07,9.72 C42.07,9.44385763 41.8461424,9.22 41.57,9.22 L38.73,9.22 L38.73,1 L48.86,1 L48.86,55 C48.86,55.2761424 49.0838576,55.5 49.36,55.5 L62.72,55.5 C62.9961424,55.5 63.22,55.2761424 63.22,55 L63.22,23.88 C63.22,23.6038576 62.9961424,23.38 62.72,23.38 L49.86,23.38 L49.86,21 L62.72,21 C64.2884887,21 65.56,22.2715113 65.56,23.84 L65.56,57.84 L43.8,57.84 C43.6681154,57.8418785 43.5423152,57.8957929 43.45,57.99 L41.37,60.07 L30.65,60.07 L28.57,58 C28.4776848,57.9057929 28.3518846,57.8518785 28.22,57.85 L6.46,57.85 L6.46,23.85 L6.46,23.88 Z M22.15,24.38 L22.15,54.55 L9.79,54.55 L9.79,24.38 L22.15,24.38 Z M70,60.4 L65.84,64.56 L6.16,64.56 L2,60.4 L2,58.88 L28,58.88 L30.09,61 C30.1823152,61.0942071 30.3081154,61.1481215 30.44,61.15 L41.57,61.15 C41.7018846,61.1481215 41.8276848,61.0942071 41.92,61 L44,58.88 L70,58.88 L70,60.4 L70,60.4 Z" id="Shape"></path>
                <path d="M44.91,6.51 C45.1861424,6.51 45.41,6.28614237 45.41,6.01 L45.41,3.91 C45.41,3.63385763 45.1861424,3.41 44.91,3.41 C44.6338576,3.41 44.41,3.63385763 44.41,3.91 L44.41,6 C44.4073128,6.13433231 44.4588025,6.26409347 44.5528636,6.36003572 C44.6469246,6.45597796 44.7756408,6.51002687 44.91,6.51 Z" id="Shape"></path>
            </g>
        </g>
    </g>
</svg>