<?xml version="1.0" encoding="UTF-8" standalone="no"?>
<svg width="80px" height="80px" viewBox="0 0 80 80" version="1.1" xmlns="http://www.w3.org/2000/svg" xmlns:xlink="http://www.w3.org/1999/xlink">
    <!-- Generator: Sketch 41 (35326) - http://www.bohemiancoding.com/sketch -->
    <title>skill-read</title>
    <desc>Created with Sketch.</desc>
    <defs></defs>
    <g id="All" stroke="none" stroke-width="1" fill="none" fill-rule="evenodd">
        <g id="skill-read" fill="#000000">
            <g id="web-lit-icon_read" transform="translate(5.000000, 2.000000)">
                <path d="M45.62,38.21 C45.62,43.5947763 49.9852237,47.96 55.37,47.96 C60.7547763,47.96 65.12,43.5947763 65.12,38.21 C65.12,32.8252237 60.7547763,28.46 55.37,28.46 C49.9852237,28.46 45.62,32.8252237 45.62,38.21 Z M64.11,38.21 C64.11,43.0424916 60.1924916,46.96 55.36,46.96 C50.5275084,46.96 46.61,43.0424916 46.61,38.21 C46.61,33.3775084 50.5275084,29.46 55.36,29.46 C60.1902071,29.4655108 64.1044892,33.3797929 64.11,38.21 L64.11,38.21 Z" id="Shape"></path>
                <path d="M69.49,22.36 C69.7661424,22.36 69.99,22.1361424 69.99,21.86 L69.99,0.5 C69.99,0.223857625 69.7661424,1.69088438e-17 69.49,0 L0.5,0 C0.223857625,-1.69088438e-17 3.38176876e-17,0.223857625 0,0.5 L0,21.86 C3.38176876e-17,22.1361424 0.223857625,22.36 0.5,22.36 C0.776142375,22.36 1,22.1361424 1,21.86 L1,1 L10.43,1 L10.43,34.3 C10.43,34.5761424 10.6538576,34.8 10.93,34.8 L41.15,34.8 C39.3590037,42.0932815 43.4210133,49.5496918 50.52,52 L50.52,71.9 C50.4389545,73.6834628 51.3442715,75.3672538 52.8767007,76.2832061 C54.4091298,77.1991585 56.3208702,77.1991585 57.8532993,76.2832061 C59.3857285,75.3672538 60.2910455,73.6834628 60.21,71.9 L60.21,52 C66.1601954,49.9232614 70.1081059,44.2651121 70.0036138,37.9637829 C69.8991216,31.6624537 65.7657802,26.1383122 59.75,24.26 L59.75,1 L69,1 L69,21.86 C68.9999455,22.1322838 69.2177706,22.3545543 69.49,22.36 Z M59.21,71.89 C59.2824646,73.3104719 58.5658723,74.6551791 57.3463677,75.3871627 C56.1268631,76.1191464 54.6031369,76.1191464 53.3836323,75.3871627 C52.1641277,74.6551791 51.4475354,73.3104719 51.52,71.89 L51.52,52.3 C54.0346138,53.00678 56.6953862,53.00678 59.21,52.3 L59.21,71.89 L59.21,71.89 Z M69,38.21 C68.999998,45.7363389 62.8996696,51.8381566 55.3733309,51.8399959 C47.8469922,51.8418352 41.7436822,45.7429998 41.7400016,38.2166618 C41.736321,30.6903237 47.8336631,24.5855219 55.36,24.58 C62.8892605,24.579998 68.99448,30.6807416 69,38.21 L69,38.21 Z M58.75,24 C56.6247647,23.4763736 54.4075146,23.4490001 52.27,23.92 L52.27,23.82 C52.27,23.5438576 52.0461424,23.32 51.77,23.32 C51.4938576,23.32 51.27,23.5438576 51.27,23.82 L51.27,24.18 C49.1570208,24.8005917 47.2118071,25.8911421 45.58,27.37 L45.58,14.07 C45.58,13.7938576 45.3561424,13.57 45.08,13.57 C44.8038576,13.57 44.58,13.7938576 44.58,14.07 L44.58,28.29 C44.5786943,28.3099787 44.5786943,28.3300213 44.58,28.35 C43.1319128,29.9220668 42.0463906,31.7927151 41.4,33.83 C41.3470269,33.8212337 41.2929731,33.8212337 41.24,33.83 L11.43,33.83 L11.43,1 L58.75,1 L58.75,24 Z M44.27,71.7 L1,71.7 L1,27.07 C1,26.7938576 0.776142375,26.57 0.5,26.57 C0.223857625,26.57 3.38176876e-17,26.7938576 0,27.07 L0,72.2 C3.38176876e-17,72.4761424 0.223857625,72.7 0.5,72.7 L44.27,72.7 C44.5461424,72.7 44.77,72.4761424 44.77,72.2 C44.77,71.9238576 44.5461424,71.7 44.27,71.7 Z" id="Shape"></path>
                <path d="M18.32,10 C18.5961424,10 18.82,9.77614237 18.82,9.5 L18.82,6.87 C18.82,6.59385763 18.5961424,6.37 18.32,6.37 C18.0438576,6.37 17.82,6.59385763 17.82,6.87 L17.82,9.49 C17.8173128,9.62433231 17.8688025,9.75409347 17.9628636,9.85003572 C18.0569246,9.94597796 18.1856408,10.0000269 18.32,10 L18.32,10 Z M18.32,29.16 C18.5961424,29.16 18.82,28.9361424 18.82,28.66 L18.82,13.14 C18.82,12.8638576 18.5961424,12.64 18.32,12.64 C18.0438576,12.64 17.82,12.8638576 17.82,13.14 L17.82,28.66 C17.82,28.9361424 18.0438576,29.16 18.32,29.16 Z M25,29.16 C25.2761424,29.16 25.5,28.9361424 25.5,28.66 L25.5,26 C25.5,25.7238576 25.2761424,25.5 25,25.5 C24.7238576,25.5 24.5,25.7238576 24.5,26 L24.5,28.62 C24.4888121,28.7593912 24.5365088,28.8970979 24.6315169,28.9997066 C24.726525,29.1023153 24.8601612,29.1604483 25,29.16 Z M25,22 C25.2761424,22 25.5,21.7761424 25.5,21.5 L25.5,6.87 C25.5,6.59385763 25.2761424,6.37 25,6.37 C24.7238576,6.37 24.5,6.59385763 24.5,6.87 L24.5,21.46 C24.4888121,21.5993912 24.5365088,21.7370979 24.6315169,21.8397066 C24.726525,21.9423153 24.8601612,22.0004483 25,22 Z M11,59.45 L38.39,59.45 C38.6661424,59.45 38.89,59.2261424 38.89,58.95 C38.89,58.6738576 38.6661424,58.45 38.39,58.45 L11,58.45 C10.7238576,58.45 10.5,58.6738576 10.5,58.95 C10.5,59.2261424 10.7238576,59.45 11,59.45 Z M11,64.7 L26.68,64.7 C26.9561424,64.7 27.18,64.4761424 27.18,64.2 C27.18,63.9238576 26.9561424,63.7 26.68,63.7 L11,63.7 C10.7238576,63.7 10.5,63.9238576 10.5,64.2 C10.5,64.4761424 10.7238576,64.7 11,64.7 Z M11.54,53.35 L31.2,53.35 C31.4652165,53.35 31.7195704,53.2446432 31.9071068,53.0571068 C32.0946432,52.8695704 32.2,52.6152165 32.2,52.35 L32.2,41.06 C32.2,40.5077153 31.7522847,40.06 31.2,40.06 L11.54,40.06 C10.9877153,40.06 10.54,40.5077153 10.54,41.06 L10.54,52.35 C10.54,52.9022847 10.9877153,53.35 11.54,53.35 Z M11.54,41.06 L31.2,41.06 L31.2,52.35 L11.54,52.35 L11.54,41.06 Z M31.7,12.21 C31.8326082,12.21 31.9597852,12.1573216 32.0535534,12.0635534 C32.1473216,11.9697852 32.2,11.8426082 32.2,11.71 L32.2,6.87 C32.2,6.59385763 31.9761424,6.37 31.7,6.37 C31.4238576,6.37 31.2,6.59385763 31.2,6.87 L31.2,11.71 C31.2,11.9861424 31.4238576,12.21 31.7,12.21 L31.7,12.21 Z M31.7,29.16 C31.8326082,29.16 31.9597852,29.1073216 32.0535534,29.0135534 C32.1473216,28.9197852 32.2,28.7926082 32.2,28.66 L32.2,23.82 C32.2,23.5438576 31.9761424,23.32 31.7,23.32 C31.4238576,23.32 31.2,23.5438576 31.2,23.82 L31.2,28.66 C31.2,28.9361424 31.4238576,29.16 31.7,29.16 L31.7,29.16 Z M31.7,20.32 C31.8326082,20.32 31.9597852,20.2673216 32.0535534,20.1735534 C32.1473216,20.0797852 32.2,19.9526082 32.2,19.82 L32.2,15 C32.2,14.7238576 31.9761424,14.5 31.7,14.5 C31.4238576,14.5 31.2,14.7238576 31.2,15 L31.2,19.84 C31.2107406,20.108302 31.4314832,20.3202149 31.7,20.32 L31.7,20.32 Z M69.49,67.14 C69.2138576,67.14 68.99,67.3638576 68.99,67.64 L68.99,71.73 L65.11,71.73 C64.8338576,71.73 64.61,71.9538576 64.61,72.23 C64.61,72.5061424 64.8338576,72.73 65.11,72.73 L69.49,72.73 C69.7661424,72.73 69.99,72.5061424 69.99,72.23 L69.99,67.64 C69.99,67.3638576 69.7661424,67.14 69.49,67.14 Z M69.49,51.39 C69.2138576,51.39 68.99,51.6138576 68.99,51.89 L68.99,61.89 C68.99,62.1661424 69.2138576,62.39 69.49,62.39 C69.7661424,62.39 69.99,62.1661424 69.99,61.89 L69.99,51.89 C69.99,51.6138576 69.7661424,51.39 69.49,51.39 Z M38.39,29.16 C38.6661424,29.16 38.89,28.9361424 38.89,28.66 L38.89,26 C38.89,25.7238576 38.6661424,25.5 38.39,25.5 C38.1138576,25.5 37.89,25.7238576 37.89,26 L37.89,28.62 C37.8788121,28.7593912 37.9265088,28.8970979 38.0215169,28.9997066 C38.116525,29.1023153 38.2501612,29.1604483 38.39,29.16 Z M38.39,22.9 C38.6661424,22.9 38.89,22.6761424 38.89,22.4 L38.89,6.87 C38.89,6.59385763 38.6661424,6.37 38.39,6.37 C38.1138576,6.37 37.89,6.59385763 37.89,6.87 L37.89,22.4 C37.89,22.6761424 38.1138576,22.9 38.39,22.9 Z M45.08,10 C45.3561424,10 45.58,9.77614237 45.58,9.5 L45.58,6.87 C45.58,6.59385763 45.3561424,6.37 45.08,6.37 C44.8038576,6.37 44.58,6.59385763 44.58,6.87 L44.58,9.49 C44.5773128,9.62433231 44.6288025,9.75409347 44.7228636,9.85003572 C44.8169246,9.94597796 44.9456408,10.0000269 45.08,10 L45.08,10 Z M51.77,12.21 C52.0461424,12.21 52.27,11.9861424 52.27,11.71 L52.27,6.87 C52.27,6.59385763 52.0461424,6.37 51.77,6.37 C51.4938576,6.37 51.27,6.59385763 51.27,6.87 L51.27,11.71 C51.27,11.9861424 51.4938576,12.21 51.77,12.21 Z M51.77,21 C52.0461424,21 52.27,20.7761424 52.27,20.5 L52.27,15.71 C52.27,15.4338576 52.0461424,15.21 51.77,15.21 C51.4938576,15.21 51.27,15.4338576 51.27,15.71 L51.27,20.55 C51.295771,20.8064506 51.512261,21.0012916 51.77,21 Z" id="Shape"></path>
            </g>
        </g>
    </g>
</svg>