<?xml version="1.0" encoding="UTF-8" standalone="no"?>
<svg width="80px" height="80px" viewBox="0 0 80 80" version="1.1" xmlns="http://www.w3.org/2000/svg" xmlns:xlink="http://www.w3.org/1999/xlink">
    <!-- Generator: Sketch 41 (35326) - http://www.bohemiancoding.com/sketch -->
    <title>skill-communication</title>
    <desc>Created with Sketch.</desc>
    <defs></defs>
    <g id="All" stroke="none" stroke-width="1" fill="none" fill-rule="evenodd">
        <g id="skill-communication" fill="#000000">
            <g id="21c-skill-icon_communication" transform="translate(5.000000, 15.000000)">
                <path d="M67.26,18.92 C66.0056696,18.921676 64.9151357,19.7808846 64.62,21 L28.47,9.87 L7.64,3.46 C7.43216416,1.43348948 5.67434787,-0.0757205542 3.63972273,0.0254780782 C1.6050976,0.126676711 0.00571747619,1.80286772 0,3.84 L0,46.12 C0.00571747619,48.1571323 1.6050976,49.8333233 3.63972273,49.9345219 C5.67434787,50.0357206 7.43216416,48.5265105 7.64,46.5 L28.47,40.09 L34.2,38.33 C36.5278942,44.6892991 43.427062,48.1129437 49.8993524,46.1206502 C56.3716428,44.1283567 60.1512453,37.4175844 58.5,30.85 L64.62,29 C64.9091036,30.3886362 66.2167641,31.3219979 67.6239798,31.1441342 C69.0311955,30.9662705 70.0654993,29.7368985 70,28.32 L70,21.64 C69.9973527,20.9159575 69.7071865,20.222622 69.1933358,19.712522 C68.6794851,19.202422 67.9840425,18.917343 67.26,18.92 L67.26,18.92 Z M6.68,46.12 C6.68,47.6884887 5.40848869,48.96 3.84,48.96 C2.27151131,48.96 1,47.6884887 1,46.12 L1,3.84 C1,2.27151131 2.27151131,1 3.84,1 C5.40848869,1 6.68,2.27151131 6.68,3.84 L6.68,46.12 Z M27.82,39.25 L7.68,45.44 L7.68,4.52 L27.82,10.72 L27.82,39.25 Z M46.12,45.62 C41.230388,45.6377267 36.8444965,42.6154488 35.12,38.04 L38.44,37.04 C40.0300562,41.0420101 44.4279316,43.1509533 48.5440448,41.8852616 C52.6601581,40.6195698 55.1132577,36.4039736 54.18,32.2 L57.48,31.2 C58.328311,34.6819028 57.5283197,38.3604949 55.3105812,41.1756173 C53.0928426,43.9907397 49.703739,45.6296429 46.12,45.62 L46.12,45.62 Z M39.43,36.72 L53.26,32.47 C53.997748,36.1322685 51.8397247,39.7575561 48.268699,40.8549429 C44.6976733,41.9523297 40.8762011,40.1645587 39.43,36.72 L39.43,36.72 Z M64.54,27.95 L28.82,38.95 L28.82,11 L64.53,22 L64.53,27.94 L64.54,27.95 Z M69,28.32 C68.9312841,29.2218561 68.1794701,29.9185656 67.275,29.9185656 C66.3705299,29.9185656 65.6187159,29.2218561 65.55,28.32 L65.55,21.64 C65.6187159,20.7381439 66.3705299,20.0414344 67.275,20.0414344 C68.1794701,20.0414344 68.9312841,20.7381439 69,21.64 L69,28.32 L69,28.32 Z" id="Shape"></path>
                <path d="M21.76,25.48 L23.76,25.48 C24.0361424,25.48 24.26,25.2561424 24.26,24.98 C24.26,24.7038576 24.0361424,24.48 23.76,24.48 L21.76,24.48 C21.4838576,24.48 21.26,24.7038576 21.26,24.98 C21.26,25.2561424 21.4838576,25.48 21.76,25.48 Z M17.31,25.48 L19.31,25.48 C19.5861424,25.48 19.81,25.2561424 19.81,24.98 C19.81,24.7038576 19.5861424,24.48 19.31,24.48 L17.31,24.48 C17.0338576,24.48 16.81,24.7038576 16.81,24.98 C16.81,25.2561424 17.0338576,25.48 17.31,25.48 Z M12.86,25.48 L14.86,25.48 C15.1361424,25.48 15.36,25.2561424 15.36,24.98 C15.36,24.7038576 15.1361424,24.48 14.86,24.48 L12.86,24.48 C12.5838576,24.48 12.36,24.7038576 12.36,24.98 C12.36,25.2561424 12.5838576,25.48 12.86,25.48 Z" id="Shape"></path>
            </g>
        </g>
    </g>
</svg>