<?xml version="1.0" encoding="UTF-8" standalone="no"?>
<svg width="80px" height="80px" viewBox="0 0 80 80" version="1.1" xmlns="http://www.w3.org/2000/svg" xmlns:xlink="http://www.w3.org/1999/xlink">
    <!-- Generator: Sketch 41 (35326) - http://www.bohemiancoding.com/sketch -->
    <title>skill-write</title>
    <desc>Created with Sketch.</desc>
    <defs></defs>
    <g id="All" stroke="none" stroke-width="1" fill="none" fill-rule="evenodd">
        <g id="skill-write" fill="#000000">
            <g id="web-lit-icon_write" transform="translate(5.000000, 4.000000)">
                <path d="M69.49,9.79 L40.65,9.79 L40.65,4.69 C40.6608426,3.61277028 40.2602679,2.57199133 39.53,1.78 C38.3054313,0.646278823 36.6640192,0.0737774728 35,0.2 C33.3359808,0.0737774728 31.6945687,0.646278823 30.47,1.78 C29.7412372,2.56892399 29.3406994,3.60603085 29.35,4.68 L29.35,9.79 L0.5,9.79 C0.223857625,9.79 3.38176876e-17,10.0138576 0,10.29 L0,58.08 C3.38176876e-17,58.3561424 0.223857625,58.58 0.5,58.58 L2.81,58.58 L2.81,61.74 C2.81,62.0161424 3.03385763,62.24 3.31,62.24 L29.53,62.24 L34.53,72.24 C34.615548,72.4069831 34.7873785,72.5120197 34.975,72.5120197 C35.1626215,72.5120197 35.334452,72.4069831 35.42,72.24 L40.42,62.24 L66.67,62.24 C66.9461424,62.24 67.17,62.0161424 67.17,61.74 L67.17,58.58 L69.48,58.58 C69.7561424,58.58 69.98,58.3561424 69.98,58.08 L69.98,10.29 C69.9800545,10.0177162 69.7622294,9.79544567 69.49,9.79 L69.49,9.79 Z M31.2,2.45 C32.2405994,1.52801919 33.6152703,1.07582483 35,1.2 C36.3813718,1.07864164 37.7518689,1.53065256 38.79,2.45 C39.3444092,3.04905104 39.6547365,3.83378681 39.66,4.65 L39.66,6.7 L30.33,6.7 L30.33,4.65 C30.3352635,3.83378681 30.6455908,3.04905104 31.2,2.45 L31.2,2.45 Z M30.33,7.7 L39.65,7.7 L39.65,9.79 L30.33,9.79 L30.33,7.7 Z M39.65,61.24 L35.49,61.24 L35.49,10.79 L39.65,10.79 L39.65,61.24 L39.65,61.24 Z M30.33,10.79 L34.49,10.79 L34.49,61.24 L30.33,61.24 L30.33,10.79 L30.33,10.79 Z M1,10.79 L29.33,10.79 L29.33,57.58 L1,57.58 L1,10.79 Z M3.81,58.58 L29.33,58.58 L29.33,61.24 L3.81,61.24 L3.81,58.58 Z M35,70.94 L33.87,68.69 L36.12,68.69 L35,70.94 Z M36.63,67.69 L33.37,67.69 L30.65,62.24 L39.35,62.24 L36.63,67.69 Z M66.19,58.58 L66.19,61.24 L40.65,61.24 L40.65,58.58 L66.17,58.58 L66.19,58.58 Z M69,57.58 L40.65,57.58 L40.65,10.79 L69,10.79 L69,57.58 Z" id="Shape"></path>
                <path d="M4.64,15.19 L7.06,15.19 C7.33614237,15.19 7.56,14.9661424 7.56,14.69 C7.56,14.4138576 7.33614237,14.19 7.06,14.19 L4.64,14.19 C4.36385763,14.19 4.14,14.4138576 4.14,14.69 C4.14,14.9661424 4.36385763,15.19 4.64,15.19 Z M46.8,36.55 L58.91,36.55 C59.1861424,36.55 59.41,36.3261424 59.41,36.05 C59.41,35.7738576 59.1861424,35.55 58.91,35.55 L46.8,35.55 C46.5238576,35.55 46.3,35.7738576 46.3,36.05 C46.3,36.3261424 46.5238576,36.55 46.8,36.55 Z M9.79,15.19 L23.33,15.19 C23.6061424,15.19 23.83,14.9661424 23.83,14.69 C23.83,14.4138576 23.6061424,14.19 23.33,14.19 L9.79,14.19 C9.51385763,14.19 9.29,14.4138576 9.29,14.69 C9.29,14.9661424 9.51385763,15.19 9.79,15.19 Z M23.33,44.32 L4.64,44.32 C4.36385763,44.32 4.14,44.5438576 4.14,44.82 C4.14,45.0961424 4.36385763,45.32 4.64,45.32 L23.34,45.32 C23.6161424,45.3172386 23.8377614,45.0911424 23.835,44.815 C23.8322386,44.5388576 23.6061424,44.3172386 23.33,44.32 Z M4.64,19.37 L23.34,19.37 C23.6161424,19.37 23.84,19.1461424 23.84,18.87 C23.84,18.5938576 23.6161424,18.37 23.34,18.37 L4.64,18.37 C4.36385763,18.37 4.14,18.5938576 4.14,18.87 C4.14,19.1461424 4.36385763,19.37 4.64,19.37 Z M18.33,48.9 L4.64,48.9 C4.36385763,48.9 4.14,49.1238576 4.14,49.4 C4.14,49.6761424 4.36385763,49.9 4.64,49.9 L18.34,49.9 C18.6161424,49.8972386 18.8377614,49.6711424 18.835,49.395 C18.8322386,49.1188576 18.6061424,48.8972386 18.33,48.9 L18.33,48.9 Z M65.5,48.9 L46.8,48.9 C46.5238576,48.9 46.3,49.1238576 46.3,49.4 C46.3,49.6761424 46.5238576,49.9 46.8,49.9 L65.5,49.9 C65.7761424,49.9 66,49.6761424 66,49.4 C66,49.1238576 65.7761424,48.9 65.5,48.9 Z M65.5,44.32 L52.33,44.32 C52.0538576,44.32 51.83,44.5438576 51.83,44.82 C51.83,45.0961424 52.0538576,45.32 52.33,45.32 L65.5,45.32 C65.7761424,45.32 66,45.0961424 66,44.82 C66,44.5438576 65.7761424,44.32 65.5,44.32 Z M65.5,53.48 L46.8,53.48 C46.5238576,53.48 46.3,53.7038576 46.3,53.98 C46.3,54.2561424 46.5238576,54.48 46.8,54.48 L65.5,54.48 C65.7761424,54.48 66,54.2561424 66,53.98 C66,53.7038576 65.7761424,53.48 65.5,53.48 Z M22.88,26.93 L5.16,26.93 C4.60771525,26.93 4.16,27.3777153 4.16,27.93 L4.16,40.7 C4.16,41.2522847 4.60771525,41.7 5.16,41.7 L22.88,41.7 C23.4322847,41.7 23.88,41.2522847 23.88,40.7 L23.88,27.93 C23.88,27.3777153 23.4322847,26.93 22.88,26.93 Z M22.88,40.7 L5.16,40.7 L5.16,27.93 L22.88,27.93 L22.88,40.7 Z M47.29,32.75 L65,32.75 C65.5522847,32.75 66,32.3022847 66,31.75 L66,15.07 C66,14.5177153 65.5522847,14.07 65,14.07 L47.29,14.07 C46.7377153,14.07 46.29,14.5177153 46.29,15.07 L46.29,31.75 C46.29,32.3022847 46.7377153,32.75 47.29,32.75 Z M47.29,15.07 L65,15.07 L65,31.75 L47.29,31.75 L47.29,15.07 Z" id="Shape"></path>
            </g>
        </g>
    </g>
</svg>