<?xml version="1.0" encoding="UTF-8" standalone="no"?>
<svg width="26px" height="26px" viewBox="0 0 26 26" version="1.1" xmlns="http://www.w3.org/2000/svg" xmlns:xlink="http://www.w3.org/1999/xlink">
    <!-- Generator: Sketch 3.7.1 (28215) - http://www.bohemiancoding.com/sketch -->
    <title>speech-bubble</title>
    <desc>Created with Sketch.</desc>
    <defs></defs>
    <g id="Icons" stroke="none" stroke-width="1" fill="none" fill-rule="evenodd">
        <g id="speech-bubble" fill="#000000">
            <g id="Group" transform="translate(4.000000, 4.000000)">
                <path d="M9,0 C4,0 0,4 0,9 C0,14 4,18 9,18 C14,18 18,14 18,9 C18,4 14,0 9,0 L9,0 Z M13.4,10.4 C12.9,11 12.3,11.4 11.5,11.7 C10.7,12 9.9,12.2 8.9,12.2 C8.5,12.2 8.1,12.2 7.6,12.1 C7,12.5 6.3,12.8 5.6,13 C5.4,13 5.2,13.1 5,13.1 L5,13.1 C4.9,13.1 4.9,13.1 4.9,13 C4.9,13 4.8,12.9 4.8,12.8 L4.8,12.8 L4.8,12.8 L4.8,12.8 L4.8,12.8 L4.8,12.8 L4.8,12.8 L4.8,12.8 L4.8,12.8 C4.8,12.8 4.9,12.7 5,12.6 C5.1,12.5 5.1,12.4 5.2,12.4 C5.2,12.3 5.3,12.3 5.4,12.2 C5.5,12.1 5.5,12 5.6,11.9 C5.7,11.8 5.7,11.7 5.7,11.6 C5.1,11.3 4.6,10.8 4.3,10.3 C4,9.8 3.8,9.3 3.8,8.7 C3.8,8 4,7.4 4.5,6.8 C5,6.2 5.6,5.8 6.4,5.5 C7.2,5 8.1,4.8 9,4.8 C9.9,4.8 10.8,5 11.6,5.3 C12.4,5.6 13,6.1 13.5,6.6 C14,7.2 14.2,7.8 14.2,8.5 C14.2,9.2 13.9,9.8 13.4,10.4 L13.4,10.4 Z" id="Shape"></path>
            </g>
        </g>
    </g>
</svg>