<?xml version="1.0" encoding="UTF-8" standalone="no"?>
<svg width="18px" height="18px" viewBox="0 0 18 18" version="1.1" xmlns="http://www.w3.org/2000/svg" xmlns:xlink="http://www.w3.org/1999/xlink">
    <!-- Generator: Sketch 41 (35326) - http://www.bohemiancoding.com/sketch -->
    <title>sun</title>
    <desc>Created with Sketch.</desc>
    <defs></defs>
    <g id="All" stroke="none" stroke-width="1" fill="none" fill-rule="evenodd">
        <g id="sun" fill="#000000">
            <path d="M2,8.6767037 L4.65297942,8.6767037 L4.65297942,9.4732963 L2,9.4732963 L2,8.6767037 Z M4.83116461,4.03340741 L6.33351029,5.49266255 L5.80361317,6.02372428 L4.30010288,4.52021399 L4.83116461,4.03340741 L4.83116461,4.03340741 Z M4.30010288,13.32 L5.80361317,11.8164897 L6.28925514,12.3463868 L4.83116461,13.8498971 L4.30010288,13.32 L4.30010288,13.32 Z M11.4636132,11.4624486 C10.8149259,12.1099712 10.0183333,12.4360617 9.075,12.4360617 C8.13166667,12.4360617 7.33623868,12.1099712 6.68755144,11.4624486 C6.0388642,10.8149259 5.71510288,10.0194979 5.71510288,9.075 C5.71510288,8.13050206 6.0388642,7.33507407 6.68755144,6.68755144 C7.33623868,6.0388642 8.13166667,5.71393827 9.075,5.71393827 C10.0183333,5.71393827 10.8149259,6.0388642 11.4636132,6.68755144 C12.1111358,7.33507407 12.4360617,8.13050206 12.4360617,9.075 C12.4360617,10.0194979 12.1111358,10.8149259 11.4636132,11.4624486 L11.4636132,11.4624486 Z M8.67786831,2 L9.4732963,2 L9.4732963,4.47712346 L8.67786831,4.47712346 L8.67786831,2 Z M8.67786831,13.4970206 L9.4732963,13.4970206 L9.4732963,16.15 L8.67786831,16.15 L8.67786831,13.4970206 Z M12.1274403,5.5369177 L13.5866955,4.03340741 L14.1165926,4.56446914 L12.6130823,6.02372428 L12.1274403,5.5369177 L12.1274403,5.5369177 Z M12.6130823,11.8164897 L14.1165926,13.32 L13.5866955,13.8498971 L12.1274403,12.3463868 L12.6130823,11.8164897 L12.6130823,11.8164897 Z M13.6740412,8.6767037 L16.15,8.6767037 L16.15,9.4732963 L13.6740412,9.4732963 L13.6740412,8.6767037 Z" id="Imported-Layers"></path>
        </g>
    </g>
</svg>