<?xml version="1.0" encoding="UTF-8" standalone="no"?>
<svg width="18px" height="18px" viewBox="0 0 18 18" version="1.1" xmlns="http://www.w3.org/2000/svg" xmlns:xlink="http://www.w3.org/1999/xlink">
    <!-- Generator: Sketch 41 (35326) - http://www.bohemiancoding.com/sketch -->
    <title>trash-can</title>
    <desc>Created with Sketch.</desc>
    <defs></defs>
    <g id="All" stroke="none" stroke-width="1" fill="none" fill-rule="evenodd">
        <g id="trash-can" fill="#000000">
            <g id="garbage-can" transform="translate(2.333333, 1.000000)">
                <g id="Icons">
                    <g>
                        <g id="garbage-can">
                            <path d="M11.188,4.75333333 L2.21866667,4.75333333 C1.92666667,4.75333333 1.74533333,4.78933333 1.672,4.86266667 C1.59866667,4.936 1.57466667,5.08133333 1.59866667,5.3 L2.292,14.124 C2.34,14.3666667 2.38933333,14.5186667 2.43733333,14.58 C2.48533333,14.64 2.644,14.6706667 2.912,14.6706667 L10.4946667,14.6706667 C10.6653333,14.6706667 10.792,14.652 10.8773333,14.616 C10.9626667,14.58 11.0173333,14.5306667 11.0413333,14.4693333 C11.0653333,14.4093333 11.0906667,14.2946667 11.1146667,14.124 L11.808,5.3 C11.832,5.05866667 11.808,4.90666667 11.7346667,4.84533333 C11.6613333,4.784 11.48,4.75333333 11.188,4.75333333" id="Fill-1"></path>
                            <path d="M12.3173333,2.676 C12.2453333,2.48133333 12.0133333,2.348 11.6253333,2.27466667 L9.69333333,2.056 C9.52266667,2.032 9.40133333,1.94666667 9.328,1.8 C9.28,1.704 9.22533333,1.576 9.164,1.41866667 C9.10266667,1.26 9.05466667,1.15066667 9.01866667,1.08933333 C8.98133333,1.02933333 8.93866667,0.956 8.89066667,0.870666667 C8.84133333,0.786666667 8.79333333,0.732 8.74533333,0.706666667 C8.696,0.682666667 8.636,0.670666667 8.56266667,0.670666667 L4.808,0.670666667 C4.73466667,0.670666667 4.67333333,0.682666667 4.62533333,0.706666667 C4.576,0.732 4.528,0.78 4.48,0.852 C4.43066667,0.925333333 4.39466667,0.998666667 4.36933333,1.07066667 C4.34533333,1.144 4.30266667,1.25333333 4.24266667,1.4 C4.18133333,1.54533333 4.12666667,1.68 4.07866667,1.8 C4.00533333,1.94666667 3.884,2.032 3.71333333,2.056 L1.78133333,2.31066667 C1.392,2.384 1.16133333,2.51866667 1.08933333,2.712 L0.942666667,3.18666667 C0.894666667,3.40533333 0.876,3.52666667 0.888,3.55066667 C0.9,3.576 1.004,3.58666667 1.19866667,3.58666667 L12.208,3.58666667 C12.2813333,3.58666667 12.3653333,3.45333333 12.464,3.18666667 C12.4146667,2.968 12.3653333,2.79733333 12.3173333,2.676" id="Fill-2"></path>
                        </g>
                    </g>
                </g>
            </g>
        </g>
    </g>
</svg>