<?xml version="1.0" encoding="UTF-8" standalone="no"?>
<svg width="18px" height="18px" viewBox="0 0 18 18" version="1.1" xmlns="http://www.w3.org/2000/svg" xmlns:xlink="http://www.w3.org/1999/xlink">
    <!-- Generator: Sketch 41 (35326) - http://www.bohemiancoding.com/sketch -->
    <title>twitter</title>
    <desc>Created with Sketch.</desc>
    <defs></defs>
    <g id="All" stroke="none" stroke-width="1" fill="none" fill-rule="evenodd">
        <g id="twitter" fill="#000000">
            <path d="M13.0506037,7.11306681 C13.0573652,7.2038637 13.0573652,7.29369466 13.0573652,7.38449155 C13.0573652,10.1480011 10.9545479,13.3307218 7.11113496,13.3307218 C5.92691173,13.3307218 4.82672391,12.9887845 3.90136839,12.3928092 C4.06943923,12.4121277 4.23171452,12.4188892 4.40654682,12.4188892 C5.38406225,12.4188892 6.28237188,12.0885431 7.00005366,11.5254092 C6.08145962,11.5060907 5.31161792,10.9043198 5.04695466,10.0765227 C5.17638852,10.0958412 5.30485645,10.1093641 5.44105178,10.1093641 C5.62844111,10.1093641 5.81679635,10.0832841 5.99066273,10.0378857 C5.03343171,9.84373491 4.31574993,9.00241481 4.31574993,7.98626241 L4.31574993,7.96018245 C4.59393614,8.11666219 4.91752079,8.21325463 5.26042393,8.22581164 C4.69825597,7.851033 4.32927287,7.21062517 4.32927287,6.48618192 C4.32927287,6.09691441 4.43166085,5.74145425 4.61325463,5.43042662 C5.64196405,6.69868527 7.18840891,7.52744835 8.92320902,7.61727931 C8.88940166,7.46273142 8.8710491,7.30045613 8.8710491,7.13914677 C8.8710491,5.98679903 9.80316609,5.0488865 10.9603434,5.0488865 C11.5621143,5.0488865 12.1059297,5.30195868 12.4874698,5.70861283 C12.9598068,5.61878186 13.4128253,5.44394956 13.8136839,5.20440032 C13.659136,5.68929434 13.3287899,6.09691441 12.8950899,6.35578213 C13.315267,6.31038369 13.722887,6.19447277 14.0986316,6.03219748 C13.8136839,6.44657902 13.4582238,6.81556211 13.0506037,7.11306681 M9.00048296,0 C4.02983633,0 0,4.02983633 0,9.00048296 C0,13.9701637 4.02983633,18 9.00048296,18 C13.9711296,18 18,13.9701637 18,9.00048296 C18,4.02983633 13.9711296,0 9.00048296,0" id="Fill-1"></path>
        </g>
    </g>
</svg>