<?xml version="1.0" encoding="UTF-8" standalone="no"?>
<svg width="26px" height="26px" viewBox="0 0 26 26" version="1.1" xmlns="http://www.w3.org/2000/svg" xmlns:xlink="http://www.w3.org/1999/xlink">
    <!-- Generator: Sketch 41 (35326) - http://www.bohemiancoding.com/sketch -->
    <title>twitter</title>
    <desc>Created with Sketch.</desc>
    <defs></defs>
    <g id="All" stroke="none" stroke-width="1" fill="none" fill-rule="evenodd">
        <g id="twitter" fill="#000000">
            <path d="M17.0506037,11.1130668 C17.0573652,11.2038637 17.0573652,11.2936947 17.0573652,11.3844915 C17.0573652,14.1480011 14.9545479,17.3307218 11.111135,17.3307218 C9.92691173,17.3307218 8.82672391,16.9887845 7.90136839,16.3928092 C8.06943923,16.4121277 8.23171452,16.4188892 8.40654682,16.4188892 C9.38406225,16.4188892 10.2823719,16.0885431 11.0000537,15.5254092 C10.0814596,15.5060907 9.31161792,14.9043198 9.04695466,14.0765227 C9.17638852,14.0958412 9.30485645,14.1093641 9.44105178,14.1093641 C9.62844111,14.1093641 9.81679635,14.0832841 9.99066273,14.0378857 C9.03343171,13.8437349 8.31574993,13.0024148 8.31574993,11.9862624 L8.31574993,11.9601825 C8.59393614,12.1166622 8.91752079,12.2132546 9.26042393,12.2258116 C8.69825597,11.851033 8.32927287,11.2106252 8.32927287,10.4861819 C8.32927287,10.0969144 8.43166085,9.74145425 8.61325463,9.43042662 C9.64196405,10.6986853 11.1884089,11.5274483 12.923209,11.6172793 C12.8894017,11.4627314 12.8710491,11.3004561 12.8710491,11.1391468 C12.8710491,9.98679903 13.8031661,9.0488865 14.9603434,9.0488865 C15.5621143,9.0488865 16.1059297,9.30195868 16.4874698,9.70861283 C16.9598068,9.61878186 17.4128253,9.44394956 17.8136839,9.20440032 C17.659136,9.68929434 17.3287899,10.0969144 16.8950899,10.3557821 C17.315267,10.3103837 17.722887,10.1944728 18.0986316,10.0321975 C17.8136839,10.446579 17.4582238,10.8155621 17.0506037,11.1130668 M13.000483,4 C8.02983633,4 4,8.02983633 4,13.000483 C4,17.9701637 8.02983633,22 13.000483,22 C17.9711296,22 22,17.9701637 22,13.000483 C22,8.02983633 17.9711296,4 13.000483,4" id="Fill-1"></path>
        </g>
    </g>
</svg>