<?xml version="1.0" encoding="UTF-8" standalone="no"?>
<svg width="26px" height="26px" viewBox="0 0 26 26" version="1.1" xmlns="http://www.w3.org/2000/svg" xmlns:xlink="http://www.w3.org/1999/xlink">
    <!-- Generator: Sketch 3.7.1 (28215) - http://www.bohemiancoding.com/sketch -->
    <title>twitter</title>
    <desc>Created with Sketch.</desc>
    <defs></defs>
    <g id="Icons" stroke="none" stroke-width="1" fill="none" fill-rule="evenodd">
        <g id="twitter" fill="#000000">
            <path d="M17.1935,10.8636 C17.2005,10.9576 17.2005,11.0506 17.2005,11.1446 C17.2005,14.0056 15.0235,17.3006 11.0445,17.3006 C9.8185,17.3006 8.6795,16.9466 7.7215,16.3296 C7.8955,16.3496 8.0635,16.3566 8.2445,16.3566 C9.2565,16.3566 10.1865,16.0146 10.9295,15.4316 C9.9785,15.4116 9.1815,14.7886 8.9075,13.9316 C9.0415,13.9516 9.1745,13.9656 9.3155,13.9656 C9.5095,13.9656 9.7045,13.9386 9.8845,13.8916 C8.8935,13.6906 8.1505,12.8196 8.1505,11.7676 L8.1505,11.7406 C8.4385,11.9026 8.7735,12.0026 9.1285,12.0156 C8.5465,11.6276 8.1645,10.9646 8.1645,10.2146 C8.1645,9.8116 8.2705,9.4436 8.4585,9.1216 C9.5235,10.4346 11.1245,11.2926 12.9205,11.3856 C12.8855,11.2256 12.8665,11.0576 12.8665,10.8906 C12.8665,9.6976 13.8315,8.7266 15.0295,8.7266 C15.6525,8.7266 16.2155,8.9886 16.6105,9.4096 C17.0995,9.3166 17.5685,9.1356 17.9835,8.8876 C17.8235,9.3896 17.4815,9.8116 17.0325,10.0796 C17.4675,10.0326 17.8895,9.9126 18.2785,9.7446 C17.9835,10.1736 17.6155,10.5556 17.1935,10.8636 M13.0005,3.4996 C7.8545,3.4996 3.6825,7.6716 3.6825,12.8176 C3.6825,17.9626 7.8545,22.1346 13.0005,22.1346 C18.1465,22.1346 22.3175,17.9626 22.3175,12.8176 C22.3175,7.6716 18.1465,3.4996 13.0005,3.4996" id="Fill-1"></path>
        </g>
    </g>
</svg>