<?xml version="1.0" encoding="UTF-8" standalone="no"?>
<svg width="30px" height="30px" viewBox="0 0 30 30" version="1.1" xmlns="http://www.w3.org/2000/svg" xmlns:xlink="http://www.w3.org/1999/xlink">
    <!-- Generator: Sketch 41 (35326) - http://www.bohemiancoding.com/sketch -->
    <title>weblit-map</title>
    <desc>Created with Sketch.</desc>
    <defs></defs>
    <g id="All" stroke="none" stroke-width="1" fill="none" fill-rule="evenodd">
        <g id="weblit-map" fill="#000000">
            <path d="M26.5172523,11.5470085 L26.4388037,11.3125763 L26.360355,11.0781441 C25.8783124,9.63865803 25.1113956,8.31006843 24.1049556,7.17094017 L23.9382521,6.98534799 L23.8696096,6.91697192 L23.7715487,6.7997558 C22.7423904,5.68500054 21.4984509,4.78805794 20.1138792,4.16239316 L19.8883393,4.06471306 L19.6922176,3.97680098 C18.2983543,3.36015287 16.7945634,3.02801274 15.2696735,3 L14.7793693,3 C13.2577929,3.02931257 11.7574636,3.36142453 10.3666313,3.97680098 L10.1410914,4.07448107 L9.91555142,4.17216117 C8.53471158,4.80366886 7.29447567,5.70366596 6.26768802,6.81929182 L6.10098458,7.004884 L5.93428115,7.19047619 C4.92784108,8.32960445 4.16092431,9.65819405 3.67888173,11.0976801 L3.60043305,11.3321123 L3.52198438,11.5665446 C3.06729976,13.0116355 2.90726565,14.5326987 3.05129233,16.040293 L3.05129233,16.5286935 C3.24605004,18.0272216 3.73947873,19.4718707 4.50259282,20.7777778 L4.63007192,20.992674 L4.72813276,21.2075702 C5.50823335,22.5087377 6.54181746,23.6412657 7.76801893,24.5384615 L7.96414062,24.6849817 L8.16026231,24.8412698 C9.39754753,25.7168402 10.7977058,26.3378234 12.2788178,26.6678877 L12.5730003,26.7167277 L12.8083463,26.7655678 C13.5508166,26.9158553 14.3061226,26.9943638 15.0637457,27 C15.8213689,26.9943638 16.5766749,26.9158553 17.3191452,26.7655678 L17.4760425,26.7167277 L17.7211946,26.6678877 C19.2023066,26.3378234 20.6024649,25.7168402 21.8397501,24.8412698 L22.0358718,24.6947497 L22.2319935,24.5482295 C23.4775093,23.6498867 24.5281355,22.5103134 25.32091,21.1978022 L25.4483891,20.982906 L25.5758682,20.7680098 C26.3130829,19.4436144 26.7765459,17.9855551 26.938914,16.4798535 L26.938914,15.991453 C27.0948454,14.4967728 26.9515247,12.9861278 26.5172523,11.5470085 L26.5172523,11.5470085 Z M16.838647,21.7545788 C15.0452461,22.2414564 13.1307438,21.9916374 11.5237493,21.0610501 C10.5223311,20.5034524 9.68413522,19.6954446 9.09184033,18.7167277 L12.4062969,16.8119658 C12.9977346,17.6791262 13.981883,18.198272 15.0343275,18.198272 C16.086772,18.198272 17.0709203,17.6791262 17.6623581,16.8119658 L20.9768146,18.7167277 C20.0376938,20.2187769 18.5569941,21.3057665 16.838647,21.7545788 L16.838647,21.7545788 Z M8.25832315,13.2075702 C8.7360115,11.41987 9.91186108,9.89684902 11.5237493,8.97802198 C12.5046815,8.37476385 13.6271416,8.0379862 14.7793693,8.001221 L14.7793693,11.8693529 C13.7309571,11.9379399 12.7860198,12.5230639 12.2602943,13.429214 C11.7345689,14.3353642 11.6973766,15.4430571 12.1611448,16.3821734 L8.84668822,18.3357753 C7.99451126,16.7657567 7.78373558,14.9286304 8.25832315,13.2075702 L8.25832315,13.2075702 Z M15.0245214,17.7008547 C13.5351899,17.7008547 12.3278482,16.4982008 12.3278482,15.014652 C12.3278482,13.5311032 13.5351899,12.3284493 15.0245214,12.3284493 C16.5138529,12.3284493 17.7211946,13.5311032 17.7211946,15.014652 C17.7211946,16.4982008 16.5138529,17.7008547 15.0245214,17.7008547 L15.0245214,17.7008547 Z M21.2023546,18.2869353 L17.8878981,16.3333333 C18.3516662,15.3942171 18.3144739,14.2865242 17.7887485,13.380374 C17.263023,12.4742238 16.3180857,11.8890999 15.2696735,11.8205128 L15.2696735,8.04029304 C19.0382202,8.17688834 22.0232855,11.2582543 22.0260657,15.014652 C22.0419232,16.1582164 21.7580038,17.2861177 21.2023546,18.2869353 L21.2023546,18.2869353 Z M26.5074463,15.962149 L22.4869516,15.5030525 L22.4869516,14.97558 C22.4850936,14.2712074 22.3827405,13.5706731 22.182963,12.8949939 L26.0661725,11.6935287 C26.50007,13.0723509 26.6534235,14.5235525 26.5172523,15.962149 L26.5074463,15.962149 Z M25.9092751,11.2246642 L22.0554839,12.4749695 C21.7549021,11.6483753 21.3100585,10.8811887 20.7414686,10.2087912 L22.4477273,8.66544567 L23.7519365,7.5030525 C24.7131244,8.58778303 25.446643,9.85317153 25.9092751,11.2246642 L25.9092751,11.2246642 Z M19.9373697,4.62148962 C21.2594197,5.2189712 22.446788,6.07613856 23.4283358,7.14163614 L22.5065638,7.96214896 L20.4178678,9.84737485 C19.8043477,9.21581855 19.084061,8.69671288 18.2899475,8.31379731 L18.6135483,7.58119658 L19.9373697,4.62148962 Z M19.4862898,4.41636142 L18.1918867,7.34676435 L17.8388676,8.13797314 C17.0212508,7.80847391 16.1512874,7.6265571 15.2696735,7.6007326 L15.2696735,3.52747253 C16.7205549,3.54162896 18.1540396,3.84381645 19.4862898,4.41636142 L19.4862898,4.41636142 Z M14.7793693,3.51770452 L14.7793693,7.57142857 C13.8943075,7.58645937 13.0197711,7.76532478 12.2003691,8.0989011 L10.562753,4.41636142 C11.8950032,3.84381645 13.3284879,3.54162896 14.7793693,3.52747253 L14.7793693,3.51770452 Z M10.1116731,4.62148962 L11.7590953,8.31379731 C11.5923919,8.39194139 11.4354945,8.46031746 11.2785972,8.54822955 C10.671757,8.89935728 10.1172377,9.33335933 9.63117497,9.83760684 L6.62070705,7.14163614 C7.60438888,6.07852752 8.79123793,5.22173503 10.1116731,4.62148962 L10.1116731,4.62148962 Z M6.29710627,7.55189255 L9.30757419,10.2087912 C8.73430331,10.8796003 8.28598321,11.6470553 7.98375279,12.4749695 L4.1397677,11.2246642 C4.60239983,9.85317153 5.33591843,8.58778303 6.29710627,7.5030525 L6.29710627,7.55189255 Z M3.98287035,11.6935287 L7.83666152,12.9438339 L7.83666152,13.0903541 C7.61021683,13.8737174 7.51415221,14.688746 7.55228507,15.5030525 L3.53179046,15.9230769 C3.40086323,14.4973928 3.55416171,13.0599904 3.98287035,11.6935287 L3.98287035,11.6935287 Z M3.59062697,16.4798535 L7.6013155,16.0598291 C7.72552265,16.9321756 8.00443264,17.7755792 8.42502659,18.5506716 L4.91444837,20.5335775 C4.20751328,19.2832234 3.75749637,17.9052095 3.59062697,16.4798535 L3.59062697,16.4798535 Z M5.16940656,20.992674 L8.65056653,18.9413919 C9.10886722,19.6954688 9.70410607,20.3579578 10.4058556,20.8949939 L8.05239538,24.1575092 C6.8838191,23.2957464 5.90023286,22.2096993 5.15960048,20.96337 L5.16940656,20.992674 Z M10.8275173,21.2075702 C10.9746085,21.3052503 11.1216998,21.4126984 11.2785972,21.5006105 C11.8921216,21.8518095 12.5523874,22.1148903 13.239814,22.2820513 L12.3964908,26.1892552 C10.9855257,25.8713707 9.65216054,25.2770066 8.47405701,24.4407814 L10.8275173,21.2075702 Z M12.8671828,26.2478632 L13.7105061,22.3406593 C14.1405906,22.4215084 14.5770545,22.4640046 15.0147153,22.4676435 C15.4588877,22.4643373 15.9018929,22.4218431 16.3385367,22.3406593 L17.18186,26.2478632 C15.757756,26.5317846 14.2912868,26.5317846 12.8671828,26.2478632 L12.8671828,26.2478632 Z M17.6623581,26.1501832 L16.8190349,22.2429792 L16.9661261,22.2429792 C17.7739346,22.0262477 18.5395955,21.6762697 19.2313316,21.2075702 L21.6044041,24.4603175 C20.418861,25.2919802 19.0787058,25.8797575 17.6623581,26.1892552 L17.6623581,26.1501832 Z M21.9966474,24.1184371 L19.623575,20.8656899 C20.3202476,20.3232253 20.9145862,19.6617381 21.3788641,18.9120879 L24.8796362,20.9242979 C24.145904,22.1836233 23.1654806,23.2831475 21.9966474,24.1575092 L21.9966474,24.1184371 Z M25.1247884,20.5042735 L21.6142101,18.4920635 C22.0416419,17.7199232 22.3209745,16.8752416 22.4379212,16.001221 L26.4584158,16.4798535 C26.2915464,17.9052095 25.8415295,19.2832234 25.1345944,20.5335775 L25.1247884,20.5042735 Z" id="Shape"></path>
        </g>
    </g>
</svg>